<svg xmlns="http://www.w3.org/2000/svg" viewBox="0 0 41.96 41.96"><defs><style>.cls-1{fill:#00003d;}.cls-2{fill:#fff;}</style></defs><title>21-symbol</title><g id="Layer_2" data-name="Layer 2"><g id="Layer_1-2" data-name="Layer 1"><rect class="cls-1" width="41.96" height="41.96" rx="20.98" ry="20.98"/><path class="cls-2" d="M17.26,23.53h5.13v2.23H12v-1.9c3.38-2.51,7.29-4.61,7.29-7.75a2.25,2.25,0,0,0-2.4-2.4c-1.39,0-2.32.78-2.32,1.95a1.88,1.88,0,0,0,.09.54L12,16.65a2.81,2.81,0,0,1-.17-1.13c0-2.49,2-4.2,5.06-4.2S22,13.2,22,16s-2.47,5.17-4.91,6.86a7.77,7.77,0,0,1-1.06.63l0,.09A9.11,9.11,0,0,1,17.26,23.53Z"/><path class="cls-2" d="M27.35,14.29l-3.66,1V12.75l5.93-1.28H30V25.76H27.35Z"/><rect class="cls-2" x="11.93" y="28.79" width="18.07" height="2.56"/></g></g></svg>