<svg xmlns="http://www.w3.org/2000/svg" viewBox="0 0 481.63 764.14"><defs><style>.cls-1{fill:#fae5ef;}.cls-2{fill:#ccc;}.cls-3{fill:#4d4d4d;}.cls-4{fill:#666;}.cls-5{fill:gray;}.cls-6{fill:#c06;}.cls-7{fill:#e6e6e6;}.cls-8{fill:#f0b2d1;}</style></defs><title>adnnew</title><g id="Capa_2" data-name="Capa 2"><g id="Layer_1" data-name="Layer 1"><path class="cls-1" d="M76.3,25.07a2.94,2.94,0,0,1,.26,1.6A4.38,4.38,0,0,1,72,30.61a5.23,5.23,0,0,1-3.32-1.12,1.77,1.77,0,0,1-.7-1.9A6.72,6.72,0,0,1,70,23.91,4,4,0,0,1,76.3,25.07Z" transform="translate(-0.25 -0.25)"/><path class="cls-2" d="M57.46,52.14a4.28,4.28,0,0,1,.07,4.32,36.88,36.88,0,0,1-7.28,10.05c-.68.65-1.41,1.24-2.25,2a2.51,2.51,0,0,0,.07.76c.27.83.74,1.1,1.28.78l-.05,1.11h-.13c-.35.78.41,1.45-.36,2.5a9.92,9.92,0,0,0-3.07-5A12.13,12.13,0,0,1,47.6,64.9c1.38-2.16,2.8-4.29,4.11-6.49a3,3,0,0,0-.53-3.93c-.27-.29-.59-.53-.89-.8A23.87,23.87,0,0,1,45,46.33a3.25,3.25,0,0,1-.13-3c.58-1.18.9-2.6,2.46-3a2.54,2.54,0,0,1,.61.45,42.82,42.82,0,0,0,3.95,4.13A35.68,35.68,0,0,1,57.46,52.14Z" transform="translate(-0.25 -0.25)"/><path class="cls-2" d="M418.51,413.89c.46-.37.89-.78,1.33-1.18-.71,2.13-1.11,2.76-2.34,3.78C417.49,414.72,417.5,414.72,418.51,413.89Z" transform="translate(-0.25 -0.25)"/><path class="cls-2" d="M399,445.14l.38.39a51.21,51.21,0,0,1-6.2,8.37c-.1,0-.19,0-.23-.1a.24.24,0,0,1,0-.2,40,40,0,0,1,4.61-7C398.05,446.12,398.55,445.64,399,445.14Z" transform="translate(-0.25 -0.25)"/><path class="cls-2" d="M378.73,475.38c.76,0,.85.47.58.95a26.61,26.61,0,0,1-1.5,2.44c-2.43,3.53-4.86,7.07-7.33,10.58-.52.74-.89,1.66-1.86,2a5.19,5.19,0,0,1,.44-1.24c1.37-2,2.81-4,4.16-6.11,1.71-2.59,3.34-5.22,5-7.84Z" transform="translate(-0.25 -0.25)"/><path class="cls-1" d="M428.82,381.26c1.78,3.52.49,10.66-4.68,12.92-1.1.48-2.19,1-3.32,1.54-.13-.48-.29-1-.45-1.45a6.08,6.08,0,0,1-.27-1.58c.12-.59.25-1.19.36-1.79a2.78,2.78,0,0,1,.53-1.31,3.44,3.44,0,0,0,.69-2.67,11.54,11.54,0,0,1,.46-3.3c.61-2.13,1.79-3,4-3.08.63,0,1.26-.09,2.11-.15A9.89,9.89,0,0,1,428.82,381.26Z" transform="translate(-0.25 -0.25)"/><path class="cls-2" d="M426.71,355.37A6.94,6.94,0,0,1,427,357c-.26,2.06-.56,4.11-.87,6.16-.25,1.74-.53,3.47-.81,5.2s-.6,3.62-.92,5.42a4.69,4.69,0,0,1-.44.91,9.43,9.43,0,0,1-.29-1.59,21,21,0,0,1,.26-4.05c.8-3.52,1.22-7.08,1.77-10.63A5.92,5.92,0,0,1,426.71,355.37Z" transform="translate(-0.25 -0.25)"/><path class="cls-2" d="M420,396.69s0,0,0,0c-.22,1-.43,2-.64,3-.45,2.19-.94,4.37-1.3,6.58a109.5,109.5,0,0,1-3.26,13c-.5,1.68-.95,3.38-1.49,5.06-.45,1.4-.49,1.39-1.8,2.55a4.1,4.1,0,0,1,0-1c1.42-5.32,2.32-10.78,4.24-16,.66-1.79,1-3.69,1.53-5.55.81-3.09,1.62-6.19,2.33-9.32A7,7,0,0,1,420,396.69Z" transform="translate(-0.25 -0.25)"/><path class="cls-2" d="M435,388.75c.32.49,0,.93-.16,1.35a39.05,39.05,0,0,1-4.52,8.93,83.56,83.56,0,0,1-6.08,8.29c-1,1.12-1.74,2.48-2.66,3.69-.45.59-.82,1.31-1.63,1.54a13.07,13.07,0,0,1,.85-1.86c.93-1.48,1.89-3,2.92-4.38a77.53,77.53,0,0,0,6-9.74,10.83,10.83,0,0,1,1-1.63,42.78,42.78,0,0,0,3.82-6.05C434.66,388.8,434.87,388.8,435,388.75Z" transform="translate(-0.25 -0.25)"/><path class="cls-2" d="M363.71,498.93a6.33,6.33,0,0,1,1-1.06c-1,2-2,4-3.05,6-1.67,2.91-3.48,5.74-5.19,8.63-3.06,5.15-6.08,10.32-9.12,15.48q-2.13,3.6-4.29,7.19a8.73,8.73,0,0,1-.86,1,1.16,1.16,0,0,1-.83-1.59,4.73,4.73,0,0,1,.78-1.47,17.2,17.2,0,0,0,2.34-3.88,6.51,6.51,0,0,1,.76-1.22c1.84-2.7,3.71-5.39,5.54-8.11q2.46-3.67,4.84-7.41c1.15-1.82,2.22-3.7,3.32-5.55C360.5,504.26,362.09,501.58,363.71,498.93Z" transform="translate(-0.25 -0.25)"/><path class="cls-2" d="M404.7,456.27c.15-.51.29-1.07.95-1.17a42.24,42.24,0,0,1-1.44,8.43c-.38,1.3-.55,2.66-.83,4q-1.38,6.57-2.77,13.13-2.12,10.08-4.24,20.17c-.39,1.88-.79,3.75-1.18,5.63a17.39,17.39,0,0,0-.41,2.36c-.28,4.24-1.26,8.37-1.85,12.57-.29,2.13-.6,4.27-.88,6.41A89.84,89.84,0,0,1,388.89,543c.26,1.82-1.42,2.53-2.2,3.75-.17.27-.68.32-1,.47a3.15,3.15,0,0,1-.53-2.8c.83-4,1.61-8,2.45-12,.89-4.22,1.88-8.42,2.73-12.64.73-3.6,1.26-7.24,2-10.84,1.47-7.28,2.78-14.6,4.62-21.8,1.69-6.58,3.13-13.22,4.76-19.81C402.6,463.64,403.68,460,404.7,456.27Z" transform="translate(-0.25 -0.25)"/><path class="cls-2" d="M246,518c0,5.27.15,10.55.16,15.82,0,1.81-.34,3.61-.52,5.85-.51-.56-.73-.74-.88-1a25.82,25.82,0,0,1-2.94-6.54A19.48,19.48,0,0,0,241,530c-1.27-3-2.42-6.08-3.58-9.15-1.3-3.43-2.89-6.75-4.35-10.13a9.37,9.37,0,0,1-1.13-3.71,10.15,10.15,0,0,1,1.18-.23c1.36-.09,2.73,0,4.06-.25a2.19,2.19,0,0,1,2.38,1.15c1.63,2.26,3.31,4.5,5,6.7A5.73,5.73,0,0,1,246,518Z" transform="translate(-0.25 -0.25)"/><path class="cls-2" d="M328.38,567.45c-.19.89-.88,1-1.47,1.17-5.22,1.5-10.18,3.74-15.33,5.46a1,1,0,0,0-.22.08,16.47,16.47,0,0,1-8.11,1.58c-3.09-.15-6.21.08-9.31.12a9.37,9.37,0,0,1-1.5-.22,3.9,3.9,0,0,1-.11-1c.64-2.71,1.3-5.42,2-8.17,2.49-.61,4.93-1.28,7.41-1.79a86.86,86.86,0,0,1,8.73-1.46,23.23,23.23,0,0,1,5.22.48c1.17.16,2.33.48,3.5.74.46.11.92.24,1.38.37,1.15.31,2.29.65,3.45.94A13.67,13.67,0,0,1,328.38,567.45Z" transform="translate(-0.25 -0.25)"/><path class="cls-3" d="M302.11,458.43a7.36,7.36,0,0,1,.14,1.1q-.27,6.23-.57,12.44c-.07,1.43-.3,2.86-.31,4.29,0,6.95,0,13.9-.06,20.85a5.92,5.92,0,0,1-.39,3.05,13.48,13.48,0,0,1-4.18,1c-2.37.3-4.76.56-7.12.92-1.57.25-3.12.63-4.67,1-.62.14-1.22.41-1.84.51a66.63,66.63,0,0,0-8.14,2c-1.92.55-3.9.88-5.83,1.39-6.64,1.73-13.23,3.66-19.68,6.05-.37.14-.75.28-1.13.39a2.42,2.42,0,0,1-3-.86c-1.28-1.73-2.66-3.39-4-5.1a15.06,15.06,0,0,1-1-1.75c1-.68,1.87-1.27,2.74-1.81,4.51-2.73,9-5.44,13.75-7.8a12.65,12.65,0,0,0,1.86-1.07,37.48,37.48,0,0,1,7.86-4.05c2.79-1.2,5.55-2.45,8.31-3.7,1.31-.59,2.57-1.31,3.91-1.81a11,11,0,0,1,3.25-.7,38.49,38.49,0,0,1,8.84.38c.77.15,1.56.17,2.42.26a1.36,1.36,0,0,0-.85-1.78,22.67,22.67,0,0,0-2.47-.9c-.44-.16-.88-.3-1.45-.48a12.93,12.93,0,0,1,.56-1.41q6.16-11.09,12.35-22.16C301.57,458.53,301.8,458.53,302.11,458.43Z" transform="translate(-0.25 -0.25)"/><path class="cls-3" d="M344.14,445.92c-1.61,5-3.22,9.88-4.8,14.81-.42,1.29-.78,2.6-1.15,3.91-1,3.46-2.24,6.82-3.53,10.18a55,55,0,0,0-2.88,8.63c-.85,4.34-2.59,8.39-3.61,12.66-.51,2.17-1.37,4.25-2,6.39-1.23,4-2.42,7.95-3.63,11.92-.84,2.75-1.71,5.49-2.53,8.24s-1.44,5.25-2.3,7.82c-2.28,6.75-3.56,13.77-5.58,20.58-.7,2.38-1.34,4.78-2.07,7.14a3.68,3.68,0,0,1-2.49,2.69l-10.59,3c-.45.12-.92.19-1.55.31-.09-.53-.33-1-.2-1.38.89-2.36.88-4.85,1.16-7.3.38-3.41,1-6.8,1.42-10.21.75-5.86,1.43-11.74,2.19-17.6.28-2.13.69-4.25,1-6.38.17-1.1.35-2.21.5-3.32.26-2,.51-4,.73-5.94a15.31,15.31,0,0,0,.17-2.86,42.94,42.94,0,0,1,.11-6.71c.11-1.91.2-3.83.22-5.74q.11-9.48.15-18.95a14.6,14.6,0,0,1,.44-4.73,9.11,9.11,0,0,0,.06-3.09,23.15,23.15,0,0,1,.39-5.25,46,46,0,0,0,.5-5c.18-2.31.2-4.64.49-6.93a75.08,75.08,0,0,1,4.64-18.55,68.45,68.45,0,0,1,3.19-7.74,31,31,0,0,1,8.19-9.89,1.82,1.82,0,0,1,.57-.16,9.94,9.94,0,0,1,1,3.08c1,3.38,1.91,6.76,4.1,9.62a6.38,6.38,0,0,1,.89,1.42,26.71,26.71,0,0,0,4.74,6.88c.68.79,1.42,1.52,2.09,2.32a16.4,16.4,0,0,0,7,4.49A8.8,8.8,0,0,1,344.14,445.92Z" transform="translate(-0.25 -0.25)"/><path class="cls-4" d="M152.68,291.2l-.13,1.18a6.38,6.38,0,0,0-6.12,2.76,3.42,3.42,0,0,1-.52.4,16.16,16.16,0,0,1-1.62-.68,21.51,21.51,0,0,0-5.26-2.25,7,7,0,0,1-4.08-2.78,3.85,3.85,0,0,1-.6-1.28,1.35,1.35,0,0,1,1.38-1.77,9.65,9.65,0,0,1,2.14.27,20.75,20.75,0,0,1,2.53.72,16.63,16.63,0,0,0,6.81,1.08,5.26,5.26,0,0,1,4.7,1.88,1.21,1.21,0,0,0,.56.43Z" transform="translate(-0.25 -0.25)"/><path class="cls-4" d="M158.86,286.2a18.86,18.86,0,0,1-1.61,1.8,16,16,0,0,1-1.87,1.24c.12,1.24.24,2.46.37,3.83-.72-.16-1.34-.26-1.94-.43a8.56,8.56,0,0,0-1.26-.26l.13-1.18a.88.88,0,0,0,.63-.1.92.92,0,0,0,.19-.85,5.12,5.12,0,0,0-3.27-2.93,15.22,15.22,0,0,0-2.61-.29c-1-.06-2.08,0-3.11-.07a6.69,6.69,0,0,1-3.39-.95,4.22,4.22,0,0,1-.18-3.49,1.32,1.32,0,0,1,1.48-.95,15.86,15.86,0,0,1,2.32.53c1.69.44,3.37,1,5.08,1.33a11.57,11.57,0,0,0,3.57.13A5,5,0,0,1,158.86,286.2Z" transform="translate(-0.25 -0.25)"/><path class="cls-2" d="M175.51,294.54a10,10,0,0,1-.24,4.24c-1.36-.5-2.61-1-3.87-1.42-1.05-.36-2.13-.66-3.19-1-1.22-.37-2.43-.77-3.66-1.1s-2.48-.59-3.72-.9a2,2,0,0,1-1.67-1.17c-.19-.44-.78-.73-1.2-1.06s-.86-.63-1.42-1c1.16-1,2.06-1.82,2.92-2.64a1.74,1.74,0,0,1,2.17-.26c2.26,1,4.57,1.89,6.85,2.83A55.45,55.45,0,0,1,175.51,294.54Z" transform="translate(-0.25 -0.25)"/><path class="cls-2" d="M216.74,259.16a120.07,120.07,0,0,1-.52,13.4,17.41,17.41,0,0,0-.17,1.9c.09,3.47-.71,6.83-1.33,10.2a4.48,4.48,0,0,0-.12.46c-.33,5.52-2.79,10.45-4.29,15.64-.16.53-.42,1-.57,1.58-1,3.9-3.31,7-5.89,10A5,5,0,0,1,199,314.3a17.66,17.66,0,0,1-5.38-1.88c-.25-.7.23-1.21.52-1.75,1.36-2.54,2.78-5,4.08-7.6a48.19,48.19,0,0,0,2.6-7.19,129.88,129.88,0,0,0,3-13.32,4.38,4.38,0,0,0,0-2.75c-.37.21-.84.32-.95.58a12.81,12.81,0,0,0-.67,2.29c-.6,2.89-1.11,5.81-1.76,8.69a62.11,62.11,0,0,1-4.66,13.32,50,50,0,0,1-5.93,9.27,12.06,12.06,0,0,1-4.55,3.45,9.14,9.14,0,0,1-7-.08,37.8,37.8,0,0,1-7.81-4.16c-2.39-1.59-4.88-3-7.3-4.58-1.42-.9-2.8-1.85-4.17-2.81-2.87-2-5.72-4.08-8.59-6.12a7.07,7.07,0,0,1-2.45-2.5,10.57,10.57,0,0,1,3.1-2.61,3.06,3.06,0,0,1,2.11,0l5.55,1.51c4.85,1.32,9.69,2.7,14.44,4.37.74.26,1.53.37,2.26.64,1.29.48,1.81.32,1.93-1.06a35.49,35.49,0,0,0,.07-5.74c-.34-4.3-.89-8.58-1.25-12.87a24.26,24.26,0,0,1,.51-8.57,70.6,70.6,0,0,1,2.68-8.19,16.07,16.07,0,0,1,5.85-7.17,10.75,10.75,0,0,1,4.27,1.43,35.92,35.92,0,0,0,9,3.25A10,10,0,0,0,206,261c.48-.28,1-.53,1.48-.78a22.93,22.93,0,0,0,6-4.31,8.89,8.89,0,0,1,2.48-2A20.19,20.19,0,0,1,216.74,259.16Z" transform="translate(-0.25 -0.25)"/><path class="cls-5" d="M179.24,193.38a2.71,2.71,0,0,1-1,2.17,7.51,7.51,0,0,1-1.38-.31c-2.8-1.25-5.87-1.51-8.77-2.41-2.13-.65-4.28-1.28-6.43-1.86s-4-1.17-6-1.52c-2.29-.38-4.6-.69-6.91-.95l.08-.68a.67.67,0,0,0,.46-.16,4.74,4.74,0,0,0,.79-1.19,22.12,22.12,0,0,1,5.1-6.9c2.66-2.65,5.47-5.14,8.21-7.7a9,9,0,0,1,5.33-2.5c.78-.08,1.56-.27,2.34-.41.47.55,0,.91-.24,1.26-1.11,1.65-2.26,3.29-3.39,4.93-.18.26-.33.54-.5.81a3.6,3.6,0,0,0-.29,3.65c.43.95.82,1.91,1.26,2.86a16,16,0,0,1,1.1,2.89,6.66,6.66,0,0,0,2.41,3.5,17.42,17.42,0,0,0,5.58,3.62C177.66,192.82,178.42,193.06,179.24,193.38Z" transform="translate(-0.25 -0.25)"/><path class="cls-5" d="M171.74,215.38a2.73,2.73,0,0,1,.61,2c-.17,1.75-.36,3.5-.52,5.25-.11,1.11-.16,2.22-.27,3.33a20.73,20.73,0,0,1-.34,2.85c-1.06,4.34-2.18,8.66-3.27,13a2.5,2.5,0,0,1-1.83,2.13c-.57-.24-1.22-.52-1.88-.78a2.38,2.38,0,0,0-2.68.4c-.88.81-1.8,1.57-2.64,2.42-1.73,1.77-3.25,1.69-4.74-.35-1.23-1.68-2.47-3.35-3.61-5.08a5.39,5.39,0,0,0-4.25-2.76,7.52,7.52,0,0,1-5.26-2.94,16.94,16.94,0,0,0-2.12-1.94,2.93,2.93,0,0,1-1.18-2.26,17.7,17.7,0,0,1,.16-3.57c1-5.41,2.15-10.81,3.23-16.21.63-3.12,1.23-6.25,1.85-9.38.13-.61.34-1.2.58-2.06a19.5,19.5,0,0,1,2.12.43c3.42,1.11,6.93,2,10.21,3.45A38.87,38.87,0,0,1,171.74,215.38Z" transform="translate(-0.25 -0.25)"/><path class="cls-6" d="M420.86,351.07a6,6,0,0,1-.66,4.4c-.48.83-.91,1.69-1.39,2.52a3.87,3.87,0,0,1-3,2.14c-2.24-1.38-3.52-3.61-4.92-5.74-.05-1.42-.89-2.54-1.52-3.72-1.16-2.19-2.27-2.74-4.7-2.2a32.49,32.49,0,0,1-7.35.9,4.68,4.68,0,0,1-2.77-.54,1.69,1.69,0,0,0-.43-.2,3.79,3.79,0,0,0-5.22,3.49c-.06,2.26-.1,2.6-2.42,3.51-1.86.72-3.66,1.6-5.49,2.39-.42.18-.87.29-1.39.47-1.17-1.93-1.06-3.9-.8-5.87.14-1,.49-2,.64-3a4.62,4.62,0,0,1,1.74-3,67.8,67.8,0,0,1,11-7.66,13.2,13.2,0,0,0,1.8-1.17,8.55,8.55,0,0,1,5.62-1.6,16.21,16.21,0,0,0,4.47-.64,8.61,8.61,0,0,1,6.83,1.22,17.67,17.67,0,0,1,5.15,4.93,40.36,40.36,0,0,1,3.26,4.71A19.45,19.45,0,0,1,420.86,351.07Z" transform="translate(-0.25 -0.25)"/><path class="cls-1" d="M421.65,374.44a9.41,9.41,0,0,1,.15,1.61,9.51,9.51,0,0,1-.51,2.32c-.37.89-.92,1.69-.55,2.72a.72.72,0,0,1-.09.46,32.17,32.17,0,0,0-1.32,7.29,72.86,72.86,0,0,1-2.1,9.34c-.47,1.77-1,3.54-1.38,5.33l-.24,1-1-.24a.87.87,0,0,0-.39-.87.79.79,0,0,0-1.06.21c-.28.28-.51.61-.8.89-.79.79-1.58,1.58-2.42,2.32s-2,1.34-2.26,2.67c0,.27-.37.53-.62.7-2.4,1.63-4.19,3.93-6.32,5.85-1.07.95-2.13,1.93-3.22,2.86a8.05,8.05,0,0,1-1.77,1.21,3.75,3.75,0,0,1-4.05-.22,34.26,34.26,0,0,0-7.13-3.91,24.27,24.27,0,0,1-3.41-1.73c-1.93-1.11-3.83-2.27-6.06-3.58,0-.47,0-1,0-1.57a74.58,74.58,0,0,0-.18-12.68,6.41,6.41,0,0,1,.48-3.51c.6-1.37,1.17-2.76,1.82-4.32a7,7,0,0,1,1.08.74c1.28,1.33,2.52,2.68,3.78,4,1.91,2,3.86,4,5.75,6.09a12.69,12.69,0,0,1,2.93,4.61,1.25,1.25,0,0,0,2.11.56A67.84,67.84,0,0,1,403.9,398a52.81,52.81,0,0,0,5.6-3.67,22.45,22.45,0,0,1,2.62-1.64,9,9,0,0,0,3.55-2.77,5.22,5.22,0,0,1,.77-.91,2.78,2.78,0,0,0,1-3.21,5.5,5.5,0,0,1,.17-3.31,26.49,26.49,0,0,1,3.18-7.2A8.48,8.48,0,0,1,421.65,374.44Z" transform="translate(-0.25 -0.25)"/><path class="cls-1" d="M416.71,430.1a6.78,6.78,0,0,1-1.07,6.37,12.29,12.29,0,0,1-5.79,4.46,14.63,14.63,0,0,1-4.24.6c-1.75.08-3.51.16-5.26.22-1.26.05-2.53.31-3.72-.49A3.66,3.66,0,0,0,395,441c-4.45-.45-8.92-.72-13.34-1.37a81.26,81.26,0,0,1-12.43-2.52c-1.6-.5-3.26-.78-4.89-1.2s-1.5-.41-1.61-1.89a64.35,64.35,0,0,0-3.09-14.26c-.33-1.07-.61-2.15-.93-3.22-.44-1.54-.84-3.09-1.36-4.59a68.16,68.16,0,0,1-2.87-10.63c-.73-4.2-.82-8.43,1-12.48a14.34,14.34,0,0,1,3-4.56c2.59-2.52,4.84-2.33,7.16-.94a11.9,11.9,0,0,1,4.92,5.7c.22.51.31,1.09.57,1.58,2.07,3.87,2.3,8.05,2.31,12.33,0,5-.34,9.9-.82,14.83-.16,1.66-.5,3.31-.77,5-.07.39-.2.77-.24,1.16-.05.57.48,1.21,1,1.09,1.93-.44,3.6.47,5.34.95,1.39.38,2.75.84,4.13,1.23a36.35,36.35,0,0,1,6.21,2.51c1.8.88,3.62,1.7,5.45,2.5a5.53,5.53,0,0,0,6.08-.66,38.85,38.85,0,0,1,3.79-2.51,7,7,0,0,1,3.93-1.26c-.44.76-.85,1.42-1.21,2.1a1.17,1.17,0,0,0,.91,1.78,3,3,0,0,0,1.61-.21,17.54,17.54,0,0,0,2.66-1.6c1-.69,1.86-1.48,2.81-2.25A3.38,3.38,0,0,1,416.71,430.1Z" transform="translate(-0.25 -0.25)"/><path class="cls-7" d="M375.87,380.75c1,.46,1.29.93,1,1.88a41.72,41.72,0,0,1-3.15,9.06c-.62-1.18-1.12-2-1.48-2.85a14.38,14.38,0,0,0-5.91-7,2.2,2.2,0,0,1-.88-.76,1.84,1.84,0,0,0-1.36-1.2,4.88,4.88,0,0,0-2.6,0,10.47,10.47,0,0,0-4.67,3.26,18.51,18.51,0,0,0-4.39,10.7,39.87,39.87,0,0,0,.56,8.37c.57,3.64,1.86,7.1,2.83,10.65.52,1.92,1.07,3.85,1.76,5.73a6.89,6.89,0,0,1-.89,6.37c-.68,1.09-1.42,2.14-2.05,3.25s-1.4,2.52-2,3.83a48.34,48.34,0,0,1-5.26,9.12,19.68,19.68,0,0,1-2.3,2.24,28.15,28.15,0,0,1-8.25-3.09l-.2-.14c-4.11-4-7.94-8.1-9.13-14-.6-3.05-1.62-6-2.41-9-.29-1.07-.47-2.18-.69-3.28a3.07,3.07,0,0,1,.7-2.67c1.59-2,3.11-4.05,4.64-6.1q3.73-5,7.45-10c1.84-2.51,3.53-5.14,5.48-7.56a142.51,142.51,0,0,1,14.91-15.58,45.11,45.11,0,0,1,3.79-2.94c.3-.23.81-.51,1.07-.4,1.14.49,2.55.55,3.28,1.77a9.85,9.85,0,0,1,.92,1.94c1.12,3.41,3.55,5.63,6.56,7.32C374.09,380,375,380.34,375.87,380.75Z" transform="translate(-0.25 -0.25)"/><path class="cls-1" d="M172.52,122c.56.39,1.14.76,2.17,1.45-3.91,1-7.31,1.56-10.86,2.21a3.7,3.7,0,0,1,1.69-2.83,11.3,11.3,0,0,1,1.82-1.13A4.64,4.64,0,0,1,172.52,122Z" transform="translate(-0.25 -0.25)"/><path class="cls-1" d="M110.6,176.57a4.81,4.81,0,0,1,1,5.9,17,17,0,0,0-.91,2.72,4,4,0,0,0,0,2.52c.35,1.06,0,2.34,0,4.07a10.6,10.6,0,0,1-1.09-.95,12.66,12.66,0,0,1-2.32-4.69,17.23,17.23,0,0,1,.15-8.53,3.39,3.39,0,0,1,.27-.66C108.57,175.29,109.34,175.24,110.6,176.57Z" transform="translate(-0.25 -0.25)"/><path class="cls-1" d="M412.63,360.32c1.26,1.83,1.22,2.44-.46,3.84a34.3,34.3,0,0,1-7.61,4.95c-1.81.84-3.68,1.55-5.52,2.32a9.92,9.92,0,0,0-1.51.71,12.37,12.37,0,0,1-4.73,1.61,7.26,7.26,0,0,1-5.31-.91c-1.89-1.17-4-2-5.61-3.64a1,1,0,0,0-.64-.27,1.16,1.16,0,0,0-.63.23.46.46,0,0,0-.11.43,7,7,0,0,0,1,1.56c.81.75,1.72,1.39,2.71,2.19-1.38,1.72-2.93,3.19-4.36,4.76a13.6,13.6,0,0,1-1.88,1.5c-1.75-1.06-3.42-2-5-3.08a4.91,4.91,0,0,1-1.48-1.83,17.3,17.3,0,0,1-2.08-7.81c0-.63-.08-1.26-.12-1.86a21.06,21.06,0,0,1,6.84-5.18,2.24,2.24,0,0,1,.52.41,1.8,1.8,0,0,0,2.33.64,5.56,5.56,0,0,0,1.09-.48,35.75,35.75,0,0,1,6.8-3l.9-.31a3.68,3.68,0,0,0,2.7-3.8,9.72,9.72,0,0,1,.07-1.43,2.51,2.51,0,0,1,1.83-2,1.36,1.36,0,0,1,1.53.45c.54.66,1,1.38,1.59,2.19a12.21,12.21,0,0,1,6.22-1.33,19,19,0,0,1,5,1.12l5.45,7.44C412.33,360,412.49,360.13,412.63,360.32Z" transform="translate(-0.25 -0.25)"/><path class="cls-1" d="M199.05,194.71a1.91,1.91,0,0,1-.11,1.38,12,12,0,0,1-5.51,5.8,3.59,3.59,0,0,1-3.65-.25c-2.42-1.4-4.88-2.71-7.33-4.06-.28-.15-.58-.28-.84-.45-1.07-.68-1.21-1.08-.91-2.41.07-.31.2-.6.31-.94a3.76,3.76,0,0,1,2.32-.38c3.1.31,6-.61,8.95-1.3a5.57,5.57,0,0,0,2.84-2.1,10.51,10.51,0,0,0,.83-1.23C197.56,190.52,198.14,192.71,199.05,194.71Z" transform="translate(-0.25 -0.25)"/><path class="cls-1" d="M194.24,184c.31,2.88-.67,4.76-3.38,5.91a9.13,9.13,0,0,1-2.54.59,52.27,52.27,0,0,1-5.72.35,17,17,0,0,1-5.2-.58c-2.85-.95-5.28-2.61-6.46-5.6-.23-.59-.6-1.12-.86-1.7-.56-1.23-1.11-2.47-1.61-3.72a2.74,2.74,0,0,1,.14-2.32,38.46,38.46,0,0,1,5-7.56,3.23,3.23,0,0,1,.7-.47,46.18,46.18,0,0,1,12.2,3.75,12.92,12.92,0,0,1,7,8.33A17.65,17.65,0,0,1,194.24,184Z" transform="translate(-0.25 -0.25)"/><path d="M481.28,569.75a160.26,160.26,0,0,1,.51,17.26c-.25,5.26-.33,10.55-1,15.78-.78,6.58.47,13.18-1.24,19.62a56.15,56.15,0,0,0-1.11,7.35c-.52,4-1,8.09-1.49,12.14-.2,1.58-.4,3.17-.66,4.75-.69,4.18-1.51,8.34-2.09,12.54-1.39,9.92-4,19.57-6.15,29.33-.56,2.58-6.4,16.91-7.07,19.46s-16.74,43.17-18.78,45c-9.09,8-28.24,9.92-30.71,10.12-.69.06-1.33.08-1.9.08,3.22-.37,5.59-.79,5.79-1.27s-4.33-.43-9.34-.2c9.82-.36,25.67-5.08,29.52-7.57a9.68,9.68,0,0,0,3.29-3.33c1.29-3.21,18.88-43.6,19.53-47,.54-2.82,6.26-17.43,7-20.2A163.6,163.6,0,0,0,470,664.7c1-6.56,2.3-13.06,3.55-19.57.84-4.41,1.28-8.87,1.82-13.31.25-2.14.59-4.28.78-6.43.52-5.65,1-11.31,1.45-17,.1-1.11.28-2.22.41-3.33a173.08,173.08,0,0,0,1-26.35c-.1-3.11,0-6.24-.14-9.35-.22-4.23-.58-8.46-.94-12.68-.53-6.38-1.57-12.69-2.44-19-.79-5.79-2.07-11.48-3.3-17.19-.67-3.12-1.23-6.28-2-9.37-1-3.79-2.17-7.53-3.27-11.29-.36-1.23-.67-2.47-1.08-3.68l1.22-.4c1.23,3.76,2.43,7.52,3.54,11.32,1.61,5.51,2.94,11.11,4.26,16.7,1.27,5.37,2.46,10.76,3.5,16.17.87,4.48,1.43,9,2.19,13.5.85,5-.21,10.07.68,15.11A11.72,11.72,0,0,1,481.28,569.75Z" transform="translate(-0.25 -0.25)"/><path class="cls-6" d="M478.94,578.75a173.08,173.08,0,0,1-1,26.35c-.13,1.11-.31,2.22-.41,3.33-.49,5.65-.93,11.31-1.45,17-.19,2.15-.53,4.29-.78,6.43-.54,4.44-1,8.9-1.82,13.31-1.25,6.51-2.53,13-3.55,19.57a163.6,163.6,0,0,1-4.5,18.89c-.78,2.77-6.5,17.38-7,20.2-.65,3.39-18.24,43.78-19.53,47a9.68,9.68,0,0,1-3.29,3.33c-3.85,2.49-19.7,7.21-29.52,7.57h-.25c-6.07.28-12.69.68-12.21.07,1.57-2,2.81-4,4.27-6,1.28-1.72,2.35-3.6,3.77-5.25a18.13,18.13,0,0,0,1.41-1.94c1.56-2.41,3.05-4.88,4.66-7.26,2.27-3.39,4.56-6.77,6.95-10.07,3.66-5.06,7-10.3,10.23-15.66,1.68-2.82,3.6-5.5,5.05-8.43,2-4,4.31-7.85,6.33-11.84,1.23-2.42,2.4-4.87,3.54-7.34,1.75-3.77,3.46-7.56,5.18-11.34.33-.73.67-1.45,1-2.19,1.59-3.93,3.2-7.85,4.75-11.79s3-7.76,4.46-11.64c.26-.66.58-1.29.79-1.79a2.64,2.64,0,0,1,.42-.19c.32,0,.63-.11.95-.13,2.49-.16,4.32-1.55,5.95-3.26a2.63,2.63,0,0,0,.38-2.93c-.34-.85-1.16-.69-1.87-.73s-1.59-.06-2.38-.11c-.37,0-.75-.09-1.23-.15a16.92,16.92,0,0,1,.26-1.77c1.29-5.44,2.6-10.88,3.88-16.33a7.77,7.77,0,0,0,.32-2.6,12.11,12.11,0,0,1,.28-3.56,133,133,0,0,0,2.18-16.39c.14-3.2.21-6.41.59-9.58.61-5.09.86-10.2,1-15.31.12-4,.25-8,.06-12-.38-7.75-1.42-15.44-2.57-23.12-.55-3.71-1.22-7.41-1.81-11.12a3.89,3.89,0,0,1,0-2.41l1-.95c1.68-1.55,1.74-2.64.19-4.23a2.41,2.41,0,0,0-1-.55,15.49,15.49,0,0,0-1.73-.26c-.22-.63-.48-1.21-.64-1.81-.55-2.09-1-4.21-1.61-6.27-1.6-5.2-3.28-10.37-4.95-15.54a38.83,38.83,0,0,0-1.36-3.84c-3.2-7.5-6.38-15-9.69-22.47a109.51,109.51,0,0,0-8.44-15.86c-1.54-2.34-3.08-4.68-4.5-7.09a142.54,142.54,0,0,0-9-13.9,11.42,11.42,0,0,1-2.27-4.87,5.66,5.66,0,0,0-2.94-4.18c-.19-.11-.31-.35-.45-.51a3.89,3.89,0,0,1,.92-3.17,24.38,24.38,0,0,0,3.5-5.13,18,18,0,0,1,1.12-1.48A29.22,29.22,0,0,1,427,422c2.54,4.18,5.71,7.89,8.51,11.88a16.53,16.53,0,0,0,1.1,1.26,11.91,11.91,0,0,1,1.06,1.31c1,1.55,2,3.11,2.89,4.69,2.15,3.65,4.33,7.28,6.38,11,1.63,2.93,3.15,5.93,4.62,8.95,1.65,3.37,3.2,6.8,4.76,10.21a89.22,89.22,0,0,1,5,12.2c.11.38.3.74.44,1.12,1.35,3.84,2.71,7.68,4,11.54.41,1.21.72,2.45,1.08,3.68,1.1,3.76,2.28,7.5,3.27,11.29.8,3.09,1.36,6.25,2,9.37,1.23,5.71,2.51,11.4,3.3,17.19.87,6.34,1.91,12.65,2.44,19,.36,4.22.72,8.45.94,12.68C479,572.51,478.84,575.64,478.94,578.75Z" transform="translate(-0.25 -0.25)"/><path d="M467,495.76l-1.22.4c-1.33-3.86-2.69-7.7-4-11.54-.14-.38-.33-.74-.44-1.12a89.22,89.22,0,0,0-5-12.2c-1.56-3.41-3.11-6.84-4.76-10.21-1.47-3-3-6-4.62-8.95-2.05-3.71-4.23-7.34-6.38-11-.93-1.58-1.9-3.14-2.89-4.69a11.91,11.91,0,0,0-1.06-1.31,16.53,16.53,0,0,1-1.1-1.26c-2.8-4-6-7.7-8.51-11.88a29.22,29.22,0,0,0-6.39-6.6,18,18,0,0,0-1.12,1.48,24.38,24.38,0,0,1-3.5,5.13,3.89,3.89,0,0,0-.92,3.17c.14.16.26.4.45.51a5.66,5.66,0,0,1,2.94,4.18,11.42,11.42,0,0,0,2.27,4.87,142.54,142.54,0,0,1,9,13.9c1.42,2.41,3,4.75,4.5,7.09a109.51,109.51,0,0,1,8.44,15.86c3.31,7.45,6.49,15,9.69,22.47a38.83,38.83,0,0,1,1.36,3.84c1.67,5.17,3.35,10.34,4.95,15.54.63,2.06,1.06,4.18,1.61,6.27.16.6.42,1.18.64,1.81a15.49,15.49,0,0,1,1.73.26,2.41,2.41,0,0,1,1,.55c1.55,1.59,1.49,2.68-.19,4.23l-1,.95a3.89,3.89,0,0,0,0,2.41c.59,3.71,1.26,7.41,1.81,11.12,1.15,7.68,2.19,15.37,2.57,23.12.19,4,.06,8-.06,12-.15,5.11-.4,10.22-1,15.31-.38,3.17-.45,6.38-.59,9.58A133,133,0,0,1,463,617.45a12.11,12.11,0,0,0-.28,3.56,7.77,7.77,0,0,1-.32,2.6c-1.28,5.45-2.59,10.89-3.88,16.33a16.92,16.92,0,0,0-.26,1.77c.48.06.86.13,1.23.15.79,0,1.59.07,2.38.11s1.53-.12,1.87.73a2.63,2.63,0,0,1-.38,2.93c-1.63,1.71-3.46,3.1-5.95,3.26-.32,0-.63.08-.95.13a2.64,2.64,0,0,0-.42.19c-.21.5-.53,1.13-.79,1.79-1.49,3.88-2.94,7.77-4.46,11.64s-3.16,7.86-4.75,11.79c-.3.74-.64,1.46-1,2.19-1.72,3.78-3.43,7.57-5.18,11.34-1.14,2.47-2.31,4.92-3.54,7.34-2,4-4.34,7.82-6.33,11.84-1.45,2.93-3.37,5.61-5.05,8.43-3.19,5.36-6.57,10.6-10.23,15.66-2.39,3.3-4.68,6.68-6.95,10.07-1.61,2.38-3.1,4.85-4.66,7.26a18.13,18.13,0,0,1-1.41,1.94c-1.42,1.65-2.49,3.53-3.77,5.25-1.46,2-2.7,4-4.27,6-.48.61,6.14.21,12.21-.07-1.78.17-.62,1.46,3.73,1.45-7.23.8-18.69,1.27-19.69,1.24a.85.85,0,0,1-.81-1.31,18.5,18.5,0,0,1,1.4-2.23q3.82-5.22,7.68-10.43a14.34,14.34,0,0,0,1.17-1.81c.67-1.27,1.27-2.57,1.93-3.9a11.09,11.09,0,0,0-1-1.09c-3-2.43-6-4.84-8.92-7.28-1.73-1.42-3.45-2.86-5.12-4.34-4.61-4.09-9.23-8.16-13.78-12.31-7.09-6.47-14-13.16-20.7-20-2.57-2.62-5.34-5.05-8-7.57L331.82,681c-.58-.55-1.13-1.14-1.74-1.65-4.68-3.89-8.91-8.27-13.25-12.51-3.66-3.57-7.28-7.19-10.61-11.09-3.11-3.65-6.51-7.05-9.63-10.7-3.37-4-6.55-8.07-9.84-12.08-2.34-2.85-4.63-5.73-7.11-8.44a200.24,200.24,0,0,1-16-20.08c-3.53-5.06-6.65-10.36-9.91-15.57-2-3.12-3.69-6.35-5.82-9.37-1.93-2.73-3.48-5.74-5.2-8.61-.87-1.44-1.76-2.87-2.63-4.3-3.05-5-6.15-9.92-9.13-14.95-1.46-2.47-2.68-5.08-4-7.62-.37-.71-.81-1.37-1.2-2.07-1.55-2.8-3.06-5.62-4.66-8.38a6.54,6.54,0,0,0-2.14-2.78c-.66-.39-1-1.43-1.34-2.22-1.08-2.32-2.06-4.68-3.2-7a128.42,128.42,0,0,1-5.59-14.28,10.52,10.52,0,0,0-.61-1.56c-2.27-4-3.42-8.41-5-12.68s-2.76-8.68-4.23-13c-1.11-3.26-1.8-6.62-2.59-10-1.11-4.67-2.22-9.33-3.24-14-1.24-5.71-1.95-11.5-2.7-17.29a158,158,0,0,1-.92-16.27,82.36,82.36,0,0,1,.06-10.54c.35-3.44.22-6.87.31-10.31.08-2.86.51-5.72.79-8.59a27.62,27.62,0,0,0,.26-2.86,44.07,44.07,0,0,1,.85-7.86c.53-3.24,1-6.48,1.59-9.7.34-2,.82-3.92,1.16-5.89.45-2.6.81-5.21,1.22-7.81.75-4.74,1.24-9.51,2.61-14.14.77-2.6,1.25-5.29,1.82-7.95.41-1.87.77-3.76,1.14-5.64a11.27,11.27,0,0,0,.09-1.19,4.64,4.64,0,0,0-2.64-1.15c-4-.5-7.76-1.9-11.65-2.81a124.86,124.86,0,0,1-17.05-5.68c-.67-.27-1.33-.54-2-.86a114.6,114.6,0,0,1-19.6-12.46,46.13,46.13,0,0,1-9.52-10.4c-1.12-1.66-2-3.32-3.88-4.35a7,7,0,0,1-2-2.06,3.08,3.08,0,0,1-.19-3.6,3.81,3.81,0,0,1,.56-.73,3.23,3.23,0,0,1,2.67-.91c.86.07,1.73.17,2.53.25.42-1.54.87-3,1.17-4.45a2.53,2.53,0,0,0-.31-1.58c-3.33-6.15-5.35-12.82-7.78-19.33-.92-2.47-1.86-4.94-3-7.34a52.67,52.67,0,0,1-3-8.86c-.9-3.56-1.78-7.13-3-10.59A59.31,59.31,0,0,1,120.13,222c-.61-3.94-1.55-7.83-1.81-11.84a120.88,120.88,0,0,1,0-15.81A105.91,105.91,0,0,0,118.5,183a16.15,16.15,0,0,1,.17-2.6c0-.16.33-.37.52-.38a.68.68,0,0,1,.55.33,10.16,10.16,0,0,1,.43,1.38c.6-2.36.53-2.6-1.19-4a13.24,13.24,0,0,1-.13-5.21c.32-1.89.39-3.82.52-5.73.31-4.71.65-9.41.86-14.12.12-2.71,0-5.43,0-8.15a3.74,3.74,0,0,0-.19-.86c-2-.78-2-.78-3.84-.59a2.58,2.58,0,0,0-.21.86,27.74,27.74,0,0,1-.41,7.16c-.36,2.61-.67,5.23-1,7.84-.21,1.5-.57,3-.75,4.49-.31,2.54-.55,5.08-.8,7.63-.15,1.58-.27,3.17-.42,5,.15.2.45.58.73,1a4.37,4.37,0,0,1,.6,4.53,10.41,10.41,0,0,0-.71,4.68c.19,5.59.08,11.19-.06,16.78a56.56,56.56,0,0,0,.65,9.81c.25,1.73.25,3.5.43,5.25q.48,4.53,1.06,9c.41,3.25.87,6.5,1.35,9.74a34,34,0,0,0,.81,4c.62,2.23,1.32,4.44,2,6.65.49,1.52,1.07,3,1.52,4.55.81,2.75,1.63,5.51,2.31,8.3a86.22,86.22,0,0,0,6.24,16.33c.95,2,2.2,3.9,3.29,5.85.31.55.57,1.13.85,1.67-.45.45-.77.67-1,.67a.69.69,0,0,1-.52-.34,8,8,0,0,1-.75-1.22c-1.67-3.36-3.29-6.75-5-10.1A99.17,99.17,0,0,1,121,260.14a99.21,99.21,0,0,1-3.59-11.93,13.65,13.65,0,0,1-.34-1.64,34.84,34.84,0,0,0-1.69-7c-1-3.4-1.42-6.88-2-10.34-.31-1.73-.46-3.49-.65-5.24-.28-2.7-.63-5.4-.78-8.11-.17-3.27-.5-6.53-.88-9.78-.23-1.9-.2-3.83-.25-5.75,0-1.12,0-2.24,0-3.36,0-1.33-.1-2.57-1.42-3.32-2.5-3.87-4.78-7.8-4-12.7.15-1,.17-1.92.36-2.86.44-2.19,1.5-3.86,3.88-4.34.32-.07.62-.17,1.11-.3a10.86,10.86,0,0,0,.49-1.69c.17-1.35.26-2.71.37-4.06.25-3.27.48-6.54.74-9.81.14-1.67.37-3.34.48-5,.08-1.11.07-2.24,0-3.36a14.13,14.13,0,0,1,.64-5.44,8.64,8.64,0,0,0,.2-1.55,17.08,17.08,0,0,0-1.73-.75c-2.14-.64-4.3-1.23-6.44-1.87-3.52-1.06-7-2.2-10.55-3.21a59.42,59.42,0,0,1-10.51-4.64c-.5-.25-1-.61-1.47-.82-3.8-1.53-7.1-4-10.81-5.7a4.62,4.62,0,0,1-.84-.47c-2.76-2.07-5.92-3.45-8.93-5.1-2.09-1.16-4.09-2.5-6.07-3.85-3.1-2.12-6.13-4.35-9.24-6.47a38.7,38.7,0,0,1-6.55-5.22c-.71-.75-1.55-1.38-2.33-2.06-.43-.37-.89-.69-1.29-1.08-3.11-3-6.4-5.78-9.3-9-3.42-3.8-7-7.47-10.44-11.25-1.45-1.59-2.83-3.26-4.12-5-2-2.69-3.94-5.44-5.86-8.19-1.46-2.1-2.93-4.2-4.27-6.37A46,46,0,0,1,.64,57.05a1.69,1.69,0,0,1-.12-.4.91.91,0,0,1-.27-.71c.17-4.24,3.23-8.77,5.48-12.22,2.15-3.29,4.66-7.29,8.39-8.89a1,1,0,0,1,.64,0c.12-.06.42,0,.61.1a.77.77,0,0,1,.36.31,26.34,26.34,0,0,1,2.82,4.71,32.07,32.07,0,0,0,4.54,7.3c.08.11.28.13.57.26.46-.25,1-.57,1.57-.83,1.16-.53,2.31-1.11,3.51-1.53a7.2,7.2,0,0,1,6.61,1c.53.35,1.11.62,1.64.9,1.63-.86,1.72-1.08,1.37-2.56a19.42,19.42,0,0,1-.52-2.82,1.78,1.78,0,0,1,1.26-1.84,8.11,8.11,0,0,1,5.48-.14c.39-.28.86-.58,1.28-.94,2.19-1.86,4.34-3.78,6.57-5.61a45.37,45.37,0,0,1,7.63-5,4.61,4.61,0,0,1,3-.56c.77.13,1,.44,1.18,1.58-2.79-.42-4.95,1-7,2.47-2.42,1.69-4.74,3.54-7.06,5.37A26.38,26.38,0,0,0,48,39.06c1.07,1,1.68,2.14,2.92,2.85s1.78,2,3.16,2.7c2.15-1.83,4.27-3.64,6.41-5.42a2.71,2.71,0,0,0,.84-2.61c-.09-.8-.29-1.57-.4-2.36a2,2,0,0,1,.09-.95.76.76,0,0,1,.51-.41.78.78,0,0,1,.61.26,3.17,3.17,0,0,1,.46,1.09,23.64,23.64,0,0,1,.31,2.37c0,.32.06.64.11,1a19.56,19.56,0,0,0,3.16,8c.43.67.83,1.36,1.21,2.06a8.84,8.84,0,0,1,.4,1c-.22.41-.48.6-.74.6a.87.87,0,0,1-.52-.22,3.17,3.17,0,0,1-.73-.93c-1.14-2.11-2.26-4.23-3.39-6.34-.15-.27-.34-.52-.59-.89-1.57.32-2.24,1.75-3.34,2.59s-2,1.78-3,2.67a4.92,4.92,0,0,0,1.28,2.37c.79,1.11,1.61,2.19,2.42,3.28a4.45,4.45,0,0,1,.28,5.18c-.74,1.32-1.66,2.54-2.42,3.85a38.22,38.22,0,0,1-6.14,7.62c-.39.39-.68.89-1.05,1.31a2.14,2.14,0,0,1-.45.39c-.54.32-1,0-1.28-.78a2.51,2.51,0,0,1-.07-.76c.84-.73,1.57-1.32,2.25-2a36.88,36.88,0,0,0,7.28-10.05,4.28,4.28,0,0,0-.07-4.32,35.68,35.68,0,0,0-5.56-7.2A42.82,42.82,0,0,1,48,40.81a2.54,2.54,0,0,0-.61-.45c-1.56.37-1.88,1.79-2.46,3a3.25,3.25,0,0,0,.13,3,23.87,23.87,0,0,0,5.28,7.35c.3.27.62.51.89.8a3,3,0,0,1,.53,3.93C50.4,60.61,49,62.74,47.6,64.9a12.13,12.13,0,0,0-1.86,3.74,9.92,9.92,0,0,1,3.07,5c.77-1.05,0-1.72.36-2.5h.13a2.32,2.32,0,0,1,.87.12,7.51,7.51,0,0,1,2.08,1.57l.76.73c1.19,1.13,2.45,2.19,3.73,3.22a18.32,18.32,0,0,0,2.39,1.42c1.49-1.27,2.55-3,3.72-5.89h0a12.14,12.14,0,0,0,1.47-1.76c1-1.65,1.83-3.37,2.77-5S69,62.16,70,60.5a40.15,40.15,0,0,1-1.34-4.06A42.89,42.89,0,0,1,68.08,52l-1.26-1a1.22,1.22,0,0,1,.68-.86,2.13,2.13,0,0,1,1.1,0A1.44,1.44,0,0,1,70,51.29a8,8,0,0,1,0,1.9,9.45,9.45,0,0,0,.85,4.67,1.4,1.4,0,0,0,2.36.56,7.37,7.37,0,0,0,2.62-4.71,13.64,13.64,0,0,0,0-1.92,2.41,2.41,0,0,0-.75-1.94,3.54,3.54,0,0,1-.6-.74,1.12,1.12,0,0,1-.12-.82,1.09,1.09,0,0,1,.46-.66,1.14,1.14,0,0,1,1.48.37,15.89,15.89,0,0,1,.53,1.56A9.06,9.06,0,0,1,75.92,58c-.38.61-.74,1.22-1.09,1.79.68,1.84,2.41,2.85,3.25,4.63a18.16,18.16,0,0,0-1.54,1.78c-1,1.38-1.78,2.84-2.73,4.22-1.37,2-1.66,3.1-4.79,1.15-.61-.38-1.26-.69-1.9-1a2.52,2.52,0,0,0-.61-.06c-.66.94-1.34,1.89-2,2.87a35.89,35.89,0,0,0-2.65,4.54,4,4,0,0,1-2.61,2.48c-3.05-1.29-5.23-3.92-7.81-6a6.64,6.64,0,0,0-3.87,5.5,19.63,19.63,0,0,0-.1,2l-1.43,0c0-1.21,0-2.47,0-3.89L35.78,68c-.62.17-1.31.33-2,.54a9.35,9.35,0,0,1-9.38-2.13c-3.1-2.7-4.88-6.08-4.39-10.37a12.14,12.14,0,0,1,1.39-5,2.85,2.85,0,0,0-.25-3.34c-1.26-1.94-2.43-4-3.59-6-.95-1.65-1.85-3.33-2.75-5-3.26,1.56-5.45,5.08-7.36,8S2.4,52.26,2.25,55.94a1,1,0,0,1-.19.54,4.88,4.88,0,0,1,1.85,1.84,170.48,170.48,0,0,0,11.6,17.9c.9,1.22,1.87,2.4,2.87,3.53,2.8,3.18,5.58,6.38,8.47,9.47,1.48,1.57,3.17,2.92,4.78,4.37,2.43,2.19,4.85,4.41,7.33,6.55,3.2,2.78,6.31,5.68,9.71,8.19a111.8,111.8,0,0,0,13.16,8.76c3.66,2,7.17,4.21,10.78,6.27,1.94,1.11,3.92,2.17,5.94,3.12,3.11,1.47,6.27,2.84,9.41,4.23,1.24.54,2.52,1,3.78,1.54,1.85.75,3.71,1.48,5.55,2.25,7.47,3.11,15.08,5.79,23.11,7,1.41.22,2.85.23,4.27.4a19.07,19.07,0,0,1,2.59.49,38.75,38.75,0,0,0,7.11,1c3.27.2,6.53.53,9.8.8a38.31,38.31,0,0,0,9.08-.23c1.66-.26,3.34-.39,5-.56,3.58-.37,7.16-.68,10.73-1.1,3.26-.39,6.51-.81,9.74-1.36s6.29-1.19,9.38-2c3.81-1,7.71-1.42,11.54-2.19,2.89-.59,5.86-.82,8.67-1.78a5.25,5.25,0,0,1,1.42-.21c1.67-.1,3.36-.06,5-.29a18.05,18.05,0,0,1,4.53.1c2.07.23,4.14.36,6.21.58.87.09,1.72.32,2.59.47a2.73,2.73,0,0,0,2.44-.64c1.4-1.19,2.85-2.32,4.32-3.42a1.63,1.63,0,0,1,2.37.13,1.24,1.24,0,0,1,.13,2.05,13.54,13.54,0,0,1-1.64,1.39,6.5,6.5,0,0,0-2,1.85c.39.3.73.6,1.11.85,1.31.9,2.69,1.72,3.94,2.71a12.67,12.67,0,0,1,2.86,3.77,47.61,47.61,0,0,1,3.79,9.28c.07.2.31.35.5.55.69-.59,1.35-1.17,2-1.73a8.2,8.2,0,0,1,1-.71,1.37,1.37,0,0,1,1.77.11,1.28,1.28,0,0,1,.18,1.74,19.93,19.93,0,0,1-2,2.42c-2.39,2.45-2.09,2.1-1.36,5.26a38.18,38.18,0,0,1,.42,13.1c-.32,2.86-.53,5.73-.8,8.6-.06.63-.09,1.27-.21,1.9q-1.07,5.53-2.15,11.06a108.09,108.09,0,0,1-3.3,14,59.39,59.39,0,0,0-3,12.32,15.79,15.79,0,0,1-.52,2.34q-.93,3.34-1.91,6.68c-1.49,5.14-3.07,10.26-4.47,15.43s-3.12,10.42-5,15.52c-1.55,4.2-2.79,8.49-4.11,12.77-1.59,5.11-3.39,10.15-5.12,15.22-.64,1.89-1.39,3.75-2,5.65-1.27,3.95-2.47,7.93-3.72,11.89-.72,2.29-1.51,4.55-2.19,6.85-1.68,5.75-3.37,11.5-4.95,17.28-.63,2.31-1,4.7-1.42,7.05a18.93,18.93,0,0,1-.36,1.88,78.7,78.7,0,0,0-2.29,11.27c-.39,2.44-.87,4.88-1.5,7.27a34.8,34.8,0,0,0-1,6.39c-.37,5-1.57,9.94-2.46,14.9-.61,3.38-1.3,6.75-1.85,10.14-.3,1.81-.39,3.66-.54,5.49a93.83,93.83,0,0,0-.62,12,21.37,21.37,0,0,1-.12,2.39c-.05.64-.17,1.27-.19,1.91-.13,5.59-.81,11.16-.38,16.77.23,2.95.35,5.91.64,8.85.18,1.82.61,3.62.89,5.44.53,3.4,1,6.8,1.56,10.19a36,36,0,0,0,1.09,3.91c.2.69.47,1.36.66,2.05,1.51,5.64,3,11.28,4.52,16.9.53,1.93,1.25,3.79,1.88,5.69,1.22,3.72,2.42,7.45,3.67,11.16.9,2.65,1.77,5.31,2.83,7.89,2.19,5.33,4.49,10.6,6.75,15.9a7.13,7.13,0,0,0,.83,1.71c2.24,2.77,3.57,6.06,5.37,9.07,2.17,3.64,4.21,7.36,6.41,11q5,8.19,10.15,16.29a34,34,0,0,0,4.42,6.25,3.3,3.3,0,0,1,.51.8c.65,1.19,1.27,2.4,1.93,3.58,1.07,1.87,2.12,3.76,3.27,5.59,1.53,2.43,3.18,4.79,4.74,7.22,2.28,3.56,4.56,7.14,6.79,10.75,4.69,7.62,9.24,15.33,14.3,22.73,4.48,6.54,9.36,12.76,14.18,19,3.47,4.5,7.29,8.7,10.92,13.06a16.72,16.72,0,0,0,1.16,1.22c3.35,3.21,6.72,6.39,10,9.64a33.66,33.66,0,0,1,2.95,3.46,50.6,50.6,0,0,0,6,6.52c2.66,2.43,5.1,5.08,7.72,7.55,2,1.85,4.12,3.54,6.15,5.35,1.67,1.49,3.26,3.06,4.93,4.55,2,1.74,3.9,3.5,5.77,5.34,1.14,1.12,2.48,2,3.71,3s2.18,1.87,3.26,2.82a6.8,6.8,0,0,0,.87.83c2,1.21,3.42,3.06,5,4.72a19.13,19.13,0,0,0,2.32,2.09c4,3,7.57,6.4,11.28,9.68,4.07,3.6,8.25,7.09,12.34,10.66,3.43,3,6.81,6.06,10.22,9.08.48.42,1,.79,1.51,1.18l6.49,4.92a12.61,12.61,0,0,0,1.36,1,14.43,14.43,0,0,0,1.58.66c1.35-.93,1.81-2.44,2.65-3.67s1.54-2.41,2.34-3.68a12.26,12.26,0,0,0-1.15-1c-2-1.42-4.09-2.79-6.11-4.22-3.06-2.17-6.08-4.39-9.14-6.55-3.79-2.68-7.27-5.75-10.77-8.79-1.74-1.52-3.63-2.89-5.45-4.31-2.84-2.21-5.74-4.36-8.52-6.64-2.15-1.78-4.17-3.73-6.25-5.61-3-2.68-6-5.29-8.87-8.06-3.61-3.51-7.09-7.15-10.63-10.73-.51-.51-1-1.05-1.48-1.57-5.42-5.67-10.74-11.42-16.28-17-4.26-4.25-8-8.93-11.93-13.44-2.42-2.77-4.77-5.6-7.41-8.18-1.71-1.67-3.26-3.52-4.82-5.34q-4.68-5.48-9.27-11c-.92-1.1-1.69-2.33-2.5-3.52q-3.92-5.75-7.8-11.51c-1.75-2.59-3.52-5.16-5.23-7.77a2.49,2.49,0,0,0-2.5-1.46,2.75,2.75,0,0,1-.95-.05,1.92,1.92,0,0,1-1.58-2.09,3.54,3.54,0,0,1,.24-1.17,3.68,3.68,0,0,0-.52-3.61q-4.15-7-8.22-14.08c-2.38-4.17-4.71-8.36-7-12.56s-4.53-8.28-6.77-12.43c-.64-1.19-1.22-2.41-1.78-3.53-.31-.06-.49-.16-.6-.11-2.25,1-2.81.95-4.19-1a15.67,15.67,0,0,1-1.52-2.71c-1.6-3.58-3.13-7.18-4.7-10.77-.58-1.32-1.2-2.62-1.76-3.94-1.29-3-2.55-6-3.84-9.06-.38-.87-.86-1.71-1.23-2.59-.7-1.7-1.41-3.39-2-5.13a2.49,2.49,0,0,1,.9-3.19c.11-.08.14-.28.28-.57a41.2,41.2,0,0,0-2.1-6c-2.58-6.37-5.38-12.65-7.32-19.27-.31-1.07-.72-2.11-1.09-3.17a15.49,15.49,0,0,1-.6-1.82c-1.31-6.34-3.52-12.46-4.58-18.87-.86-5.2-1.85-10.39-2.64-15.6-.58-3.79-1.11-7.61-1.32-11.43-.27-5-.28-10.07-.27-15.11q0-6.24.33-12.46c.2-3.91.58-7.81.88-11.71.07-.88.21-1.75.23-2.63a121.84,121.84,0,0,1,1.78-14.76c.36-2.37.63-4.75,1-7.13a13.32,13.32,0,0,1,.32-1.89c1.56-5.2,2.69-10.52,4.56-15.65a88.17,88.17,0,0,0,3.73-14.12,124.34,124.34,0,0,1,3.36-14c.48-1.52.75-3.11,1.21-4.64,1.65-5.43,3.28-10.87,5-16.27,2.17-6.78,4.43-13.53,6.67-20.28.53-1.6,1-3.2,1.67-4.75,2.4-5.86,4.09-12,6-18,2-6.39,3.92-12.84,5.89-19.26.45-1.45,1-2.87,1.48-4.31,1.74-5.24,3.5-10.46,5.18-15.72,1.46-4.57,2.92-9.14,4.17-13.76a62.39,62.39,0,0,0,1.59-12.12c.08-1.28.15-2.56.2-3.85l1.37,0c-.09,3-.29,5.91-.57,8.86a66.91,66.91,0,0,1-2.4,12.94c-.48,1.6-1,3.18-1.64,4.74-1.83,4.71-3.12,9.58-4.53,14.41-1.69,5.76-3.45,11.49-5.13,17.25-1.12,3.83-2.16,7.69-3.24,11.54-1.81,6.46-3.59,12.94-5.81,19.28-1.28,3.62-2.49,7.27-3.76,10.89-.87,2.49-1.83,4.95-2.71,7.44-.67,1.88-1.29,3.78-1.91,5.68-1.36,4.17-2.7,8.36-4.11,12.71a6.2,6.2,0,0,0,1,.57c1.68.52,3.37,1,5.07,1.48a18.39,18.39,0,0,0,2.35.45,89.17,89.17,0,0,1,11.77,2.15c4.62,1.28,9.29,2.4,13.84,3.94,3.18,1.07,6.41,2,9.54,3.23,3.71,1.44,7.52,2.64,11.1,4.43a18.78,18.78,0,0,0,2.71.92c1.44.46,2.9.85,4.32,1.37,2.86,1,5.69,2.14,8.52,3.24q2.57,1,5.12,2c2.29.93,4.57,1.91,6.87,2.81,3.28,1.29,6.58,2.49,9.85,3.79s6.52,2.61,9.76,4c4.55,1.95,9.09,3.95,13.62,5.94.58.26,1.14.57,1.7.87q6.35,3.42,12.66,6.85c2,1.06,3.92,2.15,6,3.3a9.77,9.77,0,0,0,4-1.88c1.58-1.36,3.15-2.72,4.68-4.13a25.27,25.27,0,0,0,1.73-2,5,5,0,0,0,1.31-3.5c0-2.47,1.12-4.64,1.82-6.92a21.92,21.92,0,0,1,3.89-3.87q3.29-2.21,6.54-4.44c1.52-1,3.06-2.05,4.52-3.16a8.84,8.84,0,0,1,5.8-1.9c1.91.05,3.83-.05,5.74,0a9.74,9.74,0,0,1,6.39,2.31c1.07.95,2.2,1.84,3.26,2.79a29.11,29.11,0,0,1,6.08,8.25,12.33,12.33,0,0,1,1.45,8.51c-.06.26-.12.51-.2.77a11.45,11.45,0,0,1-5.85,7.24,4.67,4.67,0,0,0-1.14.77c-.75.71-1.4,1.54-2.19,2.2a48.14,48.14,0,0,1-7.84,5.52c-1.67.91-3.45,1.64-5.17,2.47-.65.31-1.26.7-1.92,1a28.26,28.26,0,0,1-3.57,1.38c-2.23.6-4.43.6-6.38-.94a3.21,3.21,0,0,0-2.08-.77l-1.38,1.7c8,5.37,15.21,11.53,22.78,17.44.56-.28,1.13-.54,1.68-.84.27-.15.49-.45.78-.55,2-.72,3.24-2.5,4.78-3.85a2.37,2.37,0,0,0,.86-2.54,8.2,8.2,0,0,1,1.24-6.62,44.1,44.1,0,0,0,2.61-5.13c.53-1.1,1.11-2.13,2.39-2.43a41.11,41.11,0,0,0,1.61-7.59c.24-1.58.33-3.19.66-4.75.26-1.23.63-2.44,1-3.68.11-.39.23-.78.34-1.18a10.77,10.77,0,0,1,1.64-.39,1.41,1.41,0,0,1,1.69,1.29,4,4,0,0,1,.08,1.19c-.18,1.91-.34,3.82-.61,5.72-.3,2.21-.7,4.41-1.07,6.62s-.75,4.25-1.1,6.37c-.1.62-.1,1.24-.14,1.83.36.18.56.38.77.38,2.09,0,3.15,1.45,3.89,3.09a10.26,10.26,0,0,1,.91,3.45,14.18,14.18,0,0,1-2,8.27c-.11.18-.22.35-.34.51a9.41,9.41,0,0,1-3.14,2.7c-1.18.66-2.35,1.35-3.57,2a2.24,2.24,0,0,0-1.3,1.6c-.48,2.19-1,4.37-1.43,6.56a3,3,0,0,0,0,.95.82.82,0,0,0,.22.41c.27.27.56.5,1,.86,1.31-1.78,2.62-3.38,3.75-5.11,1.27-1.94,2.34-4,3.55-6,.67-1.08,1.36-2.15,2-3.22l1.46-2.23c.21-.34.57-.64.64-1,.35-1.64,1.78-2.14,2.94-2.94a1.14,1.14,0,0,1,1.34-.09,1.26,1.26,0,0,1,.71,1.4,28.48,28.48,0,0,1-1.18,3.63c-2.15,5.05-5.49,9.35-8.78,13.68-1.65,2.15-3.09,4.44-4.74,6.69.38.48.67.83.95,1.2,1.29,1.73,2.6,3.45,3.85,5.2,3,4.16,6,8.29,8.81,12.53q3.86,5.79,7.37,11.8,4.19,7.14,8.06,14.45c1.73,3.24,3.21,6.61,4.82,9.92.56,1.15,1.18,2.27,1.72,3.43a90.68,90.68,0,0,1,4.15,10.7c.65,2.06,1.51,4.05,2.17,6.1C465.24,490.51,466.11,493.13,467,495.76Zm-2.44,88.5c.22-6.24.09-12.48-.29-18.71-.46-7.33-.62-14.69-2-21.94-.84-4.4-1.6-8.81-2.41-13.2a6.79,6.79,0,0,0-.42-1.12,8.26,8.26,0,0,0-3.28,1,40,40,0,0,1-7.54,2.36c-4.94,1-9.73,2.57-14.56,4-7.58,2.28-14.95,5.17-22.41,7.79-5.58,2-11.11,4.1-16.72,6-6.68,2.21-13.44,4.18-20.14,6.31-2.28.73-4.53,1.59-6.78,2.41s-4.3,1.75-6.51,2.42c-5.05,1.54-10,3.3-15,5.11-5.41,2-10.73,4.18-16.09,6.27-7.59,3-15.24,5.76-22.65,9.2-7.62,3.54-15.61,6.17-23.47,9.1a10.46,10.46,0,0,0-4.07,2.14,12.46,12.46,0,0,0,.65,1.55c.52.9,1.11,1.75,1.68,2.62,2.16,3.27,4.29,6.55,6.49,9.79,1.13,1.65,2.51,3.13,3.54,4.83s2.46,3.54,3.61,5.35c2,3.19,4.67,5.88,7.06,8.76,3.16,3.82,6.34,7.62,9.49,11.45,1.51,1.85,3.27,3.5,4.95,5.21,2.28,2.34,4.67,4.59,6.86,7a2.89,2.89,0,0,0,3.13,1.07c2-.45,4.07-.88,6.13-1.16,7.13-1,14.21-2.27,21.39-2.81,7.42-.56,14.82-1.26,22.24-1.78,3.35-.23,6.71-.2,10-.75a63.35,63.35,0,0,1,10.48-1c.88,0,1.76,0,2.63-.13,6-.53,12-1,17.95-1.08,5.2,0,10.39.06,15.58.21,5.59.18,11.18.36,16.77,0a7.32,7.32,0,0,0,3.36-.52,50.9,50.9,0,0,0,2.78-8.1c.54-2.09,1.1-4.17,1.61-6.27s1.18-4.49,1.57-6.78c1-5.75,2-11.51,2.71-17.29.58-4.43,1.39-8.86,1.2-13.37a25.35,25.35,0,0,1,.21-2.87C464.39,586.33,464.48,585.29,464.52,584.26Zm-5.11-62.42c-.19-1-.31-1.68-.47-2.37-.23-1-.46-2-.74-3-.86-3.08-1.69-6.17-2.63-9.22-1.07-3.43-2.25-6.83-3.38-10.24-.26-.76-.51-1.51-.82-2.25-1.06-2.59-2.11-5.18-3.23-7.74q-3.28-7.58-6.66-15.13c-.75-1.68-1.57-3.32-2.44-4.94-1.28-2.39-2.54-4.8-4-7.11-3.6-5.86-7.23-11.68-10.94-17.47-1.59-2.48-3.4-4.81-5.11-7.21,0-.05-.15,0-.33-.09a27,27,0,0,1-4.34,5.62,8.61,8.61,0,0,1-2.93,2.39,3.36,3.36,0,0,0-2.09,2.69c-.64,3.05-1.32,6.09-2,9.14-.15.7-.23,1.42-.37,2.13-.41,2.11-.82,4.23-1.25,6.34-.29,1.4-.77,2.78-.93,4.2-.46,4-1.6,7.83-2.44,11.73-1.37,6.4-2.82,12.79-4.18,19.2-.66,3.12-1.23,6.26-1.8,9.41-.24,1.33-.34,2.69-.51,4-.08.64-.16,1.27-.25,1.9-.48,3.24-1,6.48-1.44,9.72-.55,3.79-.89,7.61-1.75,11.36-.56,2.41-1,4.86-1.46,7.28a1.62,1.62,0,0,0,.38,1.76,1.42,1.42,0,0,0,.46,0c3.22-1.19,6.42-2.42,9.64-3.58s6.23-2,9.27-3.25c6.11-2.41,12.41-4.2,18.64-6.2,3.19-1,6.39-2.06,9.65-2.87q6.39-1.59,12.62-3.74c1.81-.62,3.66-1.14,5.49-1.71C457.81,522.39,458.47,522.15,459.41,521.84Zm-2.55,4.56a5.64,5.64,0,0,0-1-.14q-5.37,1.29-10.71,2.62c-1,.25-2,.7-3,.87a61.61,61.61,0,0,0-8.33,2.22c-1.9.61-3.82,1.17-5.73,1.74s-4,1.13-6,1.78c-3.26,1.08-6.49,2.25-9.75,3.35-4.84,1.64-9.7,3.22-14.55,4.87a58.61,58.61,0,0,0-6.69,2.61,22.26,22.26,0,0,0-2.84,1.64c-1.64,1.11-3.44,2-5.17,3-2.8.38-5.33,1.65-8,2.51-8.52,2.74-17,5.49-25.53,8.31-4.17,1.38-8.29,2.92-12.43,4.4a2.88,2.88,0,0,0-.64.3c-.13.08-.19.25-.36.48.29.38.62.79.95,1.21a64.16,64.16,0,0,0,8.62-3.25c1.61-.71,3.22-1.44,4.88-2,4.32-1.44,8.69-2.73,13-4.18s8.75-3,13.12-4.6c1.5-.53,3-1.19,4.47-1.7,3.47-1.19,7-2.33,10.45-3.49q3.53-1.17,7.05-2.31c1.67-.55,3.37-1,5-1.65,2.54-1,5-2.16,7.75-2.39a4.32,4.32,0,0,0,1.14-.36c4.26-1.63,8.53-3.2,12.75-4.91A180.21,180.21,0,0,1,446.7,530,84,84,0,0,0,456.86,526.4Zm-5.08,120.29c.16,0,.35-.36.34-.55a.71.71,0,0,0-.38-.52,2.62,2.62,0,0,0-.93-.19c-1.19,0-2.39-.1-3.59-.09-3.52,0-7,.13-10.55.12-3.84,0-7.68-.14-11.52-.11-6.07,0-12.15.08-18.22.27-3.51.11-7,.61-10.53.74-6.07.24-12.12.79-18.16,1.42-1.83.18-3.66.39-5.49.52-3.67.27-7.35.4-11,.76-4.29.42-8.57,1-12.85,1.55q-6.92.85-13.81,1.73c-2.06.27-4.12.56-6.16.9a5.42,5.42,0,0,0-1.27.57,2.47,2.47,0,0,0,2.88,1.77c.64-.1,1.27-.18,1.91-.25,5.56-.57,11-2.29,16.6-2.31,1.83,0,3.66-.29,5.49-.46.56,0,1.12-.1,1.67-.17,2.85-.4,5.7-.82,8.55-1.19,1.82-.24,3.65-.45,5.47-.63s3.67-.3,5.5-.43c2.23-.15,4.46-.39,6.7-.4a57.28,57.28,0,0,0,6.93-.4q3.21-.4,6.44-.75a109.24,109.24,0,0,1,12.92-.73c4.4.06,8.8.07,13.19-.05,5.68-.15,11.35-.49,17-.1a10.64,10.64,0,0,0,2.39-.1,52,52,0,0,1,7.89-.44A11,11,0,0,0,451.78,646.69Zm-.74,6c.28-.79.8-1.59.44-2.49-.18-.11-.3-.26-.44-.27a25.54,25.54,0,0,0-5.73.06,23.73,23.73,0,0,1-3.57.26c-2.24,0-4.48-.13-6.71-.11-3.84,0-7.67.17-11.51.19-5.11,0-10.23,0-15.35,0-.79,0-1.59,0-2.39.11q-5.14.41-10.27.87a48.77,48.77,0,0,0-5.95.65,83.07,83.07,0,0,1-9.28,1.14c-1.51.16-3,.44-4.52.52-5.34.28-10.69.48-16,.73a112.73,112.73,0,0,0-12.16,1.2c-1.82.28-3.64.45-5.46.7-2,.27-4,.52-5.93.85a7.41,7.41,0,0,0-3.41,1.51,2.28,2.28,0,0,0,.2.53c2.29,2.45,4.57,4.91,6.89,7.33,1.1,1.16,2.27,2.25,3.42,3.35a6.14,6.14,0,0,0,1.32,1,7.92,7.92,0,0,1,2.94,2.75c2.5,3.56,5.79,6.38,8.86,9.41,1.53,1.51,3.31,2.79,4.73,4.39,2.46,2.76,5.34,5,7.94,7.64a26.47,26.47,0,0,0,2.48,2.26c2.27,1.76,4.66,3.38,6.87,5.21,3.26,2.7,6.44,5.51,9.6,8.33a45.18,45.18,0,0,0,6.15,5c1.42.88,2.77,1.89,4.1,2.9a101.57,101.57,0,0,0,11.59,7.68,6.37,6.37,0,0,0,2.33,1,4.07,4.07,0,0,0,.62-.55q2.49-3.53,4.95-7.07a10.19,10.19,0,0,0,.94-1.67,132.23,132.23,0,0,1,6.52-12.28c1.39-2.42,2.87-4.79,4.29-7.2,1.27-2.13,2.5-4.28,3.75-6.41,1.14-1.93,2.37-3.81,3.42-5.78,3.58-6.69,7.11-13.4,9.5-20.64.07-.23.2-.44.28-.66C448,661,449.54,656.83,451,652.7ZM434.85,390.1c.15-.42.48-.86.16-1.35-.14.05-.35.05-.4.14a42.78,42.78,0,0,1-3.82,6.05,10.83,10.83,0,0,0-1,1.63,77.53,77.53,0,0,1-6,9.74c-1,1.42-2,2.9-2.92,4.38a13.07,13.07,0,0,0-.85,1.86c.81-.23,1.18-.95,1.63-1.54.92-1.21,1.65-2.57,2.66-3.69a83.56,83.56,0,0,0,6.08-8.29A39.05,39.05,0,0,0,434.85,390.1Zm-10.71,4.08c5.17-2.26,6.46-9.4,4.68-12.92a9.89,9.89,0,0,0-.55-.87c-.85.06-1.48.12-2.11.15-2.23.11-3.41.95-4,3.08a11.54,11.54,0,0,0-.46,3.3,3.44,3.44,0,0,1-.69,2.67,2.78,2.78,0,0,0-.53,1.31c-.11.6-.24,1.2-.36,1.79a6.08,6.08,0,0,0,.27,1.58c.16.49.32,1,.45,1.45C422,395.19,423,394.66,424.14,394.18ZM427,357a6.94,6.94,0,0,0-.29-1.6,5.92,5.92,0,0,0-1,3c-.55,3.55-1,7.11-1.77,10.63a21,21,0,0,0-.26,4.05,9.43,9.43,0,0,0,.29,1.59,4.69,4.69,0,0,0,.44-.91q.48-2.7.92-5.42c.28-1.73.56-3.46.81-5.2C426.44,361.08,426.74,359,427,357Zm-5.2,19.08a9.41,9.41,0,0,0-.15-1.61,8.48,8.48,0,0,0-.87.82,26.49,26.49,0,0,0-3.18,7.2,5.5,5.5,0,0,0-.17,3.31,2.78,2.78,0,0,1-1,3.21,5.22,5.22,0,0,0-.77.91,9,9,0,0,1-3.55,2.77,22.45,22.45,0,0,0-2.62,1.64,52.81,52.81,0,0,1-5.6,3.67,67.84,67.84,0,0,0-11.06,6.67,1.25,1.25,0,0,1-2.11-.56,12.69,12.69,0,0,0-2.93-4.61c-1.89-2.06-3.84-4.06-5.75-6.09-1.26-1.34-2.5-2.69-3.78-4a7,7,0,0,0-1.08-.74c-.65,1.56-1.22,2.95-1.82,4.32a6.41,6.41,0,0,0-.48,3.51,74.58,74.58,0,0,1,.18,12.68c0,.55,0,1.1,0,1.57,2.23,1.31,4.13,2.47,6.06,3.58a24.27,24.27,0,0,0,3.41,1.73,34.26,34.26,0,0,1,7.13,3.91,3.75,3.75,0,0,0,4.05.22,8.05,8.05,0,0,0,1.77-1.21c1.09-.93,2.15-1.91,3.22-2.86,2.13-1.92,3.92-4.22,6.32-5.85.25-.17.57-.43.62-.7.26-1.33,1.37-1.89,2.26-2.67s1.63-1.53,2.42-2.32c.29-.28.52-.61.8-.89a.79.79,0,0,1,1.06-.21.87.87,0,0,1,.39.87,1,1,0,0,1-.16.4,8,8,0,0,1-1,1.29c-2.08,2.1-4.18,4.18-6.26,6.28-.44.43-1.07.75-1,1.7.48.56,1,1.22,1.62,1.88s1.29,1.41,1.9,2.15,1,1.3,1.65,2.23c.4-1.58.71-2.81,1-4s.56-2.5,1-3.69a63.42,63.42,0,0,0,2.3-8l.24-1c.41-1.79.91-3.56,1.38-5.33a72.86,72.86,0,0,0,2.1-9.34,32.17,32.17,0,0,1,1.32-7.29.72.72,0,0,0,.09-.46c-.37-1,.18-1.83.55-2.72A9.51,9.51,0,0,0,421.8,376.05Zm-1.6-20.58a6,6,0,0,0,.66-4.4,19.45,19.45,0,0,0-1.62-4.73,40.36,40.36,0,0,0-3.26-4.71,17.67,17.67,0,0,0-5.15-4.93,8.61,8.61,0,0,0-6.83-1.22,16.21,16.21,0,0,1-4.47.64,8.55,8.55,0,0,0-5.62,1.6,13.2,13.2,0,0,1-1.8,1.17,67.8,67.8,0,0,0-11,7.66,4.62,4.62,0,0,0-1.74,3c-.15,1-.5,2-.64,3-.26,2-.37,3.94.8,5.87.52-.18,1-.29,1.39-.47,1.83-.79,3.63-1.67,5.49-2.39,2.32-.91,2.36-1.25,2.42-3.51a3.79,3.79,0,0,1,5.22-3.49,1.69,1.69,0,0,1,.43.2,4.68,4.68,0,0,0,2.77.54,32.49,32.49,0,0,0,7.35-.9c2.43-.54,3.54,0,4.7,2.2.63,1.18,1.47,2.3,1.52,3.72,1.4,2.13,2.68,4.36,4.92,5.74a3.87,3.87,0,0,0,3-2.14C419.29,357.16,419.72,356.3,420.2,355.47ZM420,396.72s0,0,0,0a7,7,0,0,0-.42-1.59c-.71,3.13-1.52,6.23-2.33,9.32-.49,1.86-.87,3.76-1.53,5.55-1.92,5.19-2.82,10.65-4.24,16a4.1,4.1,0,0,0,0,1c1.31-1.16,1.35-1.15,1.8-2.55.54-1.68,1-3.38,1.49-5.06a109.5,109.5,0,0,0,3.26-13c.36-2.21.85-4.39,1.3-6.58C419.58,398.69,419.79,397.7,420,396.72Zm-.17,16c-.44.4-.87.81-1.33,1.18-1,.83-1,.83-1,2.6C418.73,415.47,419.13,414.84,419.84,412.71Zm-4.2,23.76a6.78,6.78,0,0,0,1.07-6.37,3.38,3.38,0,0,0-2.36-2.53c-1,.77-1.85,1.56-2.81,2.25a17.54,17.54,0,0,1-2.66,1.6,3,3,0,0,1-1.61.21,1.17,1.17,0,0,1-.91-1.78c.36-.68.77-1.34,1.21-2.1a7,7,0,0,0-3.93,1.26,38.85,38.85,0,0,0-3.79,2.51,5.53,5.53,0,0,1-6.08.66c-1.83-.8-3.65-1.62-5.45-2.5a36.35,36.35,0,0,0-6.21-2.51c-1.38-.39-2.74-.85-4.13-1.23-1.74-.48-3.41-1.39-5.34-.95-.54.12-1.07-.52-1-1.09,0-.39.17-.77.24-1.16.27-1.66.61-3.31.77-5,.48-4.93.83-9.86.82-14.83,0-4.28-.24-8.46-2.31-12.33-.26-.49-.35-1.07-.57-1.58a11.9,11.9,0,0,0-4.92-5.7c-2.32-1.39-4.57-1.58-7.16.94a14.34,14.34,0,0,0-3,4.56c-1.79,4.05-1.7,8.28-1,12.48a68.16,68.16,0,0,0,2.87,10.63c.52,1.5.92,3.05,1.36,4.59.32,1.07.6,2.15.93,3.22A64.35,64.35,0,0,1,362.73,434c.11,1.48.11,1.51,1.61,1.89s3.29.7,4.89,1.2a81.26,81.26,0,0,0,12.43,2.52c4.42.65,8.89.92,13.34,1.37a3.66,3.66,0,0,1,1.63.27c1.19.8,2.46.54,3.72.49,1.75-.06,3.51-.14,5.26-.22a14.63,14.63,0,0,0,4.24-.6A12.29,12.29,0,0,0,415.64,436.47Zm-3.47-72.31c1.68-1.4,1.72-2,.46-3.84-.14-.19-.3-.37-.44-.57l-5.45-7.44a19,19,0,0,0-5-1.12,12.21,12.21,0,0,0-6.22,1.33c-.58-.81-1-1.53-1.59-2.19a1.36,1.36,0,0,0-1.53-.45,2.51,2.51,0,0,0-1.83,2,9.72,9.72,0,0,0-.07,1.43,3.68,3.68,0,0,1-2.7,3.8l-.9.31a35.75,35.75,0,0,0-6.8,3,5.56,5.56,0,0,1-1.09.48,1.8,1.8,0,0,1-2.33-.64,2.24,2.24,0,0,0-.52-.41,21.06,21.06,0,0,0-6.84,5.18c0,.6.12,1.23.12,1.86a17.3,17.3,0,0,0,2.08,7.81,4.91,4.91,0,0,0,1.48,1.83c1.57,1.09,3.24,2,5,3.08a13.6,13.6,0,0,0,1.88-1.5c1.43-1.57,3-3,4.36-4.76-1-.8-1.9-1.44-2.71-2.19a7,7,0,0,1-1-1.56.46.46,0,0,1,.11-.43,1.16,1.16,0,0,1,.63-.23,1,1,0,0,1,.64.27c1.6,1.63,3.72,2.47,5.61,3.64a7.26,7.26,0,0,0,5.31.91,12.37,12.37,0,0,0,4.73-1.61,9.92,9.92,0,0,1,1.51-.71c1.84-.77,3.71-1.48,5.52-2.32A34.3,34.3,0,0,0,412.17,364.16ZM407.06,425a4.79,4.79,0,0,0,3-3.36c-1.83-2.27-3.58-4.42-5.49-6.77-1.73,1.68-3.35,3.22-4.93,4.79a13.84,13.84,0,0,1-3.71,2.59,2.42,2.42,0,0,1-1.36.36c-2-.44-4.13-.52-5.76-2.05a7.92,7.92,0,0,0-3.86-2.29,2,2,0,0,1-.66-.29c-2.35-1.71-5.21-2.4-7.69-3.84a1.3,1.3,0,0,0-1.73,0c-.14,1.33-.39,2.83-.44,4.33s-.67,3.1-.26,4.66c2.86.84,5.63,1.59,8.37,2.47a42.64,42.64,0,0,1,5.58,2.11,53.85,53.85,0,0,0,7.07,2.91,3.58,3.58,0,0,0,3.35-.37c.93-.62,1.87-1.23,2.76-1.91A23.52,23.52,0,0,1,407.06,425Zm-1.4,22.69c.23-.83.42-1.67.63-2.52a8,8,0,0,0-4.14.08,2.46,2.46,0,0,0-1,.89c-1.21,1.88-2.43,3.76-3.53,5.7-2.1,3.68-4.22,7.35-6.61,10.85-.9,1.32-1.76,2.66-2.73,3.94a123.84,123.84,0,0,0-7.81,11.2c-.2.34-.43.67-.66,1l-8.5,12.2c-.91,1.31-1.82,2.63-2.64,4-1.64,2.74-3.19,5.54-4.82,8.29-2.13,3.57-4.3,7.11-6.43,10.68q-2.83,4.72-5.63,9.48c-1,1.65-1.91,3.33-2.89,5-1.83,3.1-3.67,6.18-5.53,9.27a1.45,1.45,0,0,1-1.84.67,3,3,0,0,1-2-3.81c.58-1.74,1.3-3.43,2-5.12a2.82,2.82,0,0,1,.88-1.09,15.4,15.4,0,0,0,4.09-5.25c.3-.57.58-1.14.93-1.67,1.58-2.41,3.19-4.79,4.78-7.19.26-.39.46-.83.72-1.24,2.06-3.23,4.14-6.46,5.89-9.88.22-.42.57-.77.83-1.17,3.21-5.06,6.44-10.12,9.61-15.21,2.57-4.14,4.95-8.4,7.63-12.47,3-4.61,6.31-9.05,9.47-13.57.73-1.05,1.4-2.14,2.13-3.19,2.62-3.82,4.64-8,7.63-11.62a5.39,5.39,0,0,0,.6-1.3,7.18,7.18,0,0,0-2.88-.71c-1.27-.11-2.54-.23-3.81-.38-3.73-.45-7.37-1.5-11.14-1.66a3.71,3.71,0,0,1-.93-.22,93.74,93.74,0,0,0-9.82-2.11,3.27,3.27,0,0,1-1.36-.39,8.88,8.88,0,0,0-3.25-1.45,3.91,3.91,0,0,1-2.79-3.53c-.11-.71-.07-1.45-.17-2.15q-.46-3.09-1-6.15a2.48,2.48,0,0,0-.41-.72c-.29.15-.47.2-.55.31a8.19,8.19,0,0,0-.64,1c-1.87,3.52-3.51,7.18-5.94,10.39a7.28,7.28,0,0,0-.82,1.47,24.25,24.25,0,0,1-4.07,6.18,7,7,0,0,0-1.49,3c-.39,1.38-.85,2.74-1.33,4.09-1.08,3-2.29,6-3.26,9-1.3,4-2.39,8.12-3.63,12.17-1.13,3.67-2.22,7.35-3.57,10.94-1,2.62-1.94,5.25-2.76,7.92q-3.19,10.31-6.36,20.61c-.85,2.75-1.69,5.51-2.51,8.26-1.34,4.44-2.69,8.87-4,13.33-1,3.37-1.88,6.77-2.78,10.17s-1.76,6.8-2.64,10.21a27.65,27.65,0,0,0-1.1,5.21c1.58.54,3.07,1.1,4.58,1.55,3.38,1,6.77,1.9,10.15,2.88a9.33,9.33,0,0,0,6.78-.27c1.74-.83,3.56-1.4,5.33-2.12,3.5-1.4,7.14-2.32,10.72-3.45.46-.14.94-.2,1.4-.32,1.77-.49,3.54-1,5.31-1.48.76-.22,1.51-.52,2.27-.75,2.07-.6,4.2-1,6.22-1.8,6.13-2.26,12.42-4.14,18.25-7.28a15.33,15.33,0,0,0,1.4-4.52c.17-1.19.48-2.35.74-3.52,1.19-5.39,2.43-10.76,3.58-16.15.58-2.74.95-5.51,1.51-8.25.78-3.84,1.84-7.63,2.42-11.5.92-6.1,2.64-12,4-18,1.85-8.18,4-16.3,6-24.45.18-.7.37-1.39.56-2.08Q404.29,452.73,405.66,447.65Zm0,7.45c-.66.1-.8.66-.95,1.17-1,3.69-2.1,7.37-3,11.09-1.63,6.59-3.07,13.23-4.76,19.81-1.84,7.2-3.15,14.52-4.62,21.8-.73,3.6-1.26,7.24-2,10.84-.85,4.22-1.84,8.42-2.73,12.64-.84,4-1.62,8-2.45,12a3.15,3.15,0,0,0,.53,2.8c.35-.15.86-.2,1-.47.78-1.22,2.46-1.93,2.2-3.75a89.84,89.84,0,0,0,3.16-15.22c.28-2.14.59-4.28.88-6.41.59-4.2,1.57-8.33,1.85-12.57a17.39,17.39,0,0,1,.41-2.36c.39-1.88.79-3.75,1.18-5.63q2.13-10.08,4.24-20.17,1.39-6.57,2.77-13.13c.28-1.33.45-2.69.83-4A42.24,42.24,0,0,0,405.65,455.1Zm-2.13-58.85a5.29,5.29,0,0,0,.83-.73c-1.13-2.12-1.15-2.08-2.72-3a22.47,22.47,0,0,1-2.74-1.92c-2.66-2.16-5.19-4.49-8-6.51s-5.71-3.7-8.63-5.57l-3,2.63c.83,3.21,1.65,6.38,3.58,9.09,1.47,2.07,3.12,4,4.74,6a4.55,4.55,0,0,0,1.33,1c.75.43,1.56.77,2.31,1.2,1,.55,1.9,1.18,2.89,1.7a2.18,2.18,0,0,0,2.27.09C398.77,398.87,401.16,397.58,403.52,396.25Zm-4.1,49.28-.38-.39c-.49.5-1,1-1.46,1.5a40,40,0,0,0-4.61,7,.24.24,0,0,0,0,.2c0,.05.13.06.23.1A51.21,51.21,0,0,0,399.42,445.53Zm-20.11,30.8c.27-.48.18-.91-.58-.95l-.5.76c-1.67,2.62-3.3,5.25-5,7.84-1.35,2.06-2.79,4.06-4.16,6.11a5.19,5.19,0,0,0-.44,1.24c1-.32,1.34-1.24,1.86-2,2.47-3.51,4.9-7.05,7.33-10.58A26.61,26.61,0,0,0,379.31,476.33Zm-2.41-93.7c.26-.95-.06-1.42-1-1.88s-1.78-.73-2.62-1.19c-3-1.69-5.44-3.91-6.56-7.32a9.85,9.85,0,0,0-.92-1.94c-.73-1.22-2.14-1.28-3.28-1.77-.26-.11-.77.17-1.07.4a45.11,45.11,0,0,0-3.79,2.94,142.51,142.51,0,0,0-14.91,15.58c-2,2.42-3.64,5.05-5.48,7.56q-3.71,5-7.45,10c-1.53,2.05-3.05,4.1-4.64,6.1a3.07,3.07,0,0,0-.7,2.67c.22,1.1.4,2.21.69,3.28.79,3,1.81,6,2.41,9,1.19,5.92,5,10,9.13,14l.2.14a28.15,28.15,0,0,0,8.25,3.09,19.68,19.68,0,0,0,2.3-2.24,48.34,48.34,0,0,0,5.26-9.12c.58-1.31,1.27-2.58,2-3.83s1.37-2.16,2.05-3.25a6.89,6.89,0,0,0,.89-6.37c-.69-1.88-1.24-3.81-1.76-5.73-1-3.55-2.26-7-2.83-10.65a39.87,39.87,0,0,1-.56-8.37,18.51,18.51,0,0,1,4.39-10.7,10.47,10.47,0,0,1,4.67-3.26,4.88,4.88,0,0,1,2.6,0,1.84,1.84,0,0,1,1.36,1.2,2.2,2.2,0,0,0,.88.76,14.38,14.38,0,0,1,5.91,7c.36.86.86,1.67,1.48,2.85A41.72,41.72,0,0,0,376.9,382.63Zm-8.36,109.18a.75.75,0,0,0,0-.4c-.2.1-.46.16-.56.32-1,1.67-2.08,3.36-3.07,5.07a1.78,1.78,0,0,0-.11.81C366.55,496,367.4,493.81,368.54,491.81Zm-3.88,6.06a6.33,6.33,0,0,0-1,1.06c-1.62,2.65-3.21,5.33-4.81,8-1.1,1.85-2.17,3.73-3.32,5.55q-2.37,3.74-4.84,7.41c-1.83,2.72-3.7,5.41-5.54,8.11a6.51,6.51,0,0,0-.76,1.22,17.2,17.2,0,0,1-2.34,3.88,4.73,4.73,0,0,0-.78,1.47,1.16,1.16,0,0,0,.83,1.59,8.73,8.73,0,0,0,.86-1q2.16-3.58,4.29-7.19c3-5.16,6.06-10.33,9.12-15.48,1.71-2.89,3.52-5.72,5.19-8.63C362.71,501.9,363.66,499.87,364.66,497.87Zm-3.37-131.25a5.28,5.28,0,0,0-2.28-2.06c-1.7-1-3.41-2.09-5.15-3.06s-3.38-1.82-5.11-2.64c-2.31-1.09-4.71-2-7-3.14-4.94-2.47-10.06-4.52-15.17-6.6-3.92-1.6-7.83-3.23-11.67-5s-7.38-3.46-11.24-4.82c-1.5-.53-3-1.1-4.46-1.76-5.84-2.63-12-4.38-17.91-6.86a6.92,6.92,0,0,0-.91-.3,85.33,85.33,0,0,1-8.71-2.59,8.42,8.42,0,0,0-2.1-.48,38.14,38.14,0,0,1-6.74-1.66,28.82,28.82,0,0,0-6.3-1.38,19,19,0,0,1-3-.66,15.44,15.44,0,0,0-1.63-.39,64.39,64.39,0,0,1-11-2.35,11.67,11.67,0,0,0-1.17-.27c-3.81-.86-7.7-1.47-11.3-3.09-.13-.06-.3,0-.57,0-.91,1.48-1,3.28-1.57,4.91s-1.16,3.5-1.68,5.26a16.23,16.23,0,0,0-1.13,5.16c.69.2,1.28.42,1.89.55,1.8.37,3.61.68,5.41,1.06,2.11.46,4.22.92,6.31,1.45,3.48.88,7,1.85,10.43,2.73,3.25.83,6.52,1.57,9.77,2.43,5.25,1.38,10.48,2.86,15.74,4.24,4.4,1.15,8.83,2.23,13.24,3.35l7.44,1.89c3.64.91,7.31,1.71,10.92,2.73,1.71.48,3.24.72,4.78-.37a14.12,14.12,0,0,1,1.33-.52c1.39-.81,2.62-.26,3.83.39a1.09,1.09,0,0,1,.48,1.45c-.3.64-.66,1.25-1.06,2a18,18,0,0,0,1.75.83,98.05,98.05,0,0,1,9.32,3.83c1.44.69,2.94,1.25,4.41,1.89s2.78,1.2,4.17,1.82a68.64,68.64,0,0,0,9.17,3.49c.54.16,1.07.35,1.6.54,2.33.82,4.65,1.68,7,2.46a5.16,5.16,0,0,0,2.39.66C356.32,370,358.74,368.36,361.29,366.62Zm-13,12.06a26.53,26.53,0,0,0,3.56-5.11c-2.82-1-5.38-1.92-7.83-3.09-2.09-1-4.32-1.69-6.47-2.55-3.56-1.42-7.09-2.95-10.68-4.3-4.64-1.74-9.34-3.32-14-5.05a3.94,3.94,0,0,0-3.83.53c-1.74,1.14-3.48,2.28-5.2,3.43l-10.56,7.09c-.66.44-1.31.91-1.95,1.39-2,1.54-4.06,3.1-6.12,4.62-2.76,2-5.6,4-8.33,6.08-6.92,5.31-14.13,10.21-21.29,15.17-4.87,3.37-9.74,6.73-14.44,10.31-3.31,2.53-6.68,5-10.07,7.36-4.37,3.1-8.81,6.1-13.17,9.2-1.69,1.2-3.27,2.57-4.88,3.89a2,2,0,0,0-1,1.81c.13,1.18.17,2.38.32,3.57a51.45,51.45,0,0,0,1.59,9.21c.93,3,.86,6.19,2.35,9a2.39,2.39,0,0,1,.12.46c1.77,6.89,3.48,13.8,5.33,20.67,1.18,4.4,2.54,8.75,3.85,13.11a49.64,49.64,0,0,0,3.42,9.2,8.87,8.87,0,0,1,.42,1.12c.53,1.42,1,2.87,1.61,4.26s1.39,2.84,2.06,4.18c1.22,0,2.25,0,3.29,0a3.63,3.63,0,0,0,2-.49c2.44-1.35,4.92-2.65,7.39-3.95,2.12-1.12,4.26-2.19,6.39-3.3,1.84-1,3.69-1.91,5.5-2.92,1.53-.86,3-1.88,4.52-2.71,2.82-1.52,5.63-3.05,8.53-4.38a77.54,77.54,0,0,1,7.38-2.85,27.45,27.45,0,0,1,6.54-1.41,1.65,1.65,0,0,0,1.4-.8c1.31-2.19,2.66-4.36,3.92-6.58,1.06-1.88,2-3.82,3-5.73,1.85-3.45,3.68-6.91,5.57-10.34a51,51,0,0,1,3-4.91,9,9,0,0,0,1.64-4.19,23.28,23.28,0,0,1,.62-3.53c.8-2.77,1.66-5.51,2.56-8.24.57-1.74,1.39-3.42,1.81-5.2a24.81,24.81,0,0,1,1.88-4.9c.55-1.16,1-2.37,1.56-3.51.86-1.7,1.79-3.38,2.73-5a2.7,2.7,0,0,1,.81-.87,12.79,12.79,0,0,0,3-3.37,31.37,31.37,0,0,1,4.47-4.67,6.94,6.94,0,0,0,1.05-1c1.15-1.54,2.26-3.1,3.36-4.66a148.18,148.18,0,0,1,10-12.88,13,13,0,0,0,1-1.32A85.93,85.93,0,0,1,348.27,378.68Zm-8.93,82.05c1.58-4.93,3.19-9.85,4.8-14.81a8.8,8.8,0,0,0-3-1.6,16.4,16.4,0,0,1-7-4.49c-.67-.8-1.41-1.53-2.09-2.32a26.71,26.71,0,0,1-4.74-6.88,6.38,6.38,0,0,0-.89-1.42c-2.19-2.86-3.13-6.24-4.1-9.62a9.94,9.94,0,0,0-1-3.08,1.82,1.82,0,0,0-.57.16,31,31,0,0,0-8.19,9.89,68.45,68.45,0,0,0-3.19,7.74,75.08,75.08,0,0,0-4.64,18.55c-.29,2.29-.31,4.62-.49,6.93a46,46,0,0,1-.5,5,23.15,23.15,0,0,0-.39,5.25,9.11,9.11,0,0,1-.06,3.09,14.6,14.6,0,0,0-.44,4.73q-.06,9.48-.15,18.95c0,1.91-.11,3.83-.22,5.74a42.94,42.94,0,0,0-.11,6.71,15.31,15.31,0,0,1-.17,2.86c-.22,2-.47,4-.73,5.94-.15,1.11-.33,2.22-.5,3.32-.34,2.13-.75,4.25-1,6.38-.76,5.86-1.44,11.74-2.19,17.6-.44,3.41-1,6.8-1.42,10.21-.28,2.45-.27,4.94-1.16,7.3-.13.36.11.85.2,1.38.63-.12,1.1-.19,1.55-.31l10.59-3A3.68,3.68,0,0,0,310,558.2c.73-2.36,1.37-4.76,2.07-7.14,2-6.81,3.3-13.83,5.58-20.58.86-2.57,1.52-5.21,2.3-7.82s1.69-5.49,2.53-8.24c1.21-4,2.4-7.95,3.63-11.92.66-2.14,1.52-4.22,2-6.39,1-4.27,2.76-8.32,3.61-12.66a55,55,0,0,1,2.88-8.63c1.29-3.36,2.55-6.72,3.53-10.18C338.56,463.33,338.92,462,339.34,460.73ZM333.63,569c-.65-.59-1.17-.33-1.69-.16-2.35.78-4.71,1.53-7,2.35-2,.69-3.89,1.43-5.81,2.21a114.83,114.83,0,0,1-13.13,4.5c-.84.23-1.73.31-2.56.58-2.73.9-5.48,1.76-8.15,2.82-3.26,1.29-6.49,2.69-9.65,4.21s-6.51,3.39-9.75,5.11a1.7,1.7,0,0,0-.7.62c-.1.2,0,.52.09,1,1.53-.54,2.87-1,4.21-1.48s2.52-1,3.8-1.47c2.69-1,5.41-1.93,8.08-3,4.66-1.88,9.29-3.84,13.93-5.77l2.87-1.21c3-1.29,6-2.65,9-3.85,5.05-2,10.14-3.86,15.21-5.8A11.64,11.64,0,0,0,333.63,569Zm-6.72-.4c.59-.17,1.28-.28,1.47-1.17a13.67,13.67,0,0,0-4.39-1.67c-1.16-.29-2.3-.63-3.45-.94-.46-.13-.92-.26-1.38-.37-1.17-.26-2.33-.58-3.5-.74a23.23,23.23,0,0,0-5.22-.48,86.86,86.86,0,0,0-8.73,1.46c-2.48.51-4.92,1.18-7.41,1.79-.67,2.75-1.33,5.46-2,8.17a3.9,3.9,0,0,0,.11,1,9.37,9.37,0,0,0,1.5.22c3.1,0,6.22-.27,9.31-.12a16.47,16.47,0,0,0,8.11-1.58,1,1,0,0,1,.22-.08C316.73,572.36,321.69,570.12,326.91,568.62ZM306.37,357.88a2.92,2.92,0,0,0-2.42.53,91.48,91.48,0,0,0-9.42,6.6c-1.83,1.41-3.59,2.92-5.43,4.32-1.27,1-2.66,1.76-3.94,2.72-2.28,1.73-4.34,3.79-7.08,4.86a3.23,3.23,0,0,0-.62.36l-7.56,5.07c-.93.62-1.9,1.19-2.79,1.86-2.29,1.73-4.5,3.57-6.82,5.25-3.38,2.42-6.83,4.74-10.24,7.11-2.5,1.73-5,3.49-7.49,5.18-1.78,1.2-3.63,2.32-5.45,3.47-1.28.81-2.61,1.55-3.84,2.42a48.24,48.24,0,0,1-5.93,4.07,22,22,0,0,0-2.16,1.5c-3,2.07-6.06,4.15-9.12,6.18a20.43,20.43,0,0,0-4.27,3.82,1.6,1.6,0,0,0-.3,1.89c1.9-1.43,3.75-2.81,5.57-4.2,1.34-1,2.6-2.15,4-3.08,3.39-2.26,6.83-4.44,10.26-6.65,3.7-2.37,7.46-4.65,11.09-7.13,5.95-4,11.81-8.21,17.91-12a7.46,7.46,0,0,0,2.84-2.52,5.09,5.09,0,0,1,1.38-1.31c1.7-1.33,3.38-2.69,5.15-3.93,3.66-2.57,7.38-5.07,11.06-7.61,1-.69,1.91-1.44,2.86-2.17,2.1-1.59,4.15-3.24,6.3-4.76,2.67-1.89,5.61-3.36,8.15-5.46,2-1.62,4.12-3,6.17-4.55C305,359.14,305.66,358.49,306.37,357.88Zm-3.84-.79c.37-.27.68-.63,1.38-1.29-2.47-.78-4.51-1.46-6.57-2.07-1.53-.46-3.09-.82-4.62-1.26-3.61-1-7.21-2.1-10.82-3.13-1.77-.51-3.58-.87-5.33-1.43-7.61-2.45-15.4-4.19-23.12-6.21-2.17-.57-4.32-1.17-6.49-1.71-3-.76-6-1.54-9.08-2.21-4.36-1-8.74-1.88-13.12-2.78a10.92,10.92,0,0,0-2,0c-.39,1.46-.78,2.83-1.13,4.21-1.31,5-2.87,10-3.78,15.09a1.68,1.68,0,0,1-.24.67,7.25,7.25,0,0,0-1.07,3.15c-1,4.86-1.9,9.72-3.24,14.5A9.49,9.49,0,0,0,213,374c-.44,3.56-.91,7.12-1.3,10.69a115.25,115.25,0,0,0-1.08,13.13q0,9.23.18,18.46a8.2,8.2,0,0,0,.6,3.4,3.37,3.37,0,0,0,2.12-.74c1.26-.85,2.52-1.7,3.79-2.51.88-.56,1.81-1,2.67-1.61,2.19-1.46,4.34-3,6.54-4.44a21.47,21.47,0,0,0,4-3,4.19,4.19,0,0,1,1-.71c4.5-2.6,8.68-5.68,13-8.51a20.45,20.45,0,0,0,3.84-2.85,8.45,8.45,0,0,1,1.17-.83c1.78-1.35,3.61-2.63,5.31-4.08a58.81,58.81,0,0,1,6-4.35c2.46-1.63,4.79-3.45,7.38-4.89a.84.84,0,0,0,.18-.15,115.3,115.3,0,0,1,12.26-9.2c3.62-2.5,7.32-4.87,11-7.28,1.6-1,3.27-2,4.84-3.08C298.57,360.07,300.54,358.57,302.53,357.09Zm-.28,102.44a7.36,7.36,0,0,0-.14-1.1c-.31.1-.54.1-.59.2q-6.19,11.07-12.35,22.16a12.93,12.93,0,0,0-.56,1.41c.57.18,1,.32,1.45.48a22.67,22.67,0,0,1,2.47.9,1.36,1.36,0,0,1,.85,1.78c-.86-.09-1.65-.11-2.42-.26a38.49,38.49,0,0,0-8.84-.38,11,11,0,0,0-3.25.7c-1.34.5-2.6,1.22-3.91,1.81-2.76,1.25-5.52,2.5-8.31,3.7a37.48,37.48,0,0,0-7.86,4.05,12.65,12.65,0,0,1-1.86,1.07c-4.72,2.36-9.24,5.07-13.75,7.8-.87.54-1.71,1.13-2.74,1.81a15.06,15.06,0,0,0,1,1.75c1.3,1.71,2.68,3.37,4,5.1a2.42,2.42,0,0,0,3,.86c.38-.11.76-.25,1.13-.39,6.45-2.39,13-4.32,19.68-6.05,1.93-.51,3.91-.84,5.83-1.39a66.63,66.63,0,0,1,8.14-2c.62-.1,1.22-.37,1.84-.51,1.55-.35,3.1-.73,4.67-1,2.36-.36,4.75-.62,7.12-.92a13.48,13.48,0,0,0,4.18-1,5.92,5.92,0,0,0,.39-3.05c0-6.95,0-13.9.06-20.85,0-1.43.24-2.86.31-4.29Q302,465.75,302.25,459.53Zm-1.5,47.58a10,10,0,0,0-.11-4.58c-1.32.15-2.58.27-3.83.46a53.37,53.37,0,0,0-7.08,1.19c-4.68,1.4-9.45,2.39-14.19,3.52a103.72,103.72,0,0,0-10.24,2.46c-2,.71-4.14,1.22-6.2,1.85-3.13,1-6.24,2-9.36,3a12.8,12.8,0,0,0-1.34.61,21.89,21.89,0,0,0-.17,2.71,94.52,94.52,0,0,1-.23,10.78c-.14,2.95-.22,5.91-.33,8.86a4,4,0,0,0,.51,2.28c2.74,4.78,5.45,9.59,8.08,14.43,2.26,4.14,4.29,8.4,6.61,12.5,3.41,6.05,7.08,12,10.88,17.76.34.51.61,1.16,1.44,1.23a38,38,0,0,1,3.87-2.26q4.26-1.92,8.64-3.55a2.77,2.77,0,0,0,2.07-2.33c.23-1.5.48-3,.8-4.47.38-1.71.84-3.41,1.28-5.11.61-2.39,1.24-4.78,1.87-7.17a15.47,15.47,0,0,0,.43-1.62c.26-1.65.44-3.32.71-5,.33-2,.8-4.08,1.05-6.13.48-4,.94-8.09,1.46-12.13.72-5.54,1.16-11.12,1.72-16.69.14-1.35.31-2.7.49-4.05C300,512.81,300.44,510,300.75,507.11Zm-2.54,71c-2.25-.36-5.88.17-6.36,1l.87,1.42,3-1.07A5.34,5.34,0,0,0,298.21,578.09Zm-52.1-44.23c0-5.27-.16-10.55-.16-15.82a5.73,5.73,0,0,0-1.38-3.71c-1.72-2.2-3.4-4.44-5-6.7a2.19,2.19,0,0,0-2.38-1.15c-1.33.22-2.7.16-4.06.25a10.15,10.15,0,0,0-1.18.23,9.37,9.37,0,0,0,1.13,3.71c1.46,3.38,3,6.7,4.35,10.13,1.16,3.07,2.31,6.13,3.58,9.15a19.48,19.48,0,0,1,.79,2.26,25.82,25.82,0,0,0,2.94,6.54c.15.22.37.4.88,1C245.77,537.47,246.11,535.67,246.11,533.86Zm-.89-360.8c.05-1.67-.06-3.34-.1-5,0-1.35,0-2.71-.13-4.06a2.9,2.9,0,0,0-.6-1.94,2.09,2.09,0,0,0-.31,0,.37.37,0,0,0-.21.09c-10.2,12.29-20.26,24.71-31.31,36.2a6.35,6.35,0,0,0,.17,1.32,31.55,31.55,0,0,1,1.36,5.58c.23,1.25.48,2.51.82,3.74,1.79,6.56,3.13,13.22,4.61,19.85.42,1.87.81,3.75,1.35,5.59.88,3.06,1.86,6.1,2.83,9.15a2.1,2.1,0,0,1-.2,1.83,22.82,22.82,0,0,1-1.56,2.39c-1.64,2-1.71,1.58-1.66,4.25s.07,5.6.06,8.39c0,1.52-.05,3-.16,4.55s-.33,3.18-.47,4.77c0,.24-.3.66.34.67,2.36-6,5-11.94,6.63-18.23.34-1.31.87-2.57,1.29-3.86.65-2,1.28-3.95,1.91-5.94.43-1.37.85-2.74,1.26-4.12.83-2.84,1.72-5.66,2.46-8.52,1.64-6.34,3.21-12.7,4.78-19.06L241,200c.65-2.63,1-5.34,1.6-8a101.33,101.33,0,0,0,2.19-14C245,176.4,245.17,174.73,245.22,173.06Zm-1.84,368.75c.28,1.18.31,1.19,1.33,1.17Zm-.08-.15a4.06,4.06,0,0,0-.17-1.07c-.68-1.62-1.46-3.19-2.08-4.82-1-2.68-1.91-5.41-2.91-8.1-.47-1.27-1-2.5-1.58-3.74s-1.05-2.31-1.56-3.48q-1.17-2.61-2.31-5.24c-.45-1-.88-2-1.33-3.06-.54-1.24-1.06-2.49-1.65-3.71A.9.9,0,0,0,229,508c-.52.08-.5.59-.38,1a22.13,22.13,0,0,0,1.71,4.71,23.9,23.9,0,0,1,1.33,2.8q2.38,5.61,4.74,11.24c.49,1.17.95,2.36,1.44,3.54a62.94,62.94,0,0,0,4.45,9.25A8.57,8.57,0,0,0,243.3,541.66Zm-.67-382.43a3,3,0,0,0,.37-2.95,17.38,17.38,0,0,1-1-3.18,15.12,15.12,0,0,0-2.37-5.19,9.9,9.9,0,0,0-3.86-3.49c-1-.53-1.95-1.09-2.95-1.61-1.48-.76-3-1.49-4.44-2.23-.46.3-.81.5-1.12.74-2.19,1.62-4.35,3.26-6.54,4.87-4.31,3.17-8.61,6.36-13,9.47-3.12,2.22-6,4.74-9,7.27.46.93.81,1.82,1.3,2.63a48.62,48.62,0,0,1,3.58,7.05,7.68,7.68,0,0,0,1.17,2.07,7.24,7.24,0,0,1,1.17,2.34c1.05,2.93,2.11,5.86,3.15,8.79a7.87,7.87,0,0,1,.54,1.84c.26,2.59,1.49,4.88,2.19,7.33.06.2.27.36.46.6a7.73,7.73,0,0,0,2.31-2.05c2.64-3,5.25-6,7.87-9.05,1.31-1.51,2.67-3,3.94-4.51,1.77-2.16,3.46-4.38,5.21-6.57s3.42-4,4.95-6.17,3.28-4.32,5-6.41C242,160.33,242.27,159.76,242.63,159.23ZM225,139.73a13.46,13.46,0,0,0-1.41-.57,39.91,39.91,0,0,0-15-.86c-2.53.27-5,.77-7.56,1.18-.55.1-1.08.27-1.62.42-1.7.45-3.38.93-5.08,1.36-1.47.37-3,.67-4.42,1.05a8.13,8.13,0,0,0-1.36.65c.47,1.08.81,2,1.29,3,1.59,3,3.25,6,4.85,9.08a26.71,26.71,0,0,1,1.16,2.62,14.72,14.72,0,0,0,2,3.48c.93-.77,1.64-1.41,2.39-2,2.53-1.94,5.06-3.89,7.63-5.78,1.61-1.18,3.33-2.2,4.92-3.41,3.18-2.41,6.31-4.89,9.44-7.36A10.78,10.78,0,0,0,225,139.73Zm-5,107.59c-.19-1.5-.35-2.76-.52-4-.07-.55-.14-1.11-.24-1.66-.22-1.09-.53-2.17-.69-3.27-.56-3.87-1.07-7.75-1.6-11.63a102.06,102.06,0,0,0-3.64-17.1c-1.11-3.5-2.13-7-3.26-10.53-1.8-5.55-3.5-11.13-5.53-16.6-2.28-6.13-4.58-12.27-7.31-18.23-1-2.1-1.92-4.21-3-6.27-1.31-2.56-2.67-5.08-3.91-7.68a64.38,64.38,0,0,0-3.73-6.14,3.55,3.55,0,0,0-.71-.61l-7.38,1.57a27.27,27.27,0,0,0,2.9,6.85,18,18,0,0,1,1.19,2.08c1.11,2.47,2.16,5,3.27,7.46a5.89,5.89,0,0,0,1.92,2.69,3.18,3.18,0,0,1,.87,1.39,34.82,34.82,0,0,0,4.21,8,6.07,6.07,0,0,1,.46.83,26.76,26.76,0,0,1,2.64,7.66,17.4,17.4,0,0,0,1.94,5.11,17.48,17.48,0,0,1,1.86,4.11,4,4,0,0,0,1.39,2.45c.62.46.52,1.09.24,1.73a16.81,16.81,0,0,1-7.56,8.06,4,4,0,0,1-4.1,0,11.82,11.82,0,0,1-1.26-.69c-3-2.15-6.54-3.31-9.86-4.88a35.46,35.46,0,0,0-4.68-1.83c-4.35-1.33-8.73-2.57-13.11-3.84-.61-.18-1.24-.32-1.86-.45-5.73-1.13-11.52-1.84-17.32-2.48-2.46-.28-4.93-.45-7.4-.69-2.62-.25-5.24-.53-7.86-.79a13,13,0,0,1-2.61-.3,3.09,3.09,0,0,0-3.4.9c-.07,1.07-.18,2.26-.23,3.45a8.89,8.89,0,0,0,.22,1.47c.56.05,1,.08,1.49.14,1.66.19,3.35.28,5,.61,4.69.95,9.36,2.05,14.11,2.66,4,.51,7.73,2,11.56,3.09a31.39,31.39,0,0,1,7,3c2.69,1.57,5.38,3.14,8.09,4.67,4,2.27,7.88,4.87,11.79,7.35a2.81,2.81,0,0,1,.9.77,1,1,0,0,1,0,.88.92.92,0,0,1-.77.36c-.84-.26-1.64-.62-2.45-1s-1.4-.64-2.27-1c0,.53-.15.88,0,1.13a33.6,33.6,0,0,0,1.8,4.17,71.87,71.87,0,0,1,5.91,12.28,37.16,37.16,0,0,1,2,10.55,53.18,53.18,0,0,1-.45,6.44,29,29,0,0,0-.31,4.27c.41.25.73.48,1.08.66,1.21.62,2.45,1.17,3.62,1.85a49,49,0,0,0,9.77,3.87,5.7,5.7,0,0,0,2.6.11,20.9,20.9,0,0,0,10.75-4.91c1.26-1.11,2.56-2.16,3.78-3.32A35.31,35.31,0,0,0,219.93,247.32Zm-3.71,25.24a120.07,120.07,0,0,0,.52-13.4,20.19,20.19,0,0,0-.74-5.22,8.89,8.89,0,0,0-2.48,2,22.93,22.93,0,0,1-6,4.31c-.49.25-1,.5-1.48.78a10,10,0,0,1-7.62,1.08,35.92,35.92,0,0,1-9-3.25,10.75,10.75,0,0,0-4.27-1.43,16.07,16.07,0,0,0-5.85,7.17,70.6,70.6,0,0,0-2.68,8.19,24.26,24.26,0,0,0-.51,8.57c.36,4.29.91,8.57,1.25,12.87a35.49,35.49,0,0,1-.07,5.74c-.12,1.38-.64,1.54-1.93,1.06-.73-.27-1.52-.38-2.26-.64-4.75-1.67-9.59-3.05-14.44-4.37l-5.55-1.51a3.06,3.06,0,0,0-2.11,0,10.57,10.57,0,0,0-3.1,2.61,7.07,7.07,0,0,0,2.45,2.5c2.87,2,5.72,4.09,8.59,6.12,1.37,1,2.75,1.91,4.17,2.81,2.42,1.54,4.91,3,7.3,4.58a37.8,37.8,0,0,0,7.81,4.16,9.14,9.14,0,0,0,7,.08,12.06,12.06,0,0,0,4.55-3.45,50,50,0,0,0,5.93-9.27,62.11,62.11,0,0,0,4.66-13.32c.65-2.88,1.16-5.8,1.76-8.69a12.81,12.81,0,0,1,.67-2.29c.11-.26.58-.37.95-.58a4.38,4.38,0,0,1,0,2.75,129.88,129.88,0,0,1-3,13.32,48.19,48.19,0,0,1-2.6,7.19c-1.3,2.56-2.72,5.06-4.08,7.6-.29.54-.77,1.05-.52,1.75A17.66,17.66,0,0,0,199,314.3a5,5,0,0,0,4.86-1.93c2.58-3,4.87-6.13,5.89-10,.15-.54.41-1,.57-1.58,1.5-5.19,4-10.12,4.29-15.64a4.48,4.48,0,0,1,.12-.46c.62-3.37,1.42-6.73,1.33-10.2A17.41,17.41,0,0,1,216.22,272.56Zm-10.16,40.91c-.21.17-.41.3-.57.46a7.1,7.1,0,0,1-6.32,2.16,14.79,14.79,0,0,1-5.53-1.39,8.8,8.8,0,0,0-1.44-.52,12,12,0,0,0-1.3,1.38,9.65,9.65,0,0,1-3.83,3.17,9.27,9.27,0,0,1-6.49.95,31.37,31.37,0,0,1-4.28-1.37,18.59,18.59,0,0,1-2.41-1.19c-1.79-1.05-3.52-2.2-5.24-3.36-4.18-2.81-8.66-5.13-12.7-8.17-2.61-2-5.44-3.63-7.86-5.86-.41-.38-.82-.76-1.25-1.12a10,10,0,0,0-5.12-1.95c.5.74.92,1.41,1.37,2a44.58,44.58,0,0,0,8.85,8.72,84.14,84.14,0,0,0,12.55,8.34,102.37,102.37,0,0,0,10.84,5.06q2.89,1.14,5.88,2.07c1.61.49,3.28.76,4.87,1.28A73.84,73.84,0,0,0,197.72,327a17.06,17.06,0,0,0,4.41.57C203.24,325.44,206,315.65,206.06,313.47Zm-7.12-117.38a1.91,1.91,0,0,0,.11-1.38c-.91-2-1.49-4.19-3.1-5.94a10.51,10.51,0,0,1-.83,1.23,5.57,5.57,0,0,1-2.84,2.1c-2.94.69-5.85,1.61-8.95,1.3a3.76,3.76,0,0,0-2.32.38c-.11.34-.24.63-.31.94-.3,1.33-.16,1.73.91,2.41.26.17.56.3.84.45,2.45,1.35,4.91,2.66,7.33,4.06a3.59,3.59,0,0,0,3.65.25A12,12,0,0,0,198.94,196.09Zm-8.08-6.17c2.71-1.15,3.69-3,3.38-5.91a17.65,17.65,0,0,0-.71-3,12.92,12.92,0,0,0-7-8.33,46.18,46.18,0,0,0-12.2-3.75,3.23,3.23,0,0,0-.7.47,38.46,38.46,0,0,0-5,7.56,2.74,2.74,0,0,0-.14,2.32c.5,1.25,1.05,2.49,1.61,3.72.26.58.63,1.11.86,1.7,1.18,3,3.61,4.65,6.46,5.6a17,17,0,0,0,5.2.58,52.27,52.27,0,0,0,5.72-.35A9.13,9.13,0,0,0,190.86,189.92Zm-5.06-20.13c.42-.47.79-.87,1.26-1.38a27.41,27.41,0,0,1-1.37-2.5c-1.09-2.49-2.46-4.83-3.58-7.31-1.74-3.85-3.86-7.52-5.17-11.57-.38-1.15-.75-1.34-2-1.23-.63.06-1.27.16-1.9.27a56.62,56.62,0,0,1-9.28,1c-.87,0-1.76,0-2.63,0a145.78,145.78,0,0,1-17.49-.16,13.89,13.89,0,0,1-1.41-.25c-.78-.13-1.56-.29-2.34-.39-1.83-.21-3.66-.35-5.48-.58-1.27-.16-2.53-.41-3.79-.61q-3.42-.56-6.86-1.07a9.05,9.05,0,0,0-1.27,0,3.91,3.91,0,0,0-.61,2.44c-.17,4.15-.29,8.3-.5,12.45-.16,3.35-.43,6.69-.64,10-.12,1.84-.19,3.67-.32,5.5a2.92,2.92,0,0,0,1,2.58,4.45,4.45,0,0,1,1.43,3.44c0,1.19-.08,2.39-.14,3.58,0,.46-.1.92-.16,1.49a10.23,10.23,0,0,0,1.66.48c3.57.39,7.15.75,10.73,1.11,4.6.47,9.21.85,13.8,1.39,2.31.26,4.62.57,6.91.95,2,.35,4,1,6,1.52s4.3,1.21,6.43,1.86c2.9.9,6,1.16,8.77,2.41a7.51,7.51,0,0,0,1.38.31,2.71,2.71,0,0,0,1-2.17c-.82-.32-1.58-.56-2.29-.9a17.42,17.42,0,0,1-5.58-3.62,6.66,6.66,0,0,1-2.41-3.5,16,16,0,0,0-1.1-2.89c-.44-.95-.83-1.91-1.26-2.86a3.6,3.6,0,0,1,.29-3.65c.17-.27.32-.55.5-.81,1.13-1.64,2.28-3.28,3.39-4.93.23-.35.71-.71.24-1.26-.78.14-1.56.33-2.34.41a9,9,0,0,0-5.33,2.5c-2.74,2.56-5.55,5-8.21,7.7a22.12,22.12,0,0,0-5.1,6.9,4.74,4.74,0,0,1-.79,1.19.67.67,0,0,1-.46.16.47.47,0,0,1-.17,0c-.17-.08-.28-.36-.35-.57a.61.61,0,0,1,0-.46,37,37,0,0,1,3.08-4.83c1.65-1.94,3.59-3.63,5.41-5.42a20.15,20.15,0,0,0,2.72-2.66,20.3,20.3,0,0,1,3-3.1,11.56,11.56,0,0,1,4.76-2.64,47.17,47.17,0,0,1,7-1.27,4.25,4.25,0,0,1,2.31.33A62.47,62.47,0,0,0,185.8,169.79Zm-3.72,82.71a35.67,35.67,0,0,0,.11-8.13c-.29-2.21-.73-4.41-1.15-6.61-.15-.76-.44-1.5-.72-2.46a13.14,13.14,0,0,0-2.69,2.27c-4,4.09-8.1,8.15-12.11,12.28-2.33,2.41-4.65,4.84-6.8,7.4A29,29,0,0,1,155,261c-1,.86-1.95,1.88-2.9,2.84-.45.45-.85.95-1.31,1.39-2.64,2.55-5.3,5.08-7.92,7.65-.79.78-1.46,1.68-2.26,2.62,1,2.82,2.4,4.94,5.39,5.43.16,0,.3.12.45.16,2.77.84,5.53,1.52,8.47.77a3.74,3.74,0,0,1,4,1.52,7.82,7.82,0,0,1,.68,1,3.8,3.8,0,0,0,1.93,1.69c3.86,1.73,7.69,3.51,11.54,5.26a3.18,3.18,0,0,0,.9.3,7.59,7.59,0,0,0,1.18,0c0-.79,0-1.41,0-2-.11-1.35-.27-2.7-.41-4.05-.13-1.19-.32-2.37-.38-3.56q-.21-4.31-.32-8.61c0-.62.36-1.29.25-1.87-.39-2,.37-3.61,1.14-5.28a50.36,50.36,0,0,1,4-7.36A13.63,13.63,0,0,0,182.08,252.5Zm-4.44-19c1.27-1.42,1.67-2.81.76-4.53a12.74,12.74,0,0,1-.45-1.36,14.15,14.15,0,0,0-2.41-4.45,10.89,10.89,0,0,0-1,3.19,14.59,14.59,0,0,1-.91,3,56.93,56.93,0,0,0-3,9.55,4.69,4.69,0,0,0-.07,2.69,4.68,4.68,0,0,0,2-1.77C174.21,237.65,175.84,235.48,177.64,233.47Zm-2.37,65.31a10,10,0,0,0,.24-4.24,55.45,55.45,0,0,0-7-3.5c-2.28-.94-4.59-1.83-6.85-2.83a1.74,1.74,0,0,0-2.17.26c-.86.82-1.76,1.6-2.92,2.64.56.4,1,.7,1.42,1s1,.62,1.2,1.06a2,2,0,0,0,1.67,1.17c1.24.31,2.49.57,3.72.9s2.44.73,3.66,1.1c1.06.33,2.14.63,3.19,1C172.66,297.79,173.91,298.28,175.27,298.78Zm-2.92-81.4a2.73,2.73,0,0,0-.61-2,38.87,38.87,0,0,0-15.83-12.08c-3.28-1.43-6.79-2.34-10.21-3.45a19.5,19.5,0,0,0-2.12-.43c-.24.86-.45,1.45-.58,2.06-.62,3.13-1.22,6.26-1.85,9.38-1.08,5.4-2.2,10.8-3.23,16.21a17.7,17.7,0,0,0-.16,3.57,2.93,2.93,0,0,0,1.18,2.26,16.94,16.94,0,0,1,2.12,1.94,7.52,7.52,0,0,0,5.26,2.94,5.39,5.39,0,0,1,4.25,2.76c1.14,1.73,2.38,3.4,3.61,5.08,1.49,2,3,2.12,4.74.35.84-.85,1.76-1.61,2.64-2.42a2.38,2.38,0,0,1,2.68-.4c.66.26,1.31.54,1.88.78A2.5,2.5,0,0,0,168,241.8c1.09-4.33,2.21-8.65,3.27-13a20.73,20.73,0,0,0,.34-2.85c.11-1.11.16-2.22.27-3.33C172,220.88,172.18,219.13,172.35,217.38Zm-6.7,30.16c.26-.27.63-.52.39-1.15-.51-.14-1.12-.26-1.7-.48a2.81,2.81,0,0,0-2.71.44c-.53.36-1,.77-1.54,1.15a8.24,8.24,0,0,1-1.58,1.06c-2.91,1.22-3.28,1.34-5.22-1.25-.29-.39-.53-.8-.82-1.19-.79-1.1-1.56-2.22-2.41-3.28a6.79,6.79,0,0,0-4.36-2.7,7.45,7.45,0,0,1-4.45-2.62,30.45,30.45,0,0,0-2.51-2.57c-2.44-2.24-2.58-2.52-2.42-5.8a6,6,0,0,1,.08-1c.69-4,1.36-8,2.11-12,.37-2,.94-3.88,1.38-5.83a4.62,4.62,0,0,0,0-2.9,4,4,0,0,0-.92.34c-.93.63-1.81,1.31-2.73,1.95-3,2.1-6,4.2-9,6.27a21.14,21.14,0,0,0-5.35,4.56c.45,2.32.86,4.67,1.39,7,1.45,6.39,3.41,12.64,5.15,18.95a40.51,40.51,0,0,0,1.3,3.85c1.49,3.87,3.32,7.61,4.49,11.61a14.91,14.91,0,0,0,.6,1.57c.94,2.2,1.85,4.42,2.87,6.58a6.73,6.73,0,0,0,2.21,3.15c.67-.53,1.34-1,1.9-1.51,2.53-2.45,5.05-4.89,7.52-7.39a39.17,39.17,0,0,1,5.11-5,7.48,7.48,0,0,0,1-1Q160.56,253,165.65,247.54ZM157.25,288a18.86,18.86,0,0,0,1.61-1.8,5,5,0,0,0-5.47-2.64,11.57,11.57,0,0,1-3.57-.13c-1.71-.33-3.39-.89-5.08-1.33a15.86,15.86,0,0,0-2.32-.53,1.32,1.32,0,0,0-1.48.95,4.22,4.22,0,0,0,.18,3.49,6.69,6.69,0,0,0,3.39.95c1,.05,2.07,0,3.11.07a15.22,15.22,0,0,1,2.61.29,5.12,5.12,0,0,1,3.27,2.93.92.92,0,0,1-.19.85.88.88,0,0,1-.63.1l-.21,0a1.21,1.21,0,0,1-.56-.43,5.26,5.26,0,0,0-4.7-1.88,16.63,16.63,0,0,1-6.81-1.08,20.75,20.75,0,0,0-2.53-.72,9.65,9.65,0,0,0-2.14-.27,1.35,1.35,0,0,0-1.38,1.77,3.85,3.85,0,0,0,.6,1.28,7,7,0,0,0,4.08,2.78,21.51,21.51,0,0,1,5.26,2.25,16.16,16.16,0,0,0,1.62.68,3.42,3.42,0,0,0,.52-.4,6.38,6.38,0,0,1,6.12-2.76,8.56,8.56,0,0,1,1.26.26c.6.17,1.22.27,1.94.43-.13-1.37-.25-2.59-.37-3.83A16,16,0,0,0,157.25,288Zm-16.31-84.63c.53-1.3.89-2.68,1.36-4.13-.83-.2-1.52-.4-2.21-.51q-7.22-1.18-14.42-2.33a1.87,1.87,0,0,0-.7-.06c-1.32.3-2.63.62-4.14,1-.09,1.6-.2,3.11-.25,4.61a63.33,63.33,0,0,0-.15,8.38c.17,1.74.29,3.5.48,5.24a2,2,0,0,0,.85,1.73,3,3,0,0,0,.83-.24,142.6,142.6,0,0,0,17.13-12.25A4.24,4.24,0,0,0,140.94,203.37Zm-29.31-20.9a4.81,4.81,0,0,0-1-5.9c-1.26-1.33-2-1.28-2.82.38a3.39,3.39,0,0,0-.27.66,17.23,17.23,0,0,0-.15,8.53,12.66,12.66,0,0,0,2.32,4.69,10.6,10.6,0,0,0,1.09.95c0-1.73.33-3,0-4.07a4,4,0,0,1,0-2.52A17,17,0,0,1,111.63,182.47ZM75.17,63.24c-.74-1.51-.89-1.69-1.64-2-1.16-.54-1.87-.14-2.4,1.41C72.41,63.17,73.67,63.77,75.17,63.24Zm-.86,3.15a5.37,5.37,0,0,0,.39-1.16A45.55,45.55,0,0,0,70,64.36a9.11,9.11,0,0,0-2.28,4.2c.37.77,1.17,1,1.83,1.44,1.2.75,1.83.66,2.68-.43S73.63,67.47,74.31,66.39Zm-23.9-9.13c.23-1.08-.47-1.69-1-2.32C48.6,54,47.75,53.19,47,52.29a22.55,22.55,0,0,1-3.46-5.43,4.4,4.4,0,0,1,0-4.14A3.66,3.66,0,0,0,44,41.63a5.9,5.9,0,0,0-.12-1.34L42,40.47a11.17,11.17,0,0,0-1.18.18c-1.21.28-1.52.83-1.29,2.09a20.42,20.42,0,0,0,1.88,4.65c.58,1.29,1.07,2.69,2.6,3.25a.34.34,0,0,1,.15.18c.07.22.24.5.17.66s-.36.6-.6.64a17.86,17.86,0,0,1-2.08.17c.15.77.35,1.53.43,2.31a7.45,7.45,0,0,1,0,2.11c0,.27-.57.58-.9.62a.47.47,0,0,1-.42-.15,1.1,1.1,0,0,1-.27-.65,1,1,0,0,1,0-.24c.25-2.6-1.1-4.5-2.66-6.32-.24.12-.41.16-.5.27-1.5,1.75-3,3.49-4.45,5.28A7.66,7.66,0,0,0,32.1,57a2.25,2.25,0,0,1-.6.3c-.89.18-1.48-.4-1.16-1.18a5.81,5.81,0,0,1,1-1.6c1.08-1.27,2.24-2.48,3.32-3.76A21.36,21.36,0,0,0,36,48.8,3.9,3.9,0,0,0,33.64,47a8.7,8.7,0,0,0-10.39,4.22A17.31,17.31,0,0,0,22,54.6,9.3,9.3,0,0,0,23,62.4c2.15,3.44,6.07,5.83,11.13,4.07,1.07-.37,2-.92,2.13-2.29a5.47,5.47,0,0,1,.52-1.33c.38-1,.85-2.07,1.13-3.14,0-.15.08-.3.11-.46.35-1.75,1-1.94,2.43-1.41l.29.11a1.16,1.16,0,0,1,.39.26,2.61,2.61,0,0,0,2.48.44C45.89,58.17,48.14,57.72,50.41,57.26Zm-2.73,3.86c.87-.19,1.29-1,1.45-2.11-2.1.3-4,.85-5.85,1.3-.2,0-.33.44-.47.64.14.17.17.26.24.29C44.61,61.88,46.17,61.44,47.68,61.12Zm-1.3,2.11a5.46,5.46,0,0,0-.85-.18c-.8,0-1.59,0-2.38.05-.5,0-1,.2-1.07.75a1.56,1.56,0,0,0,.53.95c.26.28.66.43.93.7a.7.7,0,0,1,.12.64l-.14.15a.88.88,0,0,1-.59.27,10.76,10.76,0,0,1-1.61-.5l-1.19,2c.91,1,1.45,2,2.74,2.14a19.35,19.35,0,0,1,2-3.94A18,18,0,0,0,46.38,63.23Zm.46,10.5c-.63-2.51-1.1-2.91-2.75-2.46Zm-6.91-9.55a5.48,5.48,0,0,0,.57-4c-1.46,1.39-1.1,3.65-2.76,5.24C39,65.39,39.57,65,39.93,64.18ZM41.19,51a27.72,27.72,0,0,0-1.39-2.78c-.33-.52-.81-.33-1.08.36Z" transform="translate(-0.25 -0.25)"/><path class="cls-6" d="M414.58,404.3l1,.24a63.42,63.42,0,0,1-2.3,8c-.44,1.19-.68,2.46-1,3.69s-.63,2.46-1,4c-.68-.93-1.13-1.6-1.65-2.23s-1.27-1.43-1.9-2.15-1.14-1.32-1.62-1.88c-.06-1,.57-1.27,1-1.7,2.08-2.1,4.18-4.18,6.26-6.28a8,8,0,0,0,1-1.29A1,1,0,0,0,414.58,404.3Z" transform="translate(-0.25 -0.25)"/><path d="M406.09,761.68c5-.23,9.58-.38,9.34.2s-2.57.9-5.79,1.27h-.07c-4.35,0-5.51-1.28-3.73-1.45h.25Z" transform="translate(-0.25 -0.25)"/><path class="cls-6" d="M408.53,730.26a12.26,12.26,0,0,1,1.15,1c-.8,1.27-1.53,2.5-2.34,3.68s-1.3,2.74-2.65,3.67a14.43,14.43,0,0,1-1.58-.66,12.61,12.61,0,0,1-1.36-1l-6.49-4.92c-.51-.39-1-.76-1.51-1.18-3.41-3-6.79-6.08-10.22-9.08-4.09-3.57-8.27-7.06-12.34-10.66-3.71-3.28-7.31-6.7-11.28-9.68a19.13,19.13,0,0,1-2.32-2.09c-1.59-1.66-3-3.51-5-4.72a6.8,6.8,0,0,1-.87-.83c-1.08-1-2.16-1.9-3.26-2.82s-2.57-1.93-3.71-3c-1.87-1.84-3.81-3.6-5.77-5.34-1.67-1.49-3.26-3.06-4.93-4.55-2-1.81-4.17-3.5-6.15-5.35-2.62-2.47-5.06-5.12-7.72-7.55a50.6,50.6,0,0,1-6-6.52,33.66,33.66,0,0,0-2.95-3.46c-3.31-3.25-6.68-6.43-10-9.64a16.72,16.72,0,0,1-1.16-1.22c-3.63-4.36-7.45-8.56-10.92-13.06-4.82-6.28-9.7-12.5-14.18-19-5.06-7.4-9.61-15.11-14.3-22.73-2.23-3.61-4.51-7.19-6.79-10.75-1.56-2.43-3.21-4.79-4.74-7.22-1.15-1.83-2.2-3.72-3.27-5.59-.66-1.18-1.28-2.39-1.93-3.58a3.3,3.3,0,0,0-.51-.8,34,34,0,0,1-4.42-6.25q-5.15-8.1-10.15-16.29c-2.2-3.62-4.24-7.34-6.41-11-1.8-3-3.13-6.3-5.37-9.07a7.13,7.13,0,0,1-.83-1.71c-2.26-5.3-4.56-10.57-6.75-15.9-1.06-2.58-1.93-5.24-2.83-7.89-1.25-3.71-2.45-7.44-3.67-11.16-.63-1.9-1.35-3.76-1.88-5.69-1.55-5.62-3-11.26-4.52-16.9-.19-.69-.46-1.36-.66-2.05a36,36,0,0,1-1.09-3.91c-.58-3.39-1-6.79-1.56-10.19-.28-1.82-.71-3.62-.89-5.44-.29-2.94-.41-5.9-.64-8.85-.43-5.61.25-11.18.38-16.77,0-.64.14-1.27.19-1.91a21.37,21.37,0,0,0,.12-2.39,93.83,93.83,0,0,1,.62-12c.15-1.83.24-3.68.54-5.49.55-3.39,1.24-6.76,1.85-10.14.89-5,2.09-9.86,2.46-14.9a34.8,34.8,0,0,1,1-6.39c.63-2.39,1.11-4.83,1.5-7.27a78.7,78.7,0,0,1,2.29-11.27,18.93,18.93,0,0,0,.36-1.88c.46-2.35.79-4.74,1.42-7.05,1.58-5.78,3.27-11.53,4.95-17.28.68-2.3,1.47-4.56,2.19-6.85,1.25-4,2.45-7.94,3.72-11.89.61-1.9,1.36-3.76,2-5.65,1.73-5.07,3.53-10.11,5.12-15.22,1.32-4.28,2.56-8.57,4.11-12.77,1.89-5.1,3.58-10.27,5-15.52s3-10.29,4.47-15.43q1-3.33,1.91-6.68a15.79,15.79,0,0,0,.52-2.34,59.39,59.39,0,0,1,3-12.32,108.09,108.09,0,0,0,3.3-14q1.08-5.53,2.15-11.06c.12-.63.15-1.27.21-1.9.27-2.87.48-5.74.8-8.6a38.18,38.18,0,0,0-.42-13.1c-.73-3.16-1-2.81,1.36-5.26a19.93,19.93,0,0,0,2-2.42,1.28,1.28,0,0,0-.18-1.74,1.37,1.37,0,0,0-1.77-.11,8.2,8.2,0,0,0-1,.71c-.67.56-1.33,1.14-2,1.73-.19-.2-.43-.35-.5-.55a47.61,47.61,0,0,0-3.79-9.28,12.67,12.67,0,0,0-2.86-3.77c-1.25-1-2.63-1.81-3.94-2.71-.38-.25-.72-.55-1.11-.85a6.5,6.5,0,0,1,2-1.85,13.54,13.54,0,0,0,1.64-1.39,1.24,1.24,0,0,0-.13-2.05,1.63,1.63,0,0,0-2.37-.13c-1.47,1.1-2.92,2.23-4.32,3.42a2.73,2.73,0,0,1-2.44.64c-.87-.15-1.72-.38-2.59-.47-2.07-.22-4.14-.35-6.21-.58a18.05,18.05,0,0,0-4.53-.1c-1.65.23-3.34.19-5,.29a5.25,5.25,0,0,0-1.42.21c-2.81,1-5.78,1.19-8.67,1.78-3.83.77-7.73,1.23-11.54,2.19-3.09.79-6.23,1.43-9.38,2s-6.48,1-9.74,1.36c-3.57.42-7.15.73-10.73,1.1-1.67.17-3.35.3-5,.56a38.31,38.31,0,0,1-9.08.23c-3.27-.27-6.53-.6-9.8-.8a38.75,38.75,0,0,1-7.11-1,19.07,19.07,0,0,0-2.59-.49c-1.42-.17-2.86-.18-4.27-.4-8-1.25-15.64-3.93-23.11-7-1.84-.77-3.7-1.5-5.55-2.25-1.26-.51-2.54-1-3.78-1.54-3.14-1.39-6.3-2.76-9.41-4.23-2-1-4-2-5.94-3.12-3.61-2.06-7.12-4.3-10.78-6.27a111.8,111.8,0,0,1-13.16-8.76c-3.4-2.51-6.51-5.41-9.71-8.19-2.48-2.14-4.9-4.36-7.33-6.55-1.61-1.45-3.3-2.8-4.78-4.37-2.89-3.09-5.67-6.29-8.47-9.47-1-1.13-2-2.31-2.87-3.53a170.48,170.48,0,0,1-11.6-17.9,4.88,4.88,0,0,0-1.85-1.84,1,1,0,0,0,.19-.54c.15-3.68,3.23-8.15,5.21-11.21s4.1-6.45,7.36-8c.9,1.67,1.8,3.35,2.75,5,1.16,2,2.33,4,3.59,6A2.85,2.85,0,0,1,21.41,51a12.14,12.14,0,0,0-1.39,5c-.49,4.29,1.29,7.67,4.39,10.37a9.35,9.35,0,0,0,9.38,2.13c.68-.21,1.37-.37,2-.54L46.07,78.08c0,1.42,0,2.68,0,3.89,0,.49,0,1,0,1.45a9,9,0,0,0,3.63,7.23c.63.48,1.24,1,1.87,1.48a8.62,8.62,0,0,0,7,1.83c1.68-.3,3.17-.34,4.21,1.29.08.12.26.18.38.28,2.86,2.18,5.73,4.35,8.57,6.56,1.26,1,2.47,2,3.68,3.08a5.49,5.49,0,0,1,.68,1,15.72,15.72,0,0,1-4,2.43A12.52,12.52,0,0,0,70,109.75a1.52,1.52,0,0,0-.38,2.13,4.2,4.2,0,0,0,2.39,2c2.81-1.41,5.2-3.61,8.13-5a14.19,14.19,0,0,1,1.43.85c2,1.48,4,2.91,5.9,4.52a33.82,33.82,0,0,0,6,3.89l3.17,1.7a77.52,77.52,0,0,0,11.57,5.21,107.88,107.88,0,0,0,24.78,5.35c3.66.35,7.33.58,11,.84a9.89,9.89,0,0,0,1.44,0c1.27-.07,2.55-.14,3.82-.23.48,0,.95-.09,1.43-.16,1.41-.23,2.82-.59,4.24-.69a74.23,74.23,0,0,0,18.47-3.95c4.69-1.59,9.34-3.32,14.08-4.72s9.27-3,14.07-4a132.22,132.22,0,0,1,13.7-2.28,26.73,26.73,0,0,1,7.42,0c2.12.38,4.22.89,6.35,1.2a15.46,15.46,0,0,1,5,1.71,38.85,38.85,0,0,1,13.88,12.28A105.31,105.31,0,0,1,255.14,143c.33.64.66,1.28,1,1.93.57,1.14,1.15,2.27,1.7,3.42,1.7,3.57,2.28,7.47,3.24,11.25a64.74,64.74,0,0,1,1.27,7.32c.47,3.65.92,7.3,1.17,11a92.59,92.59,0,0,1,.12,9.57c-.05,1.29-.12,2.57-.2,3.85a62.39,62.39,0,0,1-1.59,12.12c-1.25,4.62-2.71,9.19-4.17,13.76-1.68,5.26-3.44,10.48-5.18,15.72-.48,1.44-1,2.86-1.48,4.31-2,6.42-3.84,12.87-5.89,19.26-1.94,6-3.63,12.11-6,18-.63,1.55-1.14,3.15-1.67,4.75-2.24,6.75-4.5,13.5-6.67,20.28-1.73,5.4-3.36,10.84-5,16.27-.46,1.53-.73,3.12-1.21,4.64a124.34,124.34,0,0,0-3.36,14,88.17,88.17,0,0,1-3.73,14.12c-1.87,5.13-3,10.45-4.56,15.65a13.32,13.32,0,0,0-.32,1.89c-.32,2.38-.59,4.76-1,7.13A121.84,121.84,0,0,0,209.82,388c0,.88-.16,1.75-.23,2.63-.3,3.9-.68,7.8-.88,11.71q-.32,6.22-.33,12.46c0,5,0,10.08.27,15.11.21,3.82.74,7.64,1.32,11.43.79,5.21,1.78,10.4,2.64,15.6,1.06,6.41,3.27,12.53,4.58,18.87a15.49,15.49,0,0,0,.6,1.82c.37,1.06.78,2.1,1.09,3.17,1.94,6.62,4.74,12.9,7.32,19.27a41.2,41.2,0,0,1,2.1,6c-.14.29-.17.49-.28.57a2.49,2.49,0,0,0-.9,3.19c.59,1.74,1.3,3.43,2,5.13.37.88.85,1.72,1.23,2.59,1.29,3,2.55,6,3.84,9.06.56,1.32,1.18,2.62,1.76,3.94,1.57,3.59,3.1,7.19,4.7,10.77a15.67,15.67,0,0,0,1.52,2.71c1.38,2,1.94,2.06,4.19,1,.11-.05.29,0,.6.11.56,1.12,1.14,2.34,1.78,3.53q3.36,6.23,6.77,12.43c2.32,4.2,4.65,8.39,7,12.56q4.05,7.06,8.22,14.08a3.68,3.68,0,0,1,.52,3.61,3.54,3.54,0,0,0-.24,1.17,1.92,1.92,0,0,0,1.58,2.09,2.75,2.75,0,0,0,.95.05,2.49,2.49,0,0,1,2.5,1.46c1.71,2.61,3.48,5.18,5.23,7.77q3.9,5.76,7.8,11.51c.81,1.19,1.58,2.42,2.5,3.52q4.57,5.55,9.27,11c1.56,1.82,3.11,3.67,4.82,5.34,2.64,2.58,5,5.41,7.41,8.18,3.94,4.51,7.67,9.19,11.93,13.44,5.54,5.54,10.86,11.29,16.28,17,.5.52,1,1.06,1.48,1.57,3.54,3.58,7,7.22,10.63,10.73,2.87,2.77,5.91,5.38,8.87,8.06,2.08,1.88,4.1,3.83,6.25,5.61,2.78,2.28,5.68,4.43,8.52,6.64,1.82,1.42,3.71,2.79,5.45,4.31,3.5,3,7,6.11,10.77,8.79,3.06,2.16,6.08,4.38,9.14,6.55C404.44,727.47,406.5,728.84,408.53,730.26Z" transform="translate(-0.25 -0.25)"/><path class="cls-6" d="M404.35,395.52a5.29,5.29,0,0,1-.83.73c-2.36,1.33-4.75,2.62-7.1,4a2.18,2.18,0,0,1-2.27-.09c-1-.52-1.91-1.15-2.89-1.7-.75-.43-1.56-.77-2.31-1.2a4.55,4.55,0,0,1-1.33-1c-1.62-2-3.27-3.92-4.74-6-1.93-2.71-2.75-5.88-3.58-9.09l3-2.63c2.92,1.87,5.89,3.57,8.63,5.57s5.3,4.35,8,6.51a22.47,22.47,0,0,0,2.74,1.92C403.2,393.44,403.22,393.4,404.35,395.52Z" transform="translate(-0.25 -0.25)"/><path class="cls-6" d="M359,364.56a5.28,5.28,0,0,1,2.28,2.06c-2.55,1.74-5,3.4-7.51,5.12a5.16,5.16,0,0,1-2.39-.66c-2.35-.78-4.67-1.64-7-2.46-.53-.19-1.06-.38-1.6-.54a68.64,68.64,0,0,1-9.17-3.49c-1.39-.62-2.78-1.22-4.17-1.82s-3-1.2-4.41-1.89a98.05,98.05,0,0,0-9.32-3.83,18,18,0,0,1-1.75-.83c.4-.75.76-1.36,1.06-2a1.09,1.09,0,0,0-.48-1.45c-1.21-.65-2.44-1.2-3.83-.39a14.12,14.12,0,0,0-1.33.52c-1.54,1.09-3.07.85-4.78.37-3.61-1-7.28-1.82-10.92-2.73l-7.44-1.89c-4.41-1.12-8.84-2.2-13.24-3.35-5.26-1.38-10.49-2.86-15.74-4.24-3.25-.86-6.52-1.6-9.77-2.43-3.48-.88-6.95-1.85-10.43-2.73-2.09-.53-4.2-1-6.31-1.45-1.8-.38-3.61-.69-5.41-1.06-.61-.13-1.2-.35-1.89-.55a16.23,16.23,0,0,1,1.13-5.16c.52-1.76,1.07-3.52,1.68-5.26s.66-3.43,1.57-4.91c.27,0,.44-.08.57,0,3.6,1.62,7.49,2.23,11.3,3.09a11.67,11.67,0,0,1,1.17.27,64.39,64.39,0,0,0,11,2.35,15.44,15.44,0,0,1,1.63.39,19,19,0,0,0,3,.66,28.82,28.82,0,0,1,6.3,1.38,38.14,38.14,0,0,0,6.74,1.66,8.42,8.42,0,0,1,2.1.48,85.33,85.33,0,0,0,8.71,2.59,6.92,6.92,0,0,1,.91.3c5.9,2.48,12.07,4.23,17.91,6.86,1.46.66,3,1.23,4.46,1.76,3.86,1.36,7.54,3.1,11.24,4.82s7.75,3.42,11.67,5c5.11,2.08,10.23,4.13,15.17,6.6,2.29,1.14,4.69,2,7,3.14,1.73.82,3.44,1.71,5.11,2.64S357.31,363.52,359,364.56Z" transform="translate(-0.25 -0.25)"/><path d="M265.2,166.23a48.85,48.85,0,0,1,0,8.38,54.38,54.38,0,0,0-.14,6q.07,3.48-.05,6.95l-1.37,0a92.59,92.59,0,0,0-.12-9.57c-.25-3.67-.7-7.32-1.17-11a64.74,64.74,0,0,0-1.27-7.32c-1-3.78-1.54-7.68-3.24-11.25-.55-1.15-1.13-2.28-1.7-3.42-.32-.65-.65-1.29-1-1.93a105.31,105.31,0,0,0-7.23-12.69A38.85,38.85,0,0,0,234,118.06a15.46,15.46,0,0,0-5-1.71c-2.13-.31-4.23-.82-6.35-1.2a26.73,26.73,0,0,0-7.42,0,132.22,132.22,0,0,0-13.7,2.28c-4.8,1-9.4,2.61-14.07,4s-9.39,3.13-14.08,4.72A74.23,74.23,0,0,1,155,130.14c-1.42.1-2.83.46-4.24.69-.48.07-1,.13-1.43.16-1.27.09-2.55.16-3.82.23a9.89,9.89,0,0,1-1.44,0c-3.67-.26-7.34-.49-11-.84a107.88,107.88,0,0,1-24.78-5.35,77.52,77.52,0,0,1-11.57-5.21l-3.17-1.7a33.82,33.82,0,0,1-6-3.89c-1.89-1.61-3.92-3-5.9-4.52a14.19,14.19,0,0,0-1.43-.85c-2.93,1.43-5.32,3.63-8.13,5a4.2,4.2,0,0,1-2.39-2,1.52,1.52,0,0,1,.38-2.13,12.52,12.52,0,0,1,2.08-1.18,15.72,15.72,0,0,0,4-2.43,5.49,5.49,0,0,0-.68-1c-1.21-1-2.42-2.1-3.68-3.08-2.84-2.21-5.71-4.38-8.57-6.56-.12-.1-.3-.16-.38-.28-1-1.63-2.53-1.59-4.21-1.29a8.62,8.62,0,0,1-7-1.83c-.63-.48-1.24-1-1.87-1.48a9,9,0,0,1-3.63-7.23c0-.48,0-1,0-1.45l1.43,0c0,.83,0,1.67.13,2.49a7.52,7.52,0,0,0,2.22,4.17,13.3,13.3,0,0,0,2.65,2c3.06,2,6.27,1.53,9.44.37a8.52,8.52,0,0,0,5.43-6.25,13.27,13.27,0,0,0,.41-5,6.87,6.87,0,0,0-1.92-4.27,8.67,8.67,0,0,1-.65-.71.83.83,0,0,1-.15-1.08c.25-.36.81-.38,1.28,0a6.93,6.93,0,0,1,2.15,2.53c.28.64.64,1.26,1,2a16.48,16.48,0,0,0,1.8-.77c2.07-1.21,4.12-2.46,6.18-3.69,2.88-1.72,5.77-3.41,8.64-5.15,1.77-1.08,3.48-2.27,5.26-3.34a101.56,101.56,0,0,1,10.2-5.3,50.5,50.5,0,0,0,7.1-4c2.25-1.5,4.72-2.68,7.09-4,3.06-1.71,6.11-3.45,9.18-5.14a4,4,0,0,0,2.1-2.74,36.86,36.86,0,0,1,3.11-8.29c.73-1.42,1.57-2.78,2.37-4.16a14.53,14.53,0,0,0,2-4.36,4.21,4.21,0,0,1,.44-1.11c1.4-2.52,2.66-5.12,4.24-7.51,2.38-3.6,5-7,7.48-10.58,1.33-1.9,2.58-3.85,3.81-5.82A5.4,5.4,0,0,1,152.35.25a1.62,1.62,0,0,0,.1.18.92.92,0,0,1,.44,0c3,.54,5.44,3.1,7.57,5.07a.92.92,0,0,1,.27.5.67.67,0,0,1,.32.5,1.64,1.64,0,0,1-.07.7,5.92,5.92,0,0,1-.57,1.05,115.18,115.18,0,0,1-6.81,10.15,12.4,12.4,0,0,0-2.09,3.48,20.09,20.09,0,0,1-1.5,2.72c-.56,1-1.19,1.91-1.66,2.92-1.35,2.9-2.61,5.84-3.95,8.74-1.83,4-3.81,7.93-5.51,12-1.27,3-2.27,6.15-3.27,9.26-.9,2.82-1.74,5.65-2.43,8.52-1.15,4.74-2.25,9.49-3.21,14.27-1.06,5.25-2,10.53-2.88,15.81a82.56,82.56,0,0,0-1.26,8.52c-.28,4.31-1.31,8.54-1.28,12.88a26,26,0,0,1-.57,4.27,13.21,13.21,0,0,0,0,4.07,17.91,17.91,0,0,0,5.93,1.23,117.32,117.32,0,0,0,16.77.2c1.75-.16,3.52-.17,5.27-.18a31.93,31.93,0,0,0,9.49-1.27c1.44-4.27,4.78-6.16,8.93-6.92a5.86,5.86,0,0,1,4.7,1.37c.94.73,1.86,1.49,2.83,2.26.65-.19,1.26-.36,1.86-.56,1.9-.62,3.8-1.24,5.69-1.88l7.48-2.54c1.67-.56,3.35-1.08,5-1.67a36.21,36.21,0,0,1,6.09-1.27,58.71,58.71,0,0,0,6.32-1.36,33.91,33.91,0,0,1,8.81-.79,28.81,28.81,0,0,1,6.4.85,53.74,53.74,0,0,1,11,3.12,18,18,0,0,1,2.53,1.34c1.4.93,2.73,2,4.12,2.91a18.17,18.17,0,0,1,3.8,3.63,95.37,95.37,0,0,1,10.75,15.84A60.55,60.55,0,0,1,263,153.24,80.84,80.84,0,0,1,265.2,166.23Zm-90.51-42.82c-1-.69-1.61-1.06-2.17-1.45a4.64,4.64,0,0,0-5.18-.3,11.3,11.3,0,0,0-1.82,1.13,3.7,3.7,0,0,0-1.69,2.83C167.38,125,170.78,124.46,174.69,123.41ZM159.05,6.9h0c-1.77-1.65-3.83-3.83-6.29-4.45a2.84,2.84,0,0,1-.54.86c-2.9,3.32-5.2,7.09-7.76,10.65a58.71,58.71,0,0,0-3.59,5.95q-3.06,5.57-6,11.22C133.89,33,133,35,132.14,37s-1.73,4.13-2.78,6.1c-.66,1.26-.42,2.73-1.08,3.86a12.26,12.26,0,0,0-1.48,3.51c-.68,3-1.33,6.09-2,9.13-.34,1.48-.75,2.94-1.08,4.42s-.61,3-.92,4.46c-.26,1.25-.49,2.51-.82,3.75a41,41,0,0,0-1.07,6.62c-.09,1-.29,2-.4,3.09-.25,2.3-.47,4.61-.71,6.91a6.13,6.13,0,0,1-.1,1,87.32,87.32,0,0,0-1.47,10.68,87.13,87.13,0,0,0-.79,12.92c.13,2.95.07,5.92.11,8.87,0,.63.08,1.26.13,2a7.73,7.73,0,0,0,3.84.87,2.82,2.82,0,0,0,.7-2.08c.26-2.06.48-4.13.71-6.19.44-3.89.85-7.78,1.32-11.67.54-4.52,1.07-9,1.85-13.53s1.85-8.92,2.92-13.34a7.89,7.89,0,0,0,.39-1.63c.11-2.59,1-5,1.65-7.48.87-3.32,1.61-6.68,2.48-10,.55-2.08,1.15-4.16,1.88-6.19,1.73-4.9,3.13-9.92,5.36-14.63,1-2.17,2.24-4.24,3.31-6.39,1.54-3.07,3-6.17,4.52-9.26a14,14,0,0,1,.65-1.28,125.9,125.9,0,0,1,7.36-11.22C157.45,9.14,158.23,8,159.05,6.9ZM125,50.68c.17-.51.55-1,.16-1.67a5.86,5.86,0,0,0-2.35,1c-5.11,3-10.16,6-15.33,8.92-3.55,2-6.84,4.42-10.52,6.21a58.09,58.09,0,0,0-5.41,3.1c-6,3.75-12.36,7-18.66,10.33-.78.4-1.51.9-2.26,1.36a2,2,0,0,0-1,1.79,12.6,12.6,0,0,1-.78,3.73A15.57,15.57,0,0,1,65.72,91a6.11,6.11,0,0,0,1.45,2.55c3.22,3.91,7.18,7,10.92,10.41a1.57,1.57,0,0,0,2.17.09,23,23,0,0,1,2.4-1.57c1.91-1,3.86-1.92,5.78-2.9q6.82-3.51,13.63-7c4.4-2.28,9-4.21,13.22-6.77.55-.33,1.12-.61,1.68-.93A2,2,0,0,0,118,83.12c.09-3.28,1-6.47,1-9.76a10.43,10.43,0,0,1,.34-1.89c.2-1,.38-2,.61-3,.7-3.12,1.3-6.27,2.16-9.34C123,56.24,124.06,53.48,125,50.68ZM116.72,95.1c.19-2.36.42-4.72.66-7.31a6.87,6.87,0,0,0-1.76.4c-2.22,1.26-4.46,2.51-6.58,3.93-2.39,1.6-4.64,3.41-7.41,4.36a2.16,2.16,0,0,0-.63.35c-2.31,1.75-5,2.8-7.49,4.25-3.17,1.86-6.36,3.7-9.52,5.56-.47.28-.88.65-1.34,1,.18.29.25.56.43.68a66.48,66.48,0,0,0,7,4.94c1.48.8,2.92,1.65,4.41,2.43a55.5,55.5,0,0,0,7.85,3.56c3.71,1.24,7.39,2.56,11.09,3.85a5.1,5.1,0,0,0,.91.3c.36.06.73,0,1.24.07.23-2.53,0-4.92.12-7.3s.11-4.63.19-7,.17-4.79.3-7.18S116.53,97.41,116.72,95.1Z" transform="translate(-0.25 -0.25)"/><path class="cls-8" d="M219.41,243.3c.17,1.26.33,2.52.52,4a35.31,35.31,0,0,1-4.6,4.86c-1.22,1.16-2.52,2.21-3.78,3.32a20.9,20.9,0,0,1-10.75,4.91,5.7,5.7,0,0,1-2.6-.11,49,49,0,0,1-9.77-3.87c-1.17-.68-2.41-1.23-3.62-1.85-.35-.18-.67-.41-1.08-.66a29,29,0,0,1,.31-4.27,53.18,53.18,0,0,0,.45-6.44,37.16,37.16,0,0,0-2-10.55,71.87,71.87,0,0,0-5.91-12.28,33.6,33.6,0,0,1-1.8-4.17c-.11-.25,0-.6,0-1.13.87.4,1.56.74,2.27,1s1.61.7,2.45,1a.92.92,0,0,0,.77-.36,1,1,0,0,0,0-.88,2.81,2.81,0,0,0-.9-.77c-3.91-2.48-7.76-5.08-11.79-7.35-2.71-1.53-5.4-3.1-8.09-4.67a31.39,31.39,0,0,0-7-3c-3.83-1.11-7.56-2.58-11.56-3.09-4.75-.61-9.42-1.71-14.11-2.66-1.64-.33-3.33-.42-5-.61-.47-.06-.93-.09-1.49-.14a8.89,8.89,0,0,1-.22-1.47c0-1.19.16-2.38.23-3.45a3.09,3.09,0,0,1,3.4-.9,13,13,0,0,0,2.61.3c2.62.26,5.24.54,7.86.79,2.47.24,4.94.41,7.4.69,5.8.64,11.59,1.35,17.32,2.48.62.13,1.25.27,1.86.45,4.38,1.27,8.76,2.51,13.11,3.84a35.46,35.46,0,0,1,4.68,1.83c3.32,1.57,6.83,2.73,9.86,4.88a11.82,11.82,0,0,0,1.26.69,4,4,0,0,0,4.1,0,16.81,16.81,0,0,0,7.56-8.06c.28-.64.38-1.27-.24-1.73a4,4,0,0,1-1.39-2.45,17.48,17.48,0,0,0-1.86-4.11,17.4,17.4,0,0,1-1.94-5.11,26.76,26.76,0,0,0-2.64-7.66,6.07,6.07,0,0,0-.46-.83,34.82,34.82,0,0,1-4.21-8,3.18,3.18,0,0,0-.87-1.39,5.89,5.89,0,0,1-1.92-2.69c-1.11-2.48-2.16-5-3.27-7.46a18,18,0,0,0-1.19-2.08,27.27,27.27,0,0,1-2.9-6.85l7.38-1.57a3.55,3.55,0,0,1,.71.61,64.38,64.38,0,0,1,3.73,6.14c1.24,2.6,2.6,5.12,3.91,7.68,1.05,2.06,2,4.17,3,6.27,2.73,6,5,12.1,7.31,18.23,2,5.47,3.73,11.05,5.53,16.6,1.13,3.5,2.15,7,3.26,10.53a102.06,102.06,0,0,1,3.64,17.1c.53,3.88,1,7.76,1.6,11.63.16,1.1.47,2.18.69,3.27C219.27,242.19,219.34,242.75,219.41,243.3Z" transform="translate(-0.25 -0.25)"/><path class="cls-6" d="M205.49,313.93c.16-.16.36-.29.57-.46-.09,2.18-2.82,12-3.93,14.06a17.06,17.06,0,0,1-4.41-.57,73.84,73.84,0,0,1-11.64-2.78c-1.59-.52-3.26-.79-4.87-1.28q-3-.93-5.88-2.07l1-2.52a31.37,31.37,0,0,0,4.28,1.37,9.27,9.27,0,0,0,6.49-.95,9.65,9.65,0,0,0,3.83-3.17,12,12,0,0,1,1.3-1.38,8.8,8.8,0,0,1,1.44.52,14.79,14.79,0,0,0,5.53,1.39A7.1,7.1,0,0,0,205.49,313.93Z" transform="translate(-0.25 -0.25)"/><path class="cls-6" d="M176.3,318.31l-1,2.52a102.37,102.37,0,0,1-10.84-5.06,84.14,84.14,0,0,1-12.55-8.34,44.58,44.58,0,0,1-8.85-8.72c-.45-.64-.87-1.31-1.37-2a10,10,0,0,1,5.12,1.95c.43.36.84.74,1.25,1.12,2.42,2.23,5.25,3.9,7.86,5.86,4,3,8.52,5.36,12.7,8.17,1.72,1.16,3.45,2.31,5.24,3.36A18.59,18.59,0,0,0,176.3,318.31Z" transform="translate(-0.25 -0.25)"/><path class="cls-6" d="M159,6.9h0c-.82,1.1-1.6,2.24-2.45,3.32a125.9,125.9,0,0,0-7.36,11.22,14,14,0,0,0-.65,1.28c-1.5,3.09-3,6.19-4.52,9.26-1.07,2.15-2.29,4.22-3.31,6.39-2.23,4.71-3.63,9.73-5.36,14.63-.73,2-1.33,4.11-1.88,6.19-.87,3.32-1.61,6.68-2.48,10-.65,2.48-1.54,4.89-1.65,7.48A7.89,7.89,0,0,1,129,78.3c-1.07,4.42-2.14,8.84-2.92,13.34s-1.31,9-1.85,13.53c-.47,3.89-.88,7.78-1.32,11.67-.23,2.06-.45,4.13-.71,6.19a2.82,2.82,0,0,1-.7,2.08,7.73,7.73,0,0,1-3.84-.87c0-.71-.13-1.34-.13-2,0-3,0-5.92-.11-8.87a87.13,87.13,0,0,1,.79-12.92,87.32,87.32,0,0,1,1.47-10.68,6.13,6.13,0,0,0,.1-1c.24-2.3.46-4.61.71-6.91.11-1,.31-2.06.4-3.09A41,41,0,0,1,122,72.22c.33-1.24.56-2.5.82-3.75.31-1.49.58-3,.92-4.46s.74-2.94,1.08-4.42c.69-3,1.34-6.09,2-9.13A12.26,12.26,0,0,1,128.28,47c.66-1.13.42-2.6,1.08-3.86,1-2,1.85-4.07,2.78-6.1s1.75-4,2.74-5.86q2.93-5.65,6-11.22A58.71,58.71,0,0,1,144.45,14c2.56-3.56,4.86-7.33,7.76-10.65a2.84,2.84,0,0,0,.54-.86C155.21,3.07,157.27,5.25,159,6.9Z" transform="translate(-0.25 -0.25)"/><path class="cls-6" d="M139.61,279.24a2.53,2.53,0,0,1,.31,1.58c-.3,1.47-.75,2.91-1.17,4.45-.8-.08-1.67-.18-2.53-.25a3.23,3.23,0,0,0-2.67.91l-.89-1.06c.26,0,.58-.22,1-.67-.28-.54-.54-1.12-.85-1.67-1.09-1.95-2.34-3.83-3.29-5.85a86.22,86.22,0,0,1-6.24-16.33c-.68-2.79-1.5-5.55-2.31-8.3-.45-1.54-1-3-1.52-4.55-.7-2.21-1.4-4.42-2-6.65a34,34,0,0,1-.81-4c-.48-3.24-.94-6.49-1.35-9.74q-.58-4.51-1.06-9c-.18-1.75-.18-3.52-.43-5.25a56.56,56.56,0,0,1-.65-9.81c.14-5.59.25-11.19.06-16.78a10.41,10.41,0,0,1,.71-4.68,4.37,4.37,0,0,0-.6-4.53c-.28-.38-.58-.76-.73-1,.15-1.8.27-3.39.42-5,.25-2.55.49-5.09.8-7.63.18-1.51.54-3,.75-4.49.37-2.61.68-5.23,1-7.84A27.74,27.74,0,0,0,116,144a2.58,2.58,0,0,1,.21-.86c1.8-.19,1.8-.19,3.84.59a3.74,3.74,0,0,1,.19.86c0,2.72.09,5.44,0,8.15-.21,4.71-.55,9.41-.86,14.12-.13,1.91-.2,3.84-.52,5.73a13.24,13.24,0,0,0,.13,5.21c1.72,1.39,1.79,1.63,1.19,4a10.16,10.16,0,0,0-.43-1.38.68.68,0,0,0-.55-.33c-.19,0-.5.22-.52.38a16.15,16.15,0,0,0-.17,2.6,105.91,105.91,0,0,1-.15,11.27,120.88,120.88,0,0,0,0,15.81c.26,4,1.2,7.9,1.81,11.84a59.31,59.31,0,0,0,2.76,11.16c1.25,3.46,2.13,7,3,10.59a52.67,52.67,0,0,0,3,8.86c1.09,2.4,2,4.87,3,7.34C134.26,266.42,136.28,273.09,139.61,279.24Z" transform="translate(-0.25 -0.25)"/><path d="M103,142.75l.47.44c-.13.06-.26.18-.38.16a.51.51,0,0,1-.33-.25S102.92,142.91,103,142.75Z" transform="translate(-0.25 -0.25)"/><path d="M73.79,21.14A5.58,5.58,0,0,1,77,29.37a11.84,11.84,0,0,1-2.18,2.18,3.33,3.33,0,0,1-2.35.57,9.15,9.15,0,0,1-3.85-.95c-1.82-.94-2.44-2.16-2-4.11a7.55,7.55,0,0,1,2-4.23,7.77,7.77,0,0,1,3.62-1.73A3.58,3.58,0,0,1,73.79,21.14Zm2.77,5.53a2.94,2.94,0,0,0-.26-1.6A4,4,0,0,0,70,23.91,6.72,6.72,0,0,0,68,27.59a1.77,1.77,0,0,0,.7,1.9A5.23,5.23,0,0,0,72,30.61,4.38,4.38,0,0,0,76.56,26.67Z" transform="translate(-0.25 -0.25)"/><path d="M73.07,46a2.56,2.56,0,0,1,.3,1.1c0,.31-.38.59-.65,1-.36-.26-.73-.38-.83-.62a16.65,16.65,0,0,1-1.55-3.17,31.39,31.39,0,0,0-1.75-4.67c-.24-.59-.55-1.14-.8-1.73A.84.84,0,0,1,68,36.84a.54.54,0,0,1,.2-.1.91.91,0,0,1,1,.46,12.45,12.45,0,0,1,2,3.95A33.44,33.44,0,0,0,73.07,46Z" transform="translate(-0.25 -0.25)"/><path d="M66.91,34.62c.37-.18,1,.41.89.85,0,.15,0,.35-.11.45l-.44.46c-.44.47-.89.92-1.37,1.34-.1.1-.47,0-.64-.08a.91.91,0,0,1-.28-.4.3.3,0,0,1,0-.18A3.35,3.35,0,0,1,66.91,34.62Z" transform="translate(-0.25 -0.25)"/><polygon points="62.62 72.03 62.61 72.04 62.61 72.03 62.62 72.03"/><polygon points="62.61 72.04 62.6 72.05 62.6 72.04 62.61 72.04"/><path d="M62.85,72.29h0l0,0v0Z" transform="translate(-0.25 -0.25)"/><path d="M61.87,70.89a1.21,1.21,0,0,1,1,1.42,2.25,2.25,0,0,1-1.8,0,10.51,10.51,0,0,0-3.79-.24,5.18,5.18,0,0,0-2.65.94c-.24.18-.63,0-.9-.19a1.1,1.1,0,0,1-.26-.35.75.75,0,0,1,.34-1,7.28,7.28,0,0,1,2-.82A14,14,0,0,1,61.87,70.89Z" transform="translate(-0.25 -0.25)"/><path d="M35.46,59.57l-.12.07c-.32.21-.61.45-.73.39-1.26-.64-2.54-1.31-2.48-3C33.63,57.27,34.51,58.31,35.46,59.57Z" transform="translate(-0.25 -0.25)"/><path d="M32.13,57v0h0Z" transform="translate(-0.25 -0.25)"/><path d="M32.13,57l0,0v0Z" transform="translate(-0.25 -0.25)"/></g></g></svg>