<svg xmlns="http://www.w3.org/2000/svg" viewBox="0 0 434.12 111.69"><defs><style>.cls-1{font-size:84.74px;font-family:BasicSans-SemiBold, Basic Sans;font-weight:600;letter-spacing:0.02em;}.cls-1,.cls-2{fill:#fff;}</style></defs><title>capacita</title><g id="Capa_2" data-name="Capa 2"><g id="Layer_1" data-name="Layer 1"><text class="cls-1" transform="translate(0 70.34)">Capacita</text><path class="cls-2" d="M382.46,61.61h20.09v8.73H361.87V62.88c13.22-9.83,28.56-18.05,28.56-30.34,0-5.68-3.64-9.41-9.41-9.41-5.42,0-9.07,3.05-9.07,7.63a7.4,7.4,0,0,0,.34,2.12L362,34.66a11.09,11.09,0,0,1-.68-4.41c0-9.74,8-16.44,19.83-16.44,12.12,0,20,7.37,20,18.39,0,11.53-9.66,20.26-19.23,26.87a30.77,30.77,0,0,1-4.16,2.45l.17.34A37.15,37.15,0,0,1,382.46,61.61Z"/><path class="cls-2" d="M422,25.42l-14.32,3.73V19.4l23.22-5h1.61V70.34H422Z"/><polygon class="cls-2" points="361.87 82.44 361.87 101.76 398 111.69 434.12 101.76 434.12 82.44 361.87 82.44"/></g></g></svg>