<svg xmlns="http://www.w3.org/2000/svg" viewBox="0 0 372.89 115.44"><defs><style>.cls-1{font-size:84.74px;font-family:BasicSans-SemiBold, Basic Sans;font-weight:600;letter-spacing:0.02em;}.cls-1,.cls-3{fill:#fff;}.cls-2{letter-spacing:0.01em;}</style></defs><title>explora</title><g id="Capa_2" data-name="Capa 2"><g id="Layer_1" data-name="Layer 1"><text class="cls-1" transform="translate(0 91.8)">Explo<tspan class="cls-2" x="215.33" y="0">r</tspan><tspan x="247.53" y="0">a</tspan></text><path class="cls-3" d="M322.89,83.07H343V91.8H302.3V84.34c13.22-9.83,28.56-18,28.56-30.34,0-5.68-3.65-9.4-9.41-9.4-5.42,0-9.07,3-9.07,7.62a7.34,7.34,0,0,0,.34,2.12l-10.25,1.78a10.86,10.86,0,0,1-.68-4.41c0-9.74,8-16.44,19.83-16.44,12.12,0,20,7.38,20,18.39,0,11.53-9.66,20.26-19.24,26.87A30.37,30.37,0,0,1,318.23,83l.17.33A37,37,0,0,1,322.89,83.07Z"/><path class="cls-3" d="M362.38,46.88l-14.32,3.73V40.87l23.22-5h1.61V91.8H362.38Z"/><polygon class="cls-3" points="301.79 25.47 372.89 25.47 337.34 0 301.79 25.47"/></g></g></svg>