<svg xmlns="http://www.w3.org/2000/svg" viewBox="0 0 7110.32 349.53"><defs><style>.cls-1,.cls-2{fill:#f9e4ee;}.cls-1{opacity:0.3;}.cls-2{opacity:0.5;}</style></defs><title>backroad</title><g id="Capa_2" data-name="Capa 2"><g id="Layer_1" data-name="Layer 1"><path class="cls-1" d="M5763.26,158.12C5285.08-90.58,4361.2,166.4,4006,127.8c-493.48-53.62-614.22-88.61-1508.46,64.71C1834.84,306.14,1684.52-139,1254.72,45.28,399.76,411.81,484.28,10,0,349.53H7110.32C6972.73,57.77,6025.72,294.63,5763.26,158.12Z"/><path class="cls-2" d="M5155.16,173.36C4542.71,119.25,4145.37,259.75,3825,221.9c-451.14-53.32-690.47-284.49-1085.61-85.11-341.68,172.4-840-121.42-1282.27,36.52C661.73,457.36,900.69-157,238.05,349.53H7110.32c0-78.91-253.56-209.88-593.81-161.27C5383.09,350.17,5654.57,217.49,5155.16,173.36Z"/></g></g></svg>