<svg xmlns="http://www.w3.org/2000/svg" xmlns:xlink="http://www.w3.org/1999/xlink" viewBox="0 0 54 54"><defs><style>.cls-1,.cls-2,.cls-3{stroke:#c06;stroke-width:2px;}.cls-1,.cls-2{stroke-miterlimit:10;}.cls-1{fill:url(#linear-gradient);}.cls-2{fill:#fff;}.cls-3,.cls-4{fill:none;}.cls-3{stroke-linejoin:round;}</style><linearGradient id="linear-gradient" x1="24.99" y1="40" x2="24.99" y2="14" gradientUnits="userSpaceOnUse"><stop offset="0" stop-color="#f5cce0"/><stop offset="1" stop-color="#fff"/></linearGradient></defs><title>icon-folder</title><g id="Capa_2" data-name="Capa 2"><g id="Layer_1" data-name="Layer 1"><path class="cls-1" d="M37.65,40H12.33a2.84,2.84,0,0,1-2.84-2.84V16.84A2.84,2.84,0,0,1,12.33,14h9.16l3,5H37.65a2.84,2.84,0,0,1,2.84,2.84V37.16A2.84,2.84,0,0,1,37.65,40Z"/><path class="cls-2" d="M37.83,40H17a2.84,2.84,0,0,1-2.84-2.84L18,24.84A2.85,2.85,0,0,1,20.83,22H41.67a2.84,2.84,0,0,1,2.84,2.84L40.67,37.16A2.84,2.84,0,0,1,37.83,40Z"/><path class="cls-3" d="M29.49,34.08a8.83,8.83,0,0,0,8-5.08h-16A8.85,8.85,0,0,0,29.49,34.08Z"/><rect class="cls-4" width="54" height="54"/></g></g></svg>