<svg xmlns="http://www.w3.org/2000/svg" xmlns:xlink="http://www.w3.org/1999/xlink" viewBox="0 0 54 54"><defs><style>.cls-1,.cls-2,.cls-3{stroke:#c06;stroke-linejoin:round;stroke-width:2px;}.cls-1{fill:url(#linear-gradient);}.cls-2{fill:#fff;}.cls-3,.cls-4{fill:none;}</style><linearGradient id="linear-gradient" x1="29.45" y1="39.61" x2="29.45" y2="9.59" gradientTransform="translate(-0.12 0.43)" gradientUnits="userSpaceOnUse"><stop offset="0.2" stop-color="#fff"/><stop offset="1" stop-color="#f5cce0"/></linearGradient></defs><title>icon-rocket</title><g id="Capa_2" data-name="Capa 2"><g id="Layer_1" data-name="Layer 1"><path class="cls-1" d="M23.6,35.37,19,30.79,14.35,32.4,22,40ZM19.92,23.44,29.37,14c2.42-2.42,12.68-5.15,14.4-3.43s-1,12-3.43,14.4l-9.47,9.47C25.54,39.76,14.59,28.77,19.92,23.44Z"/><path class="cls-2" d="M28,26.35a6.64,6.64,0,0,0,7,1.55l-8.51-8.51A6.64,6.64,0,0,0,28,26.35Z"/><line class="cls-3" x1="12.83" y1="35.36" x2="9.69" y2="38.49"/><line class="cls-3" x1="15.96" y1="38.49" x2="11.26" y2="43.19"/><line class="cls-3" x1="19.1" y1="41.63" x2="16.74" y2="43.98"/><rect class="cls-4" width="54" height="54"/></g></g></svg>