<svg xmlns="http://www.w3.org/2000/svg" xmlns:xlink="http://www.w3.org/1999/xlink" viewBox="0 0 54 54"><defs><style>.cls-1,.cls-2,.cls-3{stroke:#c06;stroke-width:2px;}.cls-1,.cls-2{stroke-linejoin:bevel;}.cls-1{fill:url(#linear-gradient);}.cls-2,.cls-3,.cls-4{fill:none;}.cls-3{stroke-miterlimit:10;}</style><linearGradient id="linear-gradient" x1="16.49" y1="41.58" x2="34.12" y2="11.04" gradientUnits="userSpaceOnUse"><stop offset="0" stop-color="#f5cce0"/><stop offset="0.7" stop-color="#fff"/></linearGradient></defs><title>icon-pen</title><g id="Capa_2" data-name="Capa 2"><g id="Layer_1" data-name="Layer 1"><path class="cls-1" d="M30.81,24,25.7,29.11a46.14,46.14,0,0,1-7.48,6.19h0L12,39l3.68-6.22a46.7,46.7,0,0,1,6.19-7.49L27,20.15c4.91-4.91,9.7-8.07,10.8-7S35.71,19.1,30.81,24Z"/><path class="cls-2" d="M27,20.15c1.5-.8,4.61,2.35,3.82,3.85"/><path class="cls-2" d="M15.41,33c1-.53,3.06,1.56,2.53,2.56"/><polyline class="cls-3" points="33.12 15.3 30.63 12.82 22.32 21.13"/><path class="cls-3" d="M12,39C17.84,41.7,21.74,41.7,25.24,40c1.54-.73,8.46-6.44,10.76-4.85,1.25.86-1.87,2.18-.89,4.35.61,1.35,5.56,0,7.39-2"/><rect class="cls-4" width="54" height="54"/></g></g></svg>