<svg xmlns="http://www.w3.org/2000/svg" xmlns:xlink="http://www.w3.org/1999/xlink" viewBox="0 0 54 54"><defs><style>.cls-1{fill:#fff;}.cls-1,.cls-2,.cls-3{stroke:#c06;stroke-miterlimit:10;stroke-width:2px;}.cls-2{fill:url(#linear-gradient);}.cls-3,.cls-4{fill:none;}</style><linearGradient id="linear-gradient" x1="27" y1="35.5" x2="27" y2="14.5" gradientUnits="userSpaceOnUse"><stop offset="0" stop-color="#f5cce0"/><stop offset="1" stop-color="#fff"/></linearGradient></defs><title>icon-manual</title><g id="Capa_2" data-name="Capa 2"><g id="Layer_1" data-name="Layer 1"><rect class="cls-1" x="12.5" y="9.5" width="29" height="35"/><path class="cls-2" d="M37.5,26.33v-3.5l-3.94-.66-.12-.24,2.22-3.12-2.47-2.47-3.12,2.22a7.13,7.13,0,0,0-.69-.29l-.63-3.77h-3.5l-.63,3.77-.25.1L21.11,16l-2.48,2.48,2.14,3q-.18.33-.33.66l-3.94.66v3.5l3.63.61a7.31,7.31,0,0,0,.43,1.13l-2.22,3.12,2.47,2.47,3.12-2.22a7.13,7.13,0,0,0,.69.29l.63,3.77h3.5l.63-3.77a8,8,0,0,0,1.11-.5l3,2.14L36,30.89l-2.33-3.26c.09-.22.17-.46.24-.69Z"/><circle class="cls-1" cx="27" cy="25" r="2.94"/><line class="cls-3" x1="17.5" y1="39.5" x2="36.5" y2="39.5"/><rect class="cls-4" width="54" height="54"/></g></g></svg>