<svg xmlns="http://www.w3.org/2000/svg" xmlns:xlink="http://www.w3.org/1999/xlink" viewBox="0 0 54 54"><defs><style>.cls-1{fill:#fff;}.cls-1,.cls-2,.cls-3,.cls-4{stroke:#c06;stroke-width:2px;}.cls-1,.cls-3,.cls-4{stroke-linejoin:round;}.cls-2,.cls-3,.cls-5{fill:none;}.cls-2{stroke-miterlimit:10;}.cls-4{fill:url(#linear-gradient);}</style><linearGradient id="linear-gradient" x1="27" y1="24.5" x2="27" y2="12.5" gradientUnits="userSpaceOnUse"><stop offset="0" stop-color="#f5cce0"/><stop offset="0.7" stop-color="#fff"/></linearGradient></defs><title>icon-check</title><g id="Capa_2" data-name="Capa 2"><g id="Layer_1" data-name="Layer 1"><rect class="cls-1" x="12.5" y="29.5" width="12" height="12" rx="2"/><polyline class="cls-2" points="16.5 33.5 19.2 37 27.5 28.5"/><path class="cls-3" d="M24.5,35.5h9a2,2,0,0,0,2-2v-10"/><path class="cls-4" d="M41.5,14.5v8a2,2,0,0,1-2,2h-8a2,2,0,0,1-2-2v-8a2,2,0,0,1,2-2h8A2,2,0,0,1,41.5,14.5Zm-19-2h-8a2,2,0,0,0-2,2v8a2,2,0,0,0,2,2h8a2,2,0,0,0,2-2v-8A2,2,0,0,0,22.5,12.5Z"/><line class="cls-3" x1="18.5" y1="29.5" x2="18.5" y2="23.5"/><rect class="cls-5" width="54" height="54"/></g></g></svg>