<svg xmlns="http://www.w3.org/2000/svg" xmlns:xlink="http://www.w3.org/1999/xlink" viewBox="0 0 54 54"><defs><style>.cls-1,.cls-2{stroke:#c06;stroke-miterlimit:10;stroke-width:2px;}.cls-1{fill:url(#linear-gradient);}.cls-2{fill:#fff;}.cls-3{fill:none;}</style><linearGradient id="linear-gradient" x1="27" y1="43.31" x2="27" y2="13.55" gradientUnits="userSpaceOnUse"><stop offset="0" stop-color="#f5cce0"/><stop offset="0.7" stop-color="#fff"/></linearGradient></defs><title>icon-suit</title><g id="Capa_2" data-name="Capa 2"><g id="Layer_1" data-name="Layer 1"><path class="cls-1" d="M37.22,13.55l3.91,1.31a2,2,0,0,1,1.37,1.9V41.31a2,2,0,0,1-2,2h-27a2,2,0,0,1-2-2V16.76a2,2,0,0,1,1.37-1.9l3.91-1.31"/><polygon class="cls-2" points="27 39.13 23.5 36.27 25.37 19.31 28.63 19.31 30.5 36.27 27 39.13"/><polygon class="cls-2" points="29.6 16.31 24.4 16.31 25.7 19.31 28.3 19.31 29.6 16.31"/><polygon class="cls-2" points="16.78 13.55 23.5 16.31 30.5 16.31 37.22 13.55 34.25 10.69 27.5 13.31 26.5 13.31 19.75 10.69 16.78 13.55"/><rect class="cls-3" width="54" height="54"/></g></g></svg>