<svg xmlns="http://www.w3.org/2000/svg" xmlns:xlink="http://www.w3.org/1999/xlink" viewBox="0 0 54 54"><defs><style>.cls-1{fill:#fff;}.cls-1,.cls-2,.cls-3{stroke:#c06;stroke-miterlimit:10;stroke-width:2px;}.cls-2{fill:url(#linear-gradient);}.cls-3,.cls-4{fill:none;}</style><linearGradient id="linear-gradient" x1="27" y1="45.03" x2="27" y2="27.03" gradientUnits="userSpaceOnUse"><stop offset="0" stop-color="#f5cce0"/><stop offset="1" stop-color="#fff"/></linearGradient></defs><title>icon-web</title><g id="Capa_2" data-name="Capa 2"><g id="Layer_1" data-name="Layer 1"><path class="cls-1" d="M9,27a18,18,0,0,1,36,0"/><path class="cls-2" d="M45,27A18,18,0,0,1,9,27Z"/><path class="cls-3" d="M40.45,39.51c-7.43-6-19.47-6-26.9,0"/><path class="cls-3" d="M13.55,14C21,20,33,20,40.45,14"/><path class="cls-3" d="M24,9c-8,10-8,26.09,0,36.06"/><path class="cls-3" d="M30,45c8-10,8-26.09,0-36.06"/><line class="cls-3" x1="9" y1="27.03" x2="45" y2="27.03"/><line class="cls-3" x1="27" y1="9.03" x2="27" y2="45.03"/><rect class="cls-4" width="54" height="54"/></g></g></svg>