<svg xmlns="http://www.w3.org/2000/svg" viewBox="0 0 109.63 44.11"><defs><style>.cls-1{fill:#fff;}</style></defs><title>logotype-via21</title><g id="Layer_2" data-name="Layer 2"><g id="Layer_1-2" data-name="Layer 1"><path class="cls-1" d="M81.79,27.32H92.61V32H70.68V28c7.13-5.3,15.4-9.73,15.4-16.36A4.75,4.75,0,0,0,81,6.58c-2.92,0-4.89,1.64-4.89,4.11a4,4,0,0,0,.18,1.14l-5.53,1a5.93,5.93,0,0,1-.37-2.38c0-5.25,4.29-8.86,10.69-8.86s10.78,4,10.78,9.91c0,6.21-5.21,10.92-10.37,14.48a16.4,16.4,0,0,1-2.24,1.32l.09.18A19.22,19.22,0,0,1,81.79,27.32Z"/><path class="cls-1" d="M103.07,7.81l-7.72,2V4.57l12.52-2.7h.87V32h-5.66Z"/><rect class="cls-1" x="70.41" y="38.55" width="39.23" height="5.56"/><path class="cls-1" d="M12.75,22.61A30,30,0,0,1,13.66,26h.14a32,32,0,0,1,1-3.33L21.56,1.87h5.85L16.72,32H10.65L0,1.87H6Z"/><path class="cls-1" d="M34.35,7a3.52,3.52,0,1,1,0-7,3.52,3.52,0,1,1,0,7Zm-2.83,3.43,5.57-.18V32H31.52Z"/><path class="cls-1" d="M64.27,31.93a12.15,12.15,0,0,1-2.74.32c-2.79,0-4.34-1.1-4.71-3.43-.64,1.23-2.47,3.47-7.08,3.47s-7.31-2.38-7.31-5.94c0-5.16,5.25-6.67,13.75-6.81h.37V18.5c0-2.42-1.46-4-4.34-4-2.65,0-4.11,1.05-4.11,2.83a2.23,2.23,0,0,0,.18.87L43.35,19a7.37,7.37,0,0,1-.27-2c0-4.07,3.52-6.81,9.32-6.81,6.17,0,9.59,3.2,9.59,8.45v7.58c0,1.1.37,1.46,1.28,1.46a4,4,0,0,0,.78-.09Zm-7.72-7.49V22.61h-.37c-5.85.09-8.31,1-8.31,3.15,0,1.46,1.19,2.28,3.33,2.28C54.59,28.05,56.55,26.27,56.55,24.44Z"/></g></g></svg>