<?xml version="1.0" encoding="utf-8"?>
<!-- Generator: Adobe Illustrator 21.0.2, SVG Export Plug-In . SVG Version: 6.00 Build 0)  -->
<svg version="1.1" id="Layer_1" xmlns="http://www.w3.org/2000/svg" xmlns:xlink="http://www.w3.org/1999/xlink" x="0px" y="0px"
	 viewBox="0 0 155.3 43.7" style="enable-background:new 0 0 155.3 43.7;" xml:space="preserve">
<style type="text/css">
	.st0{fill:#FFFFFF;}
</style>
<title>incuba21_1</title>
<g id="Layer_2">
	<g id="Layer_1-2">
		<path class="st0" d="M132.1,23.4h9.2v4h-18.6V24c6.1-4.5,13.1-8.3,13.1-13.9c0.2-2.2-1.5-4.1-3.7-4.3c-0.2,0-0.4,0-0.6,0
			c-2.5,0-4.2,1.4-4.2,3.5c0,0.3,0.1,0.7,0.2,1l-4.7,0.8c-0.2-0.6-0.3-1.3-0.3-2c0-4.5,3.7-7.5,9.1-7.5s9.2,3.4,9.2,8.4
			c0,5.3-4.4,9.3-8.8,12.3c-0.6,0.4-1.2,0.8-1.9,1.1l0.1,0.2C130.8,23.5,131.4,23.4,132.1,23.4z"/>
		<path class="st0" d="M150.2,6.8l-6.6,1.7V4.1l10.6-2.3h0.7v25.6h-4.8L150.2,6.8z"/>
		<path class="st0" d="M138.9,43.7c7.2-0.1,13.7-4.5,16.4-11.2h-32.8C125.2,39.1,131.6,43.5,138.9,43.7z"/>
		<path class="st0" d="M0,1.8h4.8v25.6H0V1.8z"/>
		<path class="st0" d="M28.2,16.1v11.3h-4.7V16.8c0-2.4-1.2-3.9-3.6-3.9c-3,0-4.4,2.7-4.4,5v9.5h-4.7V9.1l3.6-0.2
			c0.3,1.3,0.5,2.7,0.6,4h0.1c0.9-2.5,3.4-4.2,6.1-4.1C25.7,8.8,28.2,11.9,28.2,16.1z"/>
		<path class="st0" d="M49.5,15.3c0,0.4,0,0.9-0.1,1.3l-4.2,0.3c0.1-0.3,0.1-0.6,0.1-0.8c0.1-1.7-1.3-3.2-3-3.2c-0.1,0-0.3,0-0.4,0
			c-2.8,0-4.6,2.2-4.6,5.4s1.8,5.6,5.2,5.6c2,0.1,3.9-0.7,5.2-2.2l2.4,3c-1.3,1.7-4,3.1-7.9,3.1c-6,0-9.7-3.8-9.7-9.3
			s3.8-9.5,9.4-9.5C46.6,8.8,49.5,11.7,49.5,15.3z"/>
		<path class="st0" d="M71,9.1v18.3l-3.7,0.2c-0.3-1.2-0.5-2.5-0.5-3.7h-0.1c-0.9,2.4-3.3,3.9-5.8,3.8c-4.5,0-6.9-3.1-6.9-7.3V9.1
			h4.7v10.6c0,2.4,1.2,3.9,3.5,3.9c2.7,0,4.1-2.7,4.1-5V9.1H71z"/>
		<path class="st0" d="M95.4,18.3c0,5.7-3.6,9.4-8.6,9.4c-2.7,0.1-5.2-1.4-6.3-3.9l0,0c-0.1,1.2-0.2,2.5-0.5,3.7h-3.5V0h4.7v11.9
			c1.3-2,3.5-3.2,5.9-3.1C91.9,8.8,95.4,12.4,95.4,18.3z M90.6,18.3c0-3.3-1.8-5.5-4.7-5.5c-2.7,0-4.8,2.2-4.7,4.9c0,0,0,0,0,0.1v1
			c-0.1,2.6,2,4.8,4.6,4.9c0.1,0,0.2,0,0.3,0C88.8,23.7,90.6,21.5,90.6,18.3z"/>
		<path class="st0" d="M117.6,27.3c-0.8,0.2-1.5,0.3-2.3,0.3c-2.4,0-3.7-0.9-4-2.9c-0.5,1-2.1,3-6,3s-6.2-2-6.2-5
			c0-4.4,4.5-5.7,11.7-5.8h0.3V16c0-2.1-1.2-3.4-3.7-3.4c-2.2,0-3.5,0.9-3.5,2.4c0,0.3,0.1,0.5,0.2,0.7l-4.2,0.7
			c-0.2-0.6-0.2-1.1-0.2-1.7c0-3.4,3-5.8,7.9-5.8c5.2,0,8.2,2.7,8.2,7.2v6.4c0,0.9,0.3,1.2,1.1,1.2c0.2,0,0.4,0,0.7-0.1L117.6,27.3z
			 M111,21v-1.6h-0.3c-5,0.1-7.1,0.9-7.1,2.7c0,1.2,1,1.9,2.8,1.9C109.3,24,111,22.5,111,21z"/>
	</g>
</g>
</svg>
