<svg xmlns="http://www.w3.org/2000/svg" viewBox="0 0 98.05 39.44"><defs><style>.cls-1{fill:#00003d;}</style></defs><title>logotype-via21</title><g id="Layer_2" data-name="Layer 2"><g id="Layer_1-2" data-name="Layer 1"><path class="cls-1" d="M73.14,24.43h9.68v4.21H63.22V25C69.59,20.3,77,16.34,77,10.41a4.25,4.25,0,0,0-4.54-4.54c-2.61,0-4.37,1.47-4.37,3.68a3.55,3.55,0,0,0,.16,1l-4.94.86A5.3,5.3,0,0,1,63,9.31c0-4.7,3.84-7.93,9.56-7.93s9.64,3.55,9.64,8.87c0,5.56-4.66,9.76-9.27,13a14.67,14.67,0,0,1-2,1.18l.08.16A17.19,17.19,0,0,1,73.14,24.43Z"/><path class="cls-1" d="M92.18,7l-6.9,1.8V4.08L96.47,1.67h.78v27H92.18Z"/><rect class="cls-1" x="62.97" y="34.47" width="35.08" height="4.97"/><path class="cls-1" d="M11.4,20.22a27,27,0,0,1,.82,3h.12a28.44,28.44,0,0,1,.86-3L19.28,1.67h5.23L15,28.63H9.52L0,1.67H5.35Z"/><path class="cls-1" d="M30.72,6.29a3.15,3.15,0,1,1,0-6.29,3.15,3.15,0,1,1,0,6.29ZM28.19,9.35l5-.16V28.63h-5Z"/><path class="cls-1" d="M57.48,28.55a10.88,10.88,0,0,1-2.45.29c-2.49,0-3.88-1-4.21-3.06-.57,1.1-2.21,3.1-6.33,3.1S38,26.76,38,23.57c0-4.62,4.7-6,12.29-6.09h.33v-.94c0-2.16-1.31-3.59-3.88-3.59-2.37,0-3.68.94-3.68,2.53a2,2,0,0,0,.16.78L38.77,17a6.59,6.59,0,0,1-.25-1.8c0-3.64,3.15-6.09,8.33-6.09,5.51,0,8.58,2.86,8.58,7.56v6.78c0,1,.33,1.31,1.14,1.31a3.6,3.6,0,0,0,.7-.08Zm-6.9-6.7V20.22h-.33c-5.23.08-7.43.9-7.43,2.82,0,1.31,1.06,2,3,2C48.82,25.08,50.58,23.49,50.58,21.85Z"/></g></g></svg>