<svg xmlns="http://www.w3.org/2000/svg" viewBox="0 0 155.26 43.67"><defs><style>.cls-1{fill:#c06;}</style></defs><title>incuba21_1</title><g id="Layer_2" data-name="Layer 2"><g id="Layer_1-2" data-name="Layer 1"><path class="cls-1" d="M132.13,23.41h9.2v4H122.7V24c6.06-4.5,13.08-8.27,13.08-13.9a4,4,0,0,0-4.31-4.31c-2.48,0-4.15,1.4-4.15,3.49a3.38,3.38,0,0,0,.16,1l-4.7.82a5,5,0,0,1-.31-2c0-4.46,3.65-7.53,9.08-7.53s9.16,3.38,9.16,8.42c0,5.28-4.42,9.28-8.81,12.3a13.94,13.94,0,0,1-1.9,1.13l.08.16A16.33,16.33,0,0,1,132.13,23.41Z"/><path class="cls-1" d="M150.21,6.83l-6.56,1.71V4.08l10.64-2.29H155V27.41h-4.81Z"/><path class="cls-1" d="M138.86,43.67a18.08,18.08,0,0,0,16.4-11.22h-32.8A18.08,18.08,0,0,0,138.86,43.67Z"/><path d="M0,1.79H4.85V27.41H0Z"/><path d="M28.18,16.15V27.41H23.44V16.81c0-2.37-1.24-3.92-3.57-3.92-3,0-4.39,2.72-4.39,5v9.51H10.75V9.08l3.65-.16a19.4,19.4,0,0,1,.58,4h.12a6.26,6.26,0,0,1,6.13-4.08C25.73,8.85,28.18,11.92,28.18,16.15Z"/><path d="M49.53,15.26a6.29,6.29,0,0,1-.12,1.28l-4.23.27a3.65,3.65,0,0,0,.08-.85,3.14,3.14,0,0,0-3.46-3.22c-2.76,0-4.58,2.17-4.58,5.43s1.79,5.59,5.16,5.59a6.54,6.54,0,0,0,5.2-2.21l2.41,3c-1.32,1.67-4,3.14-7.88,3.14-6,0-9.7-3.84-9.7-9.32s3.84-9.47,9.43-9.47C46.62,8.85,49.53,11.68,49.53,15.26Z"/><path d="M71,9.08V27.41l-3.73.16a23,23,0,0,1-.54-3.73h-.08a6,6,0,0,1-5.82,3.8c-4.46,0-6.91-3.07-6.91-7.3V9.08h4.74v10.6c0,2.37,1.2,3.92,3.53,3.92,2.72,0,4.08-2.72,4.08-5V9.08Z"/><path d="M95.44,18.28c0,5.71-3.57,9.35-8.58,9.35a6.55,6.55,0,0,1-6.33-3.92h0A21.15,21.15,0,0,1,80,27.41H76.46V0H81.2V11.92a6.53,6.53,0,0,1,5.94-3.07C91.87,8.85,95.44,12.38,95.44,18.28Zm-4.81,0c0-3.34-1.79-5.47-4.7-5.47a4.8,4.8,0,0,0-4.74,4.93v1a4.76,4.76,0,0,0,4.89,4.89C88.84,23.68,90.63,21.54,90.63,18.28Z"/><path d="M117.56,27.33a10.33,10.33,0,0,1-2.33.27c-2.37,0-3.69-.93-4-2.91-.54,1-2.1,3-6,3s-6.21-2-6.21-5c0-4.39,4.46-5.67,11.68-5.78H111v-.89c0-2.06-1.24-3.42-3.69-3.42-2.25,0-3.49.89-3.49,2.41a1.9,1.9,0,0,0,.16.74l-4.19.7a6.26,6.26,0,0,1-.23-1.71c0-3.45,3-5.78,7.92-5.78,5.24,0,8.15,2.72,8.15,7.18v6.44c0,.93.31,1.24,1.09,1.24a3.39,3.39,0,0,0,.66-.08ZM111,21V19.41h-.31c-5,.08-7.06.85-7.06,2.68,0,1.24,1,1.94,2.83,1.94C109.33,24,111,22.51,111,21Z"/></g></g></svg>