<svg xmlns="http://www.w3.org/2000/svg" viewBox="0 0 714.35 715.16"><defs><style>.cls-1{fill:#1a3d73;}.cls-2{fill:#ed2034;}.cls-3{fill:#d59831;}.cls-4{fill:#e4158f;}.cls-5{fill:#538248;}.cls-6{fill:#f4792a;}.cls-7{fill:#0388c3;}.cls-8{fill:#f9a72c;}.cls-9{fill:#69c351;}.cls-10{fill:#2ea553;}.cls-11{fill:#9a1a41;}.cls-12{fill:#c9243b;}.cls-13{fill:#036096;}.cls-14{fill:#f04a32;}.cls-15{fill:#04b7dd;}</style></defs><title>ods-wheel</title><g id="Layer_2" data-name="Layer 2"><g id="Layer_1-2" data-name="Layer 1"><path class="cls-1" d="M346.86,0c.11,1.82.32,3.64.32,5.46q0,72.5.09,145c0,3.89-.39,5.66-5.1,5.95A167.63,167.63,0,0,0,300.63,164c-3.56,1.15-4.48-.13-5.58-3q-24.58-63.81-49.3-127.57c-1.72-4.46-6-9.78-4.28-13.21,1.89-3.72,8.66-3.75,13.38-5.16A341.14,341.14,0,0,1,335.09.83c1.57-.08,3.36.43,4.77-.83Z"/><path class="cls-2" d="M377.86,0c4.66,2,9.69,1.29,14.51,1.76A368.22,368.22,0,0,1,472.51,19c3.12,1,3.13,2.21,2.09,4.9q-26.63,68.86-53,137.82c-1.18,3.08-2.32,3.88-5.67,2.83a163.52,163.52,0,0,0-39-7.7c-4.64-.29-6.58-1.61-6.55-7,.27-48,.15-96,.17-143.93,0-2,.2-4,.3-6Z"/><path class="cls-3" d="M165.28,423.38c1.06-.35,1.41,1.41,1.89,2.75a193.57,193.57,0,0,0,21.25,42.16c1.9,2.82-.27,3.36-1.73,4.48l-82.17,62.49c-11.91,9.05-23.85,18.06-35.68,27.22-2.21,1.71-3.39,1.82-5.1-.65a361.47,361.47,0,0,1-46.25-92.34c-1.32-3.95,1-4,3.46-4.72q68.72-19.7,137.43-39.47C160.3,424.75,162.22,424.23,165.28,423.38Z"/><path class="cls-4" d="M310.78,557.06q-4.18,22.4-8.34,44.62-9.32,49.42-18.69,98.82c-1.59,8.34-.6,7.14-7.77,5.48a359.73,359.73,0,0,1-92.18-35.43c-3.19-1.75-3.28-3.15-1.49-6Q221.13,602,259.7,539.43c1.71-2.78,2.83-3.6,6.07-1.88a186.45,186.45,0,0,0,41.31,15.72C308.93,553.74,311.85,553.68,310.78,557.06Z"/><path class="cls-5" d="M.11,358.61c0-6.33.24-12.66-.09-19-.22-4.18,1.4-5.07,5.19-4.7,16.71,1.65,33.44,3.15,50.17,4.65q41.49,3.71,83,7.36c4.81.43,9.61.93,14.42,1.26,2,.13,2.78.38,2.64,2.87-.89,15.35.71,30.56,3.65,45.6.68,3.49-.11,4.54-3.37,5.47C110.92,414.88,66.2,427.8,21.43,440.56c-3.7,1.05-8.23,4.34-11,2.13-2.36-1.85-2.18-7-3-10.77C2.45,407.74-.49,383.34.11,358.61Z"/><path class="cls-6" d="M356.23,715.09c-15.42.42-31.46-1.11-47.5-3-3.27-.38-3.57-1.32-3-4.26,5.62-29.36,11.09-58.75,16.61-88.13,3.56-18.94,7.18-37.86,10.63-56.81.57-3.15,1.08-4.67,5.15-4.22a157.63,157.63,0,0,0,42.26-.59c4.65-.75,6.13.66,7,5.33q13.28,72,27.1,144c.51,2.67-.26,3.37-2.83,3.76A324.16,324.16,0,0,1,356.23,715.09Z"/><path class="cls-7" d="M150.93,325.14c-24.67-2.27-49.49-4.6-74.31-6.83-20.53-1.85-41.07-3.57-61.6-5.37-2.65-.23-5.31-.95-7.92-.77-4.08.29-4.72-1.54-4.18-5,5.22-33.79,14.41-66.38,28.68-97.52,1.41-3.07,2.44-3.07,5.17-1.7q65.85,33,131.85,65.68c3.2,1.59,3.94,2.82,2.46,6.27-5.75,13.44-10.31,27.31-12.29,41.85C158,327.88,153.86,324.47,150.93,325.14Z"/><path class="cls-8" d="M513,485.68c1.36.93,2.2,1.45,3,2q59.14,44.6,118.33,89.14c3,2.21,2.72,3.6.65,6.14a367.4,367.4,0,0,1-74.43,69c-2.71,1.89-3.68,1.12-5.16-1.27q-38.79-63-77.74-126c-1.37-2.22-2.23-3.6.53-5.63a193.85,193.85,0,0,0,32.73-30.61C511.6,487.63,512.24,486.66,513,485.68Z"/><path class="cls-3" d="M590,86.77c-.74.9-1.32,1.67-2,2.38q-26.61,29.12-53.23,58.22c-15.52,16.94-31.15,33.77-46.54,50.82-2.52,2.79-4.1,2.73-6.83.51a174.47,174.47,0,0,0-36.71-22.92c-2.7-1.26-3.07-2.48-2-5.33q26.64-68.79,52.93-137.72c1.28-3.37,2.44-3.85,5.7-2.38A368.46,368.46,0,0,1,586.2,83.19C587.47,84.24,588.6,85.45,590,86.77Z"/><path class="cls-8" d="M159.71,655.71c-.63-.46-1.4-1.07-2.22-1.62a363.16,363.16,0,0,1-74.64-67.23c-2.87-3.39-2.25-4.69.85-7q46.17-34.83,92.19-69.87c8.34-6.33,16.71-12.63,25-19,2-1.58,3.17-1.73,5.14.47,10,11.17,20.86,21.48,33.27,30,2.37,1.63,2.88,2.95,1.22,5.62Q201.32,590.1,162.33,653.3C161.74,654.26,161.37,655.46,159.71,655.71Z"/><path class="cls-9" d="M109.64,100.26c1.79.29,2.43,1.59,3.3,2.53q18.45,20,36.82,40c12.9,14.12,25.72,28.31,38.6,42.45Q200.12,198.19,212,211c2.23,2.39,2.19,4-.22,6.53a186.41,186.41,0,0,0-26.45,34.28c-1.65,2.79-3,3.16-5.86,1.72q-66.1-33.12-132.32-66c-2.72-1.35-3.05-2.34-1.46-5.14a360.14,360.14,0,0,1,61.19-79.61C107.81,101.87,108.81,101,109.64,100.26Z"/><path class="cls-10" d="M671.67,187.6c-.11,2.27-2.19,2.38-3.51,3q-38.07,19.1-76.2,38c-18.32,9.12-36.7,18.12-54.94,27.39-3.29,1.67-4.67,1.24-6.53-1.92a172,172,0,0,0-25.84-34.1c-2.29-2.32-2.12-3.69,0-6q40.46-43.88,80.74-87.94c6.3-6.87,12.63-13.72,18.79-20.71,2.08-2.36,3.32-3.12,6-.36,23.43,23.89,43.62,50.17,59.72,79.55C670.5,185.6,671.1,186.6,671.67,187.6Z"/><path class="cls-11" d="M455.58,534.11c1.93.39,2.22,2.12,2.95,3.29q21.4,34.48,42.66,69c11.51,18.65,23,37.34,34.6,55.91,1.76,2.81,2,4-1.29,5.87a360.15,360.15,0,0,1-92.6,37c-3.14.77-4.5.9-5.24-3.09-9-48.44-18.17-96.84-27.33-145.25-.37-1.95-1.19-3.86,1.8-4.66a194.14,194.14,0,0,0,42.78-17.27C454.48,534.63,455.08,534.36,455.58,534.11Z"/><path class="cls-12" d="M559.74,327.39c-2.11.88-2.73.06-3.06-1.87a201.49,201.49,0,0,0-12.83-44.89c-1.14-2.69.86-2.75,2.12-3.38q27.37-13.74,54.78-27.39c26.07-13,52.16-25.94,78.18-39,2.82-1.42,3.82-1.21,5.18,1.83,13.8,30.82,22.65,63,27.59,96.36.39,2.66.17,4.19-3.24,4.46-12.59,1-25.14,2.36-37.71,3.56q-45.64,4.37-91.29,8.72C572.83,326.36,566.2,326.85,559.74,327.39Z"/><path class="cls-13" d="M274.79,171.78c.43,2.28-1.4,2.33-2.43,2.8a185.29,185.29,0,0,0-37.75,23.05c-2.35,1.87-3.35.62-4.78-1q-19.32-21.23-38.72-42.4c-20.3-22.26-40.51-44.6-60.93-66.74-2.63-2.85-2.5-4.22.39-6.55a375.19,375.19,0,0,1,83.38-51.15c4.31-1.91,5.52-1,7.13,3.16q25.79,67.29,52,134.43C273.66,169,274.28,170.5,274.79,171.78Z"/><path class="cls-14" d="M714.3,358.11a336.73,336.73,0,0,1-8.68,80.55c-.76,3.38-1.64,4.77-5.86,3.54q-70-20.42-140.25-40.25c-3.68-1-4.94-2.06-4-6.33A162,162,0,0,0,559,355.47c-.13-3.65.68-5.12,4.77-5.49,41.87-3.78,83.71-7.82,125.56-11.79,6.95-.66,13.9-1.24,20.84-2,2.86-.33,4.27.3,4.2,3.51C714.19,345.82,714.3,352,714.3,358.11Z"/><path class="cls-15" d="M697.4,468.77c-1.86,5.1-4.13,11.69-6.64,18.18a356.71,356.71,0,0,1-37.44,71.29c-1.45,2.15-2.19,3.05-4.8,1.07q-59.24-45-118.72-89.61c-2.55-1.92-2.85-3.13-1.12-5.82a174.54,174.54,0,0,0,18.25-37.52c1-2.81,2.05-3.83,5.32-2.88q71.15,20.63,142.36,41C695.88,464.9,698.45,464.42,697.4,468.77Z"/></g></g></svg>