<svg xmlns="http://www.w3.org/2000/svg" viewBox="0 0 420.03 369.94"><defs><style>.cls-1{fill:#eb99c2;}.cls-2{fill:#4d4d4d;}.cls-3{fill:#e6e6e6;}.cls-4{fill:#999;}.cls-5{fill:#fae5ef;}.cls-6{fill:#c06;}.cls-7{fill:#fff;}.cls-8{fill:#f5cce0;}.cls-9{fill:gray;}.cls-10{fill:#f0b2d1;}.cls-11{fill:#e57fb2;}.cls-12{fill:#1a1a1a;}</style></defs><title>people2</title><g id="Layer_2" data-name="Layer 2"><g id="Layer_1-2" data-name="Layer 1"><path class="cls-1" d="M29.92,200.81c-.39-.62-.27-1,.72-1.3C30.47,200.17,30.55,200.55,29.92,200.81Zm20.9,78.49a42.13,42.13,0,0,0-2.68-3.69c-.78-1.06-2.26-2.48-2.68-3.71-.37-1.06-.18-1.81-.87-2.83-.84-1.26-1.85-2.44-2.74-3.68a7.6,7.6,0,0,0,2.62-2.24,6.4,6.4,0,0,1,2.45-1.94L55,257l-.1-.41a16.22,16.22,0,0,1-.8-2.8,26.8,26.8,0,0,1,.1-3.69l.17-7.75c.13-5.15.3-10.32.41-15.46.11-5,.28-10,.06-14.93s-.45-9.78-.24-14.55c.18-4.19-1-9.2-2.38-13.19a11.23,11.23,0,0,0-7.14-6.56c-2.09-.47-4.46-.14-6.58-.16-2.31,0-4.64,0-6.94-.21-4-.28-8-1.08-12-1.42a62.22,62.22,0,0,0-6.9.15c-1.33,0-2.65-.07-4-.16-.78,0-1.58-.1-2.36-.09-1.7,0-2.47,1.8-2.86,3.87S3.09,184,3,185.17a87.19,87.19,0,0,0,1.21,26.29c.81,4.41,2.72,8.41,3.65,12.74s1.58,8.61,2.34,12.91c1.59,8.77,1.87,17.9,2.34,26.78a231.31,231.31,0,0,1,.09,26.61c-.31,4.58-.15,9.25-.22,13.84,0,2.2.06,4.41-.06,6.59s-.59,4.16-.51,6.23c.33.1.62.2.92.32.22,1.39-.44,3.16-.7,4.56-.32,1.7-.63,3.38-.85,5.09-.39,3-.68,6-1.07,9-.2,1.51-.39,3-.58,4.53-.13,1.08-.86,3.55-.13,4.44,1.23,1.51,6.6-.75,8.15-1.08a62.7,62.7,0,0,0,9.79-2.73c2.85-1.1,5.73-2.87,8.76-3.36s5.58.95,8.49,1.77a42.51,42.51,0,0,0,7.72,1.7,86,86,0,0,1-1.38-10,81.67,81.67,0,0,1,.54-10.86c.65-7.08.12-13.84-.18-20.91-.16-3.69.11-7.39.22-11.08C51.58,285.53,52.36,282,50.82,279.3Z" transform="translate(-0.25 -0.25)"/><path class="cls-1" d="M7.81,270.29c-.21,1.24-.4,2.48-.57,3.72-.34,2.61-.59,5.22-.8,7.84-.43,5.37-.64,10.63-1.37,16C4.29,303.5,4,309.25,3.58,315c-.35,5.3-1.37,10.88-1.16,16.16l5.81,1.7c.94-5.31.81-11,1.2-16.35.41-5.57.34-11,.22-16.58s-.54-11.4-.62-17.1c-.08-5.43.43-11.14-.25-16.52C8,266.95,8,269.3,7.81,270.29Z" transform="translate(-0.25 -0.25)"/><path class="cls-2" d="M6.46,347.38c3,2.93,8.74.51,12.15-.57a2.4,2.4,0,0,0,0-.33c-3.41-.65-8.28,3.49-11.3.55-1.22-1.2-.61-3.25-.47-4.76A55.84,55.84,0,0,1,7.78,336L6,335.13C4.54,338.94,3.24,344.19,6.46,347.38Z" transform="translate(-0.25 -0.25)"/><path class="cls-3" d="M8.84,25.3a15.89,15.89,0,0,0-2.31,5.39c-.45,1.89-.16,4.23-.31,6.25-.38,5-.94,9.79.41,14.61a16,16,0,0,0,6.73,9.24c1.29-1.47,3.69-.91,5.32-1.82,1.94-1.08,2.18-3.07,2.68-5.09a7.33,7.33,0,0,0-1.14-6.48c-1-1.62-1.81-3.57-1.12-5.48,1.55-4.3,5.94-2.78,8.77-5.33,1.44-1.29,2.23-3.29,3.05-5,.7-1.42,1-4.7,2.21-5.53,1,1.25,4.52,1,6,1.16,2.12.23,2.87-.1,4.46-1.48,1.43-1.22,3.05-1.37,4.92-1.31,2.26.07,3,2,5.15,2.32,1.15-1.36.11-5.22-.76-6.59a17.24,17.24,0,0,0-3.8-4,27,27,0,0,0-5-2.84c-2.09-1-3.81-2.42-5.93-3.33-2.28-1-3.51-1.62-5.59.13-1.77,1.49-3.07,3.05-5.47,3.41-4.2.62-9-.15-10.42,4.8C15.57,22.27,11.16,22.15,8.84,25.3Z" transform="translate(-0.25 -0.25)"/><path class="cls-4" d="M28.4,175.11c2.42.18,4.85.1,7.26.06a81.2,81.2,0,0,1,8.72.16,18.11,18.11,0,0,1,3.61.61c.93.29,2.12,1.26,3.1,1.28,2.44,0,1.55-3.19,1.41-4.59-.25-2.44.14-4.94.07-7.4-.08-2.85-.3-5.69-.36-8.53,0-2.69.21-5.46-.06-8.15a15.4,15.4,0,0,0-2.4-7.08c-1.4-2-3-2-5.11-2.76a36.38,36.38,0,0,1-11.47-7.42c-3.82-3.42-8.49-6.59-11.38-10.89a49,49,0,0,1-4-7.33c-.48-1.09-.82-2.26-1.32-3.34s-1.33-1.79-1.55-2.83a3,3,0,0,1-.08-.59l-3.45-.09c0,.13,0,.27,0,.4-.45,11.51-1.37,22.83-2.75,34.26C8,146.31,8,151.75,6.94,157.15c-.52,2.77-.77,5.47-1.07,8.26-.2,1.86-1.34,5.58-.47,7.32.54,1.1,1.93,1.41,3.37,1.47s2.67-.12,3.55-.15a62.76,62.76,0,0,1,7.48-.15C22.69,174.14,25.52,174.9,28.4,175.11Z" transform="translate(-0.25 -0.25)"/><path class="cls-2" d="M46.42,358.54c2.6.17,5.18-.1,7.81.1,2.47.2,5,.22,7.44.25,1.36,0,5.13.44,5.82-1.2,1.17-2.79-7.29-7.15-9.08-8.39-3.44-2.39-7.3-5.08-11.29-6.42-5-1.68-9.27-1.23-14.36-.31-2.45.45-4.63,1.34-7,2-1.44.4-3.72.26-4.54,1.65s-.22,4.52-.08,5.91c.23,2.17.68,4.38,2.94,5s5.1.43,7.5.53l7.68.36c0-.1,0-.21,0-.33C41.65,357.94,44.05,358.38,46.42,358.54Z" transform="translate(-0.25 -0.25)"/><path class="cls-5" d="M29.93,68.71c-1.1-.48-3.43-1.13-3.94-2.26a1.68,1.68,0,0,1-.19-1.23l-3.34.11a9.9,9.9,0,0,0-.17,1c-.3,2.52-.21,5.11-.67,7.61-.22,1.19-.48,2.23-.61,3.41-.07.73-1.16,2.55-1.09,3,.18,1.42,4.35,1.73,5.49,2a25.06,25.06,0,0,0,8.14.51c2.66-.16,6-.32,8.46-1.4-.78-3.33-1.51-6.48-2.28-9.75-1.62-.49-3.24-.51-4.86-1.12S31.55,69.43,29.93,68.71Z" transform="translate(-0.25 -0.25)"/><path d="M29.92,200.81c.63-.25.56-.63.72-1.3C29.65,199.81,29.52,200.18,29.92,200.81Z" transform="translate(-0.25 -0.25)"/><path class="cls-4" d="M16.32,105.24c.89.35,1.51,2.37,1.92,3.21a66.38,66.38,0,0,0,3.61,6.61c2.65,4.08,5.37,8,9.65,10.53,2.1,1.25,3.77,2.86,5.76,4.23s4.42,2.05,6.62,3c1.36-2.93,3.13-5.66,3.08-9a56.61,56.61,0,0,1,.53-9.69c.57-3.85-2.16-6.14-4.53-8.92-2-2.36-4.48-3.64-6.64-5.77a12.16,12.16,0,0,0-3.21-2.8c-1-.47-2.84-.54-3.28-1.67-.63-1.61,1-1.21,1.88-1.5a5.79,5.79,0,0,1,1.38-.29L33.17,90a18.77,18.77,0,0,1-5.91-1c-2.73-.94-5.24-2.79-8-3.53-2.58-.69-4.3,2.43-5.33,4.43-2.62,5.09-2.33,10.78-2.51,16.37l3.45.09C14.81,105.44,15.21,104.8,16.32,105.24Z" transform="translate(-0.25 -0.25)"/><path class="cls-4" d="M43.16,100c1.4,2,2.86,4.26,5.07,5.46.7-2.49-.67-5.94-1.41-8.36-.89-3-1.22-4.81-4.29-5.89-1.19-.41-2.47-.2-3.64-.62s-1.46-.75-2.68-.69H36a26.35,26.35,0,0,1-2.8.07l-.06,3.16a4.81,4.81,0,0,1,2.3.78c1.47.71,3.39,1.22,4.7,2.19S42.28,98.75,43.16,100Z" transform="translate(-0.25 -0.25)"/><path class="cls-6" d="M248.12,350.71c5.85-2,11.79-3.8,17.62-5.84,1.55-.56,2.89-1.49,4.43-2,1.31-.46,2.65-.84,4-1.3a68.49,68.49,0,0,0,7.52-3.38c2.82-1.4,5.34-3.4,8.06-5,2.31-1.39,4-3.09,6.14-4.63,2.57-1.83,5.36-3.27,7.88-5.19q3.37-2.57,6.72-5.21c5.16-4.07,9.52-9.17,14.16-13.8s8.76-9.21,13-14a187,187,0,0,0,22.75-31.17c-.13-.09-.25-.2-.37-.3-2.72,1.07-5.53,1.83-8.22,3a22,22,0,0,1-7.83,1.93c-2.69.17-5,1.43-7.56,2.18-2.72.81-5.6,1.07-8.37,1.66-11.77,2.5-23.79,5-35.72,6.41-10.51,1.26-21.09,2.47-31.29,5.26-5,1.37-10.25,1.15-15.4.88-5.43-.29-10.79-.35-16.21-.15s-10.88-.61-16.34,0a89.61,89.61,0,0,1-15.22.43c-5.48-.33-11-1-16.44-1.08-5.06-.07-10.15-.12-15.22-.32s-10.51.77-15.56-.25c-4.87-1-9.9-.88-14.86-1.21l-3.58-.23q-14-.88-28.11-1.48c-2.64-.11-5.52-.59-8.15-.37a33.81,33.81,0,0,1-5.95-.22c-2.56-.21-5.16-.1-7.72-.54s-5.06-1-7.64-1.38c-2.79-.37-5.61-.66-8.42-1.08-2.21-.33-4.27-1.24-6.5-1.62a24.33,24.33,0,0,1-6.83-2.12,9,9,0,0,0-5.37-.76c2.34,6.4,7.27,11.36,11.61,16.5,4.58,5.48,9.39,10.58,14.44,15.61,2.39,2.37,5.12,4.11,7.68,6.25s4.91,4.59,7.39,6.82a137.66,137.66,0,0,0,17.15,12.9c5.31,3.47,11,6.2,16.46,9.3s11.29,6,17,8.71a95.58,95.58,0,0,0,17.35,6,35,35,0,0,1,3.83.9c1.11.42,1.78,1.19,2.91,1.57,3,1,6.18,1.79,9.28,2.49,12.64,2.84,25.76,2.68,38.63,2.87a53.2,53.2,0,0,0,7.94-.16c.28,0,.55-.08.82-.13,3.05-.56,6.07-1.33,9.14-1.86A117.3,117.3,0,0,0,248.12,350.71Z" transform="translate(-0.25 -0.25)"/><path d="M50.67,42.65c.63-2.16-3.76-2.38-4.89-1.48C45.65,43.26,49.94,45.09,50.67,42.65Z" transform="translate(-0.25 -0.25)"/><path class="cls-4" d="M53,129.33c.35-2.28.48-4.58.6-6.88.15-2.47.21-5,.46-7.42.17-1.54.15-1.91-1.24-2.86-3.69,1.43-3.6,6.7-3.8,9.93a39.26,39.26,0,0,0,.05,6.19c.2,2.15-.44,3.67-1,5.69l3.45,1.62C52.63,134.58,52.76,130.84,53,129.33Z" transform="translate(-0.25 -0.25)"/><path class="cls-5" d="M45.78,41.17c1.13-.89,5.52-.68,4.89,1.48C49.94,45.09,45.65,43.26,45.78,41.17Zm5.94,2a64,64,0,0,0,.63-10c-.14-3.38-3.6-9.07-7.38-5.8-2,1.72-3.37,2-6,1.76-2.29-.21-3.4-.79-4.35,1.43S32.34,34.79,31.29,37c-.75,1.56-1,4.76-3,5.18s-3.89-2.39-6-1,.11,3.52,1.32,4.43c4.13,3,2.82,9.43,1.29,13.68-.77,2.17-1.92,3.89-2.41,6.1l3.34-.11c.25-.62,1.3-.46,2.08-.14,3.46,1.48,6.43,4,10.28,4.44,3.33.34,6.7-.8,8.18-4-1.05-.44-9-3-6.61-5.34.79-.8,3.22.91,3.88,1.37,1.38,1,2.21,1.81,4,1.63,1.61-2.74,2.91-5.65,5.47-7.62,2.11-1.61,1.79-2.55.57-4.77C52.23,48.14,51.38,46.23,51.72,43.14Z" transform="translate(-0.25 -0.25)"/><path class="cls-5" d="M95.41,121.18c1.55-.12,3.55.22,5-.56s2.59-2.93,3.55-4.16c-4.29-1.22-9.68.09-14,.65-4.51.6-8.86,2.85-13.25,4.05-2.16.61-4.33,1.19-6.48,1.87-1.11.35-3.58,1.7-4.71,1.3s-1.13-2.17-1.94-3.14a47.48,47.48,0,0,0-5-4.54,49.45,49.45,0,0,0-2.36,5.22,22.13,22.13,0,0,0-.47,5.21,50.4,50.4,0,0,1-1.05,6.19c-.2,1-.52,2.67.13,3.67s2,1.16,3,1.5c1.68.6,3.28,1.67,5,2.2,3.24,1,6.67-1.93,9.15-3.71a36.15,36.15,0,0,0,4.28-3.06c1.28-1.27,2.11-3,3.46-4.24a28.78,28.78,0,0,1,8.21-5.52C90.28,123.07,92.7,121.39,95.41,121.18Z" transform="translate(-0.25 -0.25)"/><path d="M16.46,63.75c-.36-.13-.41-.31-.18-.53C16.66,63.31,16.72,63.49,16.46,63.75Zm1.75-51.29L20,11.62c.06.15.11.31.17.48l-1.76.75ZM6.53,30.69A15.89,15.89,0,0,1,8.84,25.3c2.32-3.15,6.73-3,7.89-7,1.45-4.95,6.22-4.18,10.42-4.8,2.4-.36,3.7-1.93,5.47-3.41C34.71,8.38,35.94,9,38.21,10c2.12.91,3.83,2.35,5.93,3.33a27,27,0,0,1,5,2.84,17.24,17.24,0,0,1,3.8,4c.87,1.37,1.92,5.23.76,6.59-2.12-.29-2.89-2.26-5.15-2.32-1.87-.06-3.5.09-4.92,1.31-1.59,1.38-2.34,1.71-4.46,1.48-1.49-.17-5,.09-6-1.16-1.22.83-1.51,4.11-2.21,5.53-.83,1.7-1.61,3.7-3.05,5-2.82,2.55-7.22,1-8.77,5.33-.69,1.91.11,3.87,1.12,5.48a7.33,7.33,0,0,1,1.14,6.48c-.5,2-.74,4-2.68,5.09-1.62.91-4,.35-5.32,1.82a16,16,0,0,1-6.73-9.24c-1.35-4.82-.78-9.65-.41-14.61C6.36,34.92,6.08,32.58,6.53,30.69ZM46.34,65.53c-1.48,3.2-4.85,4.34-8.18,4-3.84-.39-6.82-3-10.28-4.44-.78-.32-1.83-.48-2.08.14A1.68,1.68,0,0,0,26,66.45c.51,1.13,2.85,1.78,3.94,2.26,1.62.72,3.3,1.33,5,2s3.24.63,4.86,1.12c.76,3.27,1.5,6.42,2.28,9.75-2.47,1.09-5.81,1.24-8.46,1.4a25.06,25.06,0,0,1-8.14-.51c-1.15-.31-5.31-.62-5.49-2-.08-.49,1-2.32,1.09-3,.12-1.18.38-2.23.61-3.41.46-2.5.37-5.09.67-7.61a9.9,9.9,0,0,1,.17-1c.5-2.22,1.65-3.93,2.41-6.1C26.4,55,27.71,48.56,23.58,45.56c-1.21-.9-3.39-3.07-1.32-4.43s4,1.45,6,1,2.28-3.62,3-5.18c1-2.18,2.34-4.26,3.29-6.46s2.06-1.64,4.35-1.43c2.67.27,4,0,6-1.76,3.79-3.28,7.24,2.41,7.38,5.8a64,64,0,0,1-.63,10c-.35,3.09.5,5,2,7.65,1.22,2.22,1.54,3.16-.57,4.77-2.56,2-3.87,4.88-5.47,7.62-1.82.18-2.65-.65-4-1.63-.66-.46-3.09-2.16-3.88-1.37C37.34,62.57,45.29,65.09,46.34,65.53Zm-1.21,5a51.15,51.15,0,0,1,4.34-3.84c1.71-1.57,2.63-3.57,3.93-5.47.47-.68.9-1.64,1.41-2.27s1.42-1,2.15-1.66c2.36-2,1.14-4-.18-6.17-2.83-4.7-1.39-10.55-.79-15.69A42.76,42.76,0,0,0,56.16,27c-.18-2.15-.05-5.07-1-7C53.1,15.39,48,13,43.94,10.51a27.55,27.55,0,0,0-6-2.84A18.71,18.71,0,0,0,35,6.6c-1.43-.21-2.1.76-3.37,1.16-2.14.69-4.92.66-7.18,1s-4.93.12-6.62,1.77a18.43,18.43,0,0,0-3.69,5.76c-1.12,2.67-2.92,3.57-4.92,5.5-1.83,1.79-3.17,3.13-4.07,5.51a15.94,15.94,0,0,0-1.14,7.19C4.45,40.12,2.62,45.4,2.45,51c-.06,2.43.08,4.72,1.55,6.76s3.79,3.5,5.64,5.08,4,1.73,6,2.87c2.45,1.38,1.75,5.28,1.81,7.68a14.65,14.65,0,0,1-1.21,6.89,36.71,36.71,0,0,1-4,6.77c-1.51,2.06-3,3.79-3.67,6.26a39.32,39.32,0,0,0-1.43,8.22c-.36,5.36,1.13,10.53.88,15.84-.29,5.77-.49,11.54-.92,17.33s-1.37,11.38-2.33,17.08S3.18,163.3,2.39,169.06a19.26,19.26,0,0,0-.53,3.89,15.22,15.22,0,0,1,.48,2.89,29.27,29.27,0,0,1-.5,3.49l1.66.33c.39-2.07,1.15-3.87,2.86-3.87.78,0,1.58.05,2.36.09l.08-1.69c-1.45-.06-2.83-.37-3.37-1.47-.87-1.74.27-5.45.47-7.32.3-2.79.55-5.49,1.07-8.26,1-5.4,1.06-10.84,1.7-16.27,1.37-11.43,2.3-22.75,2.75-34.26,0-.13,0-.27,0-.4.18-5.59-.11-11.28,2.51-16.37,1-2,2.75-5.12,5.33-4.43,2.78.74,5.29,2.59,8,3.53a18.77,18.77,0,0,0,5.91,1,26.35,26.35,0,0,0,2.8-.07h.24L36.14,88a26.13,26.13,0,0,1-3.52-.09C29.67,87.66,25,86.73,23,84.26c1.71-.42,3.8.49,5.54.75a25.47,25.47,0,0,0,6.65.07c3-.33,8.37-1.91,9.68,1.89l1.45-.64a17.38,17.38,0,0,1-1-2.73c-.55-2.15-.74-4.39-1.16-6.56C43.74,74.63,43.37,72.49,45.13,70.48Z" transform="translate(-0.25 -0.25)"/><path class="cls-7" d="M128.91,172.63c.38-.79.8-2.1,1.73-2.45s2.3.56,3.43.07c1.35-.59,2.3-3.5,2.39-5a57.69,57.69,0,0,1-7.67,0c-2.75-.28-5.21-1.24-7.86-1.92s-5.16-1.42-7.76-2.05-5.12-.81-7.51-1.88C95.77,155,85.14,150.68,77,143.49a25.39,25.39,0,0,0-2.77,5.72c-.62,2-1.25,4.06-1.76,6.12a18.46,18.46,0,0,1-.69,2.78,19.72,19.72,0,0,0-1,1.83c-.63,1.92-.15,4.44-.32,6.45a87.84,87.84,0,0,0,0,12.81c.14,2.26.16,4.1,1.27,6.13a47.93,47.93,0,0,0,2.7,4.47c4.17,5.83,11.18,11.43,18.5,12.47,4,.57,7.67,1.16,11.7.6A42.53,42.53,0,0,0,116,199.79c6.27-2.81,12.48-7.5,15-14-1.7-1.76-3.92-3.42-4.14-6S127.83,174.83,128.91,172.63Z" transform="translate(-0.25 -0.25)"/><path class="cls-7" d="M127.06,162.63c4.82.79,6.95-2.45,8.72-6.28-3.27-3.23-7.83-5.06-12-6.82-4.57-1.94-9.34-3.4-14-5-7.73-2.69-15.68-5.18-23.93-5.7-1.56-.1-5.15-.45-6.59.31-1.94,1-.25,2.46.9,3.22q5.11,3.44,10.51,6.38A122.35,122.35,0,0,0,115,158.56C118.93,159.74,123,162,127.06,162.63Z" transform="translate(-0.25 -0.25)"/><path class="cls-5" d="M120,129.71a3.1,3.1,0,0,0,.57-3.13c-.26-1.12-.89-2,.76-2.61,1.12-.38,2.34.52,3.4,1-.31-2.94-3.44-3.16-5.41-4.67S115.45,117,113,117c-1.49,0-2.66-.52-4.15.09a10.18,10.18,0,0,0-3.2,2.39,7.23,7.23,0,0,0-1.36,7.82,6.13,6.13,0,0,0,6.86,4.14,6.82,6.82,0,0,0,3.37-.91c1-.78,1.08-2.07,2.53-1.33C118.21,129.78,118.48,131.21,120,129.71Z" transform="translate(-0.25 -0.25)"/><path class="cls-7" d="M133.7,185.08c4.06,3.43,7.59,7.49,11.39,11.21.91-8.34,3.37-15.75,8.4-22.52-7-.78-13.8-.26-20.6-.95a9.62,9.62,0,0,0-1.85,6.66C131.15,182.31,131.57,183.28,133.7,185.08Z" transform="translate(-0.25 -0.25)"/><path d="M156.73,196.24c.8-.14,2.21-.86.86-1.61C156.43,194,155.68,195.47,156.73,196.24Z" transform="translate(-0.25 -0.25)"/><path class="cls-7" d="M158.38,117.87c-2.67-3.4-6.42.76-8,2.95,1.6.72,2.27-.29,3.57-1A41.51,41.51,0,0,1,158.38,117.87Z" transform="translate(-0.25 -0.25)"/><path class="cls-7" d="M153.66,111.76c1.4,2.55,3.38,2.76,6,3,1.32-2.8-2.59-7.54-3.87-9.93C154.13,106.76,152.28,109.27,153.66,111.76Z" transform="translate(-0.25 -0.25)"/><path d="M161.5,182.53c-1.82-.23-2.2,2.91-.29,2.75C162.71,185.15,163.07,182.73,161.5,182.53Z" transform="translate(-0.25 -0.25)"/><path d="M166,129c-2.87-.06-10-.77-7.57,4,.43.79.93,1.75,1.93,1.87s1.59-1,2.5-1a.83.83,0,0,1,.37.07l0-.81H163c-.26-1.92.74-2.14,2.44-2.23l.66-.05Z" transform="translate(-0.25 -0.25)"/><path d="M164.14,141.14c3-1.05,2.77-7.87-.92-8l0,.81c1.35.47,1.83,3.35.85,4.29-1.07-.3-5.17-1.66-4.21,1C160.28,140.5,163,141.54,164.14,141.14Z" transform="translate(-0.25 -0.25)"/><path class="cls-7" d="M165.27,103c-4.78-.14-3.21,8.7-3.1,11.56,2-.89,2.63-3.11,3-5.09C165.54,107.94,166.28,104.31,165.27,103Z" transform="translate(-0.25 -0.25)"/><path d="M167.51,183.87c2.59.57,1.57-2.94.09-3.63C165.92,180.79,165.52,183.44,167.51,183.87Z" transform="translate(-0.25 -0.25)"/><path d="M173.12,190h0A.05.05,0,0,0,173.12,190Z" transform="translate(-0.25 -0.25)"/><path d="M76.75,121.16c4.39-1.2,8.74-3.46,13.25-4.05,4.33-.56,9.72-1.88,14-.65-1,1.23-2.14,3.41-3.55,4.16s-3.48.45-5,.56c-2.71.22-5.13,1.9-7.47,2.92a28.78,28.78,0,0,0-8.21,5.52c-1.35,1.29-2.18,3-3.46,4.24A36.15,36.15,0,0,1,72,136.92c-2.48,1.78-5.91,4.72-9.15,3.71-1.68-.53-3.28-1.6-5-2.2-1-.34-2.37-.56-3-1.5s-.33-2.62-.13-3.67a50.4,50.4,0,0,0,1.05-6.19,22.13,22.13,0,0,1,.47-5.21,49.45,49.45,0,0,1,2.36-5.22,47.48,47.48,0,0,1,5,4.54c.8,1,.69,2.69,1.94,3.14s3.61-.95,4.71-1.3C72.41,122.35,74.59,121.77,76.75,121.16Zm3.35,21.19c-1.15-.76-2.85-2.2-.9-3.22,1.44-.76,5-.41,6.59-.31,8.25.52,16.2,3,23.93,5.7,4.7,1.63,9.47,3.09,14,5,4.18,1.77,8.74,3.59,12,6.82-1.77,3.82-3.89,7.07-8.72,6.28-4.07-.67-8.13-2.89-12.11-4.07a122.35,122.35,0,0,1-24.35-9.83Q85.2,145.77,80.1,142.35ZM87,129.52c1.75-1.26,4.47-1.25,6.56-1.57s5-1.41,7-.95,2.59,2.72,3.55,4.27c1.42,2.23,3.72,2.38,6.22,2.24,3-.17,5.82-.59,8.84-.51,2.78.06,3.46-1.68,4.83-3.84,3.58,3.12,7.53,5.92,10,10.07a18.29,18.29,0,0,1,2.42,6.58c.2,1.38,1,6.31-.31,7.33-1,.82-3.69-1.71-4.71-2.26a49,49,0,0,0-6.37-3.1c-4.83-1.73-9.63-3.44-14.51-5.05-4.69-1.56-9-3.79-13.87-5-2.36-.58-4.83-1.5-7.3-1.49-2.21,0-4.15.7-6.42.39-2.54-.36-1.73-1.76-.18-3.17.67-.61,1.49-1,2.16-1.6S86.08,130.17,87,129.52Zm46.71,55.56c-2.12-1.8-2.54-2.76-2.67-5.59a9.62,9.62,0,0,1,1.85-6.66c6.8.69,13.56.17,20.6.95-5,6.77-7.49,14.18-8.4,22.52C141.28,192.57,137.75,188.51,133.7,185.08Zm-62,.24c-1.11-2-1.13-3.87-1.27-6.13a87.84,87.84,0,0,1,0-12.81c.16-2-.32-4.52.32-6.45a19.72,19.72,0,0,1,1-1.83,18.46,18.46,0,0,0,.69-2.78c.52-2.06,1.15-4.08,1.76-6.12A25.39,25.39,0,0,1,77,143.49c8.17,7.2,18.8,11.52,28.69,15.93,2.39,1.07,5,1.25,7.51,1.88s5.18,1.4,7.76,2.05,5.11,1.65,7.86,1.92a57.69,57.69,0,0,0,7.67,0c-.09,1.45-1,4.36-2.39,5-1.13.5-2.36-.48-3.43-.07s-1.35,1.65-1.73,2.45c-1.08,2.2-2.3,4.61-2.08,7.12s2.45,4.24,4.14,6c-2.5,6.53-8.71,11.22-15,14a42.53,42.53,0,0,1-11.45,3.06c-4,.57-7.74,0-11.7-.6-7.31-1-14.33-6.63-18.5-12.47A47.93,47.93,0,0,1,71.65,185.32ZM54,115c-.26,2.46-.32,4.94-.46,7.42-.12,2.3-.25,4.6-.6,6.88-.23,1.51-.35,5.24-1.47,6.28L48.06,134c.56-2,1.2-3.55,1-5.69A39.26,39.26,0,0,1,49,122.1c.2-3.23.11-8.49,3.8-9.93C54.2,113.13,54.21,113.5,54,115Zm34.76,88a36.6,36.6,0,0,0,23.68.4c8.75-2.69,15.28-8.73,21.4-15.2,5.67,4.77,10,11,14.82,16.48,2,2.33,6.61,3.06,9.52,2.35.8-.19,3.39-.92,3.47-2a1.24,1.24,0,0,0-.18-.9c-.46-.53-1.66.38-2,1-.11-.17-.21-.32-.3-.48-2.52.1-5.16.72-7.15-1.17a13.31,13.31,0,0,1-3.6-8.12c0-2.75,1.48-6,2.55-8.5a55.83,55.83,0,0,1,4.08-8.25c1-1.5,3-3.89,4.7-4.55,1.26-.49,3.14-.16,4.49-.16s2.74-.18,4,.5a8.19,8.19,0,0,1,4.16,6,20.6,20.6,0,0,1,.36,5c-.07,1.48-.52,3.12.26,4.5h0c3.37-.51,2-8.86,1.45-11.21-.74-3.4-4.09-6.36-7.2-7.73a7.33,7.33,0,0,0-5.2-.31c-2.39.49-5,.09-7.42.1-2.25,0-4.52,0-6.78-.08-2.44-.06-5.32.23-7.67-.47-.19-2,.77-4.54,1.28-6.53a19.86,19.86,0,0,0,.63-6.09c-.09-2-.11-4-.19-6a13.09,13.09,0,0,0-1.33-5.12c-.67-1.67-.89-3.35-1.84-5s-2-3.42-3-5.13c-2.24-3.75-5.37-6.54-8.63-9.39a7.21,7.21,0,0,0-1.66-5.82c-1.12-1.16-2.93-1.46-4.22-2.39a41,41,0,0,0-4.33-3.08c-1.4-.75-4.14-1.6-4.95-3-2.53.49-5.34-.35-8-.42a30.4,30.4,0,0,0-8.31.75c-5.42,1.31-10.58,3.4-15.94,4.9-4.3,1.21-11.3,4.6-15.41,1.62-3.31-2.4-4.12-6.79-7.47-9.12-1.54-1.09-3.82-1.6-4.6-3.47-1-2.44-1.23-5.44-2.11-8-.94-2.71-1.39-5.56-2.16-8.34a31.28,31.28,0,0,0-1.76-4.43L44.91,87A78.32,78.32,0,0,1,36.14,88l.07,1.88c1.22-.06,1.48.27,2.68.69s2.45.22,3.64.62c3.07,1.07,3.4,2.9,4.29,5.89.75,2.42,2.11,5.87,1.41,8.36C46,104.27,44.56,102,43.16,100c-.89-1.27-1.79-3-3.06-3.91s-3.23-1.48-4.7-2.19a4.81,4.81,0,0,0-2.3-.78,5.79,5.79,0,0,0-1.38.29c-.92.29-2.51-.1-1.88,1.5.44,1.13,2.3,1.2,3.28,1.67a12.16,12.16,0,0,1,3.21,2.8c2.17,2.13,4.64,3.41,6.64,5.77,2.36,2.79,5.1,5.08,4.53,8.92A56.61,56.61,0,0,0,47,123.8c0,3.31-1.72,6-3.08,9-2.2-.91-4.63-1.61-6.62-3s-3.66-3-5.76-4.23c-4.28-2.54-7-6.45-9.65-10.53a66.38,66.38,0,0,1-3.61-6.61c-.42-.85-1-2.87-1.92-3.21-1.11-.44-1.51.2-1.47,1.08a3,3,0,0,0,.08.59c.22,1,1.11,1.88,1.55,2.83s.84,2.25,1.32,3.34a49,49,0,0,0,4,7.33c2.89,4.3,7.56,7.46,11.38,10.89a36.38,36.38,0,0,0,11.47,7.42c2.14.8,3.71.72,5.11,2.76a15.4,15.4,0,0,1,2.4,7.08c.27,2.68,0,5.46.06,8.15.05,2.85.28,5.69.36,8.53.07,2.46-.32,5-.07,7.4.14,1.4,1,4.62-1.41,4.59-1,0-2.16-1-3.1-1.28a18.11,18.11,0,0,0-3.61-.61,81.2,81.2,0,0,0-8.72-.16c-2.41,0-4.84.12-7.26-.06-2.89-.21-5.71-1-8.59-1.21a62.76,62.76,0,0,0-7.48.15c-.88,0-2.25.2-3.55.15l-.08,1.69c1.32.09,2.64.2,4,.16a62.22,62.22,0,0,1,6.9-.15c4,.34,8,1.14,12,1.42,2.3.17,4.63.19,6.94.21,2.13,0,4.49-.32,6.58.16a11.23,11.23,0,0,1,7.14,6.56c1.33,4,2.56,9,2.38,13.19-.21,4.77,0,9.75.24,14.55s0,10-.06,14.93c-.11,5.15-.28,10.31-.41,15.46l-.17,7.75a26.8,26.8,0,0,0-.1,3.69,16.22,16.22,0,0,0,.8,2.8l1.94-.44a75.6,75.6,0,0,1,0-14.77c.43-5.08.19-10.21.15-15.28-.07-9.89.65-19.9.14-29.76-.24-4.31,0-9.28-1.28-13.44a21.13,21.13,0,0,1-1.1-3.27,11.73,11.73,0,0,1,.47-3.65,50.92,50.92,0,0,0,.3-6.42,117.11,117.11,0,0,0-.83-14.93c-.19-2.25-.22-4.48-.22-6.72,0-1.77-.52-4.64.21-6.23,2.9.64,5.58,2,8.52,2.6s4.93-.36,7.75-1.23a71.1,71.1,0,0,0-4.3,23.34,102,102,0,0,0,.57,12.29c.36,3.71,2.3,7,4.05,10.23C74.82,195.42,82,200.55,88.81,203.05Zm31.72-76.47a3.1,3.1,0,0,1-.57,3.13c-1.47,1.5-1.74.07-2.94-.54-1.45-.74-1.51.55-2.53,1.33a6.82,6.82,0,0,1-3.37.91,6.13,6.13,0,0,1-6.86-4.14,7.23,7.23,0,0,1,1.36-7.82,10.18,10.18,0,0,1,3.2-2.39c1.49-.61,2.66-.12,4.15-.09,2.5,0,4.32,1.82,6.32,3.33s5.1,1.73,5.41,4.67c-1.05-.47-2.28-1.37-3.4-1C119.64,124.55,120.27,125.46,120.52,126.58Z" transform="translate(-0.25 -0.25)"/><path d="M167.55,198.54c6,7.41,8.66,16.52,11.12,25.49,1.32,4.81,2.33,9.65,4.22,14.29,1,2.3,1.93,4.59,2.92,6.87.76,1.81,1.1,4.17,3.08,5,.22-1.17-.83-3.1-1.27-4.32-.87-2.38-2.09-4.62-3-7a103.78,103.78,0,0,1-3.78-13.46,80.36,80.36,0,0,0-10.2-25.22,62,62,0,0,0-3.73-5.47c-.8-1-2.94-3.5-4.36-3.23-2.18.42.11,2.08.8,2.66A36,36,0,0,1,167.55,198.54Z" transform="translate(-0.25 -0.25)"/><path class="cls-7" d="M183.27,60.82c-3.86,1.3-1.51,6.76,1.7,3.65Z" transform="translate(-0.25 -0.25)"/><path class="cls-8" d="M197.32,124.5c.8.25,1.58.51,2.33.77a22.09,22.09,0,0,1,3.68,1.67c1.57.9,2.24,1.16,3.55-.07a7,7,0,0,0,.69-9.58c-3-3.4-7.19-5.19-10.92-7.5-2.44-1.51.21-2.6,1.84-3.26,2.34-.94,4.86-1.48,7.27-2.22,2-.63,4.64-1.33,5.33-3.52.76-2.4.56-5.32.46-7.78,0-.4,0-.81,0-1.25-.05-2.1-.18-4.56-1-6.27s-2.73-3.41-4-4.92c-3.88,3.69-7.07,7.87-11,11.52-1.74,1.61-3.43,3.34-5.14,5a14.36,14.36,0,0,0-4,6.08,18.21,18.21,0,0,0-.21,6.74c.19,2.42,1,3.76,2.32,5.83a55.31,55.31,0,0,0,4,6.46C193.72,123.66,195.58,123.94,197.32,124.5Z" transform="translate(-0.25 -0.25)"/><path class="cls-7" d="M192.35,237.1q1.09,3.34,2.3,6.64c.84,2.29,1.76,4.54,2.7,6.8s1.33,4.41,2.51,6.38l.49-.1c.79-1.86,1.53-3.74,2.15-5.67s.54-3.65,1-5.48a117.25,117.25,0,0,0,1.94-13c-4.87-.9-9.81-1.12-14.68-1.77C190.27,232.77,191.79,235.35,192.35,237.1Z" transform="translate(-0.25 -0.25)"/><path class="cls-5" d="M247,215.1c1.3-1.52,1.59-4.27,2.07-6.15s1.5-4.82.7-6.73-3.46-3.41-5-4.57c-1.9-1.41-3.89-2.7-5.81-4.08a69.85,69.85,0,0,1-9.31-8.64c-3.41-3.53-3.73-7.4-4.29-12.05-2.13-.2-2.78,1.86-4.75,2.39s-4.2-.57-6.1-1.3c-2.68-1-8.46-4.68-9.38.05-.49,2.43,0,5.12.18,7.55.17,2.19,0,4.49,1.49,6.24,3,3.37,7.42,4.22,11.62,5,.19-1.2,0-2.58,1.75-2.28,1.23.21,2.37,1.81,3.22,2.61a94.41,94.41,0,0,1,7.48,8,42,42,0,0,0,8,7.15C241.82,210.37,244.27,212.77,247,215.1Z" transform="translate(-0.25 -0.25)"/><path d="M78.52,306.94c.07-.09.14-.16.22-.25.61.47,1.24.94,1.86,1.43C79.4,308.38,79,307.59,78.52,306.94ZM7.25,274c.16-1.24.36-2.48.57-3.72.16-1,.17-3.34,1-4,.69,5.37.17,11.09.25,16.52.08,5.69.51,11.39.62,17.1s.18,11-.22,16.58c-.39,5.39-.25,11-1.2,16.35l-5.81-1.7c-.2-5.28.81-10.86,1.16-16.16.39-5.73.7-11.48,1.49-17.18.73-5.33.94-10.58,1.37-16C6.65,279.23,6.91,276.61,7.25,274Zm25.52,68.55c5.08-.92,9.36-1.37,14.36.31,4,1.35,7.85,4,11.29,6.42,1.79,1.25,10.25,5.6,9.08,8.39-.69,1.64-4.46,1.22-5.82,1.2-2.48,0-5,0-7.44-.25-2.63-.2-5.21.07-7.81-.1-2.37-.16-4.77-.6-7.14-.9,0,.11,0,.23,0,.33l-7.68-.36c-2.4-.11-5.16.09-7.5-.53s-2.72-2.81-2.94-5c-.14-1.4-.68-4.65.08-5.91s3.1-1.25,4.54-1.65C28.14,343.9,30.32,343,32.77,342.56ZM7.32,347c3,2.94,7.89-1.2,11.3-.55a2.4,2.4,0,0,1,0,.33c-3.42,1.08-9.18,3.5-12.15.57-3.23-3.19-1.93-8.44-.46-12.26l1.78.82a55.84,55.84,0,0,0-.93,6.33C6.71,343.79,6.09,345.84,7.32,347Zm4.49-29.88c-.08-2.07.39-4.15.51-6.23s0-4.39.06-6.59c.06-4.59-.09-9.27.22-13.84a231.31,231.31,0,0,0-.09-26.61c-.47-8.88-.75-18-2.34-26.78-.76-4.29-1.41-8.65-2.34-12.91S5,215.86,4.16,211.45A87.19,87.19,0,0,1,3,185.17c.14-1.15.15-3.46.54-5.51l-1.66-.33c-.32,1.67-.72,3.33-.93,5A80.11,80.11,0,0,0,3.33,216.7,67.88,67.88,0,0,1,5.73,234,58.31,58.31,0,0,0,6,241.33c.44,3.07.85,6.12,1,9.22.73,11.59-1.89,23-2.78,34.48-.43,5.44-.69,10.8-1.27,16.23-.63,6-1.21,12-1.64,18-.19,2.69-.52,5.35-.75,8-.1,1.17-.12,2.34-.19,3.51a3.53,3.53,0,0,0,.87,3c2.68,4.12-2.62,10.7,1.35,14.36a10.61,10.61,0,0,0,6.51,2.38,22.48,22.48,0,0,0,4-.28c1.35-.19,2.66-.9,4-1,2.36-.25,1.55,2.25,1.78,3.9.31,2.23.49,4.64,2.7,5.75s4.9.73,7.19.8c3,.08,6,.15,9.07.26,5.62.22,11.33.54,16.93,1a60.59,60.59,0,0,0,8.34,0c2.53-.13,5.18.14,7.43-1.26,1-7.35-5.21-9.81-10.42-13.32-1.14-.78-3.34-1.74-4-3s-.55-3.31-1-4.75a25.23,25.23,0,0,1-1.38-5.21c-.18-2.09-.22-4.2-.23-6.3A85.91,85.91,0,0,1,54.21,316c.4-3.22-.79-6.8.1-9.9,1-3.4.54-7,1-10.6a13.7,13.7,0,0,0,.14-5.26c-.44-1.8-1.37-3.29-.84-5.21,5.59,5.34,10.4,11.58,16,16.91,2.27,2.15,4.33,4.48,6.63,6.6,2.87,2.64,5.91,4.89,8.92,7.35,12,9.85,25.36,17.32,39.34,24,1.66.79,3.37,1.47,5,2.32a44.39,44.39,0,0,1,3.78,2.75,84.06,84.06,0,0,0,10.55,5.59c3,1.4,6.22,2.4,9.23,3.81a43.53,43.53,0,0,0,10.43,3.27,169,169,0,0,0,22.74,2.72c7.45.25,15-.62,22.41-.37a33.69,33.69,0,0,0,6.1,0c1.25-.18,2.51-.31,3.75-.51l-.29-1.93a53.2,53.2,0,0,1-7.94.16c-12.88-.2-26,0-38.63-2.87-3.1-.7-6.25-1.5-9.28-2.49-1.13-.38-1.8-1.15-2.91-1.57a35,35,0,0,0-3.83-.9,95.58,95.58,0,0,1-17.35-6c-5.76-2.68-11.51-5.59-17-8.71s-11.15-5.83-16.46-9.3A137.66,137.66,0,0,1,88.62,313c-2.48-2.23-4.83-4.67-7.39-6.82s-5.29-3.88-7.68-6.25c-5-5-9.86-10.14-14.44-15.61-4.34-5.15-9.26-10.1-11.61-16.5a9,9,0,0,1,5.37.76,24.33,24.33,0,0,0,6.83,2.12c2.23.38,4.29,1.29,6.5,1.62,2.81.42,5.63.7,8.42,1.08,2.58.35,5.08.92,7.64,1.38s5.16.33,7.72.54a33.81,33.81,0,0,0,5.95.22c2.63-.23,5.51.26,8.15.37q14.08.58,28.11,1.48l.12-2c-.06,0-.09,0,0-.13s.16-.25.26-.36l.05-1.18c-7.34-.33-14.68-.27-22-.71-10.67-.62-21.25-2.23-31.83-3.53-.16-.5-.26-.84-.39-1.27-4.62.7-8.73-.46-13.17-1.58-2.35-.6-4.69-1.19-7-1.83-1-.26-1.9-.51-2.86-.74-.73-.17-3-.28-3.45-1-1-1.43,3-2.79,4.07-3.32,2.18-1.06,4.34-2.11,6.59-3,4.43-1.76,8.81-3.74,13.3-5.29,9-3.14,18.16-5.32,27.41-7.61a85.07,85.07,0,0,1,14.18-2.65c4.73-.34,9.31-1.62,14.07-2.06,9.39-.87,18.43-3.67,27.82-4.42,2.39-.21,4.79-.26,7.19-.31a44.25,44.25,0,0,1,5.48-.24c2.25.23,3,4,3.84,5.76a32,32,0,0,0,2.94,5.6c.54.76,3.16,4,4.27,3.66,1.5-.43-.87-2.35-1.47-3.09a27.8,27.8,0,0,1-3.53-6.21c-1.83-4-3.35-8.12-4.92-12.24a19.47,19.47,0,0,1-1.67-5.86,30.79,30.79,0,0,0-1.16-5,47.25,47.25,0,0,0-5.7-14c-.62-1-3.12-4.85-4.66-4.41-2,.59,1.08,3.83,1.73,4.68.19.26.39.52.57.79,5.76,8.1,6.7,17.8,9.6,27.17-2.21.09-4.41-.07-6.6.07s-4.53.86-6.86,1c-5,.41-10.13.82-15.17,1.38s-10.27,1.57-15.37,2.45c-4.76.84-9.27,2.24-14,3.27s-9.32,1.31-13.93,2.55c-5.12,1.37-10.09,2.66-15.08,4.51-4.47,1.66-9,3.2-13.49,4.76-4.74,1.64-9.49,4-14.37,5.06l-1.94.44.1.41-8.12,4.2a6.4,6.4,0,0,0-2.45,1.94,7.6,7.6,0,0,1-2.62,2.24c.88,1.24,1.89,2.42,2.74,3.68.69,1,.51,1.77.87,2.83.42,1.23,1.9,2.65,2.68,3.71a42.13,42.13,0,0,1,2.68,3.69c1.54,2.69.77,6.24.68,9.21-.11,3.69-.38,7.38-.22,11.08.3,7.07.83,13.83.18,20.91a81.67,81.67,0,0,0-.54,10.86,86,86,0,0,0,1.38,10,42.51,42.51,0,0,1-7.72-1.7c-2.91-.82-5.32-2.28-8.49-1.77s-5.91,2.25-8.76,3.36A62.7,62.7,0,0,1,17.54,344c-1.55.33-6.92,2.59-8.15,1.08-.73-.89,0-3.36.13-4.44.18-1.51.38-3,.58-4.53.4-3,.68-6,1.07-9,.22-1.71.54-3.39.85-5.09.26-1.4.93-3.17.7-4.56C12.42,317.36,12.13,317.26,11.8,317.16Z" transform="translate(-0.25 -0.25)"/><path d="M210.89,239c-.21,2.93-2,10.68,1.14,12.4-.36-8.46,1.12-16.9.93-25.38-.09-4.22.06-8.44.22-12.65.15-3.95.88-8,.73-12-2.18-.65-1.7,1.09-1.79,2.83l-.33,6.86c-.23,4.8-.28,9.52-.14,14.32C211.78,229.91,211.22,234.47,210.89,239Z" transform="translate(-0.25 -0.25)"/><path class="cls-7" d="M161.5,182.53c1.57.19,1.21,2.62-.29,2.75C159.31,185.44,159.68,182.3,161.5,182.53Zm-4.77,13.71c-1.05-.77-.3-2.23.86-1.61C158.94,195.37,157.54,196.09,156.73,196.24Zm13.92,4a80.36,80.36,0,0,1,10.2,25.22,103.78,103.78,0,0,0,3.78,13.46c.9,2.37,2.12,4.62,3,7,.44,1.22,1.5,3.15,1.27,4.32-2-.83-2.32-3.18-3.08-5-1-2.29-2-4.57-2.92-6.87-1.89-4.65-2.9-9.48-4.22-14.29-2.46-9-5.13-18.09-11.12-25.49a36,36,0,0,0-4.19-4.37c-.69-.58-3-2.24-.8-2.66,1.42-.27,3.56,2.26,4.36,3.23A62,62,0,0,1,170.65,200.21Zm-3.05-20c1.49.69,2.5,4.2-.09,3.63C165.52,183.44,165.92,180.79,167.6,180.24ZM212,251.38c-3.1-1.72-1.36-9.47-1.14-12.4.32-4.51.88-9.06.77-13.58-.14-4.8-.08-9.52.14-14.32l.33-6.86c.09-1.75-.39-3.49,1.79-2.83.15,3.92-.58,8-.73,12-.16,4.22-.31,8.43-.22,12.65C213.16,234.48,211.68,242.91,212,251.38Zm120.35,12.5c4.76-1.15,9.53-2.3,14.28-3.5,4.38-1.1,8.79-2.25,12.65-4.66-1.07-1.55-4.07-2.34-5.73-3.05-2.28-1-4.67-1.66-7-2.49-4.25-1.52-8.53-2.87-12.88-4.05-.95-.26-1.9-.51-2.86-.75-18.69-4.72-37.91-6.52-56.92-9.45-4.75-.74-9.54-.84-14.3-1.52s-9.51-.85-14.25-1.35c-4.92-.5-9.66-.95-14.61-1-2.82,0-7.43-3.33-10-1.37.14,3.59.35,7.19.67,10.77.3,3.29.42,7,2.22,9.84,1.33,2.13,2.7,4.5,5.42,4.52,3.63,0,7.25-.46,10.9-.29a145.4,145.4,0,0,0,18.24-.72c6.09-.49,12.41-.76,18.39-2,6.23-1.26,13,.12,19.17,1.2,2.9.51,5.79,1.21,8.65,1.88.9.22,2.38.79,1.37,2-.74.91-2,.28-2.89,0-5.93-1.73-12.47-2.88-18.64-2.3-5.8.54-11.85.4-17.59,1.4-3.14.53-6,1.71-9.22,1.6-2.77-.08-5.52.2-8.3.18-3.37,0-6.72,0-10.07.06-2.77.08-5.6-.28-8.36,0,.24.59.33,1.18.59,1.75s.92.45.79,1.27c-.29,1.63-1.89.53-2.65.09-2.33-1.37-5.78-2.89-7.61-4.87s-3.32-6-4-8.56c-.85-3.26-.68-7-.8-10.39-.23-7.18.75-14.24.87-21.41q.07-5.42.08-10.87c0-3.39-.49-6.73-.62-10.11-3-1-6.26-.93-9-3.17-.62,3.88-.23,7.88-.24,11.8a83.61,83.61,0,0,0,.67,12.48c1.19,8.15-.58,15.81-1.66,23.89-.54,4-1.45,7.92-2.28,11.88-.63,3-1.25,8-4.49,9.3-1.84.72-3.87,1.06-5.75,1.65-.94.31-2.55,1.5-3.42.7-2.26-2.05,6.13-4.12,7.27-4.92-1.54-1.07-2.12-.22-3.55.15s-3.36,0-4.91-.14c-3.65-.26-7.3-.47-11-.7-7.36-.45-14.73-.88-22.09-1.39a153.45,153.45,0,0,0-21.67-.44,101.76,101.76,0,0,0-11.11,1.44c-3.24.59-6.62,1.55-9.83.79.21-3,5.09-2.76,7.29-3.19a76.81,76.81,0,0,1,10.48-1.3c3.54-.21,7-.68,10.6-.65s6.81.59,10.25.71c14.42.56,29.16,3.17,43.59,1.75-1.6-7.58-5.07-14.88-7.2-22.36-1.9-6.7-2.85-13.64-5.13-20.23a68.75,68.75,0,0,0-9.84-18.81,17.2,17.2,0,0,0-3.12-3.37c-.92-.7-3.19-1.56-3.52-2.77-.87-3.17,4.45.74,5.34,1-.78-1.37-.33-3-.26-4.5a20.6,20.6,0,0,0-.36-5,8.19,8.19,0,0,0-4.16-6c-1.29-.67-2.58-.5-4-.5s-3.23-.33-4.49.16c-1.66.66-3.74,3-4.7,4.55a55.83,55.83,0,0,0-4.08,8.25c-1.07,2.48-2.56,5.75-2.55,8.5a13.31,13.31,0,0,0,3.6,8.12c2,1.89,4.63,1.27,7.15,1.17.09.17.2.32.3.48.33-.62,1.53-1.53,2-1l.6-.32c-.18-.26-.37-.52-.57-.79-.64-.85-3.77-4.09-1.73-4.68,1.54-.44,4,3.4,4.66,4.41a47.25,47.25,0,0,1,5.7,14,30.79,30.79,0,0,1,1.16,5,19.47,19.47,0,0,0,1.67,5.86c1.58,4.12,3.1,8.21,4.92,12.24a27.8,27.8,0,0,0,3.53,6.21c.6.74,3,2.66,1.47,3.09-1.11.31-3.73-2.9-4.27-3.66a32,32,0,0,1-2.94-5.6c-.81-1.78-1.59-5.54-3.84-5.76a44.25,44.25,0,0,0-5.48.24c-2.39,0-4.8.1-7.19.31-9.4.75-18.43,3.55-27.82,4.42-4.76.44-9.33,1.72-14.07,2.06a85.07,85.07,0,0,0-14.18,2.65c-9.25,2.28-18.41,4.47-27.41,7.61-4.49,1.55-8.88,3.53-13.3,5.29-2.25.89-4.4,1.94-6.59,3-1.07.52-5.09,1.88-4.07,3.32.48.68,2.72.79,3.45,1,1,.23,1.9.48,2.86.74,2.33.63,4.68,1.22,7,1.83,4.44,1.12,8.55,2.28,13.17,1.58.13.43.23.77.39,1.27,10.58,1.31,21.16,2.91,31.83,3.53,7.36.44,14.7.38,22,.71,2.92.13,5.85.33,8.77.64a216.45,216.45,0,0,0,28,1.5c2.34-.06,4.5-.85,6.75-.93,2-.06,4.15,0,6.2,0,4.48.08,8.93-.1,13.4-.29,4.66-.19,9.52-.81,14.17-.48,2,.13,3.75.69,5.83.57s4.41-.41,6.6-.41c4.52,0,9.06,0,13.6-.1,2.55-.08,5.09,0,7.63,0,1.86,0,4,.51,5.83.17a15.64,15.64,0,0,1,2.36-.64,29.17,29.17,0,0,1,3.3.35,60.73,60.73,0,0,0,6.64.06c4.75-.2,9.54-.31,14.29-.67,9.54-.72,19.2-1.92,28.63-3.54S323.15,266.12,332.38,263.88Z" transform="translate(-0.25 -0.25)"/><path d="M210,113.79c-1.25-.53-4.59-2.53-4.33-4.31s3.62-2.9,5-3.21C210.38,108.93,210.19,111.27,210,113.79Zm4.07-2.91a82.05,82.05,0,0,1,1.22-11.82,29.45,29.45,0,0,0,.68-6.33l-2.07.05-.25,0c-.07-.37-.13-.73-.2-1.1l-1.88.06c0,.44,0,.85,0,1.25.1,2.46.29,5.39-.46,7.78-.69,2.2-3.35,2.89-5.33,3.52-2.41.74-4.93,1.28-7.27,2.22-1.63.66-4.28,1.75-1.84,3.26,3.73,2.31,8,4.1,10.92,7.5a7,7,0,0,1-.69,9.58c-1.31,1.23-2,1-3.55.07a22.09,22.09,0,0,0-3.68-1.67l-.58,1.55c.8.28,1.6.6,2.38,1,2.64,1.2,6.26,3.93,9.34,2.2,1.39-.78,1.33-2.33,1.53-3.77.13-.78.14-1.61.29-2.38s.66-1.27.86-2c.37-1.37.05-3.36.15-4.84C213.76,115,213.89,112.92,214,110.88Z" transform="translate(-0.25 -0.25)"/><path class="cls-7" d="M213.36,52.35c2.63,2.12,2-3.07,2.1-4.7.09-2.38.67-5.36-.41-7.6-1.49,1.84-4.54,4.4-4.68,6.88C210.24,49,211.82,51.09,213.36,52.35Z" transform="translate(-0.25 -0.25)"/><path d="M204.64,71.79c2.83,2.36,5.38,8.28,8.3,6.72,2-1.09,1.85-4.69,1.76-6.57,0-.48-.08-1-.1-1.54l-2,.13-3.52,2.91c-.82-.58-2.06-1.25-3.25-2Z" transform="translate(-0.25 -0.25)"/><path d="M186,70.44c-.19-.79-.18-1.37.81-1.49C187.19,69.81,186.93,70.25,186,70.44Zm-11.29,33.11a2.61,2.61,0,0,1,1.05-3.17C176.32,101.55,176.11,102.26,174.71,103.54Zm17-44-.25.14-.63-1,.39-.21C191.38,58.86,191.54,59.23,191.71,59.59ZM185,64.47c-3.21,3.11-5.56-2.35-1.7-3.65Zm16.21-14.3c1.69-.31.64,1.52.24,2.09C201,51.7,199.76,50.42,201.18,50.17Zm-14.82,53a14.36,14.36,0,0,1,4-6.08c1.71-1.65,3.4-3.38,5.14-5,3.91-3.65,7.1-7.83,11-11.52,1.28,1.51,3.14,3.14,4,4.92s1,4.17,1,6.27l1.88-.06.41,0,0,1.12,2.07-.05a27.72,27.72,0,0,0-.52-5.15c-.42-2.18-1.74-3.55-3.08-5.27a51.53,51.53,0,0,0-4-5.09c-3-3-7.7-3.81-10.89-6.67,1.64-.16,2.94-1,3.94.63,1.15-.65,2.23-.27,3.27.61l1.22-.39c-1.54-1-3-2.17-3.37-3.5-.28-1.07.3-2.11.27-3.19,0-1.42-.35-3.54-1.28-4.63.7-1,2-.73,2.31-2.17s-1-3.21-1.63-4.44c4.85-4-2.36-6.8-3.73-4-.93,1.88.83,3.44,1.62,4.84,1,1.73-.49,3.08.78,4.89-.51.26-1,.48-1.45.74.21,1.44.89,2.8.3,4.41a10.24,10.24,0,0,1-3.12-2.22,9,9,0,0,1-2.25-2.86c-.73-1.37-2.82-3.66-4.58-2.53-1.36.87-1.07,2.46-.22,3.59A3.41,3.41,0,0,0,191,61.49c.42.14,1.08,0,1.44.19A9.19,9.19,0,0,1,194,63.4c1.11,1.3,2.14,2.65,3.19,4-1.52,1-3.23-.37-4.59-1s-3.64-1-5-1.89a6.46,6.46,0,0,1-2-2.9c-.64-1.44-1.23-2.91-2.83-3.65-.89-.42-2.53-.94-3,.22-.27.68.41.95.4,1.59a7.66,7.66,0,0,1-.63,2.15c-1.11,3.81,1.64,4.7,4.76,5.41-.41,1.12-.25,2.62-2.06,2.89a3,3,0,0,0,3.36,2.65c1.88-.2,2.61-1.76,3.46-3.21.71,0,2.24,1.22,3.05,1.6,1.23.59,2.55,1,3.76,1.48,2.28,1,4.7,3.28,6.7,4.94a51.23,51.23,0,0,1-6.12,7.41c-2.15,2.35-4,5-6.16,7.42-4.13,4.58-7.54,9.84-11.5,14.56-.44-.65-1.69-1.86-1.77-2.64-.12-1,.51-1.15,1-2,.78-1.38.65-4.15-1.3-4.6-1.72-.39-3.32,1.83-3.82,3.18a4.4,4.4,0,0,0-.26,1,6.89,6.89,0,0,0,.7,3.86c.78,1.77,2.06,3.17,2.87,4.92.53,1.14,2.66,4.22,2,5.55a1.53,1.53,0,0,1-.74.69l.24,1.52c1.82-.3,2.73-.46,2.57-2.78-.13-1.94-2.11-3.31-1.27-5.29.66,1.38,1.44,2.74,2,4.18.6,1.61.63,3.46,1.59,4.91a8.2,8.2,0,0,0,3.62,2.74c1.44.61,2.91,1.46,4.38,1.93,2.83.88,5.73,1.54,8.53,2.53l.58-1.55c-.75-.27-1.52-.52-2.33-.77-1.74-.56-3.6-.84-4.82-2.29a55.31,55.31,0,0,1-4-6.46c-1.3-2.08-2.13-3.42-2.32-5.83A18.21,18.21,0,0,1,186.36,103.17Z" transform="translate(-0.25 -0.25)"/><path d="M219,124.37l-.59,3.38.6.08c.11-1.14.22-2.28.32-3.41Z" transform="translate(-0.25 -0.25)"/><path d="M216.54,151.59c.74-1.39.72-3.8.64-5.33-.2-4.09-.73-7.92-.28-12,.4-3.84,1-7.68,1.48-11.5s1.41-7.92,1.26-11.83l-.51-.12c-1.38,2.77-1.43,6.55-1.93,9.58-.53,3.21-.89,6.44-1.24,9.67a60.35,60.35,0,0,0-.72,10c.16,3.44.85,7,.15,10.41-1.69.52-2.34.6-3,2.33a16.43,16.43,0,0,0-1,5.1,21.18,21.18,0,0,0,1.74,9.22c1.34-1.33.07-5.45,0-7.13a18.21,18.21,0,0,1,.75-7.06C215.06,152.67,215.88,152.85,216.54,151.59Z" transform="translate(-0.25 -0.25)"/><path class="cls-7" d="M217.88,57.6c-2,.18-1.38,2.12-1.46,3.78l.51.09C217.24,60.19,217.56,58.9,217.88,57.6Z" transform="translate(-0.25 -0.25)"/><path d="M218,153.86c-.13,2.09-1.41,5,.41,6.57,1.63-5.08.87-10.38,2.18-15.56a33.24,33.24,0,0,0,.92-7.5c0-.75.46-6.93-1.76-5.45-.91.62,0,1.7.21,2.47a10.07,10.07,0,0,1,0,3.8c-.29,2.68-.75,5.27-1.28,7.9A54.49,54.49,0,0,0,218,153.86Z" transform="translate(-0.25 -0.25)"/><path class="cls-7" d="M218.36,127.75l.59-3.38.33,0c-.1,1.14-.21,2.28-.32,3.41Zm.06,32.68c-1.82-1.62-.54-4.49-.41-6.57a54.49,54.49,0,0,1,.71-7.77c.54-2.63,1-5.23,1.28-7.9a10.07,10.07,0,0,0,0-3.8c-.21-.77-1.12-1.86-.21-2.47,2.21-1.49,1.78,4.69,1.76,5.45a33.24,33.24,0,0,1-.92,7.5C219.3,150.05,220.05,155.35,218.42,160.43Zm-1.24-14.17c.07,1.53.1,3.94-.64,5.33s-1.47,1.08-2.74,1.31A18.21,18.21,0,0,0,213,160c.09,1.68,1.36,5.8,0,7.13a21.18,21.18,0,0,1-1.74-9.22,16.43,16.43,0,0,1,1-5.1c.68-1.73,1.33-1.81,3-2.33.7-3.43,0-7-.15-10.41a60.35,60.35,0,0,1,.72-10c.36-3.23.71-6.46,1.24-9.67.49-3,.54-6.81,1.93-9.58l.51.12c.15,3.91-.77,8-1.26,11.83s-1.08,7.65-1.48,11.5C216.45,138.34,217,142.18,217.18,146.27Zm6-16.08c-.11-4-1.12-7.64-1.66-11.53-.45-3.33-.27-6.67-.84-10a73.86,73.86,0,0,1-1.34-10.39c-.13-3.71-.27-7.4-.63-11.09-.14-1.41-.26-2.82-.39-4.24-.2-2.18-.38-4.34-.53-6.51-.27-3.62-1.18-7.1-1.64-10.67-1.65.94-1.7,2.84-1.59,4.61,0,.54.07,1.06.1,1.54.09,1.88.28,5.49-1.76,6.57-2.92,1.56-5.47-4.37-8.3-6.72-1-.88-2.12-1.26-3.27-.61-1-1.68-2.3-.79-3.94-.63,3.19,2.85,7.85,3.67,10.89,6.67a51.53,51.53,0,0,1,4,5.09c1.34,1.72,2.66,3.09,3.08,5.27a27.72,27.72,0,0,1,.52,5.15,29.45,29.45,0,0,1-.68,6.33A82.05,82.05,0,0,0,214,110.88c-.15,2-.28,4.08-.43,6.11-.1,1.48.22,3.46-.15,4.84-.2.73-.69,1.19-.86,2s-.17,1.59-.29,2.38c-.2,1.44-.14,3-1.53,3.77-3.08,1.72-6.7-1-9.34-2.2-.78-.35-1.57-.68-2.38-1-2.8-1-5.7-1.65-8.53-2.53-1.48-.47-2.94-1.32-4.38-1.93a8.2,8.2,0,0,1-3.62-2.74c-1-1.45-1-3.31-1.59-4.91-.52-1.44-1.3-2.8-2-4.18-.84,2,1.14,3.36,1.27,5.29.16,2.32-.75,2.48-2.57,2.78l-.3.05c.56,1.25,2.61,3.27,2,4.69-.73,1.63-3,1-3.46,3a9.54,9.54,0,0,0,4.64-.93c2-1,1.83-1.12,4-.13,3.36,1.53,6.85,2.8,10.23,4.3a24.89,24.89,0,0,1,4.56,2.16c1.6,1.13,2.84,1.19,4.68,1.86a13.35,13.35,0,0,1,4.49,2.46c1.2,1.23,1,3.42,1.09,5,.06,1.26.47,4.21-.46,5.28s-3.11.59-4.36.41c-3.53-.47-6.18-.67-8.25-3.78-.81-1.22-1.11-2.41-2.34-3.34a46,46,0,0,0-5.4-2.94c-3.33-1.86-6.39-3.95-9.89-5.49l1.15-1.42-1.05-.4-1.43.85c-4.55-4.1-9.2-8.15-13.43-12.59l-.62.48h0c2.88,3.72,5.63,7.76,9,11a67.37,67.37,0,0,0,10.87,8.4c3.91,2.5,7,5.87,10.35,9,3,2.83,5.37,5.9,8.66,8.44,3.67,2.82,5,6,5.55,10.51.27,2.17-.09,3.42,2,4.33,2.31,1,4.67,2,7,2.85,2.16.77,2.49.74,3.27-1.29a19.24,19.24,0,0,1,3.4-5.59c2.59-3.06,5.94-5.79,7.6-9.48-3-1.24-3.65-4.18-2.33-7.24.86-2,2.38-3.65,2.69-5.91a41.37,41.37,0,0,0-.06-6.08c-1.81,1.5-4.44,4.25-6.8,2C222.51,137.08,223.3,132.85,223.22,130.19Z" transform="translate(-0.25 -0.25)"/><path class="cls-7" d="M219.62,56.74c1.86,1.15,6.24,2.27,7.19-.58C225.15,55,221.33,56,219.62,56.74Z" transform="translate(-0.25 -0.25)"/><path class="cls-7" d="M221.06,49.5c-.74,1-3.68,2.72-3.43,4,.46,2.25,3.51-.62,4.17-1.29a20.73,20.73,0,0,0,3-4.74C223,45.36,222,48.21,221.06,49.5Z" transform="translate(-0.25 -0.25)"/><path class="cls-7" d="M226.42,131.85c-1.27,1.61-.84,6.16,2,4.5C231.7,134.42,228.4,132.62,226.42,131.85Z" transform="translate(-0.25 -0.25)"/><path class="cls-8" d="M223.4,102.06c2.64-.92,3.86-3.15,5.13-5.47a3.09,3.09,0,0,1-.36-1.59l-1.33.08c.06,1.47-3.38,2.67-4.34,3.19C222.46,99.49,222.31,100.81,223.4,102.06Z" transform="translate(-0.25 -0.25)"/><path class="cls-5" d="M235.8,157.43c-1.19,1-1.87,2.31-3,3.36-.72.68-2.85,1.5-2.68,2.63.08.52.91,1.08,1.15,1.53a10.7,10.7,0,0,1,.57,1.85,28.88,28.88,0,0,0,2,4.41c3,5.84,6.43,11.27,8.85,17.4,2.58-1.81,4.8-4.1,7.46-5.82,1.27-.83,2-1.1,1.45-2.71-.47-1.4-1.82-2.79-2.64-4C244.72,169.74,240.45,163.5,235.8,157.43Z" transform="translate(-0.25 -0.25)"/><path class="cls-9" d="M227.4,58.79c1.29,1.08,1.53,2.58,2.17,4a9.74,9.74,0,0,1,.53,4.8,35.82,35.82,0,0,0,.1,5.23c.05.65.11,1.3.19,1.95.11,1-.09,3.6.79,4.33,2,1.69,6.31-3.32,7.17-4.81,1.93-3.28,1.77-7.42,1.64-11.1a21.41,21.41,0,0,0-.7-5.94,32.18,32.18,0,0,0-2.2-5.13c-.66-1.24-1.31-2.66-2-4.08a20.43,20.43,0,0,0-3.57-5.56c-1.47-1.46-3.66-3.1-4-5.13l-1.6.35a24.06,24.06,0,0,1,.88,5.22,8.18,8.18,0,0,0,.49,3.94c.57,1.42.59,1.79-.6,2.94.54,1.41-.31,3,1,4.34.86-.49,4.58-3.28,3.85-.25C231.05,55.87,228.81,57.5,227.4,58.79Z" transform="translate(-0.25 -0.25)"/><path class="cls-7" d="M231.48,148.38a4.94,4.94,0,0,0-.61,4.73C233.47,152.92,233.77,149.35,231.48,148.38Z" transform="translate(-0.25 -0.25)"/><path class="cls-5" d="M251.49,60.71a17.88,17.88,0,0,1-3.45-.79c-.83-.28-2.33-1.28-3.19-1.24-1.94.09-1.39,3.4-1.49,5,.11,1.38-.24,3.75,1.31,4.31.85.31,2.14,0,3.1.29,1.15.32,2.22.85,3.4,1.1a15.8,15.8,0,0,0,6.42,0c2.6-.53,1.59-1.69,1-3.67-.44-1.37.26-4.73-1.25-5.29-.59-.22-1.66.23-2.31.3A16.19,16.19,0,0,1,251.49,60.71Z" transform="translate(-0.25 -0.25)"/><path d="M245.41,34.67c-1.23-.59-9.16-1.46-8.74,1.29.25,1.66,2.93.37,4,.33C242.79,36.2,243.73,36.29,245.41,34.67Z" transform="translate(-0.25 -0.25)"/><path class="cls-8" d="M235,129c.37,1.42,2,1.92,2.26,3.47.21,1.32-.64,2.49-1,3.68a41,41,0,0,0-1.11,4.61,9.42,9.42,0,0,0,1.33,7.55c2.21-1.12,3.92-4.45,5.47-6.31a85.83,85.83,0,0,0,5.32-7.21c1.72-2.56,0-4.85-.48-7.65a13.38,13.38,0,0,1,.88-8.71,23.8,23.8,0,0,1,5.27-7c.85-.8,3.47-5.25,4.78-3.61.67.82-.3,2.15-.54,2.9-.45,1.45-.06,2.78.14,4.23.41,3-.25,5.64-.75,8.55a13.92,13.92,0,0,1,4.36-1.34c1.81-.15,3.63-.32,5.44-.51,2-.22,6,.29,6.33-2.37.21-1.79-.19-3.78-.16-5.61,0-1.67.06-3.35-.07-5s-1.07-7.41,2.31-5.21c.31,3.33.7,6.65.68,10a46.64,46.64,0,0,1-.25,7.86c-1.07,5.8-.12,12.41-.17,18.38,2.32-1,4.33-2.39,6.61-3.42s3.9-.63,6.25-.33c1.77-4.83,1.14-10.76,1.13-15.82,0-2.75.39-5.37.27-8.16-.1-2.59-.21-5.19-.33-7.78-.22-5.21-.41-10.34-1-15.52a22.7,22.7,0,0,0-1.84-6.86c-.77-1.67-2.12-4.74-3.9-5.46-.67,2.36-1.08,6.93-4.33,7.07-1.19.06-2.2-.85-3.44-.53s-1.74,1.56-2.48,2.58c-1.48,2-4.7,3-6.61.91s-2.16-4.95-2.72-7.55c-2-.53-4.18.49-6.18.75a19.14,19.14,0,0,1-5.83-.12c-3.58-.61-6.38-3.27-10.05-1.6-2.9,1.33-4.59,6.22-8.07,6.05-4-.21-4.35-4.3-4.36-7.31,0-.92.12-2.34,0-3.67-.14-1.5-.61-2.87-2-3.2a8.59,8.59,0,0,0-3.95.54c-2.57.74-2.68,1.31-2.6,4,.06,1.94.11,3.88.21,5.8,0,.91.13,1.8.19,2.7a8.35,8.35,0,0,0,.78,2.48c1.06,3.28.5,7,1.41,10.42,1.27.16,4-2.61,4.6-.94a.86.86,0,0,1,.07.31l1.33-.08c-.1-2.19.6-5.65,2-5.38,1.57.31,1.72,5.25,2,6.51,1.18-.33,3.91-2.9,4.87-2.09,1.74,1.51-1.82,3.53-3,3.88-2,.6-3.45.46-4.86,2.2a30.87,30.87,0,0,0-3,5.36c-2,4-1.65,9.28-1.36,13.64a9.62,9.62,0,0,0,1.9,5.81c1.28,1.89,2.18,3.94,3.5,5.8,1.45-2.14,1.81-4.49,2.44-6.94a22.49,22.49,0,0,1,2.92-6.18c2-3.34,4.81-6.89,5.57-10.77-4.57-1.74-1.7-7.3,2.19-7.55.07-.43.14-.88.23-1.34.49-2.3,1.58-4.7,4.49-4,1.19.25,1.87,1.08,1.31,2.3-.67,1.49-2.11,1.19-3.35.72a2.9,2.9,0,0,0-.59,1.26,7.1,7.1,0,0,0,.17,3.61c1.07-.31,1.67-1.18,2.88-1.34,1.52-.21,3,.14,4.48-.26,1-.25,3-.71,2.43,1.24-.21.75-2,1.64-2.63,2.26a13.06,13.06,0,0,1-3.21,2.79c-1.46.74-2.92.45-4.38,1-2.59.88-3.82,4.9-5,7.08a57.31,57.31,0,0,0-4.19,9.66C235.57,125.57,234.63,127.58,235,129Z" transform="translate(-0.25 -0.25)"/><path d="M246.06,96.95c1.24.46,2.68.76,3.35-.72.56-1.23-.12-2.05-1.31-2.3-2.92-.65-4,1.74-4.49,4l1.87.24A2.9,2.9,0,0,1,246.06,96.95Z" transform="translate(-0.25 -0.25)"/><path class="cls-10" d="M250.36,77.22c2.17.44,4.44.93,6.63.34,1.8-.48,3.58-1.22,5.34-1.79.2-1.11-.24-4-1.5-4.42-.91-.32-3.79,1-4.83,1.12-3.66.41-7.15-.48-10.74-1C244.53,74.32,248,76.76,250.36,77.22Z" transform="translate(-0.25 -0.25)"/><path class="cls-9" d="M240.6,10.93c.52-1.18,2.07-2.62,3.48-2.35a1.87,1.87,0,0,1,1.4,1.12l3.35-1.82a1.1,1.1,0,0,1-.49-.09c-.4-.2-.49-.83-.75-1.13a3.94,3.94,0,0,0-1.47-1.11,28.6,28.6,0,0,0-4.29-2.09c-2.73-1-6.72.68-9,2.29-2.62,1.83-2.84,5.41-3.32,8.35-.59,3.75-.3,7.69-1.56,11.31-1.07,3.09-2.47,5.67-2.46,9.05a14.56,14.56,0,0,0,.44,3.23l1.6-.35A3.5,3.5,0,0,1,228,35c1-1.71,2.19-3.22,2.76-5.12.49-1.63.22-3,.29-4.67.11-3.12,2.68-5.79,4.94-7.6a22.78,22.78,0,0,0,3.43-3.28C240.19,13.24,240.11,12.1,240.6,10.93Z" transform="translate(-0.25 -0.25)"/><path d="M248,45.21c0,2.42,2.82,2.47,2.78.12C250.8,43.18,248,42.67,248,45.21Z" transform="translate(-0.25 -0.25)"/><path class="cls-5" d="M248.64,53.73a12,12,0,0,1-2.34-.7l-3.9,1.67c.22.18.42.35.64.51a18.18,18.18,0,0,0,6.82,3.08,6.43,6.43,0,0,0,4.11-.36l-.24-3.65A18.5,18.5,0,0,1,248.64,53.73Z" transform="translate(-0.25 -0.25)"/><path class="cls-11" d="M257.71,194.22c-2.95-.37,1.47-3.86,2-4.47.73-.84,2.16-3.64.69-4.55-.62-.39-1.43.34-2.12.12-.9-.28-.92-1.2-1.58-1.68-2-1.46-8.23,4.1-9.62,5.67s-2.4,3.48-1.44,5.54c.88,1.87,3.36,3.26,4.91,4.56,3-1.76,3.91-.48,6.68.81,2.45,1.12,5,1.83,7.44,3.19s4.14,2.94,7.09,3.4a35.53,35.53,0,0,0,8.41.57c-.49-1.64-2.1-2.9-3.26-4.06-1.43-1.45-2.89-2.88-4.4-4.25-3.26-2.95-6.6-5.8-9.85-8.78a13,13,0,0,0-2.94,2.35C259.23,193.14,258.55,194.33,257.71,194.22Z" transform="translate(-0.25 -0.25)"/><path class="cls-11" d="M258.61,218.75c0,2.57-2.6,6.35-1.11,8.67a3.38,3.38,0,0,0,2.69,1.46c.47.1.79-.07,1.23.25s.29.88.64,1.15c.79.61,2.44.44,3.34.55,1.82.18,3.64.38,5.45.61,3.09.39,6.15,1,9.23,1.49,6.6,1,13.26,1.67,19.87,2.56,3.35.45,6.68.85,10,1.61,2.85.64,6.15,1.76,9.08,1.65-.67-4.11-2.41-8.11-3.64-12.09a95,95,0,0,0-4-11.64c-1-2.13-3.06-7.58-5.93-7.08-3.41.57-6.65,2.86-10.06,3.68-1.84.43-2.61,0-4.33-.24-1.55-.25-3.4.44-5,.41-2.06-.06-4,.28-6.1,0-1.74-.26-3.5-.67-5.22-1.09a37.31,37.31,0,0,1-5.32-1.93,14.31,14.31,0,0,0-2.76-1,9.82,9.82,0,0,0-2.41.23c-3,.15-.34-4-4-3.6-.09,1.22.23,5.83-1.89,4.74-1-.49-1-2.18-1-3.11,0-1.42.09-1.83-.75-3-1.14-1.57-3.75-3.94-4.32-.66-.21,1.23.06,2.58-.16,3.86s-.52,2.61-.71,4c-.39,2.81-1,5.55-1.44,8.35-.28,1.83-.89,5.86,1,7.16,2.23,1.53,3.59-1.32,4.21-2.84C255.81,221,256.11,218.18,258.61,218.75Z" transform="translate(-0.25 -0.25)"/><path d="M256.89,52.89c2.43-3.5-3.24-1.25-4.42-1.18a7.46,7.46,0,0,1-4.48-.83c-1-.54-2.54-2-3.73-1.1A3,3,0,0,0,246.31,53a12,12,0,0,0,2.34.7,18.5,18.5,0,0,0,5.1.55A3.92,3.92,0,0,0,256.89,52.89Z" transform="translate(-0.25 -0.25)"/><path class="cls-5" d="M250.81,45.33c0,2.35-2.76,2.3-2.78-.12S250.8,43.18,250.81,45.33ZM236.68,36c-.42-2.75,7.51-1.88,8.74-1.29-1.68,1.62-2.62,1.53-4.76,1.62C239.61,36.32,236.92,37.62,236.68,36Zm20.45-.07c-1.5-.2-2.89.08-4.34-.16-.15-.5-.26-1-.36-1.37,3.14-1.65,5.16-1.35,7.61,1.05C259,36.37,258.45,36,257.13,35.89Zm-2.19,21.73c2-.63,3.76-2,5.51-3.15s2.76-2.94,3.74-4.85c2.31-4.51,3.3-9.28,6.18-13.5a10.65,10.65,0,0,0,.89-1.51c.64-1.41.48-2.56-1.69-3-.93-.21-1.19,0-2-.67s-1.33-1.32-2-1.95a8.83,8.83,0,0,1-2.26-3,6.59,6.59,0,0,0-1.14-2.29c-1.25-1.28-3.67-1.7-5.37-1.86-2.59-.24-4.81-.24-7.07-1.85-1.65-1.18-3-3.29-4.35-4.81-1.15,1.9-1.74,3.81-3.89,4.84s-5.14.92-6.55,3.24c-1.21,2-1.38,4.93-1.54,7.2-.06,1.07.5,2.77.13,3.75s-1.1,1-1.86,1.43c-1.82,1.08-1.52,2.5,0,3.84a10,10,0,0,1,3.52,4.84A26.21,26.21,0,0,0,242.4,54.7l3.9-1.67a3,3,0,0,1-2.05-3.25c1.18-.91,2.73.56,3.73,1.1a7.46,7.46,0,0,0,4.48.83c1.19-.07,6.86-2.32,4.42,1.18a3.92,3.92,0,0,1-3.15,1.4l.24,3.65C254.27,57.83,254.58,57.73,254.93,57.62Z" transform="translate(-0.25 -0.25)"/><path d="M252.78,35.73c1.45.24,2.85,0,4.34.16,1.32.16,1.86.48,2.9-.48-2.45-2.4-4.47-2.7-7.61-1.05C252.52,34.78,252.64,35.23,252.78,35.73Z" transform="translate(-0.25 -0.25)"/><path class="cls-8" d="M263.6,148.8c.55-1.18.55-2.63,1.32-3.72s2-1.18,3.28-1.64c2.77-1,2.84-4.33,3.2-7a63.24,63.24,0,0,0,.1-10.62c-.55,0-1.59,1.51-2.17,1.88a14.93,14.93,0,0,1-2.73,1.27c-2.39.93-5.25,1.59-7.41,3,.22,1.65,4.56,3.18,6,3.55,3.22.8,1.49,2.56-.68,3.58s-5.59,1.34-8.11,1.46c-3,.17-4.46-1.74-6.43-3.68-2.93,3.51-5.54,7.31-8.22,11-2.11,2.9-6.08,6.9-2.11,10.09,1.3,1,4.22.93,5.89.93,2,0,3.9-.35,5.85-.42,4-.16,7.91.06,11.93-.55-.36-1.59-.79-3.19-1-4.79C262,151.18,262.85,150.44,263.6,148.8Z" transform="translate(-0.25 -0.25)"/><path class="cls-9" d="M266.29,26.56A5.19,5.19,0,0,0,268.92,29c1.27.49,2.33.17,3.33,1.18a4.87,4.87,0,0,1,1.2,3.21,3.29,3.29,0,0,1-.37,1.54,14.41,14.41,0,0,0-1.15,2.21c-.25.8.08,1.74,0,2.61a17.89,17.89,0,0,1-.49,2.09c-.48,1.92-.81,3.87-1.32,5.78-.78,2.91-2.71,4.78-3.91,7.41a1,1,0,0,1,0,1.12c-.24.28-.49.56-.72.84l-.89,1.25a16,16,0,0,0-2.31,3.92,7,7,0,0,0-.15,4.14c.45,1.29,1.57,2.07,2.1,3.33.67,1.59.87,3.35,1.43,5a16,16,0,0,1,.94,4.22c.09,1.53-.59,7.49,2.64,6,1.35-.62,1.47-2.78,2.45-3.85A3,3,0,0,1,275.2,80c1.39.39,1.91,1,3.11-.15A6.18,6.18,0,0,0,279.74,76a76.69,76.69,0,0,0-.09-8.47c-.24-4.71-.65-9.44-.42-14.16.35-7.16,3.23-15.15.41-22-.58-1.38-1-2.82-2.19-3.81s-2.18-1.39-2.79-2.76c-.5-1.17-.31-2.41-.56-3.62a14.72,14.72,0,0,0-2-4.4c-1.83-3-4.57-5-7.2-7.22-2.42-2.08-4.61-3.49-7.91-3.65a14,14,0,0,0-5.38.86c-.64.22-1.87,1.08-2.78,1.11l-3.35,1.82a15.85,15.85,0,0,0,.76,1.67,33.4,33.4,0,0,1,2.41,3.38A7.52,7.52,0,0,0,251.06,18c3,2,6.89.87,10.12,1.89C263.91,20.72,265,24.32,266.29,26.56Z" transform="translate(-0.25 -0.25)"/><path d="M245.37,15.11c1.36,1.52,2.71,3.62,4.35,4.81,2.26,1.61,4.48,1.61,7.07,1.85,1.71.16,4.12.58,5.37,1.86a6.59,6.59,0,0,1,1.14,2.29,8.83,8.83,0,0,0,2.26,3c.66.63,1.3,1.38,2,1.95s1.08.47,2,.67c2.17.48,2.33,1.62,1.69,3l1.84.3a3.29,3.29,0,0,0,.37-1.54,4.87,4.87,0,0,0-1.2-3.21c-1-1-2.07-.69-3.33-1.18a5.19,5.19,0,0,1-2.63-2.41c-1.26-2.25-2.38-5.85-5.11-6.69-3.23-1-7.08.12-10.12-1.89a7.52,7.52,0,0,1-2.41-3.22,33.4,33.4,0,0,0-2.41-3.38,15.85,15.85,0,0,1-.76-1.67,1.87,1.87,0,0,0-1.4-1.12c-1.41-.27-3,1.16-3.48,2.35s-.41,2.31-1.23,3.38a22.78,22.78,0,0,1-3.43,3.28c-2.25,1.82-4.83,4.48-4.94,7.6-.06,1.66.2,3-.29,4.67-.58,1.91-1.8,3.41-2.76,5.12a3.5,3.5,0,0,0-.46,2.37c.36,2,2.55,3.67,4,5.13A20.43,20.43,0,0,1,235.09,48l1.47-.74a25.91,25.91,0,0,1-1.38-3.05,10,10,0,0,0-3.52-4.84c-1.53-1.34-1.82-2.76,0-3.84.76-.45,1.51-.51,1.86-1.43s-.19-2.69-.13-3.75c.15-2.27.32-5.21,1.54-7.2,1.41-2.32,4.37-2.2,6.55-3.24S244.22,17,245.37,15.11Z" transform="translate(-0.25 -0.25)"/><path d="M279.32,167.64c2.47-1.1-3-3.81-4.51-3.26a2.87,2.87,0,0,0,.73,2.37C276.22,167.36,278.47,168,279.32,167.64Z" transform="translate(-0.25 -0.25)"/><path class="cls-5" d="M275.54,166.75a2.87,2.87,0,0,1-.73-2.37c1.47-.55,7,2.15,4.51,3.26C278.47,168,276.22,167.36,275.54,166.75Zm8.83,20.3c-.85.66-3.87-.08-4.75-.54a2.12,2.12,0,0,1-1.31-2.44C279.5,184,286.72,185.27,284.38,187Zm-4.16-8.31c.16-1.34-.12-3.85,1.49-4.48s1.71.94,1.5,2.14c-.13.8-.53,3.55-1.53,3.81S280.32,179.26,280.21,178.73Zm7.83-8.65a2.74,2.74,0,0,1-1.72-3c.87.07,8.73,2.63,5.65,4.18C291.15,171.66,288.71,170.43,288,170.08Zm17.15,8.51c1.22-1,3.29-.44,4.22-1.89a4.58,4.58,0,0,0-.52-4.73c-1.52-1.64-4.33-1.65-6-3-2.6-2.11,2.64-7.16-1.93-8.22-2.4-.56-4.35-.77-5.39-3.29-.34-.85-.43-2-1.06-2.74s-1.39-.78-2.24-1.19c-2.46-1.21-3.82-1.77-6.54-.56-2.23,1-3.09,1.21-5.41.56-3.38-1-5.66,4-7,6.46a17.47,17.47,0,0,0-1.93,6.2c-.23,2.36.62,5.05,1,7.37,1.45,8.19,5.08,20.77,15.46,20.45,5.59-1,9.53-5.64,13.19-9.64a18.72,18.72,0,0,0,2.62-3.08C304.18,180.41,304.36,179.26,305.2,178.59Z" transform="translate(-0.25 -0.25)"/><path d="M281.67,180.2c1-.27,1.4-3,1.53-3.81.21-1.2.19-2.79-1.5-2.14s-1.32,3.14-1.49,4.48C280.32,179.26,280.65,180.48,281.67,180.2Z" transform="translate(-0.25 -0.25)"/><path d="M279.62,186.5c.88.46,3.9,1.2,4.75.54,2.34-1.78-4.88-3-6.07-3A2.12,2.12,0,0,0,279.62,186.5Z" transform="translate(-0.25 -0.25)"/><path d="M216.43,61.38c.08-1.66-.54-3.61,1.46-3.78-.32,1.3-.64,2.59-.94,3.88Zm4.63-11.89c1-1.28,1.94-4.14,3.73-2a20.73,20.73,0,0,1-3,4.74c-.67.68-3.72,3.55-4.17,1.29C217.38,52.22,220.31,50.48,221.06,49.5Zm-7.7,2.85c-1.54-1.26-3.12-3.32-3-5.41.14-2.49,3.19-5,4.68-6.88,1.08,2.24.5,5.21.41,7.6C215.39,49.28,216,54.47,213.36,52.35Zm6.24,7.87c1.37-1.57,4.42-.41,5.15,1.23.53,1.17,2.39,4.23,1.54,5.43-.48.7-2.47.52-3.22.63A17.28,17.28,0,0,0,219,68.77C218.92,66.48,217.92,62.15,219.6,60.21Zm63.07-14.45c.36-3.81,1.43-7.27,1-11.15-.7-6.07-6-10.65-7.55-16.42a19.41,19.41,0,0,0-4.55-7.39c-2-2.12-4.32-4.79-7.06-6A39.4,39.4,0,0,0,252.9,2.14C251,2,249,2.22,247.06,2s-3.65-1-5.48-1.42a12.07,12.07,0,0,0-6.39.09,26.67,26.67,0,0,0-4.78,1.47,10.07,10.07,0,0,0-5.16,7.8c-.49,3.72.2,7.5-.19,11.23-.23,2.18-1.09,4.17-1.44,6.32-.3,1.77-.47,3.56-.67,5.34-.41,3.6-1.83,6.66-2.68,10.17-.59,2.46.17,6.23-2.77,7.43-.82-1-.39-3-.36-4.17,0-1.63,0-3.28,0-4.91s0-3.27,0-4.9c0-.79.39-2.79-.27-3.43-2-1.94-2.73,4.09-3.07,5-1,2.63-3.23,3.84-4.6,6.07-2.6,4.24,2.1,8.51,4.59,11.3,1.64,1.84.92,5.07.6,7.39-.2,1.4-1,2.08-1.46,3.37a8.48,8.48,0,0,0-.33,4.34l2-.13c-.11-1.77-.06-3.67,1.59-4.61.46,3.57,1.38,7,1.64,10.67.15,2.18.34,4.34.53,6.51l1.62-.15c-.06-.9-.14-1.79-.19-2.7-.1-1.92-.15-3.86-.21-5.8-.09-2.66,0-3.23,2.6-4a8.59,8.59,0,0,1,3.95-.54c1.36.33,1.82,1.7,2,3.2l2.09-.18a35.82,35.82,0,0,1-.1-5.23,9.74,9.74,0,0,0-.53-4.8c-.64-1.44-.88-2.93-2.17-4,1.41-1.29,3.66-2.92,4.13-4.89.73-3-3-.24-3.85.25-1.33-1.34-.48-2.93-1-4.34,1.19-1.15,1.16-1.52.6-2.94a8.18,8.18,0,0,1-.49-3.94,24.06,24.06,0,0,0-.88-5.22,14.56,14.56,0,0,1-.44-3.23c0-3.39,1.39-6,2.46-9.05,1.26-3.62,1-7.56,1.56-11.31.48-2.94.7-6.52,3.32-8.35,2.32-1.61,6.31-3.25,9-2.29a28.6,28.6,0,0,1,4.29,2.09,3.94,3.94,0,0,1,1.47,1.11c.27.3.35.94.75,1.13a1.1,1.1,0,0,0,.49.09c.91,0,2.13-.89,2.78-1.11A14,14,0,0,1,257,5.92c3.29.16,5.49,1.57,7.91,3.65,2.62,2.25,5.36,4.21,7.2,7.22a14.72,14.72,0,0,1,2,4.4c.26,1.21.07,2.45.56,3.62.61,1.37,1.72,1.85,2.79,2.76s1.61,2.43,2.19,3.81c2.82,6.88-.06,14.87-.41,22-.23,4.71.18,9.45.42,14.16l1.85-.1c-.12-1.94.19-3.89.23-5.83s-.36-3.81-.24-5.76a36.13,36.13,0,0,1,.77-4.62C282.61,49.42,282.48,47.61,282.66,45.76Zm-55.85,10.4c-1,2.84-5.33,1.72-7.19.58C221.33,56,225.15,55,226.81,56.16Z" transform="translate(-0.25 -0.25)"/><path class="cls-4" d="M286,363.22c3.6-1.8,7.59-3.1,10.86-5.55,1.89-1.41,2.8-2,2.15-4.43a38.54,38.54,0,0,1-1.55-5.6c-.52-4.77-.62-9.37-.8-14.16-4.14,2.5-8.41,4.58-12.59,7A111.81,111.81,0,0,1,273,346.38c-1.69.75-4.16,1-5.7,1.88-1.34.8-.78,2.24-.35,3.66a21.71,21.71,0,0,0,7.2,10.62C277.58,365.19,282.08,365.16,286,363.22Z" transform="translate(-0.25 -0.25)"/><path d="M292,171.24c3.09-1.55-4.78-4.11-5.65-4.18a2.74,2.74,0,0,0,1.72,3C288.71,170.43,291.15,171.66,292,171.24Z" transform="translate(-0.25 -0.25)"/><path class="cls-4" d="M373.28,356.88c1.7-.26,3.55-.24,4.9-1.46s.94-1.82.57-3.47a60.7,60.7,0,0,1-1.84-10.3c-.06-1.08.08-2.34-.87-3.07s-3.09-.63-4.28-.78c-3.39-.44-6.44-2-9.95-2.21-3.82-.26-7.65,0-11.49-.17A52.11,52.11,0,0,0,339,336c-1.29.23-2.86.18-4,1s-1.41,2.05-2.38,2.93c-1.56-1.94-.37-6-.29-8.32.09-3.23.45-6.42.43-9.67,0-6.42.69-12.94-1.87-19-5.32,5.07-10.42,10.22-15.74,15.25-1.38,1.3-2.37,2.83-3.85,4.06-1.68,1.37-3.4,2.7-5.09,4.07-2.65,2.13-7.19,4.27-7,8,.34,7.24.22,14.92,2.76,21.81a23.76,23.76,0,0,0,2.44,5.52,19.73,19.73,0,0,0,3.21,3,10.78,10.78,0,0,0,4.11,2.69,29.61,29.61,0,0,0,5.84.36c3.92.13,7.64.4,11.46-.64,3.6-1,7-2.17,10.52-3.48,7-2.61,14.56-3.81,22-4.69C365.47,358.45,369.36,357.5,373.28,356.88Z" transform="translate(-0.25 -0.25)"/><path class="cls-5" d="M303.75,200.35c.37-1.16-.87-3.37-1.26-4.42a29.81,29.81,0,0,0-2.34-4.77A20.19,20.19,0,0,1,284,196.11c-1,1.43-.06,4.81.1,6.39.12,1.21-.15,3.35,1,4.14,1,.68,3.57-.05,4.73-.21a26.42,26.42,0,0,0,5.49-1.39C297.4,204.27,303,202.74,303.75,200.35Z" transform="translate(-0.25 -0.25)"/><path class="cls-6" d="M314.17,180.42c.27-.8.59-1.55.87-2.3l-3.59-.39a3.35,3.35,0,0,1-1.56,1.83c-1.61,1-2.66,1.31-3.47,3-.75,1.56-2.35,3.07-2.87,4.59a39.18,39.18,0,0,1,5.22,4.05C312.26,188.94,313,184,314.17,180.42Z" transform="translate(-0.25 -0.25)"/><path class="cls-6" d="M275.09,152a6,6,0,0,1,3.57-1.81c1.43,0,2.39,1,4,.87,3.83-.29,8.29-2.25,11.78.15,2.68,1.85,2.74,5.89,6,6.73,1.19.29,3.51.19,4.44,1.13,1.06,1.09.56,3.54.89,4.94.36,1.6.68,3.79,2,4.88s2.8.87,3.58,2.47c.65,1.34.37,3.4.31,4.82a5.34,5.34,0,0,1-.24,1.55l3.59.39a11.54,11.54,0,0,0,1-3.92c.11-2.3-.12-4.67-.21-7a30,30,0,0,0-3.47-12.85c-.46-.92-1.14-1.27-1.74-2s-.83-1.74-1.4-2.53a18.94,18.94,0,0,0-4.16-3.94c-3.69-2.72-8.19-2.63-12.46-3.8-2.35-.65-4.54-1.92-6.92-2.34a11.34,11.34,0,0,0-7,1.22c-1.5.68-3.09,1-4.32,2.21a37.68,37.68,0,0,1-4.57,3.61c-1.86,1.38-3.48,2.81-3.55,5.24a41.42,41.42,0,0,0,.27,6.62,18.28,18.28,0,0,0,5.07-2.73C273.38,154.7,273.71,153.44,275.09,152Z" transform="translate(-0.25 -0.25)"/><path d="M242.46,101.75c.29,1.58.09,2.31-.8,3.15C240.37,103.67,240.63,102.44,242.46,101.75ZM250,129.6c-3.1-5.78,1.24-11.19,4.69-15.57l.38.18a14,14,0,0,1-.6,8.65C253.47,125.14,252.32,128.44,250,129.6Zm-15.42,2.95c.78.64.42,1-.21,1.24Zm-6.13,3.81c-2.83,1.65-3.26-2.89-2-4.5C228.4,132.62,231.7,134.42,228.41,136.35Zm2.46,16.76a4.94,4.94,0,0,1,.61-4.73C233.77,149.35,233.47,152.92,230.87,153.11Zm53.26,49.39c-.16-1.58-1.11-5-.1-6.39a20.19,20.19,0,0,0,16.14-4.95,29.81,29.81,0,0,1,2.34,4.77c.39,1,1.63,3.25,1.26,4.42-.76,2.38-6.35,3.92-8.41,4.69a26.42,26.42,0,0,1-5.49,1.39c-1.16.16-3.74.9-4.73.21C284,205.85,284.24,203.72,284.12,202.5Zm-30.66-69c1.68.83,2.93-.21,4.74.54a12.61,12.61,0,0,1,4.61,3.34c-2.1.58-4.19,1.31-6.4,1.14-2.52-.2-3.51-1.65-4.65-3.66Zm-50,112.2c-.43,1.83-.41,3.7-1,5.48s-1.36,3.81-2.15,5.67l-.49.1c-1.18-2-1.64-4.26-2.51-6.38s-1.86-4.51-2.7-6.8-1.57-4.42-2.3-6.64c-.56-1.75-2.08-4.33-1.63-6.2,4.87.65,9.81.87,14.68,1.77A117.25,117.25,0,0,1,203.47,245.67Zm-47.71-140.8c1.28,2.39,5.19,7.13,3.87,9.93-2.59-.28-4.57-.49-6-3S154.13,106.76,155.76,104.87Zm-1.83,14.9c-1.3.76-2,1.76-3.57,1,1.62-2.19,5.37-6.34,8-2.95A41.51,41.51,0,0,0,153.92,119.77ZM260.83,71.35c1.26.43,1.7,3.31,1.5,4.42-1.76.58-3.55,1.31-5.34,1.79-2.19.59-4.46.1-6.63-.34s-5.82-2.91-5.1-5.73c3.59.5,7.08,1.38,10.74,1C257,72.35,259.93,71,260.83,71.35Zm-28.05,89.44c1.15-1.05,1.82-2.35,3-3.36,4.66,6.07,8.92,12.31,13.19,18.65.81,1.22,2.17,2.61,2.64,4,.53,1.61-.18,1.88-1.45,2.71-2.65,1.72-4.88,4-7.46,5.82-2.42-6.13-5.85-11.57-8.85-17.4a28.88,28.88,0,0,1-2-4.41,10.7,10.7,0,0,0-.57-1.85c-.24-.44-1.07-1-1.15-1.53C229.93,162.29,232.05,161.47,232.78,160.79Zm27.73-36.16a18.21,18.21,0,0,1,9.42-.55c-1.06,2.28-3.93,3.27-6.17,3.92-3.15.9-6.13,2.39-9.37,3-.08-.14-.17-.28-.24-.4C255.79,127.84,257.39,125.76,260.51,124.62Zm-98.34-10.08c-.11-2.86-1.68-11.7,3.1-11.56,1,1.32.28,4.95,0,6.46C164.8,111.44,164.19,113.66,162.17,114.54ZM255,60.74c.65-.07,1.72-.52,2.31-.3,1.51.57.82,3.92,1.25,5.29.61,2,1.62,3.14-1,3.67a15.8,15.8,0,0,1-6.42,0c-1.19-.25-2.26-.78-3.4-1.1-1-.27-2.25,0-3.1-.29-1.55-.56-1.2-2.93-1.31-4.31.11-1.61-.44-4.92,1.49-5,.86,0,2.36,1,3.19,1.24a17.88,17.88,0,0,0,3.45.79A16.19,16.19,0,0,0,255,60.74Zm39.49,94c.62.71.71,1.89,1.06,2.74,1,2.53,3,2.73,5.39,3.29,4.58,1.06-.67,6.11,1.93,8.22,1.7,1.37,4.5,1.37,6,3a4.58,4.58,0,0,1,.52,4.73c-.94,1.45-3,.91-4.22,1.89-.84.67-1,1.83-1.54,2.71a18.72,18.72,0,0,1-2.62,3.08c-3.66,4-7.6,8.67-13.19,9.64-10.38.32-14-12.26-15.46-20.45-.42-2.32-1.27-5-1-7.37a17.47,17.47,0,0,1,1.93-6.2c1.37-2.43,3.64-7.43,7-6.46,2.32.65,3.18.43,5.41-.56,2.72-1.21,4.08-.65,6.54.56C293.1,153.92,293.84,154,294.49,154.71ZM236.8,182.8c.77,1.54,2.7,4,2.59,5.7-.87,0-1.46-1.08-2.24-1.46a11.63,11.63,0,0,1-2.62-1.49c-1.89-1.47-4-2.85-5.07-5.08a22.65,22.65,0,0,1-1.62-7.34,11.4,11.4,0,0,0-.52-3.15c-.42-1-1.48-1.35-1.83-2.2l1.08-1.37c3,2.52,5.24,6.76,7.18,10.11C234.92,178.53,235.77,180.73,236.8,182.8Zm37.85,27.85c1.72.42,3.48.83,5.22,1.09,2.07.33,4,0,6.1,0,1.63,0,3.48-.66,5-.41,1.72.26,2.49.67,4.33.24,3.41-.81,6.65-3.11,10.06-3.68,2.87-.49,4.94,5,5.93,7.08a95,95,0,0,1,4,11.64c1.23,4,3,8,3.64,12.09-2.93.11-6.23-1-9.08-1.65-3.3-.77-6.64-1.16-10-1.61-6.61-.89-13.27-1.57-19.87-2.56-3.08-.48-6.14-1.1-9.23-1.49-1.81-.23-3.63-.43-5.45-.61-.9-.11-2.55.06-3.34-.55-.35-.27-.26-.88-.64-1.15s-.76-.16-1.23-.25a3.38,3.38,0,0,1-2.69-1.46c-1.49-2.32,1.08-6.11,1.11-8.67-2.5-.57-2.81,2.22-3.56,4.06-.62,1.53-2,4.37-4.21,2.84-1.88-1.3-1.27-5.34-1-7.16.44-2.8,1-5.54,1.44-8.35.19-1.34.49-2.64.71-4s0-2.63.16-3.86c.57-3.28,3.18-.92,4.32.66.84,1.13.74,1.54.75,3,0,.92.09,2.62,1,3.11,2.11,1.09,1.79-3.51,1.89-4.74,3.65-.44,1,3.75,4,3.6a9.82,9.82,0,0,1,2.41-.23,14.31,14.31,0,0,1,2.76,1A37.31,37.31,0,0,0,274.66,210.65Zm11-70.91c2.38.42,4.57,1.69,6.92,2.34,4.27,1.17,8.77,1.08,12.46,3.8a18.94,18.94,0,0,1,4.16,3.94c.57.79.81,1.77,1.4,2.53s1.28,1.11,1.74,2a30,30,0,0,1,3.47,12.85c.09,2.31.32,4.68.21,7a11.54,11.54,0,0,1-1,3.92c-.28.75-.61,1.5-.87,2.3-1.21,3.58-1.91,8.52-5.39,10.81a39.18,39.18,0,0,0-5.22-4.05c.52-1.52,2.12-3,2.87-4.59.81-1.72,1.86-2,3.47-3a3.35,3.35,0,0,0,1.56-1.83,5.34,5.34,0,0,0,.24-1.55c.06-1.42.33-3.49-.31-4.82-.78-1.6-2.34-1.45-3.58-2.47s-1.67-3.28-2-4.88c-.32-1.4.18-3.85-.89-4.94-.93-.94-3.25-.84-4.44-1.13-3.29-.84-3.35-4.87-6-6.73-3.49-2.4-8-.44-11.78-.15-1.58.13-2.54-.85-4-.87a6,6,0,0,0-3.57,1.81c-1.38,1.44-1.71,2.7-3.52,3.91a18.28,18.28,0,0,1-5.07,2.73,41.42,41.42,0,0,1-.27-6.62c.08-2.43,1.69-3.86,3.55-5.24a37.68,37.68,0,0,0,4.57-3.61c1.23-1.2,2.82-1.53,4.32-2.21A11.34,11.34,0,0,1,285.65,139.74Zm-49.86,88.17c-1.25,1.65-5.29.69-7,.63s-5.38-.91-6.7.39c-2.57-1.13-1.6-5.34-1.55-7.57.06-3.52.06-7-.19-10.54s-.32-6.8-.42-10.22c0-1-.52-2.94,0-3.81s2.08-.82,2.85-1c4.25,3.51,7.5,7.8,11.15,11.91s7.95,7.21,12.11,10.72c0,2.35-1,7.24,1.4,8.75s5.67-.28,6.93,3Zm29.12-82.83c-.77,1.09-.77,2.54-1.32,3.72-.74,1.64-1.57,2.38-1.29,4.3.22,1.61.65,3.21,1,4.79-4,.61-7.88.39-11.93.55-2,.08-3.9.42-5.85.42-1.67,0-4.59.11-5.89-.93-4-3.19,0-7.19,2.11-10.09,2.68-3.7,5.29-7.5,8.22-11,2,1.94,3.45,3.85,6.43,3.68,2.52-.13,5.81-.39,8.11-1.46s3.9-2.79.68-3.58c-1.45-.37-5.79-1.9-6-3.55,2.16-1.37,5-2,7.41-3a14.93,14.93,0,0,0,2.73-1.27c.58-.38,1.61-1.86,2.17-1.88a63.24,63.24,0,0,1-.1,10.62c-.36,2.69-.43,6-3.2,7C266.94,143.89,265.73,143.92,264.91,145.08Zm2.88,25.07c2.68,5.1,3.86,11.18,5.81,16.57a25.29,25.29,0,0,0,4.17,7.39c1.49,1.91,3.42,4.93,2.93,7.48a58.81,58.81,0,0,1-13-9.84c-1.36-1.45-3.59-3.38-4.19-5.32-.37-1.18-.14-2.06-1.22-2.92-.75-.61-1.81-.53-2.56-1.06-1.66-1.2-1.58-2.7-3.86-3.17s-3.51-2.69-4.94-4.64c-3.05-4.15-6.34-8.44-8.65-13,2.13-1,5.42-.85,7.78-1.07a70.87,70.87,0,0,1,9.19.08c2.48.07,5.64-.42,6.7,2.45.38,1,.07,2.15.22,3.22A11,11,0,0,0,267.79,170.15Zm-17.24,29.27c-1.55-1.3-4-2.69-4.91-4.56-1-2.06.09-4,1.44-5.54s7.66-7.13,9.62-5.67c.66.48.68,1.41,1.58,1.68.69.21,1.5-.51,2.12-.12,1.47.91,0,3.71-.69,4.55-.54.62-5,4.1-2,4.47.84.11,1.52-1.08,2-1.58a13,13,0,0,1,2.94-2.35c3.25,3,6.59,5.83,9.85,8.78,1.51,1.37,3,2.8,4.4,4.25,1.16,1.16,2.77,2.42,3.26,4.06a35.53,35.53,0,0,1-8.41-.57c-3-.45-4.57-2-7.09-3.4s-5-2.06-7.44-3.19C254.46,198.94,253.56,197.66,250.55,199.42Zm-29-80.76c.55,3.89,1.55,7.55,1.66,11.53.07,2.66-.71,6.89,1.48,8.94,2.35,2.22,5-.53,6.8-2a41.37,41.37,0,0,1,.06,6.08c-.31,2.27-1.83,3.88-2.69,5.91-1.31,3.06-.68,6,2.33,7.24-1.66,3.69-5,6.42-7.6,9.48a19.24,19.24,0,0,0-3.4,5.59c-.77,2-1.11,2.06-3.27,1.29-2.36-.82-4.72-1.86-7-2.85-2.1-.91-1.74-2.16-2-4.33-.58-4.5-1.88-7.69-5.55-10.51-3.29-2.54-5.63-5.61-8.66-8.44-3.35-3.14-6.45-6.51-10.35-9a67.37,67.37,0,0,1-10.87-8.4c-3.36-3.29-6.11-7.33-9-11h0c-.16-.23-.34-.47-.52-.69l2.35-3c3.12,1.52,6.08,3.38,9,5.19.9.55,2.65,1.74,2.47,3.05s-2.08,1.44-3,1.78q-2.54-2.5-5.07-5c-1.43-1.43-2.64-3.51-4.59-1.76,4.23,4.44,8.87,8.49,13.43,12.59l1.43-.85c-.16-.38-.28-.7-.5-1.21,1-.39,2.36-1.18,3.5-1.16s2.57.92,3.67,1.42c2.86,1.28,5.75,2.5,8.54,3.92,2.53,1.29,5.23,1.71,7.87,2.74,1,.4,3.58.87,4.26,1.75s0,2.34-.37,3.23c-.9,2.37-2.23,4-4.94,3.21s-3.06-2.91-5-4.51c-2.14-1.82-5.21-2.68-7.63-4.11-2.79-1.66-5.57-3.31-8.41-4.88l-1.15,1.42c3.5,1.54,6.56,3.63,9.89,5.49a46,46,0,0,1,5.4,2.94c1.23.93,1.53,2.12,2.34,3.34,2.08,3.11,4.72,3.3,8.25,3.78,1.25.18,3.39.69,4.36-.41s.53-4,.46-5.28c-.07-1.57.11-3.76-1.09-5a13.35,13.35,0,0,0-4.49-2.46c-1.84-.67-3.08-.73-4.68-1.86a24.89,24.89,0,0,0-4.56-2.16c-3.37-1.5-6.87-2.77-10.23-4.3-2.18-1-2-.83-4,.13a9.54,9.54,0,0,1-4.64.93c.49-1.95,2.73-1.32,3.46-3,.65-1.41-1.39-3.43-2-4.69l.3-.05-.24-1.52c-1.31.59-3.68-.11-4.67-.54-2.25-1-4.19-2.83-6.15-4.27a60.51,60.51,0,0,0,.93-6.4,16.84,16.84,0,0,1,.85-3.07c.12-.47.31-.71.3-.92s-.13-.32-.5-.58c-1.06-.72-4.59.18-5.6.74-1.83,1-2.25,4.14-2.63,6a2.83,2.83,0,0,0-.37.08c-1.46-2.27-2.23-4.8-3.8-7-1.91.33-2.55,3.77-3.27,5.27-1.21,2.48-1.49,4.1,0,6.53,1.24,2,1.44,1.77-.44,2.94-1.44.89-4.49,3.84-5,5.44-.6,1.84,3.44,1.78,4.74,1.57,2.23-.36,3.88-2.25,6.22-2.72,3-.6,3.66.38,5.36,2.73a12.15,12.15,0,0,1,2,2.79c.35,1.28-.22,2,.62,3.32l.11,1.84a4.24,4.24,0,0,1,2,.17,30.77,30.77,0,0,1,2.57,1.9c1.9,1.19,3.62,2.69,5.43,4,.93.69,1.88,1,2.85,1.56a17.33,17.33,0,0,1,2.39,2.16c3.5,3,7.75,5.07,11.09,8.37s6.59,6,9.52,9.47c6.38,7.63-2.46,17-.08,25.47.64,2.23,2.18,3.94,2.1,6.35-.1,2.65-.48,4.74,0,7.41,1,5.08,1.18,10.39,1.68,15.53.3,3.08.58,6.14.65,9.23,0,1.47.56,5.27-.88,6.19-.64.39-2.24-.11-3-.14-1.41-.06-2.84,0-4.25,0A57.17,57.17,0,0,0,190,229c-1.71-7.26-3-14.63-6-21.47a94.06,94.06,0,0,0-5.1-9.4c-.82-1.34-1.69-2.67-2.56-4s-2.7-2.82-3.12-4.12h0a.05.05,0,0,1,0,0c-.89-.22-6.21-4.13-5.34-1,.33,1.21,2.6,2.07,3.52,2.77a17.2,17.2,0,0,1,3.12,3.37,68.75,68.75,0,0,1,9.84,18.81c2.28,6.59,3.23,13.52,5.13,20.23,2.13,7.47,5.6,14.78,7.2,22.36-14.43,1.42-29.17-1.18-43.59-1.75-3.43-.12-6.83-.67-10.25-.71s-7.07.44-10.6.65a76.81,76.81,0,0,0-10.48,1.3c-2.19.42-7.08.15-7.29,3.19,3.22.75,6.6-.2,9.83-.79A101.76,101.76,0,0,1,135.31,257a153.45,153.45,0,0,1,21.67.44c7.36.51,14.73.93,22.09,1.39,3.65.23,7.3.44,11,.7,1.55.11,3.39.52,4.91.14s2-1.23,3.55-.15c-1.13.79-9.53,2.86-7.27,4.92.87.8,2.48-.39,3.42-.7,1.88-.6,3.9-.93,5.75-1.65,3.24-1.29,3.85-6.29,4.49-9.3.83-4,1.74-7.86,2.28-11.88,1.08-8.08,2.85-15.74,1.66-23.89a83.61,83.61,0,0,1-.67-12.48c0-3.93-.38-7.92.24-11.8,2.74,2.23,6,2.16,9,3.17.13,3.38.63,6.72.62,10.11q0,5.44-.08,10.87c-.12,7.16-1.11,14.23-.87,21.41.12,3.35-.05,7.13.8,10.39.68,2.58,2.15,6.58,4,8.56s5.28,3.5,7.61,4.87c.75.44,2.36,1.54,2.65-.09.14-.83-.49-.63-.79-1.27s-.36-1.16-.59-1.75c2.77-.32,5.59,0,8.36,0,3.36-.09,6.7-.07,10.07-.06,2.78,0,5.53-.26,8.3-.18,3.24.1,6.08-1.07,9.22-1.6,5.74-1,11.79-.87,17.59-1.4,6.17-.58,12.71.57,18.64,2.3.89.26,2.15.9,2.89,0,1-1.24-.47-1.81-1.37-2-2.86-.67-5.75-1.37-8.65-1.88-6.18-1.08-12.94-2.46-19.17-1.2-6,1.19-12.3,1.47-18.39,2a145.4,145.4,0,0,1-18.24.72c-3.65-.17-7.27.32-10.9.29-2.72,0-4.09-2.39-5.42-4.52-1.8-2.88-1.93-6.54-2.22-9.84-.32-3.59-.53-7.18-.67-10.77,2.55-2,7.15,1.35,10,1.37,4.95,0,9.69.49,14.61,1,4.74.5,9.54.67,14.25,1.35s9.55.78,14.3,1.52c19,2.94,38.22,4.73,56.92,9.45,1,.25,1.92.49,2.86.75l.54-2.08c-2.65-.71-5.28-1.43-7.91-2.25-1.12-.35-2.92-.67-3.74-1.51-1.11-1.12-1.38-3.84-1.76-5.33-.89-3.49-1.36-7.08-2.17-10.59a65.5,65.5,0,0,0-3.41-10.09c-1.31-3.22-3.61-5.66-5.19-8.76-1.3-2.54-3.14-6.34-3.18-9.26a2.43,2.43,0,0,1,1.56-2.5c1.65-.91,2.81-1,4-2.61,2-2.53,2.63-5.7,4.18-8.47a30.27,30.27,0,0,0,3.65-9c1.5-7.37-1.92-12.71-4.84-19.19-2.22-4.93-4.7-13.33-11.3-14a18.33,18.33,0,0,1-3.8-.48,14.34,14.34,0,0,0-4.54-.45c-2,0-2.11-.75-2.38-2.57a63.7,63.7,0,0,1-.3-10.39c.06-3.89-.37-7.8-.52-11.67-.3-7.36.22-14.9-.63-22.2a43.8,43.8,0,0,0-6.58-18.38c-1.57-2.58-3.74-3.71-3.92-6.95l-1.85.1a76.69,76.69,0,0,1,.09,8.47,6.18,6.18,0,0,1-1.43,3.84c-1.2,1.19-1.72.53-3.11.15a3,3,0,0,0-3.54.93c-1,1.07-1.09,3.23-2.45,3.85-3.23,1.5-2.55-4.47-2.64-6a16,16,0,0,0-.94-4.22c-.56-1.64-.75-3.4-1.43-5-.53-1.27-1.65-2-2.1-3.33a7,7,0,0,1,.15-4.14,16,16,0,0,1,2.31-3.92l.89-1.25c.23-.28.47-.56.72-.84a1,1,0,0,0,0-1.12c1.2-2.63,3.13-4.5,3.91-7.41.51-1.9.84-3.86,1.32-5.78a17.89,17.89,0,0,0,.49-2.09c.12-.87-.21-1.81,0-2.61a14.41,14.41,0,0,1,1.15-2.21l-1.84-.3a10.65,10.65,0,0,1-.89,1.51c-2.88,4.22-3.88,9-6.18,13.5-1,1.91-1.87,3.67-3.74,4.85s-3.55,2.52-5.51,3.15c-.35.11-.66.21-1,.32a6.43,6.43,0,0,1-4.11.36A18.18,18.18,0,0,1,243,55.21c-.22-.16-.42-.34-.64-.51a25.76,25.76,0,0,1-5.84-7.39l-1.47.74c.69,1.42,1.34,2.84,2,4.08a32.18,32.18,0,0,1,2.2,5.13,21.41,21.41,0,0,1,.7,5.94c.13,3.68.29,7.83-1.64,11.1-.86,1.49-5.16,6.51-7.17,4.81-.88-.73-.68-3.35-.79-4.33-.08-.65-.14-1.3-.19-1.95L228.1,73c.12,1.33,0,2.75,0,3.67,0,3,.32,7.1,4.36,7.31,3.48.16,5.18-4.72,8.07-6.05,3.68-1.67,6.47,1,10.05,1.6a19.14,19.14,0,0,0,5.83.12c2-.26,4.16-1.28,6.18-.75.55,2.6.83,5.47,2.72,7.55s5.13,1.11,6.61-.91c.74-1,1.12-2.21,2.48-2.58s2.25.59,3.44.53c3.25-.14,3.66-4.71,4.33-7.07,1.77.73,3.12,3.79,3.9,5.46a22.7,22.7,0,0,1,1.84,6.86c.61,5.18.81,10.32,1,15.52.11,2.59.23,5.19.33,7.78.12,2.79-.27,5.41-.27,8.16,0,5.06.64,11-1.13,15.82-2.35-.31-4-.68-6.25.33s-4.3,2.46-6.61,3.42c.05-6-.9-12.58.17-18.38a46.64,46.64,0,0,0,.25-7.86c0-3.36-.37-6.68-.68-10-3.37-2.21-2.41,3.64-2.31,5.21s.09,3.34.07,5c0,1.83.37,3.81.16,5.61-.34,2.66-4.28,2.15-6.33,2.37-1.81.18-3.63.35-5.44.51a13.92,13.92,0,0,0-4.36,1.34c.5-2.91,1.16-5.53.75-8.55-.2-1.45-.59-2.78-.14-4.23.24-.75,1.21-2.07.54-2.9-1.31-1.64-3.93,2.82-4.78,3.61a23.8,23.8,0,0,0-5.27,7,13.38,13.38,0,0,0-.88,8.71c.52,2.8,2.19,5.09.48,7.65a85.83,85.83,0,0,1-5.32,7.21c-1.54,1.86-3.26,5.19-5.47,6.31a9.42,9.42,0,0,1-1.33-7.55,41,41,0,0,1,1.11-4.61c.39-1.19,1.24-2.36,1-3.68C237,131,235.36,130.46,235,129s.57-3.47,1-4.84a57.31,57.31,0,0,1,4.19-9.66c1.18-2.19,2.41-6.2,5-7.08,1.47-.51,2.93-.23,4.38-1a13.06,13.06,0,0,0,3.21-2.79c.6-.62,2.42-1.51,2.63-2.26C256,99.5,254,100,253,100.21c-1.53.4-3,0-4.48.26-1.21.16-1.82,1-2.88,1.34a7.1,7.1,0,0,1-.17-3.61L243.61,98c-.1.46-.16.91-.23,1.34-3.89.25-6.76,5.82-2.19,7.55-.76,3.88-3.53,7.44-5.57,10.77a22.49,22.49,0,0,0-2.92,6.18c-.63,2.45-1,4.8-2.44,6.94-1.32-1.86-2.22-3.91-3.5-5.8a9.62,9.62,0,0,1-1.9-5.81c-.3-4.37-.68-9.63,1.36-13.64a30.87,30.87,0,0,1,3-5.36c1.41-1.74,2.9-1.6,4.86-2.2,1.13-.36,4.7-2.38,3-3.88-1-.81-3.69,1.76-4.87,2.09-.32-1.26-.47-6.2-2-6.51-1.36-.27-2.06,3.18-2,5.38a3.09,3.09,0,0,0,.36,1.59c-1.27,2.32-2.49,4.55-5.13,5.47-1.08-1.25-.94-2.57-.9-3.79,1-.52,4.4-1.71,4.34-3.19a.86.86,0,0,0-.07-.31c-.63-1.66-3.33,1.11-4.6.94-.91-3.38-.35-7.14-1.41-10.42a8.35,8.35,0,0,1-.78-2.48l-1.62.15c.13,1.41.25,2.82.39,4.24.35,3.69.5,7.38.63,11.09a73.86,73.86,0,0,0,1.34,10.39C221.29,112,221.1,115.33,221.56,118.66Zm27.5,90.3c-.48,1.88-.77,4.62-2.07,6.15-2.71-2.33-5.16-4.73-8.1-6.82a42,42,0,0,1-8-7.15,94.41,94.41,0,0,0-7.48-8c-.85-.8-2-2.4-3.22-2.61-1.8-.3-1.56,1.08-1.75,2.28-4.2-.8-8.65-1.65-11.62-5-1.51-1.74-1.32-4-1.49-6.24-.19-2.43-.67-5.12-.18-7.55.92-4.73,6.71-1.07,9.38-.05,1.9.72,4,1.83,6.1,1.3s2.62-2.6,4.75-2.39c.56,4.66.88,8.53,4.29,12.05a69.85,69.85,0,0,0,9.31,8.64c1.92,1.39,3.92,2.67,5.81,4.08,1.53,1.16,4.24,2.71,5,4.57S249.55,207.07,249.05,209Zm-3.94-103c1.4-3,3.8-4.3,5.76-3.14A8.71,8.71,0,0,1,245.12,105.91Z" transform="translate(-0.25 -0.25)"/><path class="cls-4" d="M336.15,321c.43,4.14.09,8.22.25,12.38,6.25-.62,12.24-1.29,17.36-4.88-.05-1.3-2.39-3.14-3.23-4.25-1.12-1.49-2.31-2.92-3.46-4.39-.92-1.2-1.48-3.1-2.59-4-1.4-1.12-3.65-.55-5.17,0C336.35,317,335.85,317.94,336.15,321Z" transform="translate(-0.25 -0.25)"/><path class="cls-12" d="M352,322.41c1.16,1.67,2.74,3,3.76,4.76,5.48-1.13,11-2.29,16.43-3.58a24.5,24.5,0,0,0,6.78-3.21,11.23,11.23,0,0,0,4.84-5c-3-3-10.55-1-14.21-.46-2.65.37-4.82,1-7.52.49-2.11-.37-4.23-.77-6.34-1.17s-4-1.69-6.13-1c-2.59.77-1.55,2.16-.58,4A42.42,42.42,0,0,0,352,322.41Z" transform="translate(-0.25 -0.25)"/><path class="cls-12" d="M417.75,348c.43-1.8-1.69-2.17-2.92-2.34a100.31,100.31,0,0,1-13-2.59,85.08,85.08,0,0,1-11.75-4.17c-3.06-1.33-7.23-2.61-9.87.27-2.14,2.34.32,7.5,1.43,10,1.66,3.68,3.79,5.66,7.89,5.51v0c4.47-.54,8.9-1.08,13.32-1.95,3.81-.74,7.56-1,11.19-2.46C415.12,349.82,417.42,349.28,417.75,348Z" transform="translate(-0.25 -0.25)"/><path d="M249,278.38c.47,0,.92-.49,1.67.22l-1.61.15Zm98.12,41.51c1.15,1.47,2.34,2.9,3.46,4.39.84,1.12,3.18,3,3.23,4.25-5.12,3.59-11.1,4.26-17.36,4.88-.16-4.16.18-8.24-.25-12.38-.3-3.09.2-4,3.16-5.13,1.52-.57,3.77-1.14,5.17,0C345.6,316.79,346.15,318.69,347.08,319.89Zm-50.25,37.78c-3.26,2.45-7.25,3.75-10.86,5.55-3.89,1.94-8.4,2-11.83-.69a21.71,21.71,0,0,1-7.2-10.62c-.42-1.42-1-2.85.35-3.66,1.54-.91,4-1.13,5.7-1.88A111.81,111.81,0,0,0,284,340.47c4.17-2.4,8.44-4.48,12.59-7,.18,4.78.28,9.39.8,14.16a38.54,38.54,0,0,0,1.55,5.6C299.63,355.63,298.72,356.27,296.83,357.67Zm82.1-37.3a24.5,24.5,0,0,1-6.78,3.21c-5.46,1.29-10.95,2.45-16.43,3.58-1-1.77-2.6-3.09-3.76-4.76a42.42,42.42,0,0,1-3-5.16c-1-1.89-2-3.28.58-4,2.17-.65,4,.64,6.13,1s4.23.8,6.34,1.17c2.7.49,4.87-.12,7.52-.49,3.65-.5,11.23-2.55,14.21.46A11.23,11.23,0,0,1,378.93,320.38ZM244.29,278.29l3.18-.12c0,.08,0,.16,0,.24l-3.21.12Zm133.9,77.12c-1.36,1.23-3.2,1.2-4.9,1.46-3.92.62-7.81,1.58-11.73,2.05-7.41.88-14.93,2.08-22,4.69-3.49,1.31-6.92,2.49-10.52,3.48-3.81,1-7.54.77-11.46.64a29.61,29.61,0,0,1-5.84-.36,10.78,10.78,0,0,1-4.11-2.69,19.73,19.73,0,0,1-3.21-3,23.76,23.76,0,0,1-2.44-5.52c-2.53-6.89-2.42-14.56-2.76-21.81-.16-3.75,4.38-5.9,7-8,1.69-1.37,3.41-2.7,5.09-4.07,1.48-1.23,2.47-2.76,3.85-4.06,5.32-5,10.42-10.18,15.74-15.25,2.56,6,1.86,12.54,1.87,19,0,3.25-.35,6.43-.43,9.67-.08,2.34-1.27,6.38.29,8.32,1-.87,1.35-2.16,2.38-2.93s2.66-.75,4-1a52.11,52.11,0,0,1,11.3-.56c3.83.16,7.66-.1,11.49.17,3.51.25,6.56,1.77,9.95,2.21,1.2.15,3.29,0,4.28.78s.81,2,.87,3.07a60.7,60.7,0,0,0,1.84,10.3C379.12,353.59,379.42,354.32,378.18,355.41Zm36.64-9.79c1.24.16,3.35.54,2.92,2.34-.33,1.32-2.64,1.86-3.67,2.27-3.63,1.44-7.37,1.72-11.19,2.46-4.42.87-8.85,1.4-13.32,1.95v0c-4.1.16-6.24-1.83-7.89-5.51-1.12-2.45-3.57-7.62-1.43-10,2.64-2.88,6.81-1.6,9.87-.27A85.08,85.08,0,0,0,401.87,343,100.31,100.31,0,0,0,414.83,345.62Zm-68.16-85.24c-4.74,1.2-9.52,2.35-14.28,3.5-9.24,2.24-18.52,4.5-27.88,6.11s-19.1,2.82-28.63,3.54c-4.75.35-9.53.47-14.29.67a60.73,60.73,0,0,1-6.64-.06,29.17,29.17,0,0,0-3.3-.35,15.64,15.64,0,0,0-2.36.64c-1.8.34-4-.13-5.83-.17-2.54,0-5.08-.09-7.63,0-4.54.15-9.08.1-13.6.1-2.2,0-4.41.27-6.6.41s-3.8-.43-5.83-.57c-4.65-.33-9.51.28-14.17.48-4.47.19-8.91.37-13.4.29-2,0-4.16-.11-6.2,0-2.25.07-4.42.87-6.75.93a216.45,216.45,0,0,1-28-1.5c-2.92-.31-5.84-.51-8.77-.64l-.05,1.18.28.3.07,0s0,0-.05,0h0a1.72,1.72,0,0,1-.49.19l-.12,2,3.58.23c5,.33,10,.22,14.86,1.21,5,1,10.43.05,15.56.25s10.16.25,15.22.32c5.49.07,11,.75,16.44,1.08A89.61,89.61,0,0,0,213,280c5.46-.59,10.88.23,16.34,0s10.78-.13,16.21.15c5.16.27,10.37.49,15.4-.88,10.2-2.79,20.78-4,31.29-5.26,11.93-1.44,24-3.92,35.72-6.41,2.77-.59,5.65-.84,8.37-1.66,2.55-.75,4.87-2,7.56-2.18a22,22,0,0,0,7.83-1.93c2.69-1.17,5.5-1.93,8.22-3,.12.09.23.2.37.3a187,187,0,0,1-22.75,31.17c-4.24,4.74-8.49,9.47-13,14s-9,9.73-14.16,13.8q-3.34,2.64-6.72,5.21c-2.52,1.93-5.31,3.37-7.88,5.19-2.15,1.54-3.83,3.24-6.14,4.63-2.72,1.62-5.23,3.62-8.06,5a68.49,68.49,0,0,1-7.52,3.38c-1.31.46-2.65.84-4,1.3-1.54.56-2.88,1.49-4.43,2-5.83,2-11.77,3.81-17.62,5.84a117.3,117.3,0,0,1-18.93,4.93c-3.07.53-6.09,1.3-9.14,1.86-.27.05-.54.09-.82.13l.29,1.93c.78-.11,1.55-.24,2.32-.42,4.2-.93,8.48-1.35,12.64-2.37,8.77-2.17,17.51-4.53,26.24-6.84A51.52,51.52,0,0,0,267.24,360c1.44,1.63,2.91,3.9,4.67,5.23,1.52,1.15,4.17,1.51,6,1.68,4.24.36,8.6-.08,12.27-2.3,3.35-2,7.29-3.46,10.23-6,1.68,2.33,2.57,4.88,4.7,7,2.47,2.4,4.9,4.19,8.43,4.35a98.63,98.63,0,0,0,10,.21c3.68-.21,6.54-1.36,10-2.4,6.92-2.05,13.83-4.39,20.92-5.82,3.21-.65,6.48-.62,9.64-1.46,3.54-.94,7.33-1.16,10.95-1.73,1.47-.23,2.93-.4,4.4-.68,1.7-.32,3.33-1.12,5.05-1.31,1.3-.14,2.61.11,3.91,0,2-.11,4.09-.53,6.11-.79,3.64-.48,7.26-1.06,10.88-1.6,3.47-.52,7.66-.55,10.85-2,2.33-1.07,4.5-2.14,3.87-4.85s-1.89-4.09-4.77-4.56c-3.21-.51-6.48-.52-9.67-1.27a98.74,98.74,0,0,1-9.74-2.94c-3.53-1.25-7.11-4-11-4-1.86,0-3.42,1-5.23,1.18a44.67,44.67,0,0,1-4.92-.35,37.28,37.28,0,0,1-10.9-2.3c-3.42-1.16-7-.87-10.49-1.42,0-1,3-2.26,4-2.54,2.13-.58,4.38-.75,6.53-1.33,4.08-1.09,8-1.56,11.76-3.44,1.42-.71,2.87-.95,4.24-1.85a26.49,26.49,0,0,0,4.57-3.58c2-2,3.34-5.91-.23-6.68-8.63-1.86-17.89-.47-26.63-1.54a33.31,33.31,0,0,0-6.16-.33c-1.7.11-2.75-.43-4.35-.63-4.37-.54-7.66,2.08-11.12,4.28a48.78,48.78,0,0,1-.62-8.74c-.09-2.21-1.3-4.7-.45-6.81.93-2.36,3.62-4.29,5.35-6.06,2.07-2.11,4.1-4.23,6-6.51a134.8,134.8,0,0,0,19.11-30.47c-1.33-.66-1.57-1.88-2.75-2.63a20.63,20.63,0,0,0-4.11-1.57c-3.68-1.33-7.41-2.58-11.16-3.72-4.37-1.35-8.81-2.44-13.23-3.6l-.54,2.08c4.35,1.18,8.63,2.53,12.88,4.05,2.33.83,4.72,1.5,7,2.49,1.66.72,4.66,1.51,5.73,3.05C355.45,258.13,351,259.28,346.66,260.38Z" transform="translate(-0.25 -0.25)"/></g></g></svg>