<svg xmlns="http://www.w3.org/2000/svg" viewBox="0 0 527.65 367.32"><defs><style>.cls-1{fill:#4d4d4d;}.cls-2{fill:#eb99c2;}.cls-3{fill:#999;}.cls-4{fill:#c06;}.cls-5{fill:#fff;}.cls-6{fill:#fae5ef;}.cls-7{fill:#e6e6e6;}.cls-8{fill:#f5cce0;}.cls-9{fill:gray;}.cls-10{fill:#f0b2d1;}.cls-11{fill:#e57fb2;}.cls-12{fill:#1a1a1a;}</style></defs><title>people1</title><g id="Layer_2" data-name="Layer 2"><g id="Layer_1-2" data-name="Layer 1"><path d="M.43,366.95c-.26.55-.26.43.16.62C.75,367,.8,367.13.43,366.95Z" transform="translate(-0.25 -0.25)"/><path d="M53.31,309c-1.48,3.27-.4,5.85,2.21,8.13s5.33,2.38,8.57,1.67c3.5-.77,7.08-1.12,10.6-1.84,3.08-.62,7.14-2.26,10.22-.93-1.2,1.19-3.52,1.58-5,2.44a52,52,0,0,0-5.53,3.43c-3.1,2.34-6.76,4.91-8.74,8.33-1.72,3-4.11,7.37-.15,9.66a12.22,12.22,0,0,0,2.16,1l.65-2.18c-1.16-.37-2-1.06-1.92-2.27.11-2.59,4.72-5.26,6.55-6.68,2.74-2.13,4.63-4.95,7.68-6.73a52,52,0,0,1,9-3.69c2.65-.93,7.23-2.71,10-1.35,1.48.74,2.25,2.43,2.72,3.93a29,29,0,0,1,1.17,4.59l2.42-.36a30.75,30.75,0,0,1-.26-4.5,8.18,8.18,0,0,0-.14-2.24c-.21-.84-1.07-1.93-.87-2.83.4-1.75,1.64-.49,2.06.41a51.44,51.44,0,0,1,1.65,5c.56,1.7,1,3.46,1.47,5.2.15.57.53,1.62.83,2.65l2.31-.6a4,4,0,0,1-.16-.54c-.32-1.32-.36-2.66-.69-4-.42-1.67-.9-3.35-1.43-5-.39-1.22-1.48-2.67-.5-3.73.65-.72,2.79-1.24,3.68-1.6a34,34,0,0,1,4.66-1.66c3.56-.87,7.21-1.53,10.81-2.26,6.42-1.3,13.06-1.21,19.54-2.06a21.79,21.79,0,0,0,4.25-1.15,37.51,37.51,0,0,1,4.25-.79,29.43,29.43,0,0,1,4.45-1.1c1.86-.14,3.66-.44,5.49-.75a12.61,12.61,0,0,1,3.93-.33c.95.12,3.22.85,2.93-1.12-.36-2.44-5.7-1.7-7.3-1.93-2.86-.43-3.61-2.29-4.51-4.78-1.22-3.38-2.28-6.79-3.54-10.14a46.83,46.83,0,0,1-2.38-8.66c-.57-3.51-1.64-6.66-2.51-10.08-.8-3.13-2-5.83-3-8.88a12,12,0,0,1-.35-1.15l-3.19,1c.74,2.47,1.24,5.06,1.92,7.48,1.12,3.95,2.72,7.7,3.9,11.65,1.13,3.74,2.42,7.35,3.75,11,.74,2,1.33,4.09,2.17,6.11a24.16,24.16,0,0,1,2,5.63,60.21,60.21,0,0,1-9.14,3.17,32.21,32.21,0,0,1-9.83,1.23c-6.39.07-12.53,2.13-18.8,3.24-3.4.6-6.82,1.19-10.22,1.75-2.28.36-6.76,2.07-8.85.64-1.86-1.28-3-5.27-3.42-7.31-.35-1.59-.55-3.21-.84-4.82-.27-1.41-1-3.07-.53-4.48a28.58,28.58,0,0,1,3.9-.81l-.38-2.38c-1.16.18-2.32.38-3.49.55-2.46.35-7.36-1-8.85,2a58.06,58.06,0,0,0-10.92.69c-3.74.64-6.93,2.27-10.29,4C64,300.46,56,302.91,53.31,309Zm3.59,5.46c-1-1.12-.35-3.32.52-4.38,1.11-1.38,3.23-2.21,4.74-3.07,3.45-2,6.45-4.55,9.9-6.47s7.4-4.46,11.46-4.87c4.25-.43,6.82,2.31,7.41,6.22.33,2.16,1.51,3.39,2.17,5.33.83,2.38-1.89,2.18-3.59,2.48-1-1.2-1-1.62-2.66-1.06a37.23,37.23,0,0,0-5.69,2.65c-3.86,2.15-8.4,2.73-12.74,3.41a46.1,46.1,0,0,1-7,.66C60,315.34,58,315.65,56.9,314.43ZM69.45,329A1.89,1.89,0,0,1,71,327.53C70.21,328.7,70.21,328.7,69.45,329Zm2.15-2a1.19,1.19,0,0,0-.1-.13c.12-.24.24-.28.35-.09Zm22.94-24.37c-.47-1.28-3.57-9.55-.5-9.28,1.1.08,2.3,2.71,2.67,3.52a22.91,22.91,0,0,1,1.49,5.61c.67,3.45,2.42,7.75-.68,10.48C95.88,309.63,95.75,306,94.54,302.57Z" transform="translate(-0.25 -0.25)"/><path class="cls-1" d="M57.43,310c-.87,1.06-1.53,3.26-.52,4.38s3.1.91,4.52.9a46.1,46.1,0,0,0,7-.66c4.33-.69,8.88-1.26,12.74-3.41a37.23,37.23,0,0,1,5.69-2.65c1.62-.56,1.7-.14,2.66,1.06,1.69-.3,4.41-.1,3.59-2.48-.66-1.95-1.84-3.17-2.17-5.33-.59-3.91-3.15-6.65-7.41-6.22-4.06.41-8,2.93-11.46,4.87S65.62,305,62.17,307C60.66,307.84,58.54,308.66,57.43,310Z" transform="translate(-0.25 -0.25)"/><path class="cls-1" d="M66.35,336.39c0,1.2.77,1.9,1.92,2.27,2,.66,5.15.35,6.46.2a31.76,31.76,0,0,0,11-3.05,33.68,33.68,0,0,0,8.23-6.22c.7-.69,2.21-2.63,3.09-1.22.66,1.06-1,2.42-1.36,3.37a17.49,17.49,0,0,0,6.56,0c1.8-.44,1.43-2.78,1.35-4.45,0-.28,0-.56-.08-.85a29,29,0,0,0-1.17-4.59c-.47-1.5-1.24-3.2-2.72-3.93-2.74-1.36-7.32.42-10,1.35a52,52,0,0,0-9,3.69c-3.05,1.78-4.94,4.59-7.68,6.73C71.08,331.13,66.47,333.8,66.35,336.39Z" transform="translate(-0.25 -0.25)"/><path d="M68.28,338.66l-.65,2.18a19,19,0,0,0,9.24.43c2.21-.39,4.46-.63,6.67-1.07s4.21-1.6,6.43-2.13c2-.49,4.11-.73,6.1-1.41s4.29-1.46,6.51-1.06c1.91.35,3.14,1.14,5.16.83,2.31-.35,4.66-.38,7-.52.83-.05,1.65-.09,2.48-.1l-.07-2.63a6.23,6.23,0,0,1-2.56-.31c-.52-1.22-1.22-2.44-1.61-3.71l-2.31.6a5.17,5.17,0,0,1,.3,2.34c-3.41,1.1-4.42-2.26-4.9-5-.06-.34-.11-.67-.15-1l-2.42.36c0,.29.06.58.08.85.08,1.67.45,4-1.35,4.45a17.49,17.49,0,0,1-6.56,0c.4-1,2-2.31,1.36-3.37-.88-1.41-2.38.52-3.09,1.22a33.68,33.68,0,0,1-8.23,6.22,31.76,31.76,0,0,1-11,3.05C73.42,339,70.32,339.31,68.28,338.66Z" transform="translate(-0.25 -0.25)"/><path class="cls-2" d="M99.44,293.73c-.48,1.41.26,3.08.53,4.48.29,1.61.49,3.23.84,4.82.46,2,1.55,6,3.42,7.31,2.09,1.43,6.57-.28,8.85-.64,3.4-.56,6.82-1.15,10.22-1.75,6.27-1.11,12.41-3.17,18.8-3.24a32.21,32.21,0,0,0,9.83-1.23,60.21,60.21,0,0,0,9.14-3.17,24.16,24.16,0,0,0-2-5.63c-.83-2-1.43-4.07-2.17-6.11-1.32-3.66-2.61-7.27-3.75-11-1.17-3.95-2.78-7.7-3.9-11.65-.68-2.42-1.19-5-1.92-7.48a24.75,24.75,0,0,0-1.35-3.6,40.6,40.6,0,0,0-2.91,14.6c-.07,2.56.47,4.87.25,7.43s.08,5-.45,7.56c.88.63,1.8,1.2,2.73,1.75.75.45,2.13.9,2.64,1.62a1.66,1.66,0,0,1,0,2.07c-.9.89-2.14-.24-2.95-.77-2.32-1.5-3.87-2.38-6.64-1.32-2,.79-2.63,3.41-4.84,3.7a68.64,68.64,0,0,1-8.23.21c-3,0-6.06.26-9.1.45-4.28.26-8.83.14-13.17.77A28.58,28.58,0,0,0,99.44,293.73Z" transform="translate(-0.25 -0.25)"/><path d="M103,290.53l.38,2.38c4.34-.63,8.89-.52,13.17-.77,3-.19,6.06-.44,9.1-.45a68.64,68.64,0,0,0,8.23-.21c2.21-.29,2.8-2.91,4.84-3.7,2.78-1.06,4.33-.18,6.64,1.32.81.53,2.05,1.65,2.95.77a1.66,1.66,0,0,0,0-2.07c-.51-.71-1.9-1.16-2.64-1.62-.93-.55-1.85-1.11-2.73-1.75.53-2.52.22-5,.45-7.56s-.32-4.87-.25-7.43a40.6,40.6,0,0,1,2.91-14.6,24.75,24.75,0,0,1,1.35,3.6l3.19-1a65.82,65.82,0,0,1-1.35-8.33,47.15,47.15,0,0,1-.75-5.16c0-1.32.26-2-.33-3.24-1.37-2.91-.6-7.28,0-10.41.16-.91.19-2.26,1.31-2.44s3.27,1.41,4.22,1.83l.1,0,.93-2.1a12.32,12.32,0,0,1-4.34-2.32,20.6,20.6,0,0,1,3.07-5.44,41,41,0,0,1,3.89-5.51l.21-.22-1.78-1.68c-1.68,1.65-3.59,3-5.2,4.79-3.84,4.15-5.62,10-7.12,15.28-1.77,6.24-.11,12.89-1,19.24-.52,3.54-1.69,7-1.92,10.58s-.24,6.91-.36,10.35c-.06,1.67-.54,3.25-.59,4.91s.47,3.29,0,4.78c-.93,2.95-4.88,4.06-7.55,4.38-7.07.83-14.24,2.6-21.34,2.82A56.6,56.6,0,0,0,103,290.53Z" transform="translate(-0.25 -0.25)"/><path class="cls-2" d="M110.17,315.92c-1,1.06.1,2.51.5,3.73.53,1.64,1,3.32,1.43,5,.33,1.32.37,2.66.69,4a4,4,0,0,0,.16.54c.4,1.27,1.1,2.49,1.61,3.71a6.23,6.23,0,0,0,2.56.31c1.24-.08,2.49-.39,3.73-.5,1.89-.17,3.81-.25,5.71-.39,3.85-.26,7.72,0,11.56-.37,8.1-.7,16.12-1.64,24.18-2.89,7.54-1.17,15.08-3.33,22.72-3.24a47.71,47.71,0,0,0,9.45-.76,26.16,26.16,0,0,0,10.85-4.4c4.87-3.65,5.33-9.2,4.37-14.79-1.11-6.49-3-12.92-4.3-19.4q-2.11-10.85-4.43-21.63c-1.37-6.32-2.44-12.7-4.15-18.94a21.32,21.32,0,0,0-1.48-4.59c-.67-1.21-1.64-1.24-2.92-1.45-3-.5-6.06-1-9.1-1.35a85.33,85.33,0,0,1-20-4.78c-3.31-1.17-6.47-2.48-9.65-3.94l-.1,0c-1-.42-3.19-2-4.22-1.83s-1.15,1.54-1.31,2.44c-.55,3.13-1.32,7.5,0,10.41.59,1.23.3,1.91.33,3.24a47.15,47.15,0,0,0,.75,5.16,65.82,65.82,0,0,0,1.35,8.33,12,12,0,0,0,.35,1.15c1,3.06,2.21,5.76,3,8.88.88,3.41,1.95,6.56,2.51,10.08a46.83,46.83,0,0,0,2.38,8.66c1.26,3.35,2.32,6.76,3.54,10.14.9,2.5,1.66,4.36,4.51,4.78,1.6.23,6.94-.51,7.3,1.93.29,2-2,1.24-2.93,1.12a12.61,12.61,0,0,0-3.93.33c-1.83.31-3.64.6-5.49.75a29.43,29.43,0,0,0-4.45,1.1,37.51,37.51,0,0,0-4.25.79,21.79,21.79,0,0,1-4.25,1.15c-6.48.85-13.11.76-19.54,2.06-3.6.72-7.25,1.38-10.81,2.26a34,34,0,0,0-4.66,1.66C113,314.68,110.82,315.2,110.17,315.92Z" transform="translate(-0.25 -0.25)"/><path d="M117.13,333.17l.07,2.63c4.25-.13,8.45,0,12.71-.11,4.63-.15,9.37-.12,14-.49s9.27-1.23,13.87-1.87,9.4-.88,14.07-1.65c4.41-.73,8.79-1.87,13.23-2.49,3.33-.46,6.58-1.19,9.87-1.81l-.45-2.36a47.71,47.71,0,0,1-9.45.76c-7.64-.08-15.19,2.08-22.72,3.24-8.06,1.25-16.08,2.19-24.18,2.89-3.85.34-7.71.11-11.56.37-1.9.13-3.81.21-5.71.39C119.62,332.78,118.37,333.1,117.13,333.17Z" transform="translate(-0.25 -0.25)"/><path class="cls-3" d="M153.33,219.92a20.6,20.6,0,0,0-3.07,5.44,12.32,12.32,0,0,0,4.34,2.32c1.57.51,3.2.85,4.82,1.27a74.25,74.25,0,0,1,9.09,2.6,65.66,65.66,0,0,0,19.13,4.4c2.76.2,5.91,1.15,8.59.27,3.18-1,5.51-2.89,8.1-4.88,2.27-1.73,4.69-3.32,7.07-4.92s4.4-3.52,6.64-5.24c-1.15-2.22-3.16-3.72-5-5.42s-3.76-3.6-5.72-5.34c-3.79-3.37-6-7.19-8.68-11.43a13.65,13.65,0,0,1-2.48-5.35c-.3-2.05,1.27-1.3,2.22-.07.78,1,.84,2.39,1.38,3.52.41.86.95,1.64,1.43,2.45a39.2,39.2,0,0,0,3.58,5.34c3.15,3.72,6.88,6.6,10.55,9.76,3.2,2.75,6.37,7.46,11.08,7.31.73,0,2.09-.59,2.62.14s-.27,1.15-.86,1.5c-1.56,1-3.86,1.9-4.39,3.94a3.34,3.34,0,0,0,1,2.75,6.52,6.52,0,0,0,2.5,1.9c2.2.75,4.24-.23,6-1.41a7,7,0,0,1,2.65-1.41,10.67,10.67,0,0,0,2.69-.56,51,51,0,0,0,5.87-3.56c1.43-.93,5.42-2.83,5.84-4.61.59-2.41-2.7-1.61-3.91-1.36-1.53-1.33-1.36-3.2-1.74-5a14.5,14.5,0,0,0-4.18,2.28c-1.38,1-1.77,1-2.42-.64,1-1.16,2.6-2.13,3.37-3.5.88-1.56-.58-3.08-1.39-4.47-1.61-2.76-4.1-4.93-6-7.52-2.18-3-4.74-5-7.44-7.42-.53-.46-2.56-2-2.19-3,.56-1.42,3.51.9,4.15,1.27.73-1.84.06-4.51-.06-6.46-2.58-.68-4.92.09-7.49.07a30.93,30.93,0,0,1-7.23-1.13,31.51,31.51,0,0,1-6.69-2.44,44.87,44.87,0,0,0-4.82-2.65,17,17,0,0,1-5.3-2.8c-1.15-.95-.78-1-2-.58a8.71,8.71,0,0,0-2.51,2c-2.76,2.7-5.31,5.67-8.1,8.37-3.07,3-6,6-8.85,9.22-3,3.41-5.7,7-9,10.17-3.13,3-6.25,5.95-9.19,9.13l-.21.22A41,41,0,0,0,153.33,219.92Z" transform="translate(-0.25 -0.25)"/><path d="M154.61,227.68l-.93,2.1c3.19,1.46,6.35,2.76,9.65,3.94a85.33,85.33,0,0,0,20,4.78c3,.32,6.07.85,9.1,1.35,1.28.21,2.25.23,2.92,1.45a21.32,21.32,0,0,1,1.48,4.59c1.7,6.23,2.78,12.61,4.15,18.94q2.34,10.79,4.43,21.63c1.26,6.48,3.19,12.91,4.3,19.4,1,5.59.49,11.14-4.37,14.79a26.16,26.16,0,0,1-10.85,4.4l.45,2.36c1.36-.27,2.73-.52,4.11-.73a7.25,7.25,0,0,0,2.47-.51c1.08-.61,1.06-.92,2.31-1.18a21.13,21.13,0,0,0,5.81-1.9c3.81-2,5.47-5.43,5.09-9.71a79.87,79.87,0,0,0-2-13.24c-1.46-5.38-2.32-10.92-3.28-16.39s-2.18-10.44-3.61-15.67c-1.37-5-2.81-10-3.72-15.12-.46-2.62-1-5.24-1.49-7.86-.3-1.62-1.63-4.68.48-5.54,2.74,4,5.56,7.76,8.48,11.56,2.66,3.48,4.83,7.22,7.72,10.55s5.21,7.25,8.35,10.47l1.55-1.06c-1.8-2.05-3.35-4.31-5.06-6.45a94.44,94.44,0,0,1-6.33-9.08c-1.84-3-3.37-6.15-5.29-9.06a51.56,51.56,0,0,1-5.17-8.61,7.56,7.56,0,0,1,3.67.43l.09-2.27c-1-.05-2.08-.16-2.52-.71.92-1.19,2.42-1.95,3.6-2.88s2.47-2,3.77-2.93c1.9-1.35,4.93-4.66,7.25-4.81-.2,2.33-.35,4.12,1.28,6l2.34-.41a3.34,3.34,0,0,1-1-2.75c.53-2,2.84-3,4.39-3.94.59-.35,1.43-.7.86-1.5s-1.89-.16-2.62-.14c-4.71.15-7.88-4.56-11.08-7.31-3.67-3.17-7.4-6-10.55-9.76a39.2,39.2,0,0,1-3.58-5.34c-.48-.81-1-1.59-1.43-2.45-.54-1.13-.6-2.52-1.38-3.52-.95-1.22-2.51-2-2.22.07a13.65,13.65,0,0,0,2.48,5.35c2.67,4.24,4.89,8.06,8.68,11.43,2,1.74,3.83,3.54,5.72,5.34s3.81,3.2,5,5.42c-2.24,1.72-4.31,3.66-6.64,5.24s-4.8,3.19-7.07,4.92c-2.6,2-4.92,3.85-8.1,4.88-2.68.87-5.83-.07-8.59-.27a65.66,65.66,0,0,1-19.13-4.4,74.25,74.25,0,0,0-9.09-2.6C157.81,228.53,156.17,228.19,154.61,227.68Z" transform="translate(-0.25 -0.25)"/><path d="M155.65,212.51l1.78,1.68c2.93-3.18,6.06-6.17,9.19-9.13,3.28-3.13,6-6.76,9-10.17,2.84-3.22,5.78-6.25,8.85-9.22,2.8-2.7,5.35-5.67,8.1-8.37a8.71,8.71,0,0,1,2.51-2c1.23-.44.86-.37,2,.58a17,17,0,0,0,5.3,2.8,44.87,44.87,0,0,1,4.82,2.65,31.51,31.51,0,0,0,6.69,2.44,30.93,30.93,0,0,0,7.23,1.13c2.57,0,4.91-.75,7.49-.07.12,2,.79,4.62.06,6.46-.65-.37-3.59-2.69-4.15-1.27-.37.92,1.66,2.49,2.19,3,2.71,2.38,5.27,4.43,7.44,7.42,1.88,2.59,4.36,4.77,6,7.52.81,1.39,2.27,2.91,1.39,4.47-.77,1.37-2.35,2.34-3.37,3.5.64,1.67,1,1.61,2.42.64a14.5,14.5,0,0,1,4.18-2.28c.38,1.81.2,3.69,1.74,5,1.21-.26,4.5-1.06,3.91,1.36-.43,1.78-4.41,3.68-5.84,4.61a51,51,0,0,1-5.87,3.56,10.67,10.67,0,0,1-2.69.56,7,7,0,0,0-2.65,1.41c-1.78,1.19-3.81,2.16-6,1.41a6.52,6.52,0,0,1-2.5-1.9l-2.34.41a15.74,15.74,0,0,0,5.95,4.5,4.58,4.58,0,0,0,.69.15c1.72.2,3.31-1,5-.18a10.26,10.26,0,0,1,2.55,2.33c.9.86,1.91,1.52,2.71,2.45-1,1.16-6-.24-7.39-.38-1.14-.11-2.27-.24-3.4-.41-1.73-.24-3.44-.51-5.17-.79-2.94-.48-5.89-.94-8.83-1.53-1.45-.3-2.91-.59-4.39-.8-.28,0-.67,0-1.11-.05l-.09,2.27c1,.32,2.08.73,3,1a61.6,61.6,0,0,0,7.62,1.54c4.82.7,9.48,1.83,14.26,2.66,5.31.92,10.64,1.79,16,2.56,5.19.75,10.35,1.86,15.58,2.21,10,.67,20,1.61,30,1.56,10.63-.06,21.22-1.07,31.83-1.4,20.5-.63,41.2.68,61.45-3.5,5.13-1.06,10.25-1.64,15.4-2.43,3.06-.48,6.19-1,9.32-1.33l-.15-1.54-3.39.41c-8.84,1.05-17.7,2.34-26.57,3.14-4.64.4-9.32.64-14,.78s-9,.82-13.52,1.28c-18.11,1.85-36.56,1.53-54.72.81a43.26,43.26,0,0,1-7.44-.83c-2.3-.49-3.44-1.91-5.36-3.07a45,45,0,0,0-9.35-3.93c-1.13-.36-2.24-.73-3.36-1.1a128.42,128.42,0,0,1-13.46-5,24.58,24.58,0,0,1-5.15-3.43c-1.57-1.32-3.86-2.57-4.92-4.39.9-1.29.53-2.73,1.28-4a9.91,9.91,0,0,1,3.52-3.29c2.5,1.46,5,2.88,7.38,4.52s5.26,2.36,7.79,3.79a32,32,0,0,0,8.09,3.51c2.37.61,5.92,2,7,4.38-1.2.66-2.87.5-4.22.57-.84.05-3.47-.29-4,.69-.36.71.06,1.13.82,1.37,1.71.54,5.16.17,5.77.15,3.54-.13,7,.37,10.59,0,3.34-.32,6.52-.78,9.89-.79v-1.74c-1.31,0-2.7-.15-3.41-.13-2.52.08-5.06.5-7.54-.13-2.15-.56-3-1.5-4.59-2.75a24.41,24.41,0,0,0-6-3.11,107.32,107.32,0,0,1-12.19-5.1c-4.16-2.17-9.4-4.56-12.5-8.16.42-1.46,2-2.2,2.81-3.35,1-1.36.2-2.69.83-4.1a5.24,5.24,0,0,1,2.69.45l.71-2.06c-1.26-.43-2.51-.88-3.81-1.29-1.59-.51-2.19-.59-2.86-2.15-.44-1-1.44-2.28-1.29-3.43,1,.31,3.44,2.89,3.69.31.1-1-1-3-1.38-3.93-.48-1.24-1.46-2.17-.86-3.58s3-2.53,4.34-3.41c1.51.69,5.49,4.13,7,3.08,2.1-1.44-3.15-4.59-4-5.53a33.17,33.17,0,0,1,5.58-11.25c2-2.7,3.24-5.85,4.83-8.8l-1.68-.87c-1.73,3.48-4.11,6.68-6.05,10-1,1.75-1.83,3.58-2.81,5.33a23.65,23.65,0,0,1-3.53,4.23c-2.17,2.4-7,2.87-8.39,6.11-.61,1.49.91,2.17,1.3,3.51.58,2-1.42,3.13-1.3,5,.06,1.18,2.19,2.83,1.44,3.76s-3.39-.56-4-1.08a31.34,31.34,0,0,1-3.59-3.57c-1.13-1.3-2.62-2.18-3.86-3.39-2.75-2.69-6.16-4.56-8.71-7.43a21.58,21.58,0,0,1-3.33-4.24c-.54-1.07-2.21-3.92-1.27-5a8.43,8.43,0,0,0,4.34-.18,26.13,26.13,0,0,1,4.34-.84,22.13,22.13,0,0,0,8.27-3.7,32.07,32.07,0,0,1,3.34-2.07c1-.49,2.31-.63,3.21-1.29,2.15-1.59,1.58-6.25,1.81-8.55.29-2.86,1.44-5,2.48-7.59a15.32,15.32,0,0,0,.78-3.79,25.11,25.11,0,0,1,1.3-4.57c.88-2.54,2.86-5.62,2.71-8.33-.16-3-.9-5.8-3.18-7.78-1.75-1.51-4.59-2.1-5.85-4a18.62,18.62,0,0,0-6-6.24c-2.53-1.58-5.65-1.18-8.46-.6-3,.6-5.17,3.16-8.12,3.73-2.54.51-5-.06-7.55.88a29.66,29.66,0,0,0-8.34,4.7,9.21,9.21,0,0,0-3.05,5.88c-.55,2.87-2.85,5-3.56,7.75s2,4.13-.12,6.61c-2.41,2.89-1,4.3-.26,7.68.67,3-1.23,4.73-2.64,7.13-1.63,2.78-2.91,4.62-5.91,5.94a45.48,45.48,0,0,0-8,4.25c-2.53,1.75-4.12,4-6.31,6.13-1.9,1.82-4,3.34-5.83,5.23-2.25,2.28-4.2,4.85-6.44,7.15-4.33,4.43-8.71,8.85-12.63,13.68-1.72,2.12-3.57,4.11-5.25,6.26A17.58,17.58,0,0,1,155.65,212.51Zm54.26-33.86c-2-.62-12.88-2.83-10.51-6.6a3.91,3.91,0,0,1,2.85-1.44c1.26.06,1.89,1.22,2.9,1.93,2,1.37,4.68,1.74,6.85,2.88a71.33,71.33,0,0,0,7.37,3.43c1.76.69,5.42,1.48,6.41,3.16-2.56.06-5.31-1-7.79-1.55C215.26,179.85,212.61,179.49,209.91,178.65Zm2-6.11c-1.07-.77-3-1.79-2.9-3,.12-1.53,1.71-3.71,2.33-5.15s1-3.42,2.3-4.25a7.38,7.38,0,0,1,5.44-.72,8.06,8.06,0,0,0,4.72.19c1.58-.53,2.45-2.39,3.37-3.72.65-.92,2.77-2.78,2.82-3.87.06-1.25-2-2.77-2.54-3.87-1.2-2.4.18-6.85,3.34-4.49,1.06.79,1.47,2.53,2.72,3,1.75.61,3.08-1.69,4.06-2.81a7.44,7.44,0,0,1,1.79-1.81c.69-.4,1.5-.3,2.05-.94,1.13-1.3.46-3.69,2.24-4.62,1.87,2.06,1.47,5.82,4.71,6.55a14.91,14.91,0,0,1,1.92.24c.72.26,1,.77,1.6,1.14,1.43.83,3.17.52,4.71,1,3.44,1,.8,5.89-.09,8.07-.33.82-.93,3.5-1.9,3.43-1.36-.08-1.4-2.54-3.21-1.25a2.77,2.77,0,0,0,.1,1.57c1,.6,2.56,1.23,3,2.35s.08,2.54,0,3.52.25,2.86-.31,3.78-1.52.8-2.48.92c-2.81.32-4,1.66-6.12,3.31-2.51,2-3.13-.56-4.52-2.5-.47-.65-1.2-1.65-2-.7s.45,2.15.9,2.82,1.91,2,1.24,2.78-3.42.55-4.29.37a13.11,13.11,0,0,1-6.8-3.78c-1.8-2-3.2-4.72-5.6-1.9,1,1.5,1.82,3.17,3,4.58,1,1.14,2.29,2,1.6,3.52-1.25,2.79-6.16,1.13-8.33.48A28.42,28.42,0,0,1,212,172.54ZM214.63,153c-1-2,.29-3.26,1-5.19.84-2.25-1.53-3.47-1.55-5.58,0-1.74,1.85-3,2.39-4.57s0-3.51.24-5.21c.38-2.72,4-5,6.17-6.27,3.79-2.17,7.95-.56,12.06-1.2,1.74-.28,3.24-1.59,4.85-2.23a11.93,11.93,0,0,1,6-.71c1.77.28,3.71.5,5.1,1.74s1.84,3.31,3.15,4.62,2.68.6,4.27.84a4.52,4.52,0,0,1,3.51,3.05c.37,2-1.39,5-2,6.91a16,16,0,0,1-1,2.92c-.71,1.29-1.55,1-3,.93-2.45-.14-2.33-1-3.4-2.81s-2.68-.84-4.31-.52c-1.2-1.76-.88-4.17-2.87-5.48-1.71-1.11-4-.05-5.17,1.43s-.58,3.23-2.45,3.88c-1.46.51-1.58.31-2.39,1.74-.36.66-.78,1.89-1.65,1.72-.6-.11-1.52-1.49-2.23-1.81a6.78,6.78,0,0,0-2.93-.46,4,4,0,0,0-4,3.68c-.25,2.45,2.17,4.78,1.55,7a12.7,12.7,0,0,1-1.77,2.8c-.59.95-.9,2-1.56,2.9-2-.92-4.35-.15-6.36-.93C215,155.67,215.26,154.23,214.63,153Zm17.9,39.45a38.72,38.72,0,0,1,1.61-4c3.73,2.8,6.83,6.2,10.35,9.22a52.6,52.6,0,0,1,4.59,4.17c1.05,1.14,3.8,2.81,3,4.27-.38.74-1.77.87-1.3,2,.39.93,1.22.72,1.9.53,1.91-.56,2.84-2.29,5.07-1.08,4.83,2.64-4.64,7.53-6.65,8.84-.85-.15-2.36-.18-3-.79s-.92-2-1.53-2.83c-1.73-2.28-3.51-4.47-5.06-6.9-1.44-2.26-2.55-4.77-4.23-6.87S234.1,194.69,232.53,192.44Zm4.55,40.69c.56-1.79,2.91-2.68,4.39-3.48,2-1,3.72-2.53,5.8-3.35,2.52-1,3.7.62,5.48,2.32A32.16,32.16,0,0,0,258,233c4.24,2.62,8.82,3.79,13.52,5.24a48.72,48.72,0,0,1,6.76,2.72c1.88.92,4.27,1.8,5.61,3.47-3.72,1.19-7.64-.08-11.44-.31-4.31-.25-8.4-.69-12.68-1.3-2-.3-4.09-.5-6.15-.73-2.23-.25-4.88-.13-7-.81-1.75-.55-3.2-2.17-4.63-3.27A39.83,39.83,0,0,1,237.09,233.13ZM242,120c-.67.33-.54.35-.83,0,.09-.3.33-.39.74-.28A.9.9,0,0,1,242,120Zm2.21-.29c1.87-.71,2.51-.64,3.39.34C246.39,120.72,245.32,120.11,244.22,119.74Z" transform="translate(-0.25 -0.25)"/><path class="cls-3" d="M199.4,172c-2.37,3.77,8.5,6,10.51,6.6,2.7.84,5.35,1.2,8.08,1.81,2.48.58,5.23,1.62,7.79,1.55-1-1.68-4.66-2.47-6.41-3.16a71.33,71.33,0,0,1-7.37-3.43c-2.17-1.15-4.87-1.52-6.85-2.88-1-.71-1.64-1.87-2.9-1.93A3.91,3.91,0,0,0,199.4,172Z" transform="translate(-0.25 -0.25)"/><path class="cls-4" d="M209,238.27a7.56,7.56,0,0,0-3.67-.43,51.56,51.56,0,0,0,5.17,8.61c1.92,2.9,3.45,6.09,5.29,9.06a94.44,94.44,0,0,0,6.33,9.08c1.71,2.14,3.26,4.39,5.06,6.45a25.61,25.61,0,0,0,1.88,2c1.13,1.06,1.91,2.28,3,3.42a29.51,29.51,0,0,0,3.79,3c1.33,1,2.83,1.8,4.14,2.79s2.33,2.51,3.69,3.55a85.75,85.75,0,0,0,8.6,6.46c2.9,1.75,5.6,3.85,8.54,5.53,11.33,6.48,22.65,12.91,34.79,17.81a151.35,151.35,0,0,0,38.62,10.13c6.68.77,13.57,1.92,20.3,1.9s13.46.06,20.18-.25A167.66,167.66,0,0,0,395.13,325a82.49,82.49,0,0,0,11-2.83c2.72-.86,5.61-1.09,8.34-2,3.34-1.11,6.36-2.93,9.57-4.37,1.26-.56,2.55-1,3.86-1.47a14.1,14.1,0,0,0,2.94-1.75c1.61-1,3.61-1.5,5.27-2.49,1.22-.73,2.42-1.51,3.63-2.29,2.76-1.79,5.55-3.61,8.2-5.56s5.24-3.69,7.65-5.69c2.07-1.72,4.43-3.11,6.43-4.91,2.23-2,4.3-4.55,6.38-6.77s3.91-4.29,5.65-6.54c7.47-9.63,14.46-19.47,19.89-30.41,2.81-5.63,5.59-11.29,7.87-17.19.65-1.68,1.24-3.41,1.75-5.15a11.35,11.35,0,0,1,1.2-3.5,15,15,0,0,0,1.82-2.42,21.87,21.87,0,0,0,1.62-4.69c-1.16-.8-5.8,2.84-6.87,3.4-2.42,1.27-5,2.24-7.55,3.29a65.45,65.45,0,0,0-6.27,3.06c-1,.56-1.85.38-2.87.69s-2.12,1.18-3.16,1.62a138,138,0,0,1-33.14,8.65c-5,.72-9.87,1.45-14.8,2.48s-10,2.47-15,2.56c-1.67,0-3.36.16-5,.33-3.13.34-6.26.85-9.32,1.33-5.14.79-10.27,1.38-15.4,2.43-20.25,4.18-40.95,2.87-61.45,3.5-10.61.32-21.2,1.34-31.83,1.4-10,.05-20-.9-30-1.56-5.23-.35-10.39-1.46-15.58-2.21-5.34-.77-10.67-1.63-16-2.56-4.78-.83-9.43-2-14.26-2.66a61.6,61.6,0,0,1-7.62-1.54C211.1,239,210.07,238.59,209,238.27Z" transform="translate(-0.25 -0.25)"/><path class="cls-5" d="M206.6,235.29c.44.55,1.56.66,2.52.71.44,0,.83,0,1.11.05,1.48.21,2.93.51,4.39.8,2.94.59,5.88,1.05,8.83,1.53,1.73.28,3.45.56,5.17.79l.52-3.82a4.58,4.58,0,0,1-.69-.15,15.74,15.74,0,0,1-5.95-4.5c-1.63-1.91-1.48-3.71-1.28-6-2.32.15-5.35,3.46-7.25,4.81-1.3.92-2.51,2-3.77,2.93S207.52,234.1,206.6,235.29Z" transform="translate(-0.25 -0.25)"/><path class="cls-6" d="M209.06,169.52c-.1,1.24,1.83,2.25,2.9,3a28.42,28.42,0,0,0,8.88,4.15c2.17.65,7.08,2.3,8.33-.48.69-1.55-.65-2.38-1.6-3.52-1.17-1.4-1.95-3.08-3-4.58,2.41-2.82,3.81-.09,5.6,1.9a13.11,13.11,0,0,0,6.8,3.78c.87.18,3.64.35,4.29-.37s-.75-2.07-1.24-2.78-1.63-2-.9-2.82,1.56.05,2,.7c1.39,1.94,2,4.47,4.52,2.5,2.12-1.65,3.31-3,6.12-3.31,1-.12,1.93,0,2.48-.92s.28-2.72.31-3.78.35-2.55,0-3.52-2-1.75-3-2.35a2.77,2.77,0,0,1-.1-1.57c1.81-1.29,1.86,1.17,3.21,1.25,1,.06,1.56-2.61,1.9-3.43.88-2.18,3.53-7.1.09-8.07-1.55-.44-3.28-.12-4.71-1-.63-.37-.88-.88-1.6-1.14a14.91,14.91,0,0,0-1.92-.24c-3.24-.74-2.84-4.49-4.71-6.55-1.78.93-1.1,3.32-2.24,4.62-.55.64-1.36.54-2.05.94a7.44,7.44,0,0,0-1.79,1.81c-1,1.13-2.31,3.42-4.06,2.81-1.24-.45-1.66-2.19-2.72-3-3.16-2.36-4.54,2.1-3.34,4.49.54,1.1,2.6,2.63,2.54,3.87-.06,1.08-2.18,2.94-2.82,3.87-.92,1.33-1.79,3.19-3.37,3.72a8.06,8.06,0,0,1-4.72-.19,7.38,7.38,0,0,0-5.44.72c-1.32.83-1.7,2.86-2.3,4.25S209.18,168,209.06,169.52Z" transform="translate(-0.25 -0.25)"/><path class="cls-7" d="M215.62,147.81c-.69,1.92-2,3.22-1,5.19.63,1.23.36,2.67,1.76,3.2,2,.77,4.31,0,6.36.93.66-.9,1-2,1.56-2.9a12.7,12.7,0,0,0,1.77-2.8c.62-2.22-1.79-4.56-1.55-7a4,4,0,0,1,4-3.68,6.78,6.78,0,0,1,2.93.46c.71.31,1.63,1.69,2.23,1.81.87.17,1.29-1.06,1.65-1.72.81-1.43.93-1.23,2.39-1.74,1.86-.66,1.35-2.49,2.45-3.88s3.46-2.54,5.17-1.43c2,1.31,1.67,3.72,2.87,5.48,1.64-.32,3.25-1.31,4.31.52s.94,2.68,3.4,2.81c1.4.08,2.25.36,3-.93a16,16,0,0,0,1-2.92c.6-1.86,2.37-4.94,2-6.91a4.52,4.52,0,0,0-3.51-3.05c-1.59-.23-3,.45-4.27-.84s-1.75-3.37-3.15-4.62-3.32-1.46-5.1-1.74a11.93,11.93,0,0,0-6,.71c-1.6.64-3.11,1.95-4.85,2.23-4.12.65-8.28-1-12.06,1.2-2.16,1.24-5.78,3.55-6.17,6.27-.25,1.7.35,3.54-.24,5.21s-2.4,2.83-2.39,4.57C214.09,144.34,216.46,145.56,215.62,147.81Z" transform="translate(-0.25 -0.25)"/><path d="M456.16,332c1,0,2.43-.24,3.26.44C458.41,332.84,456.73,333.25,456.16,332Zm0,0-1.35.28c0-.08,0-.18,0-.26ZM227.21,271l-1.55,1.06c1.43,1.47,2.66,3.13,4.1,4.6,1.64,1.66,3.66,2.84,5.28,4.47,3.13,3.17,6.31,6.27,9.63,9.24,3.15,2.81,6.93,4.77,10.32,7.26a173.31,173.31,0,0,0,23.4,14.45c4.27,2.22,8.6,4.28,12.93,6.35a48.82,48.82,0,0,0,5.92,2.35c1.86.63,2.74,2,4.45,2.74,4,1.74,8.83,2.66,13.05,3.51,4.87,1,9.85,1.2,14.74,2.21,2.07.44,4,1.2,6,1.72a36.67,36.67,0,0,0,7.1.6c4.79.24,9.6.44,14.4.5,5.06,0,10.05,0,15.1-.29l6.92-.41c2.54-.16,5.34-.74,7.88-.58,5.09.3,10-1.84,14.81-3.24s10-2.93,14.83-4.68a160,160,0,0,0,14.84-6.42c4.54-2.19,8.62-6.07,13.35-7.71,1.27,1.77,1,4.59.82,6.65-.24,3.19-1.62,2.93-4.51,3.35-4.24.63-8.71,1.18-11.29,5.09-1.16,1.76-2.17,3.85-1.61,6,.74,2.83,3,2.3,5.3,2.81a101.16,101.16,0,0,0,15.38,1.6c5.5.29,10.95.83,16.45,1,2.44.11,5.33.6,7.74,0,2.25-.53,3.34-1.81,4.63-3.44.6-.78,1.22-1.1,1.61-2.08a13.84,13.84,0,0,0,.74-3.53,23.6,23.6,0,0,1,.25-3.7c.33-1.29,1.1-2.43,1.39-3.73.53-2.51-.38-5.38-.66-7.87a55.51,55.51,0,0,1,.07-8.15c.18-6.09,1.24-12.16,1.67-18.25.2-3,.47-6,.87-8.91.37-2.72.45-6.4,2.28-8.57,1.7,3.28,1.45,7.81,1.69,11.4l.15,2.38,1.91-.11c-.1-2.69-.13-5.31-.42-8s-.11-6.5-1.36-9c2.34-3.88,4.77-7.76,7.2-11.6,2.55-4,4.35-8.34,6.69-12.48,2.16-3.84,4.06-7.52,5.85-11.56a119,119,0,0,0,4.8-13.48c.78-2.55,3.7-7.21.21-8.8-1.92-.87-4.55-1-6.61-1.67-2.3-.71-4.55-1.48-6.87-2.09a136.35,136.35,0,0,0-14.36-3.38,50.39,50.39,0,0,1-7-1.41c-1.31-.39-4.06-.71-5.07-1.53a139.25,139.25,0,0,1-3.3-17c-.35-2.95-1.06-5.83-1.42-8.78-.19-1.48-.12-2.95-.26-4.42-.16-1.69-1.05-3.15-1.47-4.77-.22-.83-.2-3.33-1.81-2.72a1.42,1.42,0,0,0-.81,1.32,3.8,3.8,0,0,0,0,1c.23,1.26.81,2.32,1,3.65.23,1.67.65,3.23.79,4.92.53,6.49,1.83,12.84,2.47,19.3.13,1.36,0,2.68,0,4s.59,2.17-.87,2.64c-1.1.36-3.19-.42-4.28-.63-1.66-.32-2.75-.21-3-2.13-.32-2.83.11-6,.18-8.81.08-3.15.09-6.3.15-9.44.11-4.9.75-9.73.94-14.62q.09-1.83.06-3.65c0-1.45-.68-5.51.67-6.45.61-.43,2,.15,2.62.17,1.83,0,3.41-1,5.1-1.47,6.61-2,13.89-2.23,20.68-3.43a88.06,88.06,0,0,0,20.42-6.31,49.83,49.83,0,0,1,3.85,10.32,101.74,101.74,0,0,1,2.23,10.87c.65,3.67,1.16,7.39,1.58,11.11l1.69-.19a226.55,226.55,0,0,0-3.46-22.47,121.65,121.65,0,0,1-2.36-13.1c-.43-4,0-7.92-.75-11.83a12.82,12.82,0,0,0-.43-2.28c-.32-.75-.94-1.18-1.32-1.89-.88-1.66-1.06-4.13-1.49-5.94-.91-4-2.12-7.77-3.3-11.66A112.79,112.79,0,0,0,502.17,90a90.81,90.81,0,0,0-5.57-11.21c-2.09-3.5-3.93-7.18-5.82-10.82S487.39,60.6,485,57.39A43.62,43.62,0,0,0,476.1,49c-3.1-2.29-6.5-3.69-9.58-6s-6.34-5-9.36-7.68c-1.33-1.19-2.67-2-3.13-3.84a49.57,49.57,0,0,0-1.29-5.57,11.45,11.45,0,0,0-2.76-4.6,21.81,21.81,0,0,1-4.06-4A44.67,44.67,0,0,0,438,8.39a12.75,12.75,0,0,0-4.34-2.2c-1.9-.58-3.88-.27-5.71-1.21-1.47-.76-2.66-2-4.19-2.69A21.1,21.1,0,0,0,418.26.39,7.68,7.68,0,0,0,409.43,5c-1.71-.14-3.59-.59-5.23,0A21.61,21.61,0,0,0,399,8a32.22,32.22,0,0,0-6.27,7,44.6,44.6,0,0,0-4.77,7.77c-1.11,2.39-4.1,5.77-1.1,7.8,1.14.78,2.22,1.23,3,2.46.92,1.43,1.21,3.24,2,4.75,1.48,2.74,5.16,4.94,8.18,5.37A8.14,8.14,0,0,1,403.94,45a44.47,44.47,0,0,1,4,3.38c2.16,2,4.25,5.78,7.44,6.12,2,.21,3.42-.16,5.34.77s3.88,2.12,5.84,3.1a7.28,7.28,0,0,0,5.31.69c1.78-.61,3.39-3.46,5.19-3.59a90.53,90.53,0,0,1,7.11,8.23c1.88,2.66,1.3,6.64,1.11,9.78-.42,7.18-1.57,14.06-5.56,20.2-.87,1.33-2,2.35-2.94,3.57-.77,1-1.25,2.1-2.09,3-2.38,2.61-4.59,4.46-6.26,7.66a15.23,15.23,0,0,1-2.16,3.62,21.87,21.87,0,0,0-2.74,3.57,21.21,21.21,0,0,0-2.16,4.51c-.75,2.3.05,2.37.85,4.26-2.1,3.72-4,7.59-6.31,11.17s-5,7-7.44,10.52-4.31,6.13-3.35,10.69c.31,1.49,1.51,3.83,1.38,5.24-.07.81-.69,1.51-.86,2.32a9.29,9.29,0,0,0,0,3c.2,1.92.35,3.58,1.61,5.12a16.82,16.82,0,0,0,4.5,3.67c3.2,1.83,9.11,2.26,12.66,1.3,7.28-2,10.79-10.32,14.25-16.28A103.9,103.9,0,0,1,446.23,149c1.61-2.09,1.72-2.8,4.41-2.83a7.27,7.27,0,0,0,3.38-.48c1-.46,1.85-1.17,2.83-1.63,1.71,3.52.87,8.33.89,12.14,0,4.17.32,8.34.32,12.51s-.46,8.43-.8,12.67c-.15,2-.1,3.89-.42,5.87-.21,1.28-.23,4.67-1.32,5.58s-4.3-.1-5.63-.14c-2.21-.07-4.4-.15-6.61-.33-4-.3-8-.59-12-1-4.38-.4-8.75-.28-13.13-.54s-8.49-.57-12.74-.74-8.45.28-12.68.41a31,31,0,0,1-5.44-.33c-2-.3-2.7-1-3.49-2.86-.62-1.51-1-3.11-2.11-4.27a13.66,13.66,0,0,1-2.62-4.54c-1.65-3.9-2.55-8-4.25-11.91-.73-1.68-1-3.48-1.8-5.15-.85-1.84-2-3.53-2.93-5.33-2-3.82-3.88-7-7.35-9.73-1.16-.91-3.21-1.68-4.1-2.79-1-1.3.57-2.55.85-4,.76-4.09-.44-8.49-.74-12.59-.14-1.93,0-3.91-.3-5.82-.31-2.15-.95-4.5-.72-6.68.18-1.75.83-3.44.93-5.21a16.55,16.55,0,0,0-.9-5.94,24.65,24.65,0,0,0-2.22-5.25c-1-1.64-2.72-2.63-4.19-3.8-2.92-2.33-3.49-5.77-6-8.44s-6.73-4.69-10.16-6-5.72-4.6-9.22-6-7.15-.54-10.3,1.56c-1.51,1-2.6,2.28-4.46,2.68s-4,.38-5.79,1.26a9.48,9.48,0,0,0-3.73,3.51c-.84,1.6-1,2.58-2.69,3.55-2.56,1.51-6.2,3.55-6.25,6.87-.08,4.2,1.41,8.49.72,12.72-.61,3.73-3.73,5.94-2.87,10.07s3,7.27,3.3,11.42c.11,1.75-.21,3.49,0,5.24a24.47,24.47,0,0,0,2,6.12c.73,1.9,1.41,2.71-.58,3.57a31.25,31.25,0,0,0-5.17,3c-3.41,2.27-5.24,4.89-7.51,8.22a81.27,81.27,0,0,0-6.1,10.12,2.4,2.4,0,0,1-.14.26L278,165a26.93,26.93,0,0,1,1.74-2.84c2.48-3.44,4-7.45,7-10.58,3.24-3.39,7-5.29,11.35-6.79,1.86,1.29,1.85,5.44,1.81,7.43-.05,2.86,0,5.92.27,8.81.19,2.58,1.77,3.52,3.83,4.86,1.38.89,6.28,4.38,7.66,2.36.56-.82.54-2.38.92-3.3a8.38,8.38,0,0,0,.43-3.27c.11-1.48.58-1.47,2-1.36s3,.36,4.45.53a52.51,52.51,0,0,0,19.21-1.06c1.35-.35,2.64-.9,4-1.25,1.52-.39,2-.41,2.57,1,.78,1.84.85,5.6,3.81,5.22,2.62-.33,2.8-3.16,4-4.84,1.5-2.08,4.25-1.83,4.84-4.79.55-2.73-1.6-5.74-.87-8.51.69-2.58,5.27,1.71,6.3,2.67a21.41,21.41,0,0,1,4.28,6.08c1.49,2.75,3.26,5.32,4.32,8.29,2,5.52,3.32,11.32,5.76,16.65,1.14,2.5,2.68,4.64,2.94,7.44.32,3.28-3.46,3.62-5.49,5.51,1.09,1.27,1.44,1.32,2.91.54.64-.34,1.46-1.09,2.21-1.09,1.1,0,1.32.73,2.11,1.41,1.72,1.49,5.55,6.35,3.12,8.45-1,.91-3.17.93-2.46,2.67.33.82,1.6,1.07,1.39,2.12-.15.73-1,1.18-1.63,1.5-1.66.82-2.9.39-4.62-.05a37,37,0,0,0-6.54-1c-1.8-.13-3.59-.24-5.38-.34l-.09,1.58c1.15.08,2.33.31,3.11.41,2.91.36,5.56.19,8.32,1.42a28.76,28.76,0,0,1-2.7,5.78,23.79,23.79,0,0,1-4.11,5.38c-1.72,1.71-2.93,2.39-5.29,2.45l.05,1.71a38.08,38.08,0,0,1,5,.18c3.94.24,8,0,11.91.15a8.87,8.87,0,0,1,4.28.92c1.47.74,2.95.49,4.17,1.77,2.16,2.21,2.68,4.54,5.93,5.59,2.9.92,7.65,1.49,10-1,1.32-1.42,2.28-3.54,3.32-5.17a3.84,3.84,0,0,1,3.7-2.22c7.67-.59,15-2.26,22.61-3.29a40.91,40.91,0,0,1,5.19,0c2,0,4-.22,6-.35,3.95-.26,7.74-1.16,11.65-1.49,1.77-.15,3.57-.34,5.34-.52,1.07-.1,2.81-.85,1.08-1.66-1.15-.55-3.64-.06-4.85,0-2,.11-3.95.28-5.92.52a37.21,37.21,0,0,1-5.51.61,12.56,12.56,0,0,1-3.09-.3c-.68-.21-1.15-.73-1.83-.92-1.5-.42-3.47-.06-5,.07-2.2.17-4.41.32-6.59.55-7.3.75-14.69.91-21.81,2.81-1.55.42-3.85.93-4.78,2.39s-.72,3-1.71,4.36a11.29,11.29,0,0,1-4.21,3.5c-1.82.76-2.89-.51-4.21-1.7s-2.31-3.11-3.9-4a46.73,46.73,0,0,0-5.72-2.47c-4.16-1.52-8.31-.36-12.55-.87-.14-2,2.56-4.55,3.49-6.21,1.25-2.26,1.66-4.57,4.32-5.33,2.06-.59,5.25-.83,6.76-2.51,1.68-1.87-.33-3.28-1.34-4.78A5.48,5.48,0,0,0,389,200.6c0-2-1.4-3.38-2-5.24-.77-2.51.59-1.1,2.34-1.28,2.22-.22,4.44-.27,6.68-.48a177.4,177.4,0,0,1,27.87-.22c4.63.29,9.2.7,13.8,1.34s9.12.52,13.65,1c4.77.54,9.43,1.68,14.15,2.37,4.54.65,9,.71,13.57,1.69,5,1.06,9.95,2.07,14.87,3.58,4.64,1.45,9.84,2,14.14,4.41-.6,1.38-3.21,2.54-4.46,3.31-1.82,1.14-3.74,2-5.47,3.29-3.33,2.45-7.26,3.79-10.91,5.69-8,4.16-16.78,6.61-25.26,9.46a128.52,128.52,0,0,1-12.74,3.41,64.27,64.27,0,0,1-6.66,1c-2.1.24-3.74,1.11-5.78,1.62a188.22,188.22,0,0,1-23.55,4l.15,1.54c1.69-.18,3.38-.3,5-.33,5-.1,10.15-1.52,15-2.56s9.81-1.76,14.8-2.48a138,138,0,0,0,33.14-8.65c1-.44,2.13-1.29,3.16-1.62s1.86-.13,2.87-.69a65.45,65.45,0,0,1,6.27-3.06c2.52-1.06,5.13-2,7.55-3.29,1.07-.56,5.72-4.2,6.87-3.4a21.87,21.87,0,0,1-1.62,4.69,15,15,0,0,1-1.82,2.42,11.35,11.35,0,0,0-1.2,3.5c-.51,1.74-1.09,3.47-1.75,5.15-2.28,5.9-5.06,11.56-7.87,17.19-5.43,10.94-12.42,20.78-19.89,30.41-1.74,2.25-3.7,4.47-5.65,6.54s-4.15,4.75-6.38,6.77c-2,1.8-4.36,3.19-6.43,4.91-2.42,2-5.12,3.83-7.65,5.69s-5.44,3.77-8.2,5.56c-1.21.78-2.4,1.56-3.63,2.29-1.66,1-3.66,1.47-5.27,2.49a14.1,14.1,0,0,1-2.94,1.75c-1.31.46-2.59.91-3.86,1.47-3.21,1.45-6.23,3.27-9.57,4.37-2.73.9-5.62,1.13-8.34,2a82.49,82.49,0,0,1-11,2.83,167.66,167.66,0,0,1-20.45,2.28c-6.72.31-13.45.24-20.18.25s-13.62-1.13-20.3-1.9a151.35,151.35,0,0,1-38.62-10.13c-12.14-4.9-23.46-11.32-34.79-17.81-2.94-1.68-5.64-3.77-8.54-5.53a85.75,85.75,0,0,1-8.6-6.46c-1.36-1-2.34-2.52-3.69-3.55s-2.81-1.78-4.14-2.79a29.51,29.51,0,0,1-3.79-3c-1-1.14-1.82-2.36-3-3.42A25.61,25.61,0,0,1,227.21,271ZM294.7,120.15c-1.81-3.28-.75-7.23.31-10.61a16.89,16.89,0,0,0,1.09-5.25c-.11-1.53-.53-3.2-.7-4.79-.19-1.88-.72-3.81-.77-5.7s1.14-2.67,2.4-3.81a13.64,13.64,0,0,1,3.81-2.45c1.56-.72,1.86-1.61,2.47-3.14,1.5-3.81,4.41-3.45,7.74-4.23s5.53-3.5,8.75-4.52a8.85,8.85,0,0,1,8,1.36c2.63,1.81,4.67,3.93,7.67,5.07,3.24,1.25,7.21,3,9.32,5.89,1,1.37,1.5,3,2.37,4.48a17.31,17.31,0,0,0,3.69,3.77,16.56,16.56,0,0,1,5.54,9.29c.83,4-.81,7.91-.56,12,.12,1.86.73,3.54.76,5.42,0,2.15.17,4.27.36,6.41.34,3.61,1.5,8-.05,11.41-.69,1.52-1.67,2.72-1.78,4.46a34,34,0,0,0,.35,6.26c.16,1.23.77,2.73.14,3.93s-2.36,1.61-3.35,2.5c-1.19,1.07-1.26,2.59-2.29,3.69-1.73,1.86-2.3-.63-2.53-2.09a7.45,7.45,0,0,0-1.47-3.82c-1.17-1.5-3.05-2.83-3.75-4.68s-.13-3.89.08-5.67a11.36,11.36,0,0,0-.74-5.64c-1.43-3.56-3.33-7.28-3.24-11.23a9.34,9.34,0,0,1,1.44-4.29,37.15,37.15,0,0,0,1.69-5,14.21,14.21,0,0,1,2.39-4.61c1-1.15,2.45-1.05,3.5-2.07,2.28-2.22.76-5.74-1.24-7.59-1.19-1.09-2.43-.27-3.79-.82s-1.57-2.1-1.65-3.56.06-2.78-.67-4c-.9-1.55-2.65-2.21-4.09-3.11a11.25,11.25,0,0,1-3.57-3.21c-.89-1.39-.94-3.1-2.49-4-1.66.2-2.55,1.21-3.83,2.08-1.75,1.19-3.3.61-5.27.36-3.63-.46-6.37.9-8.67,3.63-1.21,1.42-2.39,2.84-3.58,4.26-1.07,1.26-2.92,2.71-3.17,4.43-.22,1.49.59,3,.41,4.52-.21,1.68-1.64,2-2.95,2.75a5,5,0,0,0-1.2,7.53c1.07,1.13,2.61,1.6,3.66,2.81a11.19,11.19,0,0,1,2,4.18,23.69,23.69,0,0,0,2.14,4.85c.88,1.52,2.48,3,3.08,4.65s-.51,2.82-1.15,4.33a24.44,24.44,0,0,0-1.87,5.23c-.56,3.53,1.66,7,1.08,10.54a18.32,18.32,0,0,1-1.28,4.67c-1,2.11-.5,2.52.74,4.26.59.86,1.08,3.3-.19,4.07-.81.51-3.44-1.72-4.14-2.29-2.94-2.44-2.15-6.87-2.16-10.18,0-3.89-2.14-7.64-3.56-11.16s-1.53-7.44-1.76-11.26c-.11-1.8.06-3.66-.56-5.39S295.62,121.8,294.7,120.15Zm8.81-8.72c-.13-1.8,2.55-2.47,3.57-3.44,1.54-1.48.74-3.2.69-5.08a5.25,5.25,0,0,1,1.66-4.1c1.27-1.3,2.8-2.26,4.16-3.44,1.91-1.67,2.39-2.19,5-2a19.8,19.8,0,0,0,6-.46c2.07-.49,3.09-1.84,4.62-3.16,1.48,1.51,2.58,3.26,4.32,4.52,1.29.91,2.81,1.25,3.62,2.71,1.77,3.24-.15,7.44,4.21,9,1.23.45,3.84,1,4.29,2.59.55,1.87-2.65,3.33-3.62,4.52a16.58,16.58,0,0,0-2.63,5.1c-.69,2-1.51,3.92-2.24,5.9-1.32,3.56-3.27,8.11-6.54,10.4-4.1,2.87-7.15.46-11.23-.83a12.63,12.63,0,0,1-7.78-7.15c-.85-1.92-1.69-3.83-2.45-5.78s-.85-3.92-1.38-5.93C306.34,114.22,303.65,113.37,303.51,111.43Zm8.64,34.11a6.7,6.7,0,0,1,.55-4.21c.72-1.25,1.83-2.27,2.58-3.53s.85-1.38,2.33-.92c2.89.9,6.22,2.54,9.32,2.2,3.39-.35,5-3.79,7.81-5.17,1.16.85,1.83,2.74,2.33,4.05.56,1.48,1.68,3.21,2,4.72.74,3.14-2.85,4.49-4.95,5.86-5.28,3.45-13.92,3.8-19.38.56C313,148.06,312.45,147.62,312.15,145.54Zm2,12.38c-2.26-1-2.52-4.05-.93-5.84,4.44.31,8.29,1.73,12.84,1,2.13-.37,4.31-.59,6.42-1.05s3.8-1.47,5.79-1.86c0,2.6,2.89,3.82,4,5.92-2.38,2-5.52,2.19-8.47,2.52a55.86,55.86,0,0,1-10.17.5C320.67,158.87,316.81,159.1,314.12,157.91Zm74.64-131.6c-.41-2.35,1.2-4.21,2.38-6,1.45-2.19,2.77-4.46,4.29-6.62a20,20,0,0,1,6.43-5.53,10.52,10.52,0,0,1,4-1.69c1.52-.15,2.79.63,4.27.68,2.34.07.93-2,2.15-3.37,1.39-1.62,4.37-1.86,6.29-1.17,2.36.83,4.24,2.84,6.49,3.91,2.46,1.18,5.43,1.19,8,2,5.06,1.59,7.18,5,10.11,9,3.21,4.42,8.56,7.43,8.39,13.63-.08,2.71-1.91,3.38-4.38,3.52-1.35.07-2.71-.19-4,.39s-2.27,1-3.54,1.44-1.8.36-2.89-.66a38.09,38.09,0,0,0-3.54-3.3c-1.17-.88-1.82-1.28-1.82-2.85,0-1.37.63-2.68.28-4.09a16.94,16.94,0,0,0-1.35-2.75A3.55,3.55,0,0,0,428,20.67c-3.21-1.14-5.51,1.55-7.72,3.48-3.89-2.1-11.6-7.18-14.18-1-1.18,2.81-2,5-4,7.38a23.88,23.88,0,0,0-2,3,13.27,13.27,0,0,1-3.28,3.22c-2-1.41-3.15-3.71-4.22-5.8C391.71,29,389.17,28.58,388.76,26.31Zm19.87,131.47A7.65,7.65,0,0,1,407,153.7c-.16-3,2.39-5.51,4-7.83.2-.3.42-.61.63-.9,1.52-2,3.29-3.67,4.53-6,1.57-3,2.89-6,5-8.62a30.33,30.33,0,0,0,2.42-3c.77-1.22,1-1.47,2.35-.77s4.59,2.22,4.87,4c.16,1.07-.86,2.21-1.34,3.08-.78,1.42-1.45,2.89-2.16,4.33-1.48,3-2.71,6.1-5.14,8.45-.43-1.27-2.59-2.46-3.8-1.61a1.63,1.63,0,0,0-.72,1.12c-.17,1.1.71,2.48,1.31,3.26.19,3,1,3.92,3.81,2.19.65.43,1.54.54,1.72,1.49-1.87,1.71-2-.07-4,.21-2.68.38.11,1.82.6,2.49-1.16,1.69-3.08,2.36-4.58,3.78a16.16,16.16,0,0,0-2,2.53c-1.18,1.61-1.88.59-3.33-.47C411.1,159.87,409.47,159,408.64,157.78Zm7.43,16c-4.07-1.19-8.5-4.77-8.16-9.36a21.09,21.09,0,0,1,2.16-.73c1-.12,2.11.65,3,1.06a27.42,27.42,0,0,0,5.28,2.24c1,.21,5,.57,5.59-.57,1-1.93-2.89-1.59-3.9-1.84-1.25-.31-3.09-1.42-2.6-2.9.58-1.71,3.8-3.06,5.17-3.86,4.13-2.41,7.4-4.44,10.3-8.31,1.44-1.94,2.86-3.9,4.3-5.84s2.16-3.4,4.73-2.3c1.7.72,3.52,1.89,3.3,3.91s-1.78,3.91-2.86,5.5a53.87,53.87,0,0,0-3.23,5.11c-1.06,2-2.69,3.29-3.93,5.12-2.22,3.29-3.19,7.52-5.92,10.55a12,12,0,0,1-5.6,3.42C421.38,175.53,418.26,174.48,416.07,173.82ZM402.83,41.56a10.22,10.22,0,0,1-.5-4.68c.33-4,3.24-7.08,5.72-10,2.81-3.34,6-1.62,9.53-.16,1.15.48,3.11,1.83,4.23.71s.38-3,2.35-3.48A5.48,5.48,0,0,1,429,25.85c1.28,1.74.16,2.77-.57,4.34-1.63,3.53,3.34,3.5,5,5.35,2.05,2.34,5,5.91,8.31,2.94,1.37-1.23,2.06-1.77,4-1.89,2.19-.15,4.2-.13,6.19-1.22a96.71,96.71,0,0,1,8.73,6.76,45.68,45.68,0,0,1,4.76,4.16c1.41,1.54.79,2.49-.49,4a46.21,46.21,0,0,1-4.22,3.79,39.22,39.22,0,0,1-4.33,3.86c-1.55,1.05-3.25,1.86-4.9,2.75-1.48.8-3,2.19-4.68,2.38C443.8,60,441.92,56.23,440,52.43c.4-.83,1.33-2.86-.52-2.81-1.3,0-1.61,2-2.26,2.86-1.5,1.88-4.59,4.78-7.1,4.73-4.05-.09-.65-3.92-1.93-6.12-.51-.87-1.67-1.14-2.17,0-.19.44.06,1.13,0,1.6a9.08,9.08,0,0,1-.61,2.43c-2.75-.53-4.71-2.71-7.59-2.93-1.29-.08-2.45.39-3.65-.24A13.7,13.7,0,0,1,411,48.8c-.77-.86-2.07-1.93-2.17-3.15-.12-1.51,1.81-2.48,1.74-3.8,0-1-.46-1-1.34-.68-1.44.44-1.88,2-2.45,3.17C405.46,43.61,403.52,43,402.83,41.56Zm5.88-18.19a1.57,1.57,0,0,1-.16-.14l.12-.08C408.79,23.21,408.81,23.28,408.71,23.37Zm15.73,96.78a8.74,8.74,0,0,1,.4-1.68c.07-.5-.17-.91,0-1.44.36-1,1.72-1.85,2.48-2.55,1.37.31,1.79,2.83,3.78,1.76,1.54-.82-.13-2.13-.72-3.14-1.81-3,.81-6.46,3-8.72a10.5,10.5,0,0,1,1.68-1.46c.65-.41,1.68-.52,2.11-1.18.3-.47.22-1.31.48-1.84a12.91,12.91,0,0,1,1.95-2.37,45.65,45.65,0,0,0,3.7-4.87c.73-1.12,2-4.06,3.36-4.27,1,2.64.81,6.32,1.25,9.12.55,3.47.79,6-.64,9.28-1.27,2.92-3,5.68-4.51,8.47s-2.2,4.49-2.06,7.63c.11,2.42-3,3.71-5,4.5-2.71,1-4.92-1.44-6.9-2.95a20.84,20.84,0,0,1-2.34-2.21C425.87,121.6,424.67,121,424.44,120.15Zm4.32,28.45c-1.2-2.13.35-4.94,1.15-6.94,1-2.37,1.69-5.23,3.29-7.22.74,1,2.45,2.5,2.76,3.69s-.84,2.69-1.58,3.69C432.88,143.9,431.21,147.61,428.76,148.6Zm9.56,175.63c.54-1.36,4.07-2.25,5.37-2.66a10.72,10.72,0,0,1,4.86-.62c3.68.39,7.17-1.29,10.86-1.08,4,.22,7.78,1.68,11.67,2.58,1.36.31,3.07-.15,4.31.28,1.54.55,1.25,2.72.95,4.07-6.55.41-13-1.09-19.46-1.74a82.27,82.27,0,0,0-9.77-.52C444.23,324.59,441.15,324.85,438.32,324.23Zm-1.49-189.92c-.9-1.42.22-4,2-4.42,1.46-.31,4.62,3.24,5.64,1.79s-3-2.92-3.41-4.3c1-.91,1.72-1.42,1.89-2.88s-.35-2.85.08-4.24c.37-1.17,1.39-2.12,2-3.19.75-1.4,1.7-2.61,2.56-3.93a135.52,135.52,0,0,0,9.17-17.62c1.43-3.13,2.43-6.52,3.65-9.75A50,50,0,0,0,462,80.93c.26-1,.54-4.33-1.43-2.53-.81.73-1.69,2.83-2.18,3.81-.77,1.53-1.32,3.16-2,4.76-1.27,3.23-2.63,6.92-4.92,9.58-1.34-1-.83-5.22-.89-6.6-.1-2.29-.66-4.52-.55-6.79a80,80,0,0,1,.38-8.19c.37-2.41,2.34-3.59,4.32-4.66,8.19-4.44,15.09-11.94,20.57-19.4a31.24,31.24,0,0,1,8.85,8.21C487,63.06,488.66,67.75,491,72c4.79,8.72,9.62,17.28,13.13,26.64a130.64,130.64,0,0,1,7.16,28.1c.3,2.19-.53,3.46-1.09,5.47-.66,2.31-1.43,2.77-3.7,3.78-1.91.85-3.82.7-5.84,1.18-2.34.58-4.61,1.29-7,1.82-5.26,1.19-10.42,2.53-15.79,3.3-1.38.2-2.71,0-4.07.1a26.35,26.35,0,0,0-3.67.91c-2.42.64-5.32,1.94-7.83,1.75-.13-2-.27-4.08-.39-6.12-.05-1-.26-1.94.36-2.81s2-1.22,2.74-1.94c1.08-1,1.12-2.21,1.6-3.5s1.78-2.43,2.64-3.65c1.08-1.53,2-3.15,3.15-4.62a95.58,95.58,0,0,0,6.17-8.1c1.82-2.9,2.6-6.49,3.61-9.73a100.43,100.43,0,0,0,3.18-10.64,73.77,73.77,0,0,0,.84-10.63c.07-1.7,1.88-8.52-.87-8.26a12.93,12.93,0,0,0-1.7,5.19,79,79,0,0,1-1,8.25c-.72,4.76-1.26,9.65-2.31,14.34s-3.05,8.34-5.54,12.39a38.49,38.49,0,0,1-3.38,4.85c-1.43,1.66-3.37,3-4.54,4.87-.93,1.51-1.28,3-2.68,4.2a8.74,8.74,0,0,0-2,1.87,15.45,15.45,0,0,1-1.33,2.51c-1.42,1.58-2.54,1.33-4.06.19-2.16-1.63-2.62-.08-1.46,1.79,1.88,3,1.82,7.19-2.57,8-3.87.76-7.61-3.12-10.6-5C440.57,137.62,437.85,135.93,436.84,134.31Zm11.27,172.55c-.45-1.86,6-5.19,7.32-6.11a38.66,38.66,0,0,0,7.08-6.45c1.91-2.19,4.14-4,6-6.2s3.82-4.44,5.73-6.66,3.65-5.35,6.35-6.48c.29,2.79-.29,5.68-.53,8.46s-.44,5.54-.69,8.32-.74,5.36-1.07,8.06c-.17,1.5-.29,3-.4,4.54-.11,1.37.07,3.45-.79,4.62-3.44.22-6.93-.31-10.37-.26s-6.92.13-10.38.1c-1.73,0-3.23-.65-4.94-.77C450.52,308,448.45,308.28,448.11,306.86Zm3.29,9.92a2.85,2.85,0,0,1-2.54-3.64c.37-1.82,1.8-2.09,3.41-2.48.73,1,1.28.75,2.27.45a8.83,8.83,0,0,1,2.87-.53c2.25,0,4.48-.12,6.73-.15,2.5,0,5,.06,7.5.18,2.09.12,4.58,0,6.44,1.1a22.74,22.74,0,0,1,.33,5.88c-.21,2-.82,1.9-2.68,1.78-3.73-.22-7.57-.52-11.28-1-2.28-.31-4.57-.61-6.85-.95C455.54,317.1,453.42,317.1,451.4,316.78Zm5.13,10.34c0-.21.15-.26.4-.18C456.94,327.23,456.8,327.28,456.53,327.12Zm5.46,5.5c.13-.27.27-.27.43,0C462.29,332.86,462.14,332.85,462,332.61ZM450.75,69.54c-1.36.38-2.25,1.08-2.18-.79.06-1.51.89-2.24,2-3,2.46-1.66,5.15-3.11,7.48-5A84,84,0,0,0,465,54.4a21.18,21.18,0,0,0,3.16-3.31c.61-1,.39-2.51,1.31-3.3,1,0,3.12.45,3.45,1.54s-1.3,2.86-1.87,3.68a35.4,35.4,0,0,1-5,5.74C461.53,63,456.93,67.84,450.75,69.54Zm25.42,260.34-.37-.36C476.39,329.16,476.6,329.32,476.18,329.88Z" transform="translate(-0.25 -0.25)"/><path class="cls-5" d="M229.13,235.36l-.52,3.82c1.13.16,2.26.3,3.4.41,1.39.13,6.34,1.53,7.39.38-.8-.93-1.81-1.6-2.71-2.45a10.26,10.26,0,0,0-2.55-2.33C232.44,234.39,230.86,235.56,229.13,235.36Z" transform="translate(-0.25 -0.25)"/><path class="cls-3" d="M234.14,188.42a38.72,38.72,0,0,0-1.61,4c1.56,2.25,3.05,4.39,4.75,6.52s2.79,4.62,4.23,6.87c1.55,2.43,3.33,4.62,5.06,6.9.62.8.82,2.2,1.53,2.83s2.18.64,3,.79c2-1.31,11.49-6.21,6.65-8.84-2.23-1.21-3.16.52-5.07,1.08-.68.19-1.51.4-1.9-.53-.47-1.12.92-1.25,1.3-2,.75-1.46-2-3.13-3-4.27a52.6,52.6,0,0,0-4.59-4.17C241,194.62,237.87,191.22,234.14,188.42Z" transform="translate(-0.25 -0.25)"/><path class="cls-6" d="M241.48,229.65c-1.48.8-3.83,1.69-4.39,3.48A39.83,39.83,0,0,0,242,238c1.42,1.1,2.88,2.72,4.63,3.27,2.14.68,4.8.57,7,.81,2.06.23,4.12.43,6.15.73,4.28.61,8.37,1,12.68,1.3,3.8.23,7.72,1.5,11.44.31-1.33-1.67-3.72-2.56-5.61-3.47a48.72,48.72,0,0,0-6.76-2.72c-4.7-1.44-9.28-2.62-13.52-5.24a32.16,32.16,0,0,1-5.27-4.36c-1.78-1.7-3-3.31-5.48-2.32C245.2,227.13,243.44,228.6,241.48,229.65Z" transform="translate(-0.25 -0.25)"/><path class="cls-5" d="M253.33,220.21c-.75,1.3-.38,2.74-1.28,4,1.05,1.81,3.34,3.06,4.92,4.39a24.58,24.58,0,0,0,5.15,3.43,128.42,128.42,0,0,0,13.46,5c1.11.37,2.23.74,3.36,1.1l.81-2.41c-.76-.24-1.17-.66-.82-1.37.49-1,3.12-.64,4-.69,1.35-.07,3,.09,4.22-.57-1.07-2.34-4.62-3.77-7-4.38a32,32,0,0,1-8.09-3.51c-2.53-1.43-5.4-2.13-7.79-3.79s-4.89-3.06-7.38-4.52A9.91,9.91,0,0,0,253.33,220.21Z" transform="translate(-0.25 -0.25)"/><path class="cls-8" d="M258.86,198.06c-.15,1.14.86,2.39,1.29,3.43.66,1.56,1.26,1.65,2.86,2.15,1.3.42,2.55.86,3.81,1.29a30.92,30.92,0,0,0,6.42,1.65c1.07.14,7.24,2.31,7.65,1.31.83-2-6.1-2.13-4.81-4.72,1.17-2.32,4.57,3,5.78.38a1.55,1.55,0,0,0,.15-.62c.06-1.19-1.17-2.11.16-3.31.76-.68,3.06-1,2.3-2.29-.42-.72-2.13-1-2.75-1.61s-1.2-1.65-.29-2.21,2.89.66,3.63.92c1.79.63,1.84.51,2.43-1.17a39,39,0,0,1,1.73-3.69c1.2-2.46,2.64-4.78,3.84-7.23.48-1,3.22-7.15,5-5.95,1.3.9-2,5.87-2.51,7.06-.6,1.36-1.74,3.08-1.49,4.61.16,1.08.56,2.33.78,3.42.53,2.52.88,3.25,3.43,3.07,5.49-.39,10.95-.7,16.43-1l2.82-.16c6.45-.39,12.92-1,19.38-1.25,3.09-.11,6.08-.81,9.18-.9,2.43-.07,5.4,0,7.48-1.47a29.66,29.66,0,0,0-2.6-9.68c-.61-1.43-.88-3-1.43-4.45s-1.46-2.78-2-4.26c2.21-1.6,2.63.33,3.52,2.24,1.12,2.4,2.22,4.79,3.12,7.27a57.73,57.73,0,0,0,2.88,6.39c.62,1.23.84,3.54,1.95,4.41,1.28,1,4,.45,5.42.39,1.23,0,4.86-.4,5.8.45,2.26,2-6.16,3-7.22,4-1.24,1.16-1.65,3.24-2.3,4.7a15.32,15.32,0,0,0-1.07,2.55,2.84,2.84,0,0,0,.35,2.2c.93,1.56,3.48,1.34,5.13,1.43l1.22.08c1.79.09,3.58.2,5.38.34a37,37,0,0,1,6.54,1c1.71.44,3,.88,4.62.05.62-.32,1.48-.77,1.63-1.5.21-1-1.06-1.3-1.39-2.12-.72-1.74,1.41-1.76,2.46-2.67,2.44-2.1-1.39-7-3.12-8.45-.79-.68-1-1.43-2.11-1.41-.75,0-1.57.75-2.21,1.09-1.47.78-1.82.74-2.91-.54,2-1.9,5.81-2.23,5.49-5.51-.26-2.8-1.8-4.94-2.94-7.44C375.31,175,374,169.17,372,163.64c-1.06-3-2.84-5.54-4.32-8.29a21.41,21.41,0,0,0-4.28-6.08c-1-1-5.61-5.25-6.3-2.67-.74,2.77,1.41,5.78.87,8.51-.59,3-3.34,2.71-4.84,4.79-1.22,1.68-1.4,4.51-4,4.84-3,.38-3-3.37-3.81-5.22-.6-1.45-1-1.43-2.57-1-1.35.35-2.64.9-4,1.25a52.51,52.51,0,0,1-19.21,1.06c-1.47-.17-3-.42-4.45-.53s-1.91-.13-2,1.36a8.38,8.38,0,0,1-.43,3.27c-.38.92-.37,2.48-.92,3.3-1.38,2-6.28-1.47-7.66-2.36-2.06-1.33-3.64-2.27-3.83-4.86-.22-2.89-.32-5.95-.27-8.81,0-2,.06-6.14-1.81-7.43-4.37,1.5-8.11,3.4-11.35,6.79-3,3.13-4.52,7.14-7,10.58A26.93,26.93,0,0,0,278,165c-1.6,2.95-2.82,6.1-4.83,8.8A33.17,33.17,0,0,0,267.64,185c.9.94,6.15,4.09,4,5.53-1.54,1-5.52-2.39-7-3.08-1.3.88-3.69,1.86-4.34,3.41s.38,2.34.86,3.58c.36.92,1.48,2.93,1.38,3.93C262.31,201,259.82,198.38,258.86,198.06Z" transform="translate(-0.25 -0.25)"/><path class="cls-6" d="M262.59,210.65c-.85,1.16-2.39,1.89-2.81,3.35,3.1,3.6,8.35,6,12.5,8.16a107.32,107.32,0,0,0,12.19,5.1,24.41,24.41,0,0,1,6,3.11c1.58,1.25,2.44,2.19,4.59,2.75,2.47.63,5,.21,7.54.13.7,0,2.09.13,3.41.13s2.44-.14,2.9-.72c-2.61-3.55-7.77-4.25-11.11-7s-6.91-5.37-10.36-8.12c-1.95-1.56-4-3.52-6.27-4.6-2-1-4.21-1.21-6.15-2.28a49.12,49.12,0,0,0-6-2.37c-.76-.3-1.84-.85-2.91-1.27a5.24,5.24,0,0,0-2.69-.45C262.79,208,263.59,209.28,262.59,210.65Z" transform="translate(-0.25 -0.25)"/><path d="M266.83,204.94l-.71,2.06c1.08.42,2.15,1,2.91,1.27a49.12,49.12,0,0,1,6,2.37c1.95,1.07,4.18,1.31,6.15,2.28,2.24,1.09,4.32,3,6.27,4.6,3.45,2.75,7,5.3,10.36,8.12s8.49,3.48,11.11,7c-.46.58-1.64.72-2.9.72v1.74c3.29,0,6.52.45,9.84.39s6.6-.39,9.77.1a16.28,16.28,0,0,0,9.06-.67c2.72-1.12,5.92-1.38,7.84-3.86-3.09-1-7.53,0-10.73.25-3.51.26-7,.57-10.51.63a42.72,42.72,0,0,1-9.58-1.05c-3.19-.71-4.74-3.17-7.16-5.1s-5.36-3-7.81-4.94c-2.7-2.09-5.44-4.13-8-6.39-1.16-1-2.17-2.2-3.31-3.23-1-.85-2-1.48-2.22-2.84a8,8,0,0,1,.68-3.92,6.48,6.48,0,0,0,.27-1.41l-2.12-.14a1.55,1.55,0,0,1-.15.62c-1.22,2.62-4.62-2.71-5.78-.38-1.29,2.59,5.64,2.71,4.81,4.72-.41,1-6.58-1.17-7.65-1.31A30.92,30.92,0,0,1,266.83,204.94Z" transform="translate(-0.25 -0.25)"/><path class="cls-5" d="M279.75,235.75l-.81,2.41a45,45,0,0,1,9.35,3.93c1.92,1.16,3.06,2.58,5.36,3.07a43.26,43.26,0,0,0,7.44.83c18.17.72,36.61,1,54.72-.81,4.51-.46,9-1.16,13.52-1.28s9.34-.38,14-.78c8.87-.79,17.73-2.08,26.57-3.14l3.39-.41a188.22,188.22,0,0,0,23.55-4c2-.52,3.68-1.38,5.78-1.62a64.27,64.27,0,0,0,6.66-1A128.52,128.52,0,0,0,462,229.53c8.48-2.85,17.28-5.3,25.26-9.46,3.65-1.9,7.59-3.24,10.91-5.69,1.73-1.28,3.65-2.15,5.47-3.29,1.25-.77,3.86-1.93,4.46-3.31-4.31-2.37-9.51-3-14.14-4.41-4.92-1.51-9.84-2.52-14.87-3.58-4.52-1-9-1-13.57-1.69-4.73-.68-9.38-1.83-14.15-2.37-4.53-.5-9.13-.39-13.65-1s-9.17-1.05-13.8-1.34a177.4,177.4,0,0,0-27.87.22c-2.24.21-4.46.25-6.68.48-1.74.18-3.1-1.23-2.34,1.28.56,1.86,2,3.29,2,5.24a5.48,5.48,0,0,1-1.69,4.26c1,1.5,3,2.9,1.34,4.78-1.51,1.68-4.7,1.93-6.76,2.51-2.66.76-3.07,3.07-4.32,5.33-.93,1.66-3.63,4.26-3.49,6.21,4.24.51,8.4-.65,12.55.87a46.73,46.73,0,0,1,5.72,2.47c1.59.87,2.55,2.75,3.9,4s2.39,2.46,4.21,1.7a11.29,11.29,0,0,0,4.21-3.5c1-1.36.87-3,1.71-4.36s3.23-2,4.78-2.39c7.12-1.9,14.51-2.06,21.81-2.81,2.18-.23,4.4-.39,6.59-.55,1.53-.12,3.49-.48,5-.07.68.19,1.15.71,1.83.92a12.56,12.56,0,0,0,3.09.3,37.21,37.21,0,0,0,5.51-.61c2-.25,4-.41,5.92-.52,1.21-.06,3.69-.55,4.85,0,1.72.8,0,1.56-1.08,1.66-1.77.18-3.57.36-5.34.52-3.9.33-7.7,1.23-11.65,1.49-2,.13-4,.33-6,.35a40.91,40.91,0,0,0-5.19,0c-7.59,1-14.94,2.7-22.61,3.29a3.84,3.84,0,0,0-3.7,2.22c-1,1.63-2,3.74-3.32,5.17-2.31,2.52-7.06,2-10,1-3.26-1.05-3.78-3.38-5.93-5.59-1.23-1.28-2.7-1-4.17-1.77a8.87,8.87,0,0,0-4.28-.92c-3.94-.12-8,.09-11.91-.15a38.08,38.08,0,0,0-5-.18c-.33,0-.69.06-1,.11-1.53.21-3.19.63-4.65-.14-1.08,1.55-3.12,1.36-4.78,1.34-2.21,0-4.41-.14-6.6-.36-4.32-.45-8.47-1.08-12.82-1.11-7.61,0-15,.33-22.47-1.54-.73-.18-3.82-.33-3.42-1.66s3.76-.57,4.55-.52c3.63.2,7.28.09,10.91.21,7.65.24,15.27.14,22.89,1,1.89.21,3,.54,4.42-.94a32.56,32.56,0,0,0,2.68-3.72,29.58,29.58,0,0,0,4.34-9.13,10,10,0,0,1-2.21-4.38,5.69,5.69,0,0,1,.08-1.76,17.51,17.51,0,0,0,.44-2.47,12.9,12.9,0,0,0-.71-4.94c-.78-2.11-2-1.72-4-1.81-7.52-.29-15.16.13-22.68.45-5.21.22-10.47.42-15.71.76-2.08.13-4.14.29-6.19.46-3.81.32-7.62.94-11.42,1.41-1.62.2-3.22.26-4.84.39-1.37.11-2.94.74-4.2-.09a17.2,17.2,0,0,1-3.88,3.12,19.42,19.42,0,0,0-.15,2.22,6.48,6.48,0,0,1-.27,1.41,8,8,0,0,0-.68,3.92c.25,1.37,1.26,2,2.22,2.84,1.14,1,2.15,2.2,3.31,3.23,2.56,2.26,5.3,4.29,8,6.39,2.45,1.92,5.42,3,7.81,4.94s4,4.39,7.16,5.1a42.72,42.72,0,0,0,9.58,1.05c3.52-.07,7-.37,10.51-.63,3.2-.24,7.64-1.3,10.73-.25-1.92,2.48-5.12,2.74-7.84,3.86a16.28,16.28,0,0,1-9.06.67c-3.17-.49-6.58-.15-9.77-.1s-6.56-.4-9.84-.39-6.56.47-9.89.79c-3.56.35-7.05-.15-10.59,0C284.91,235.92,281.45,236.29,279.75,235.75ZM400.65,231a2.76,2.76,0,0,1-2.71-3c.58-2.88,4.8-3.77,5.06-.4C402.79,229,402.61,230.92,400.65,231Zm2.67-23.16c-.61-2.86,2.94-5.67,4.22-2-.08,1.39,0,3.07-1.62,3.6A2,2,0,0,1,403.32,207.8Z" transform="translate(-0.25 -0.25)"/><path d="M281.44,193.53c-.9.55-.26,1.63.29,2.21s2.33.89,2.75,1.61c.76,1.33-1.54,1.6-2.3,2.29-1.33,1.2-.1,2.12-.16,3.31l2.12.14a19.42,19.42,0,0,1,.15-2.22,17.2,17.2,0,0,0,3.88-3.12c1.27.83,2.83.21,4.2.09,1.62-.13,3.22-.19,4.84-.39,3.8-.47,7.61-1.09,11.42-1.41,2-.17,4.11-.33,6.19-.46l-.12-2.05c-5.48.33-10.94.65-16.43,1-2.54.17-2.89-.55-3.43-3.07-.22-1.09-.62-2.34-.78-3.42-.25-1.53.89-3.25,1.49-4.61.52-1.19,3.81-6.17,2.51-7.06-1.77-1.2-4.52,5-5,5.95-1.2,2.45-2.64,4.77-3.84,7.23a39,39,0,0,0-1.73,3.69c-.58,1.68-.63,1.81-2.43,1.17C284.32,194.19,282.31,193,281.44,193.53Z" transform="translate(-0.25 -0.25)"/><path class="cls-9" d="M295,109.54c-1.06,3.38-2.12,7.33-.31,10.61.92,1.65,2.28,3.07,2.92,4.86s.45,3.59.56,5.39c.23,3.81.32,7.67,1.76,11.26s3.55,7.26,3.56,11.16c0,3.31-.78,7.74,2.16,10.18.7.58,3.33,2.8,4.14,2.29,1.26-.77.78-3.21.19-4.07-1.24-1.74-1.72-2.16-.74-4.26a18.32,18.32,0,0,0,1.28-4.67c.58-3.52-1.64-7-1.08-10.54a24.44,24.44,0,0,1,1.87-5.23c.64-1.5,1.74-2.66,1.15-4.33s-2.2-3.13-3.08-4.65a23.69,23.69,0,0,1-2.14-4.85,11.19,11.19,0,0,0-2-4.18c-1-1.2-2.59-1.67-3.66-2.81a5,5,0,0,1,1.2-7.53c1.31-.76,2.74-1.07,2.95-2.75.18-1.49-.63-3-.41-4.52.25-1.71,2.11-3.17,3.17-4.43,1.2-1.42,2.38-2.84,3.58-4.26,2.3-2.73,5-4.09,8.67-3.63,2,.25,3.52.83,5.27-.36,1.28-.87,2.17-1.88,3.83-2.08,1.55.88,1.6,2.59,2.49,4a11.25,11.25,0,0,0,3.57,3.21c1.44.9,3.19,1.57,4.09,3.11.73,1.24.59,2.63.67,4s.14,2.95,1.65,3.56,2.61-.26,3.79.82c2,1.85,3.52,5.37,1.24,7.59-1.05,1-2.51.92-3.5,2.07a14.21,14.21,0,0,0-2.39,4.61,37.15,37.15,0,0,1-1.69,5,9.34,9.34,0,0,0-1.44,4.29c-.1,4,1.81,7.68,3.24,11.23a11.36,11.36,0,0,1,.74,5.64c-.22,1.78-.72,3.94-.08,5.67s2.58,3.18,3.75,4.68a7.45,7.45,0,0,1,1.47,3.82c.23,1.46.8,4,2.53,2.09,1-1.1,1.11-2.62,2.29-3.69,1-.89,2.69-1.29,3.35-2.5s0-2.69-.14-3.93a34,34,0,0,1-.35-6.26c.11-1.75,1.09-2.94,1.78-4.46,1.55-3.44.39-7.8.05-11.41-.19-2.14-.34-4.26-.36-6.41,0-1.88-.64-3.56-.76-5.42-.26-4.06,1.39-7.95.56-12a16.56,16.56,0,0,0-5.54-9.29,17.31,17.31,0,0,1-3.69-3.77c-.86-1.45-1.36-3.1-2.37-4.48-2.12-2.89-6.08-4.64-9.32-5.89-3-1.14-5-3.26-7.67-5.07a8.85,8.85,0,0,0-8-1.36c-3.22,1-5.45,3.76-8.75,4.52s-6.24.42-7.74,4.23c-.61,1.53-.91,2.42-2.47,3.14A13.64,13.64,0,0,0,297,90c-1.25,1.14-2.44,2-2.4,3.81s.59,3.82.77,5.7c.17,1.59.59,3.26.7,4.79A16.89,16.89,0,0,1,295,109.54Z" transform="translate(-0.25 -0.25)"/><path d="M309.82,222.85c-.4,1.34,2.69,1.49,3.42,1.66,7.45,1.86,14.86,1.49,22.47,1.54,4.35,0,8.49.67,12.82,1.11,2.18.22,4.39.35,6.6.36,1.66,0,3.7.21,4.78-1.34,1.46.76,3.12.34,4.65.14.36-.05.71-.09,1-.11l-.05-1.71h-.33c-2.31,0-5.37.21-7.41-.91a18.86,18.86,0,0,1,2.34-6.74,12.86,12.86,0,0,0,1.5-3.09c.33-1.17.52-2.88,1.3-3.85.65-.81,1.94-.94,3.26-.85l.09-1.58-1.22-.08c-1.65-.09-4.2.13-5.13-1.43a2.84,2.84,0,0,1-.35-2.2l-2.12-.17a5.69,5.69,0,0,0-.08,1.76,10,10,0,0,0,2.21,4.38,29.58,29.58,0,0,1-4.34,9.13,32.56,32.56,0,0,1-2.68,3.72c-1.37,1.48-2.52,1.15-4.42.94-7.62-.85-15.24-.75-22.89-1-3.63-.12-7.28,0-10.91-.21C313.58,222.28,310.21,221.58,309.82,222.85Zm45.5.39c-.19-.11-.15-.24.12-.35l.12.12Z" transform="translate(-0.25 -0.25)"/><path class="cls-6" d="M307.08,108c-1,1-3.69,1.64-3.57,3.44s2.83,2.79,4.29,3.38c.53,2,.59,3.93,1.38,5.93s1.6,3.86,2.45,5.78a12.63,12.63,0,0,0,7.78,7.15c4.07,1.29,7.12,3.69,11.23.83,3.27-2.29,5.22-6.83,6.54-10.4.73-2,1.55-3.9,2.24-5.9a16.58,16.58,0,0,1,2.63-5.1c1-1.19,4.17-2.65,3.62-4.52-.46-1.56-3.06-2.14-4.29-2.59-4.37-1.56-2.45-5.76-4.21-9-.81-1.47-2.34-1.8-3.62-2.71-1.74-1.26-2.84-3-4.32-4.52-1.53,1.33-2.55,2.67-4.62,3.16a19.8,19.8,0,0,1-6,.46c-2.6-.21-3.07.32-5,2-1.36,1.18-2.89,2.14-4.16,3.44a5.25,5.25,0,0,0-1.66,4.1C307.82,104.79,308.62,106.51,307.08,108Zm10.11,2.18c-.86,0-3.17,0-3-1.47.12-1.21,1.83-.78,2.6-.84s2.75-.84,3.16.35S318.07,110.31,317.19,110.17Zm4.34,15.55c-1.1-1.67,1-1.53,2-1.42s4.13-.19,5,.54c1.24,1.07-.57,2-1.67,2.05C325.52,126.73,322.35,127,321.52,125.72Zm5.18-4.8c-.33,1.14-2.51,1.35-2.3,0C324.59,119.73,326.4,120,326.71,120.92Zm1.45-13.31c.91-1.56,2.08-.48,3.35-.25.63.11,2.39-.27,2.33.79s-2.11.89-2.78.88C329.56,109,329,108.89,328.16,107.61Z" transform="translate(-0.25 -0.25)"/><path d="M314.69,193.54l.12,2.05c5.24-.33,10.5-.54,15.71-.76,7.52-.32,15.16-.73,22.68-.45,2,.08,3.23-.3,4,1.81a12.9,12.9,0,0,1,.71,4.94,17.51,17.51,0,0,1-.44,2.47l2.12.17a15.32,15.32,0,0,1,1.07-2.55c.65-1.46,1.06-3.55,2.3-4.7,1.06-1,9.47-2,7.22-4-.94-.85-4.58-.5-5.8-.45-1.45.06-4.15.62-5.42-.39-1.1-.87-1.33-3.18-1.95-4.41a57.73,57.73,0,0,1-2.88-6.39c-.9-2.48-2-4.87-3.12-7.27-.89-1.9-1.32-3.84-3.52-2.24.58,1.48,1.48,2.74,2,4.26s.81,3,1.43,4.45a29.66,29.66,0,0,1,2.6,9.68c-2.08,1.43-5,1.4-7.48,1.47-3.1.09-6.1.78-9.18.9-6.46.26-12.93.86-19.38,1.25Z" transform="translate(-0.25 -0.25)"/><path class="cls-6" d="M312.7,141.33a6.7,6.7,0,0,0-.55,4.21c.3,2.08.88,2.53,2.63,3.56,5.47,3.25,14.1,2.9,19.38-.56,2.1-1.38,5.68-2.72,4.95-5.86-.36-1.51-1.47-3.24-2-4.72-.5-1.31-1.17-3.2-2.33-4.05-2.85,1.38-4.42,4.82-7.81,5.17-3.1.33-6.44-1.31-9.32-2.2-1.48-.46-1.57-.36-2.33.92S313.43,140.08,312.7,141.33Z" transform="translate(-0.25 -0.25)"/><path class="cls-10" d="M313.19,152.07c-1.59,1.78-1.32,4.85.93,5.84,2.68,1.18,6.55,1,9.45,1.17a55.86,55.86,0,0,0,10.17-.5c2.95-.34,6.1-.56,8.47-2.52-1.09-2.1-4-3.33-4-5.92-2,.39-3.78,1.41-5.79,1.86s-4.29.68-6.42,1.05C321.47,153.8,317.63,152.39,313.19,152.07Z" transform="translate(-0.25 -0.25)"/><path d="M314.17,108.7c-.15,1.5,2.16,1.47,3,1.47s3.14-.81,2.74-2-2.35-.43-3.16-.35S314.29,107.49,314.17,108.7Z" transform="translate(-0.25 -0.25)"/><path d="M323.49,124.3c-1-.1-3.07-.25-2,1.42.82,1.23,4,1,5.28,1.17,1.1-.07,2.91-1,1.67-2.05C327.62,124.11,324.58,124.41,323.49,124.3Z" transform="translate(-0.25 -0.25)"/><path d="M324.41,120.87c-.22,1.39,2,1.19,2.3,0C326.4,120,324.59,119.73,324.41,120.87Z" transform="translate(-0.25 -0.25)"/><path d="M331.51,107.36c-1.27-.22-2.44-1.31-3.35.25.81,1.27,1.4,1.42,2.91,1.42.66,0,2.71.2,2.78-.88S332.14,107.47,331.51,107.36Z" transform="translate(-0.25 -0.25)"/><path class="cls-6" d="M360.14,216.86a18.86,18.86,0,0,0-2.34,6.74c2,1.13,5.1.92,7.41.91h.33c2.36-.05,3.57-.74,5.29-2.45a23.79,23.79,0,0,0,4.11-5.38,28.76,28.76,0,0,0,2.7-5.78c-2.76-1.23-5.41-1.07-8.32-1.42-.78-.1-2-.33-3.11-.41-1.32-.08-2.61,0-3.26.85-.78,1-1,2.69-1.3,3.85A12.86,12.86,0,0,1,360.14,216.86Z" transform="translate(-0.25 -0.25)"/><path d="M397.95,227.91a2.76,2.76,0,0,0,2.71,3c2,0,2.14-2,2.35-3.45C402.75,224.15,398.52,225,397.95,227.91Z" transform="translate(-0.25 -0.25)"/><path class="cls-4" d="M391.15,20.32c-1.19,1.79-2.8,3.64-2.38,6s2.94,2.67,3.92,4.59c1.07,2.09,2.24,4.39,4.22,5.8a13.27,13.27,0,0,0,3.28-3.22,23.88,23.88,0,0,1,2-3c2-2.38,2.78-4.57,4-7.38,2.58-6.16,10.29-1.08,14.18,1,2.21-1.93,4.52-4.62,7.72-3.48a3.55,3.55,0,0,1,2.39,2.21,16.94,16.94,0,0,1,1.35,2.75c.35,1.41-.28,2.72-.28,4.09,0,1.57.65,2,1.82,2.85a38.09,38.09,0,0,1,3.54,3.3c1.09,1,1.56,1.16,2.89.66s2.32-.89,3.54-1.44,2.63-.32,4-.39c2.46-.14,4.3-.81,4.38-3.52.18-6.2-5.18-9.2-8.39-13.63-2.93-4-5.05-7.44-10.11-9-2.61-.8-5.58-.81-8-2-2.25-1.07-4.13-3.08-6.49-3.91-1.92-.69-4.9-.45-6.29,1.17-1.22,1.42.19,3.44-2.15,3.37-1.48-.06-2.75-.84-4.27-.68a10.52,10.52,0,0,0-4,1.69,20,20,0,0,0-6.43,5.53C393.92,15.86,392.6,18.13,391.15,20.32Z" transform="translate(-0.25 -0.25)"/><path d="M407.54,205.76c-1.28-3.63-4.83-.83-4.22,2a2,2,0,0,0,2.6,1.56C407.54,208.83,407.47,207.15,407.54,205.76Z" transform="translate(-0.25 -0.25)"/><path d="M409.33,179.13a4.4,4.4,0,0,0-1.47,4.13c.8,3.47,4.24-.06,4.2-2.18C412,179.41,411,178,409.33,179.13Z" transform="translate(-0.25 -0.25)"/><path class="cls-6" d="M407,153.7a7.65,7.65,0,0,0,1.65,4.08c.83,1.19,2.47,2.08,2.44,3.66,1.45,1.06,2.15,2.07,3.33.47a16.16,16.16,0,0,1,2-2.53c1.5-1.42,3.42-2.09,4.58-3.78-.48-.67-3.28-2.11-.6-2.49,2-.28,2.17,1.49,4-.21-.18-1-1.08-1.06-1.72-1.49-2.86,1.73-3.62.85-3.81-2.19-.6-.78-1.48-2.16-1.31-3.26h-1.38c-.16.55-.73.92-1.83.52-.93-.34-1.19-1.07-.82-1.59l-2,.11c-.22.29-.43.59-.63.9C409.37,148.19,406.82,150.74,407,153.7Zm6.13,2.86c-1.83.34-5.86-4-2.64-4.2C412.34,152.28,416,155.47,413.12,156.56Zm1.26-5.81c-2.06.23-1.54-2.76.19-2.86a1.56,1.56,0,0,1,1.67,1.69C416.08,150.53,415.17,150.59,414.38,150.75Zm1,3.52c-.15-1.92,2.33-3.53,2.86-1.12C418.64,155.07,415.54,156.59,415.36,154.27Z" transform="translate(-0.25 -0.25)"/><path class="cls-6" d="M407.91,164.46c-.35,4.59,4.09,8.17,8.16,9.36,2.2.66,5.31,1.71,7.6,1.18a12,12,0,0,0,5.6-3.42c2.74-3,3.7-7.26,5.92-10.55,1.24-1.83,2.87-3.15,3.93-5.12a53.87,53.87,0,0,1,3.23-5.11c1.07-1.59,2.64-3.52,2.86-5.5s-1.6-3.19-3.3-3.91c-2.57-1.09-3.29.33-4.73,2.3s-2.86,3.9-4.3,5.84c-2.91,3.87-6.17,5.9-10.3,8.31-1.37.8-4.59,2.15-5.17,3.86-.49,1.48,1.35,2.59,2.6,2.9,1,.25,4.94-.09,3.9,1.84-.6,1.14-4.55.78-5.59.57a27.42,27.42,0,0,1-5.28-2.24c-.85-.4-2-1.17-3-1.06A21.09,21.09,0,0,0,407.91,164.46Z" transform="translate(-0.25 -0.25)"/><path class="cls-6" d="M402.33,36.88a10.22,10.22,0,0,0,.5,4.68c.69,1.45,2.63,2.06,4,2.79.57-1.21,1-2.73,2.45-3.17.88-.28,1.29-.3,1.34.68.07,1.32-1.86,2.29-1.74,3.8.1,1.22,1.4,2.29,2.17,3.15a13.7,13.7,0,0,0,3.17,3.13c1.2.63,2.36.16,3.65.24,2.87.22,4.83,2.4,7.59,2.93a9.08,9.08,0,0,0,.61-2.43c0-.47-.21-1.16,0-1.6.5-1.12,1.66-.85,2.17,0,1.28,2.2-2.12,6,1.93,6.12,2.52,0,5.61-2.85,7.1-4.73.65-.81,1-2.84,2.26-2.86,1.85,0,.93,2,.52,2.81,1.9,3.8,3.78,7.55,6.72,10.63,1.71-.19,3.2-1.58,4.68-2.38,1.64-.89,3.35-1.7,4.9-2.75a39.22,39.22,0,0,0,4.33-3.86,46.21,46.21,0,0,0,4.22-3.79c1.29-1.49,1.9-2.44.49-4a45.68,45.68,0,0,0-4.76-4.16,96.71,96.71,0,0,0-8.73-6.76c-2,1.09-4,1.07-6.19,1.22-1.93.12-2.61.66-4,1.89-3.31,3-6.25-.6-8.31-2.94-1.62-1.85-6.59-1.82-5-5.35.73-1.58,1.85-2.6.57-4.34a5.48,5.48,0,0,0-4.83-1.91c-2,.52-1.22,2.33-2.35,3.48s-3.08-.23-4.23-.71c-3.49-1.47-6.72-3.18-9.53.16C405.57,29.8,402.66,32.87,402.33,36.88Z" transform="translate(-0.25 -0.25)"/><path d="M410.48,152.37c-3.22.16.81,4.53,2.64,4.2C416,155.47,412.34,152.28,410.48,152.37Z" transform="translate(-0.25 -0.25)"/><path class="cls-6" d="M411.57,145l2-.11a1.56,1.56,0,0,1,1.11-.55,1.35,1.35,0,0,1,1.54,1.63h1.38a1.63,1.63,0,0,1,.72-1.12c1.22-.85,3.38.34,3.8,1.61,2.43-2.35,3.66-5.47,5.14-8.45.71-1.44,1.38-2.92,2.16-4.33.48-.87,1.5-2,1.34-3.08-.28-1.79-3.49-3.27-4.87-4s-1.59-.45-2.35.77a30.33,30.33,0,0,1-2.42,3c-2.13,2.61-3.46,5.66-5,8.62C414.86,141.3,413.09,143,411.57,145Z" transform="translate(-0.25 -0.25)"/><path d="M413.57,144.86c-.37.52-.11,1.25.82,1.59,1.1.4,1.67,0,1.83-.52a1.35,1.35,0,0,0-1.54-1.63A1.56,1.56,0,0,0,413.57,144.86Z" transform="translate(-0.25 -0.25)"/><path d="M414.57,147.89c-1.73.1-2.25,3.08-.19,2.86.79-.16,1.7-.22,1.86-1.17A1.56,1.56,0,0,0,414.57,147.89Z" transform="translate(-0.25 -0.25)"/><path d="M418.22,153.15c-.52-2.41-3-.8-2.86,1.12C415.54,156.59,418.64,155.07,418.22,153.15Z" transform="translate(-0.25 -0.25)"/><path class="cls-11" d="M424.84,118.46a8.74,8.74,0,0,0-.4,1.68c.23.84,1.43,1.46,2,2.07a20.84,20.84,0,0,0,2.34,2.21c2,1.51,4.19,4,6.9,2.95,2-.79,5.12-2.08,5-4.5-.14-3.14.52-4.83,2.06-7.63s3.24-5.55,4.51-8.47c1.44-3.31,1.19-5.81.64-9.28-.44-2.8-.26-6.48-1.25-9.12-1.4.21-2.63,3.15-3.36,4.27a45.65,45.65,0,0,1-3.7,4.87,12.91,12.91,0,0,0-1.95,2.37c-.26.53-.18,1.36-.48,1.84-.43.66-1.46.77-2.11,1.18a10.5,10.5,0,0,0-1.68,1.46c-2.19,2.27-4.81,5.7-3,8.72.59,1,2.26,2.33.72,3.14-2,1.06-2.41-1.45-3.78-1.76-.76.7-2.11,1.54-2.48,2.55C424.68,117.55,424.91,118,424.84,118.46Z" transform="translate(-0.25 -0.25)"/><path class="cls-12" d="M443.69,321.57c-1.3.41-4.83,1.3-5.37,2.66,2.83.62,5.91.36,8.79.3a82.27,82.27,0,0,1,9.77.52c6.46.66,12.91,2.16,19.46,1.74.3-1.34.59-3.52-.95-4.07-1.24-.43-3,0-4.31-.28-3.88-.9-7.65-2.36-11.67-2.58-3.69-.21-7.17,1.47-10.86,1.08A10.72,10.72,0,0,0,443.69,321.57Z" transform="translate(-0.25 -0.25)"/><path class="cls-11" d="M438.8,129.89c-1.74.39-2.86,3-2,4.42,1,1.62,3.73,3.31,5.33,4.29,3,1.84,6.73,5.72,10.6,5,4.39-.86,4.45-5,2.57-8-1.15-1.87-.7-3.42,1.46-1.79,1.52,1.15,2.64,1.39,4.06-.19a15.45,15.45,0,0,0,1.33-2.51,8.74,8.74,0,0,1,2-1.87c1.4-1.21,1.75-2.69,2.68-4.2,1.17-1.88,3.11-3.21,4.54-4.87a38.49,38.49,0,0,0,3.38-4.85c2.49-4.05,4.49-7.71,5.54-12.39s1.59-9.59,2.31-14.34a79,79,0,0,0,1-8.25,12.93,12.93,0,0,1,1.7-5.19c2.75-.26.94,6.56.87,8.26a73.77,73.77,0,0,1-.84,10.63,100.43,100.43,0,0,1-3.18,10.64c-1,3.24-1.79,6.83-3.61,9.73a95.58,95.58,0,0,1-6.17,8.1c-1.18,1.47-2.07,3.09-3.15,4.62-.86,1.21-2.1,2.23-2.64,3.65s-.52,2.48-1.6,3.5c-.77.73-2.11,1.07-2.74,1.94s-.41,1.79-.36,2.81c.11,2,.26,4.07.39,6.12,2.51.19,5.41-1.11,7.83-1.75a26.35,26.35,0,0,1,3.67-.91c1.36-.14,2.69.09,4.07-.1,5.37-.77,10.53-2.11,15.79-3.3,2.36-.54,4.63-1.24,7-1.82,2-.49,3.93-.33,5.84-1.18,2.27-1,3-1.48,3.7-3.78.56-2,1.4-3.28,1.09-5.47a130.64,130.64,0,0,0-7.16-28.1C500.61,89.27,495.77,80.71,491,72c-2.33-4.25-3.95-8.94-6.81-12.87a31.24,31.24,0,0,0-8.85-8.21c-5.48,7.46-12.38,15-20.57,19.4-2,1.08-3.95,2.25-4.32,4.66a80,80,0,0,0-.38,8.19c-.11,2.27.45,4.5.55,6.79.06,1.38-.46,5.65.89,6.6,2.29-2.66,3.65-6.35,4.92-9.58.63-1.6,1.18-3.24,2-4.76.49-1,1.37-3.08,2.18-3.81,2-1.8,1.69,1.56,1.43,2.53a50,50,0,0,1-1.66,4.83c-1.22,3.23-2.22,6.62-3.65,9.75a135.52,135.52,0,0,1-9.17,17.62c-.86,1.32-1.8,2.53-2.56,3.93-.57,1.07-1.59,2-2,3.19-.42,1.39.1,2.84-.08,4.24s-.86,2-1.89,2.88c.38,1.38,4.49,2.73,3.41,4.3S440.25,129.58,438.8,129.89Z" transform="translate(-0.25 -0.25)"/><path class="cls-3" d="M455.43,300.75c-1.31.92-7.77,4.25-7.32,6.11.34,1.42,2.4,1.12,3.35,1.18,1.71.11,3.21.74,4.94.77,3.45,0,6.92,0,10.38-.1s6.94.47,10.37.26c.85-1.17.68-3.25.79-4.62.11-1.53.24-3,.4-4.54.33-2.7.81-5.37,1.07-8.06s.45-5.55.69-8.32.82-5.67.53-8.46c-2.69,1.12-4.51,4.32-6.35,6.48s-3.81,4.47-5.73,6.66-4.14,4-6,6.2A38.66,38.66,0,0,1,455.43,300.75Z" transform="translate(-0.25 -0.25)"/><path class="cls-3" d="M448.87,313.14a2.85,2.85,0,0,0,2.54,3.64c2,.33,4.14.32,6.19.63,2.29.34,4.57.64,6.85.95,3.71.5,7.55.79,11.28,1,1.86.12,2.47.2,2.68-1.78a22.74,22.74,0,0,0-.33-5.88c-1.85-1.14-4.34-1-6.44-1.1-2.49-.12-5-.21-7.5-.18-2.25,0-4.48.12-6.73.15a8.83,8.83,0,0,0-2.87.53c-1,.3-1.54.58-2.27-.45C450.67,311,449.23,311.32,448.87,313.14Z" transform="translate(-0.25 -0.25)"/><path class="cls-11" d="M448.57,68.75c-.08,1.87.82,1.16,2.18.79,6.18-1.7,10.78-6.51,15.34-10.79a35.4,35.4,0,0,0,5-5.74c.57-.82,2.18-2.64,1.87-3.68s-2.49-1.57-3.45-1.54c-.92.79-.7,2.28-1.31,3.3A21.18,21.18,0,0,1,465,54.4a84,84,0,0,1-6.93,6.39c-2.33,1.85-5,3.3-7.48,5C449.47,66.52,448.63,67.25,448.57,68.75Z" transform="translate(-0.25 -0.25)"/><path class="cls-3" d="M459.87,183.39c-.07,2.84-.49,6-.18,8.81.22,1.92,1.3,1.81,3,2.13,1.09.21,3.18,1,4.28.63,1.46-.47.92-1.33.87-2.64s.11-2.69,0-4c-.64-6.46-1.94-12.82-2.47-19.3-.15-1.69-.56-3.25-.79-4.92-.19-1.33-.77-2.4-1-3.65a3.8,3.8,0,0,1,0-1l-2.51-.1c-.19,4.89-.84,9.72-.94,14.62C460,177.09,460,180.24,459.87,183.39Z" transform="translate(-0.25 -0.25)"/><path class="cls-3" d="M461,159.33l2.51.1a1.42,1.42,0,0,1,.81-1.32c1.62-.61,1.6,1.89,1.81,2.72.42,1.62,1.31,3.08,1.47,4.77.15,1.47.07,2.94.26,4.42.37,2.95,1.07,5.83,1.42,8.78a139.25,139.25,0,0,0,3.3,17c1,.82,3.76,1.14,5.07,1.53a50.39,50.39,0,0,0,7,1.41A136.35,136.35,0,0,1,499,202.13c2.32.61,4.58,1.38,6.87,2.09,2.06.64,4.69.8,6.61,1.67,3.5,1.59.57,6.25-.21,8.8a119,119,0,0,1-4.8,13.48c-1.79,4-3.68,7.72-5.85,11.56-2.34,4.14-4.14,8.44-6.69,12.48-2.42,3.84-4.86,7.72-7.2,11.6,1.25,2.53,1,6.26,1.36,9s.32,5.3.42,8c.13,3.11.42,6.22.75,9.32.32,2.89.13,5.75.2,8.66.05,2.58,0,5.21.26,7.79.16,1.88.73,2,2.52,1.89,2.56-.18,5,.32,7.58.34a50.85,50.85,0,0,0,7.36-.68,59.07,59.07,0,0,1,8.11-.25c1.59,0,5,.67,6.42-.27,1.26-.81,1-4.62,1.06-6a55.34,55.34,0,0,0-.55-7.23c-.25-2.61,0-5.14-.1-7.74s-.43-5.14-.68-7.71c-.49-5.08-1.18-10.17-1.53-15.28s-.21-10.08-.36-15.09c-.09-2.7-.19-5.4-.29-8.12-.09-2.07.33-5.09-.78-6.91-1.82.11-4.15.14-5.81,1-.83.43-3,2.14-2.81-.1.12-1.43,2.66-3,3.7-3.77,1.45-1.06,3.37-1.47,4.71-2.66,2.26-2,1.71-6.63,1.64-9.33-.11-3.89-.38-7.77-.65-11.64-.53-7.82-.39-15.65-.94-23.46-.32-4.34-.67-8.7-1.15-13-.43-3.73-.94-7.44-1.58-11.11a101.74,101.74,0,0,0-2.23-10.87,49.83,49.83,0,0,0-3.85-10.32,88.06,88.06,0,0,1-20.42,6.31c-6.79,1.2-14.07,1.44-20.68,3.43-1.69.51-3.28,1.5-5.1,1.47-.58,0-2-.59-2.62-.17-1.35.94-.69,5-.67,6.45Q461.06,157.51,461,159.33Z" transform="translate(-0.25 -0.25)"/><path d="M487,316.59c.08,1.67-.06,3.64.89,5.1s2.77,1.62,2.86,3.47c.07,1.5-.71,3.06-.73,4.62,0,1.87.26,3.2,1.78,4.42,2.87,2.32,8,1.79,11.45,1.94a49.52,49.52,0,0,0,12-1.17,8.42,8.42,0,0,0,4.32-2.23c1.39-1.41,1.25-3.63,1.08-5.51-.11-1.37-1.54-3.77-1.21-5,.39-1.47,3.38-1.37,4.63-1.92s2.46-.89,3.09-2.09c1-2,.74-4,.49-6.05-.19-1.76.27-3.44.09-5.18-.22-2.24-.69-4.44-.85-6.7-.6-8.68-2.16-17.32-2.52-26-.09-2-.53-4.19-.46-6.21,0-.71.32-1.29.4-2a15,15,0,0,0-.43-3.3,109,109,0,0,1-1-12.7c-.08-4.26-.72-8.81-.3-13.06.36-3.67.74-7.37.75-11.14,0-8.69-.46-17.35-.7-26-.25-8.85-1.41-17.49-2.4-26.27l-.37-3.24-1.69.19c.48,4.35.84,8.7,1.15,13,.55,7.81.41,15.64.94,23.46.27,3.88.54,7.76.65,11.64.07,2.7.63,7.32-1.64,9.33-1.33,1.19-3.26,1.6-4.71,2.66-1,.77-3.58,2.34-3.7,3.77-.18,2.23,2,.52,2.81.1,1.66-.86,4-.89,5.81-1,1.11,1.82.69,4.85.78,6.91.1,2.71.2,5.41.29,8.12.15,5,0,10.11.36,15.09s1,10.2,1.53,15.28c.24,2.57.53,5.15.68,7.71s-.15,5.13.1,7.74a55.34,55.34,0,0,1,.55,7.23c0,1.41.2,5.22-1.06,6-1.43.93-4.83.28-6.42.27a59.07,59.07,0,0,0-8.11.25,50.85,50.85,0,0,1-7.36.68c-2.57,0-5-.51-7.58-.34-1.79.13-2.36,0-2.52-1.89-.23-2.58-.2-5.21-.26-7.79-.07-2.91.12-5.77-.2-8.66-.33-3.1-.63-6.2-.75-9.32l-1.91.11c.19,3.52.33,7.05.32,10.59,0,2,.13,4.11,0,6.13-.14,2.2-.81,4.32-1,6.52A106.44,106.44,0,0,0,487,316.59Zm3.62,2.49c-1.83-1.64-2-6.48.87-7.2,1.6-.4,3.63.1,5.27.11a48.14,48.14,0,0,0,5.26-.44c3.5-.34,7.07-.46,10.57-.57,1.9-.05,3.78,0,5.68,0s3.94-.19,5.61.46c1.33,2.4,1.47,6.39-1.73,7-3.66.7-7.58,0-11.29.61A63,63,0,0,1,500,320.18C497.3,320.14,492.84,321.07,490.66,319.08ZM505,328.84c-3.3.21-9.48.38-8.53-4.46.5-2.55,2-2.16,4.34-2.14a38,38,0,0,0,7.49-.65c2-.39,4.61-1,6.66-.35,1.62.49,2.44,2.61,2,4.25-.56,2.12-2.73,2.34-4.49,2.56C509.92,328.35,507.65,329,505,328.84Zm1.58,4.49a13.9,13.9,0,0,1,4.52-.15C510.29,334,507.26,334.36,506.6,333.32Zm9.21-1.05c.21-.36.47-.43.76-.21C516.26,332.59,516.31,332.46,515.81,332.27Z" transform="translate(-0.25 -0.25)"/><path class="cls-3" d="M491.53,311.89c-2.87.72-2.7,5.56-.87,7.2,2.18,2,6.64,1.06,9.36,1.09a63,63,0,0,0,10.88-1.09c3.7-.61,7.63.09,11.29-.61,3.19-.62,3.05-4.6,1.73-7-1.67-.65-3.85-.41-5.61-.46s-3.78-.08-5.68,0c-3.5.11-7.07.22-10.57.57a48.14,48.14,0,0,1-5.26.44C495.16,312,493.14,311.48,491.53,311.89Z" transform="translate(-0.25 -0.25)"/><path class="cls-12" d="M496.49,324.38c-1,4.84,5.22,4.67,8.53,4.46,2.63.17,4.9-.49,7.49-.79,1.77-.22,3.94-.44,4.49-2.56.42-1.64-.4-3.76-2-4.25-2.06-.63-4.62,0-6.66.35a38,38,0,0,1-7.49.65C498.51,322.22,497,321.83,496.49,324.38Z" transform="translate(-0.25 -0.25)"/></g></g></svg>