<svg xmlns="http://www.w3.org/2000/svg" viewBox="0 0 1922.11 865.45"><defs><style>.cls-1{fill:#fff;stroke:#000;stroke-miterlimit:10;stroke-width:2px;}</style></defs><title>Recurso 99</title><g id="Capa_2" data-name="Capa 2"><g id="Layer_1" data-name="Layer 1"><path class="cls-1" d="M1,599.07,1,823.34a86.58,86.58,0,0,1,9.84-1.61c3.62-.32,7.26-.14,10.89-.38,3.34-.22,6.66-.84,10-.92,7.35-.18,14.71-.1,22.06-.25,7.16-.15,14.26-1,21.37-1.84,14.38-1.59,28.71-3.57,43.08-5.19s29.82-2.8,44.29-.58,29.17,2.72,43.74,4.41c14.22,1.64,28.25,4.69,42.5,6.09,13.93,1.37,27.69,4.48,41.44,7.09,14.43,2.75,29,3.29,43.57,4.55C348.53,836,363.2,837.64,378,838c14.47.38,28.9,1.35,43.38,1.32,7.33,0,14.67-.18,22-.21a22.08,22.08,0,0,1,5.63.23c1.35.36,2.39,1.29,3.68,1.77,2.59,1,5.68.37,8.36.37,7.4,0,14.16,3.19,21.44,3.6,3.6.2,7.24-.41,10.84-.53a54.35,54.35,0,0,1,9.61.79c7,1,14.37.35,21.4.31s14,1.74,20.95,1,13.49,0,20.35.39c7.13.36,14.08,2.24,21.23,1.89s14.51-1,21.81-1c3.61,0,7.22.17,10.84.08,3.42-.08,6.65.57,10.05.91,7.22.74,14.41-.5,21.65-.33s14.28.91,21.42,1.28c6.84.36,13.61,1.09,20.47,1.26,5.63.13,11.25.33,16.85.87,11.37,1.1,22.71,2.16,34.12,2.7,7.07.34,14.13.79,21.19,1.2a84.58,84.58,0,0,0,10.55.4c3.62-.25,7.17-.61,10.81-.5,7.09.23,14.16,1,21.27,1.18,7.39.18,14.79-.34,22.17-.08a314.53,314.53,0,0,0,32.06-.08c14.47-1,28.71,2.18,43.2,1.93,6.95-.12,13.49,1.75,20.37,2.21,7.53.49,15,1.22,22.57,1.68,14.23.88,28.54,1.12,42.78,1.7s28.32-2,42.53-2.17c30-.43,60-1.1,90-.47,14.71.3,29.39,1.75,44.1,2s29.56-.47,44.32-.88c14.45-.41,28.87-1.05,43.32-1.61,7.41-.28,14.78-1.06,22.19-1.25,7.15-.18,14.29-.16,21.43-.6,17.66-1.1,35.45-.17,53.13.22,5.75.13,11.49.28,17.24.39,11.64.23,23.15-2.33,34.63-4,6.89-1,13.86-1.49,20.72-2.69a198,198,0,0,1,21.56-2.64c7.13-.45,14.11-1.42,21.21-2.14,7.61-.77,15.2-.82,22.84-.85,7.18,0,14.32-.85,21.49-.92a117.31,117.31,0,0,1,21.87,2.15A166.38,166.38,0,0,0,1555,851.3c7,.33,14,1.05,21,.92,14.77-.26,29.45-3.87,44-6.46s29.1-5.72,43.58-9.08c28.79-6.69,57.74-12.22,87.13-15.23,7.13-.73,14.31-1.23,21.4-2.41a164.79,164.79,0,0,1,19.92-2.27c14.46-.66,28.91-2.07,43.39-2.14,7.15,0,14.2,1,21.36.49,7.39-.49,14.74-1.42,22.16-1.69,6.92-.25,14.12.62,21-.47,7.06-1.12,14-.92,21.2-.89l0-206.75"/><path class="cls-1" d="M1921.09,244.58l-.06-201c-4,0-8.16-.14-12.19.2a93.79,93.79,0,0,1-10,.75c-7.24-.17-14.55-2-21.71-3.07-14.74-2.2-29.44-4.66-44.23-6.56s-29.88-2-44.83-3.34-29.41-4.24-44.14-6.23c-14.42-1.94-29-3.77-43.2-7s-27.9-7.58-42.52-8c-7.68-.23-15.42.07-23.08-.37-3.64-.21-7-1.47-10.51-2-3.24-.49-6.59-.65-9.85-1.1-7-1-14.18-1.42-21.23-2.13-7.27-.73-14.55-.86-21.84-1.37s-14.3-1.35-21.5-1.49q-11.55-.21-23.1-.36c-14.64-.19-29.38-.88-44-.05s-29.16,3.23-43.76,4.52c-14.83,1.32-29.77,1.45-44.64,2.13-26.74,1.21-53.42,3-80.14,4.5-14.79.81-29.58,2.45-44.31,4-14.31,1.5-28.7,3.85-43,4.74-7.16.44-14.29,1.53-21.44,2.08-7.59.59-15.18,1-22.78,1.4-15.06.81-30.12,1.63-45.2,2-14.82.38-29.64.21-44.43,1.42-7.21.59-14.35,1.28-21.59,1.29s-14.47-.73-21.72-.64c-6.54.07-13,1.24-19.48,1.49a118.45,118.45,0,0,1-13.45-.45c-4.29-.31-8.58-.93-12.88-1-31.49-.28-63.19.37-94.63-1.19-14.81-.74-29.51-2.11-44.35-2.4-7.38-.15-14.77-.25-22.16-.36s-14.75.34-22.15.42-14.83-.29-22.23.16c-7,.43-14,1.58-21.1,2.12-7.68.59-15,2.51-22.54,4-7.25,1.45-14.61,2.29-21.94,3.19-39.27,4.85-78.72,8.84-118.32,7.84-7-.18-13.95-1-21-1.25-7.18-.24-14-1-21,.92-6.7,1.87-13,5-19.74,6.79-7.22,2-15,2.41-22.38,3.22-14.55,1.59-29.24,2.75-43.87,2.36s-28.93.66-43.42-.05c-15-.73-29.94-1.08-44.91-1.88s-29.65-1.5-44.49-1.65c-29.76-.31-59.48-1.87-89.23-2.57-14.94-.35-29.89-.75-44.81-1.51-13.67-.7-27.25-2.34-40.89-3.26-10.56-.71-21.15-1.07-31.72-1.59-19.94-1-39.81-2-59.77-1.41-7.45.24-14.91,0-22.36.32-3.93.18-7.89.8-11.83.65-3.37-.13-6.73-.49-10.1-.59a158.89,158.89,0,0,0-20.12.91c-7.45.71-14.76.52-22.1,2.3L1,244.58"/></g></g></svg>