<svg xmlns="http://www.w3.org/2000/svg" viewBox="0 0 7077.44 283.25"><defs><style>.cls-1{fill:#fff;}</style></defs><title>road</title><g id="Layer_2" data-name="Layer 2"><g id="Layer_1-2" data-name="Layer 1"><path class="cls-1" d="M0,29.43c16.34,0,36.64,1.31,52.92,2.05,15.07.68,29.37-1,44.38-1.08,30.81-.13,61.56,1.53,92.31,2.68,15.5.58,31,.9,46.52,1.66,15.79.77,31.52,2.43,47.32,3.22,15.17.77,29.57,2.63,44.52,4.33,14.57,1.65,28.62,3.95,43.08,6,14.67,2.09,28.6,1.65,43.38,2.12,15.36.49,30.82,1.7,46.17,2.5,15.63.82,31.16,1.25,46.72,2.06,15.13.79,30.34.08,45.49.07,16.49,0,33,.22,49.47-.27,14.86-.45,30.08-2.9,44.91-2.15,31.13,1.56,61.61,5.12,92.46,8.08q45,4.33,90,8.72c29.93,3,60.37.11,90.46.23,31.72.12,63.43,1,95.14,1.12,30.84.1,63,.54,93.65-2.09s61.07-5.47,91.65-8.06c30.9-2.62,60.88-8.36,91.61-11.52,29.53-3,59.25-7.37,88.94-9.22,32.11-2,64.43-1.78,96.6-3.47,63.11-3.3,127.27-2.8,190.5-1.22,15.41.39,30.87.28,46.27.78,15.63.51,31,2.84,46.64,3.14,15.18.3,30.26-.81,45.41-1,10.24-.14,20.31,1,30.56.81,26.27-.49,51.24-6,77.3-7.56,30.78-1.81,61-5.48,92-3.74,16.38.92,32.73.84,49.14,1,15.07.12,30.07,1.11,45.13,1.15,32,.09,63.58,1.79,95.48,3.35,31.68,1.55,63.54,2.75,95.28,3.4s63.61-.38,95.41.36c61.92,1.44,123.78,4.09,185.75,4,62.43-.13,124.3,5.28,186.69,6.15,29.31.41,58.63.88,87.95.46,30.59-.44,61.15-2.71,91.73-.42,31.56,2.36,63.15,3.29,94.67,6.14,15.43,1.4,30.85,3.49,46.38,4.14,15.82.66,31.79.58,47.61.11,16-.48,32-.91,48-1.34,15.38-.41,30.36-2.58,45.75-1.91s31.39-.57,46.94-1c15.09-.37,30.13-.85,45.22-1.12,15.28-.27,30.51-1.45,45.79-1.86s30.31.55,45.62.52c7.34,0,14.66-.38,22,0,8.41.49,16.63,1.51,25.1,1.5,14.45,0,29.05,1.2,43.35-.45a563.92,563.92,0,0,1,81.32-3.25c16.32.48,32.39,1.54,48.76,1,15.09-.47,30.24-.75,45.34-1.09,31-.71,62.24,2,93.15,3.3,32,1.39,64,1.63,96,2.85,30.56,1.16,61.36,3,92,3.24,15.67.11,31.3-.45,47-.1s31.43,1.37,47.16,2c64.79,2.72,129.53,3.83,194.42,4.08,30.58.12,61.62.8,92.13-.85,15.72-.85,31.2.19,46.9.57s31.66-.07,47.39.83c14,.8,28,2.15,42.07,2.4,13.83.25,28.21-.79,42-1.67,27.55-1.76,55-4.15,82.57-5.76,31.09-1.81,62.07-4.7,93.26-5.51,31.5-.81,63-1.28,94.52-2.39,65.06-2.29,129.82-3.35,194.9-.88,32.54,1.23,65.53,1.41,98-.7,31.43-2,61.91-7.34,92.91-11.31s61.6-10,92.87-12.48c15.78-1.25,31.44-1.78,47.05-3.92,15.18-2.08,30.36-4.13,45.53-6.26,14.81-2.08,29.83-3.33,44.53-5.77,15.41-2.56,30.48-3,46.18-4.11,15.07-1,29.87-1.48,45-1.74,40.59-.69,81.31-1,121.88,0,30.61.76,61.23,2,91.85,1.7,31.07-.34,63.19.19,94.06,3.35,31.09,3.18,61.1,5.13,92.49,4.29,15.41-.41,31-.19,46.41,0,15.08.19,30-.32,45.07-.33,15.52,0,31,1.51,46.51,1.81,7.32.14,14.6.29,21.9.75a92.2,92.2,0,0,0,23.4-1.08c14.33-2.4,29.29-3.31,43.75-5.33,14.69-2,29.3-4,44.13-5.47a409.78,409.78,0,0,1,47.27-2c15.18.31,30.06,3,45,4.64,30.81,3.4,61.9,7.69,92.91,9.83,62.2,4.3,124.5,8.93,187,8.91,15.05,0,30-2.09,45.09-2.46,7.85-.2,15.71-.07,23.56,0,11,.11,22,.27,33,.41,24.41.3,48.82.7,73.23.9q40.24.33,80.49.72c47.88.5,94.77,7.05,142.4,10,30.77,1.9,61.45,4.48,92.24,6.29,16,.94,22.93-.05,38.57-3.54,2.86-.64,13.32,1.6,16.31,1.31V233.26c-6.49-1.25-21.21-4.25-27.87-4.82-13-1.12-26.34-1-39.44-1.31-27.76-.67-55.57-1-83.18-3.41-26.64-2.32-53.3-4.92-80-6.82-26.05-1.86-53.15-2.87-79.2-.51-27.11,2.46-54.33,3.6-81.46,6s-53.78,6.12-80.9,8.09c-18.28,1.33-36.36,4-54.47,6.24-16,2-31.86,4.38-48,5.45-27.35,1.82-54.75,3-82.07,5.11-54.24,4.1-109.11,4.45-163.57,4.32-12.93,0-25.92,1.18-38.77,1s-25.4,3.1-38,4.82c-12.47,1.69-25.08-.64-37.63.54-13,1.23-25.92,1.13-39.06,1.33s-26.38,1.56-39.56,1.46c-12.67-.09-24.72,0-37.39.74s-25.83,2.29-38.65,2.52c-13.43.24-27-1-40.34-1.59-25.08-1.12-50,1.58-75.2,1-26.09-.59-51.91,2-77.92,2.82-51.9,1.61-103.87,6.88-155.86,6.7-13.6,0-27-.66-40.64-.1-13,.54-25.63,1.54-38.62,1.14-27.11-.84-54.12,1.57-81.18-.38-26.85-1.94-53.55,2.2-80.47,2.14-13.25,0-25.34,1.78-38.44,2.74-12.26.89-24.67,1.58-37,2.12-26.68,1.18-53.38,1.41-80.08,2.42-27.91,1.05-55.54-1.39-83.39-2.21-55-1.62-110.38-2-165.4-.93-55.21,1.11-110,3.63-165.27,1.69-27.22-1-54.47-.78-81.67-2-27.67-1.26-55.21-2.17-82.93-2.55-48.16-.65-96.18,1.1-144.3,1.17-10.42,0-20.84-2-31.12-3.1-13.8-1.52-27.65-2.73-41.48-4.06-13.51-1.3-27-3.23-40.51-4.23-13.08-1-26.23-1.29-39.31-2.34-26.43-2.11-52.7-2.94-79.28-3.25-13.68-.16-27.32-.61-41,.31-13.23.89-26.27,2.94-39.47,4.09-26.18,2.28-54.47,3.67-80.64.75-26.57-3-53.16-6.3-79.62-9.73-26.67-3.46-53.08-8.44-79.51-12.77-26.77-4.39-53.59-7.69-80.7-10.7-26.65-3-53.29-5-80.07-7.08-27.21-2.14-54-5.61-81.35-6.89-26.45-1.24-53.26-4-79.73-4.22-26.19-.21-52.39.48-78.58-.3-13.16-.39-26.24-1.72-39.39-2.06-13.3-.34-26.43,1.11-39.59,2.32-26.4,2.42-52.45-1.57-78.45-4.61-12.22-1.43-24.42-2.92-36.68-4.15-27.25-2.73-54.07-4-81.49-5.15-53.21-2.3-106.27-9.08-158.8-15.55-26-3.2-51.17-9.79-77.27-12.12-13.51-1.2-27.28-1.44-40.87-1.83-13-.38-26.34.1-39.14-2-13.44-2.19-26.19-2.87-39.9-3.55s-27.56-2.47-41.39-3c-26.93-1-53.78-2.17-80.77-2.5-27.58-.34-55.2-1.08-82.78-.9s-54.95,3.23-82.27,5.39c-54.24,4.28-109.07,3.93-163.51,6.24-55.37,2.35-110.58,5.11-165.79,9-54.35,3.85-108.39,8.34-162.89,11-25.82,1.24-51.69,1.72-77.55,2.23-26.68.52-53.44.05-80,1.77-26,1.68-51.38.94-77.39,1.12-13.21.09-26.12,1.4-39.25,2.17-12.84.76-24.48-.29-37.13-1.3-38.65,0-77.25-1.2-115.9-1.35-30.87-.12-61.68-.22-92.5-1.75-31.78-1.58-63.31-1.87-95.16-1.95-30.7-.08-61.74-1.18-92.35.75-30.8,1.94-60.66,7.06-91.23,9.9-30,2.79-60.06,6-90.2,7.88-31.06,1.92-62.17,1.34-93.23,2.72-15.54.69-31,.58-46.53.39-15-.18-29.56-1.88-44.47-3.19-14.21-1.24-28.6-2.44-42.66.23-13.73,2.6-26.14,8-39.31,11.73-13.42,3.78-28.64,4.7-42.88,5.18-15.68.52-31.25,2.22-47,2.56-31.31.66-62.85.62-94.16.15-62.31-.92-124.44-4.75-186.77-5.13-63.77-.39-127.6-2.59-191.36-4-62.43-1.34-124.53-6.69-187-8-60.12-1.28-120.21-4-180.34-2.42C56.43,211.25,14.7,216,0,216.79Z"/><path d="M3.46,32.06c16.31,0,33.11-.31,49.36.42,15,.68,29.31-1,44.28-1.08,30.75-.13,61.42,1.53,92.11,2.68,15.46.58,31,.9,46.42,1.66,15.76.77,31.45,2.43,47.22,3.22,15.14.77,29.5,2.63,44.42,4.33,14.54,1.65,28.56,3.95,43,6,14.64,2.09,28.53,1.65,43.29,2.12,15.33.49,30.75,1.7,46.08,2.5,15.59.82,31.09,1.25,46.62,2.06,15.09.79,30.28.08,45.39.07,16.45,0,32.92.22,49.36-.27,14.83-.45,30-2.9,44.81-2.15,31.07,1.56,61.48,5.12,92.26,8.08Q783,66,827.91,70.43c29.86,3,60.24.11,90.27.23,31.65.12,63.29,1,94.93,1.12,30.78.1,62.87.54,93.45-2.09s60.93-5.47,91.45-8.06c30.83-2.62,60.75-8.36,91.41-11.52,29.47-3,59.12-7.37,88.75-9.22,32-2,64.29-1.78,96.39-3.47,63-3.3,127-2.8,190.09-1.22,15.38.39,30.81.28,46.17.78,15.6.51,30.93,2.84,46.54,3.14,15.15.3,30.2-.81,45.31-1,10.22-.14,20.26,1,30.49.81,26.22-.49,51.13-6,77.14-7.56,30.72-1.81,60.91-5.48,91.8-3.74,16.34.92,32.66.84,49,1,15,.12,30,1.11,45,1.15,31.93.09,63.45,1.79,95.28,3.35,31.61,1.55,63.41,2.75,95.08,3.4s63.47-.38,95.2.36c61.79,1.44,123.52,4.09,185.35,4,62.29-.13,124,5.28,186.29,6.15,29.25.41,58.51.88,87.76.46,30.53-.44,61-2.71,91.54-.42,31.5,2.36,63,3.29,94.47,6.14,15.39,1.4,30.79,3.49,46.28,4.14,15.78.66,31.72.58,47.51.11,16-.48,31.95-.91,47.94-1.34,15.35-.41,30.29-2.58,45.65-1.91s31.32-.57,46.84-1c15.06-.37,30.07-.85,45.12-1.12,15.25-.27,30.45-1.45,45.69-1.86s30.25.55,45.53.52c7.32,0,14.62-.38,21.94,0,8.39.49,16.6,1.51,25,1.5,14.42,0,29,1.2,43.26-.45a561.53,561.53,0,0,1,81.15-3.25c16.29.48,32.32,1.54,48.66,1,15.05-.47,30.17-.75,45.24-1.09,30.91-.71,62.11,2,93,3.3,31.91,1.39,63.86,1.63,95.78,2.85,30.49,1.16,61.23,3,91.78,3.24,15.63.11,31.23-.45,46.87-.1s31.37,1.37,47.06,2c64.65,2.72,129.25,3.83,194,4.08,30.52.12,61.49.8,91.93-.85,15.69-.85,31.13.19,46.8.57s31.59-.07,47.29.83c14,.8,28,2.15,42,2.4,13.8.25,28.15-.79,41.91-1.67,27.49-1.76,54.87-4.15,82.4-5.76,31-1.81,61.94-4.7,93.06-5.51,31.43-.81,62.9-1.28,94.32-2.39,64.92-2.29,129.54-3.35,194.49-.88,32.48,1.23,65.39,1.41,97.81-.7,31.36-2,61.77-7.34,92.71-11.31s61.46-10,92.67-12.48c15.75-1.25,31.37-1.78,47-3.92,15.15-2.08,30.29-4.13,45.43-6.26,14.77-2.08,29.76-3.33,44.44-5.77,15.37-2.56,30.41-3,46.08-4.11,15-1,29.8-1.48,44.89-1.74,40.5-.69,81.13-1,121.62,0,30.55.76,61.1,2,91.66,1.7,31-.34,63.05.19,93.86,3.35,31,3.18,61,5.13,92.29,4.29,15.38-.41,30.92-.19,46.31,0,15.05.19,30-.32,45-.33,15.48,0,30.94,1.51,46.41,1.81,7.3.14,14.57.29,21.85.75a91.81,91.81,0,0,0,23.35-1.08c14.3-2.4,29.23-3.31,43.66-5.33,14.66-2,29.24-4,44-5.47a408,408,0,0,1,47.17-2c15.15.31,30,3,44.93,4.64,30.75,3.4,61.77,7.69,92.71,9.83,62.07,4.3,124.24,8.93,186.65,8.91,15,0,30-2.09,45-2.46,7.83-.2,15.68-.07,23.51,0,11,.11,21.95.27,32.92.41,24.36.3,48.72.7,73.08.9q40.16.33,80.31.72c47.77.5,94.57,7.05,142.1,10,30.71,1.9,61.32,4.48,92,6.29,16,.94,31.29,1.66,46.89-1.82a67.75,67.75,0,0,1,8.53-1.68c3.13-.3,14.32,1.71,14.88.84.7-1.09-2.83-1.32-6.45-2.32a28.76,28.76,0,0,0-11-.81c-7.2.85-13.63,3.4-21.07,3.88-7.77.5-15.8.18-23.59,0-16.26-.45-32.46-2.18-48.63-3.4-22.2-1.67-44.46-2.71-66.63-4.58-19.47-1.64-39-3.17-58.36-5.22-31.54-3.33-63.28-3.8-95.12-4.08-32.31-.29-64.63-.43-96.94-.67-31.37-.23-63.33-2.81-94.64-1.12-15.69.85-31,2-46.81,2-16,.09-31.92-.66-47.92-1.27-31.07-1.18-62-3-93-5-31.63-2-62.78-5.23-94.21-8.47-30.28-3.12-61.53-9.45-92.16-8.46-31,1-60.89,5.22-91.42,9-15,1.84-29.69,4.24-45,4.24-16.2,0-32.36-1.55-48.61-1.68-30.59-.24-61-1.91-91.62-1.71-32.41.21-65.61,2.95-97.77-.42-29.13-3.05-58.9-4.71-88.32-5.1-31.82-.43-64,1.09-95.75-1s-63.85-1.16-95.6-1.52c-14.77-.17-29.54.26-44.31.49-15,.23-30.77-.43-45.69.56S5406,4.22,5391.3,6.38c-10.56,1.55-21,3.29-31.59,4.66-12.7,1.64-25.38,3.38-38.07,5.08-26.16,3.49-52.12,6.39-78.47,9-30.57,3-60.78,8.69-91.15,12.68-31,4.06-61.62,9.22-93.09,11-31.66,1.75-63.2,1.38-94.91.56-31.12-.8-62.14-2-93.3-1.84-32.1.13-64.26,1.28-96.32,2.45-31.86,1.16-63.72,1.5-95.57,2.54-31.38,1-62.71,3.43-94,5.44-24.6,1.58-49.17,3.34-73.75,5-21.65,1.48-43,3.41-64.77,2.56-31.31-1.22-62.49-3.19-93.87-3.58-15.08-.19-30.15.51-45.21.35-15.61-.16-31,.9-46.59.91-63.64.06-127.19-1.6-190.76-3.64-30.29-1-60.5-3.5-90.82-3.54-32.07,0-63.61-.76-95.61-2.23-31.36-1.45-62.88-1.69-94.28-2.44-29.89-.72-59.84-2.25-89.71-3.57-15.57-.69-30.94-2.09-46.58-1.54-15,.52-30,1.18-45,1.43-15.73.26-31.38-1.13-47.09-1.33-15.38-.2-30.53-.18-45.9.4-14.38.55-28.39,3.9-42.78,3.83-15.55-.08-31.19-.27-46.67-1.38-30.24-2.15-61.14-.45-91.47-.57-16.39-.06-32.14-.39-48.52.59-15.23.91-30.44,1.07-45.71,1-15.1-.09-31.47-.6-46.34,1.55-15.08,2.18-29.94,3-45.3,3.6-31.06,1.25-61.95,1.87-92.92-.62-31.73-2.55-63.13-6.06-95-7.38-14.38-.6-28.41-2.74-42.77-2.31-14.83.44-29.54-1.16-44.44-.4-31.46,1.61-63,1.1-94.54.79s-63.28-.24-94.87-2.1-63-3.1-94.75-4.11c-16.1-.52-32,.22-48.1.37-15.32.14-30.89-.73-46.23-1.06-31.2-.67-62.53-1.36-93.7-2.61-31.64-1.28-63.14-1-94.8-.89-31.37.06-62.63-1.17-93.93-2.54s-62.52-3.83-93.8-4.28c-31.66-.46-63.33-1.09-95-1.44-14.91-.16-29.73-1.23-44.62-.84-15.93.41-31.66,1.31-47.51,2.5-15.25,1.14-30.54,2-45.64,4.07-15.31,2.06-29.78,4.87-45.47,4.8-20-.09-39.83.07-59.75.53a389.62,389.62,0,0,1-47-1.39c-9.43-.92-18.94-1.59-28.45-1.74-26-.42-52.09-.41-78.12-.62-19.71-.16-39.14-.79-58.88-.33-14.46.33-28.82-.61-43.3-.17-15.55.47-31.08,1.14-46.62,1.78-32.12,1.32-64.54,1.39-96.59,3.44-30.08,1.93-60,6-89.86,9.21-14.9,1.6-29.43,3.94-44.15,6.24-15.65,2.44-31.44,3.63-47.27,5.2-30.39,3-60.92,6-91.46,8-30.77,2-62.13,2.34-93,2.24-19.28-.06-38.51-1.13-57.81-1.22L878.26,68A1201.6,1201.6,0,0,1,714.74,55.89c-14-2-28.32-2.87-42.46-4.49-15.23-1.74-31.16-1.42-46.42,0-28.93,2.6-59.17,1.59-88.32,1.08-31.92-.57-63.75-1-95.62-2-29.37-1-58.75-1.92-87.52-6.71-27.44-4.57-55.78-5.49-83.68-7.63-30.47-2.34-61-3.32-91.62-4.61-29.79-1.26-59.9-4-89.75-2.66-14.56.65-28.48,1.33-43.1,1.2-15.44-.13-30.83-.36-46.28-.6A3.4,3.4,0,0,0,3.46,32.06Z"/></g></g></svg>