<svg xmlns="http://www.w3.org/2000/svg" viewBox="0 0 500.38 534.83"><defs><style>.cls-1{fill:#fff;}.cls-2{fill:#c06;}.cls-3{fill:none;stroke:#000;stroke-miterlimit:10;stroke-width:0.5px;}</style></defs><title>tree</title><g id="Layer_2" data-name="Layer 2"><g id="Layer_1-2" data-name="Layer 1"><path class="cls-1" d="M500.14,176.79V494.12c-10,14.11-22.19,26.59-37.67,33.82.56-7.35.94-14.75.86-22.19-.13-8.55,0-17.1,0-25.7h-.43c.26-14.67.09-29.37,1.07-44,.38-5.73-2.1-9.88-4.06-14.49a2.76,2.76,0,0,0-2-1.07l-.34-5.81c.64,0,1.84-1,1.84-1.5-.13-4.57-.38-9.15-.81-13.68-1-10.65-1.5-21.25.38-31.94a262.1,262.1,0,0,0,4.32-40.06c.13-5.73,1.41-11.5,2.18-17.23.47-3.63,1.15-7.23,1.37-10.9.68-10.9.9-21.93,6.8-31.43-2.1-2.39-3.63-2.1-4.62.09-.81,1.84-1.54,3.68-2.18,5.56L456,271.07a46.68,46.68,0,0,0,2.18-24.29,127.4,127.4,0,0,1-2.48-21,36.17,36.17,0,0,0-2-9.88c-2.61-8.81-5.47-17.53-8.21-26.29-1.5-4.92-2.91-9.92-7.78-12.36a18.67,18.67,0,0,1,0-4.15c2.05-7.53,2.61-15.05.13-22.62a10.13,10.13,0,0,1-.47-3.59,7.25,7.25,0,0,0-.17-1.71l4.53-.94c2.69,13.17,6.2,26.08,11.93,38.39a70.48,70.48,0,0,1,5.56,16.46c1.37,7.35,4.92,13.77,7.4,20.65,1.07,3.08,3.25,5.86,5.3,8.51,3.55,4.66,7.44,4.87,11.59.73a20.75,20.75,0,0,0,2.74-3.63c4.06-5.94,5.73-12.87,7.53-19.58,1.92-7.05,2.57-14.45,4.28-21.55C498.68,181.75,499.33,179.23,500.14,176.79Z" transform="translate(0)"/><path d="M500.14,164.61v12.19c-.81,2.44-1.45,5-2.05,7.48-1.71,7.1-2.35,14.49-4.28,21.55-1.8,6.71-3.46,13.64-7.53,19.58a20.75,20.75,0,0,1-2.74,3.63c-4.15,4.15-8,3.93-11.59-.73-2.05-2.65-4.23-5.43-5.3-8.51-2.48-6.88-6-13.3-7.4-20.65a70.48,70.48,0,0,0-5.56-16.46c-5.73-12.31-9.24-25.23-11.93-38.39-.64-3-1.24-6-1.8-9.06,1.24-7.4-2.27-12-8.47-15.48a14.87,14.87,0,0,1-4.23-3.55,17.38,17.38,0,0,1-3.55-8.38,91.54,91.54,0,0,1-1-11.84c-.17-4.32,0-8.51-4-11.63-1.24-1-1.75-3.16-2.22-4.92-2.86-10.09-8.89-17.27-18.73-21.08a22.18,22.18,0,0,1-10.43-7.61A22.1,22.1,0,0,1,384,43.52a46.87,46.87,0,0,0-2.05-5.09,18.09,18.09,0,0,1,.51-15.09c1.92-4.06,3.08-8.47,4.79-13.25,5.94,2.86,9.24,8.21,13.51,12.27s8.59,8.55,13.38,13.43c.64-1.41,1.45-2.39,1.45-3.38,0-6.11,2.86-11.16,5.73-16.25,2.69-4.79,5.34-9.62,8.12-14.32.43-.73,1.41-1.07,2.1-1.54,7.05,4,13.81,11.54,16.29,18a16.78,16.78,0,0,1,.81,9.92c-1.28,5.47.21,10.26,3.16,14.79,1.5,2.31,2.57,4.92,4.15,7.14,6.71,9.75,4.19,19.37-.81,28.56A15.57,15.57,0,0,1,447,85.76a19.87,19.87,0,0,1-3.63,1.07c-4.79.9-9.58,1.58-14.49,2.39-2.74,8.34-2,16.29,1.2,24.16a13.32,13.32,0,0,0,5.86,6.84,7.12,7.12,0,0,0,5.17.9c4.28-.77,5.3.13,4.66,3.85-2.69,15.35,1.67,29.72,6.33,44,1.62,4.92,4.32,9.45,6.16,14.28,1.75,4.57,3,9.32,4.57,13.94,2.69,8.12,5.47,16.25,8.25,24.33a8.39,8.39,0,0,0,.77,1.67c2.82,5.09,6.33,5.47,9.79.64a37.34,37.34,0,0,0,4.75-8.81,65.61,65.61,0,0,0,3.81-13.21A173.64,173.64,0,0,1,500.14,164.61Zm-50.32-87c6.16-6.11,7.87-16.72,4.06-24.58a35.14,35.14,0,0,0-8.76-11.93c-1.28.73-2,.86-2.31,1.33-6.24,10.09-11.63,20.61-14.37,32.28a20.74,20.74,0,0,0-.38,5.43,3.53,3.53,0,0,0,3.33,3.68C438.31,84.18,444.81,82.64,449.81,77.64Zm-6.46-47.12c1.67-4.45,1.8-9.19-.68-13.3s-4.57-8.64-10-9.92c-4,3-5.94,7.23-8.34,11-5.6,8.81-5.26,18.51-3.42,28.26.38,2.05,1.45,4.06,4.7,4.28a19.86,19.86,0,0,0,1.88-3.55c1.58-5.6,3.12-11.16,3-17.06,0-1.28.56-2.31,2.52-2,3,9-1.33,17.06-3,26.42a10.76,10.76,0,0,0,2.48-2.05,85.94,85.94,0,0,0,4.49-8C439.25,40,441.48,35.35,443.36,30.52ZM425.27,70.8c1.07-3.42,2.57-6.76,2.57-10.9-3.16-2.44-6.41-4.92-10.26-7.87-1.41,3-2.69,5.34-3.59,7.82a4.53,4.53,0,0,0,.26,3.42,45.78,45.78,0,0,0,3.85,6.11c1.5,2.05,1.88,5,5,6.58C423.9,74,424.76,72.42,425.27,70.8ZM412,52.54c.43-16.08-10.48-24.5-21.51-34.12-4.15,5-6.58,9.62-5.81,14.92,1.2,8.25,4.66,15.65,11.2,21.25,3.55,3.08,7.4,4.1,11.54.94C408.81,54.47,410.35,53.61,412,52.54Z" transform="translate(0)"/><path d="M500.14,148.27v9.11A13.85,13.85,0,0,1,500.14,148.27Z" transform="translate(0)"/><path d="M500.14,136.13v5.22c-.6-.56-1.15-1-1.75-1.5-2.18-1.67-4.57-3.08-6.67-4.83-4.53-3.93-4.83-5.73-2.57-12.06a25.8,25.8,0,0,0,.64-2.61c-5.47-.51-7,.09-8.81,4-1,2.18-1.84,4.53-2.69,6.8-3,7.82-12.27,10.82-20.78,5.52-3.25-2.05-5.3-9-4.23-13.3.51-2.05,1.24-4,2-6.5a26,26,0,0,0-5-2.31c-5.52-1.41-9.92-4.62-14-8.42-3-2.82-3-5.73.17-8.68a21.44,21.44,0,0,1,11.72-5.6,31.4,31.4,0,0,1,7-.3c3,.17,6,.68,9.45,1.07,1.5-3,2.82-5.69,4.23-8.34,3.08-5.77,11.12-8.21,16.59-4.87,3.76,2.27,4.92,6.16,4.75,10.3-.13,2.35-1,4.7-1.54,7,8.81,7.31,8.81,7.31,6.88,18.68,1.58.38,3.12.73,4.7,1.11v4.4c-3.16,0-5.26,1.5-6.41,4.62a7.25,7.25,0,0,0,3.46,9.36A22.76,22.76,0,0,0,500.14,136.13Zm-9.45-25.57c1.41-1.67,1-4.1-.47-5.94a4.24,4.24,0,0,0-5-1.11c-5,1.71-9.79,3.85-9.58,10.82,2.82,2.31,5.6,3.38,8.17,2A24.18,24.18,0,0,0,490.69,110.56Zm-5.26-21.29a5.27,5.27,0,0,0-2.31-5.56,5.35,5.35,0,0,0-6,.17A11.1,11.1,0,0,0,471.58,95c2.44,1.45,4.92,3,7.61,4.57C482.57,96.54,484.79,93.33,485.43,89.27Zm-9.88,34.93c.47-3.29-2.14-7.31-4.87-7.78-6.5-1.11-11.72,3.38-11.67,10.09a34.35,34.35,0,0,0,0,3.63c.43,4.7,4,6.76,8.34,5.09C472.56,133.31,474.78,129.29,475.55,124.2Zm-6-14.45c2.22-1.8,3.81-3.25,1.88-6.33C469.4,105.09,467.64,106.5,469.57,109.75Zm-17.32,2.61c8.89,2.74,12.83-.81,11.76-9.88-.38-3.55-2.14-5.43-5.64-6.11a27.58,27.58,0,0,0-3.51-.38c-4.75-.13-8.29.43-11.46,2.52s-3.55,6.16-.51,8.42C445.75,109.07,448.87,111.33,452.25,112.36Z" transform="translate(0)"/><path d="M469,268c1-2.18,2.52-2.48,4.62-.09-5.9,9.49-6.11,20.52-6.8,31.43-.21,3.68-.9,7.27-1.37,10.9-.77,5.73-2.05,11.5-2.18,17.23a262.1,262.1,0,0,1-4.32,40.06c-1.88,10.69-1.41,21.29-.38,31.94.43,4.53.68,9.11.81,13.68,0,.51-1.2,1.5-1.84,1.5s-1.88-.94-1.88-1.5c-.77-14.92-2.69-29.76-.47-44.72,2-13.3,2.86-26.72,4.28-40.1.81-7.57,1.71-15.18,2.52-22.75.56-4.87,1.15-9.71,1.54-14.58a73.12,73.12,0,0,1,3.29-17.44C467.43,271.71,468.16,269.87,469,268Z" transform="translate(0)"/><path class="cls-1" d="M456,271.07l10.82,2.52A73.12,73.12,0,0,0,463.5,291c-.38,4.87-1,9.71-1.54,14.58-.81,7.57-1.71,15.18-2.52,22.75-1.41,13.38-2.31,26.81-4.28,40.1-2.22,15-.3,29.8.47,44.72,0,.56,1.2,1.45,1.88,1.5l.34,5.81c-.09,0-.17,0-.26,0-1,.34-2.35,1.11-2.65,2a11.48,11.48,0,0,0-.17,4.53c.38,5.47.9,11,1.24,16.46.43,7,1,14,1,21,0,13.17-1.11,26.34-.6,39.42.34,8.89.21,17.66-.21,26.47v0c-.68.21-1.37.47-2.05.68-11.63,3.68-23,4.23-34.25,3.12-.21-2-.47-3.93-.64-5.9-.86-9.24,1.8-18.09,2.61-27.15.3-3.59,1-7.4.34-10.86A96.92,96.92,0,0,1,421,467.62a23.84,23.84,0,0,0-.64-6.24c-.17-.73-1.33-1.84-1.88-1.75-1,.13-2.52.77-2.86,1.62a43.52,43.52,0,0,0-3.72,16.8c0,9.75,0,19.54,0,29.29h-.73c-.34,7-.68,14-1,21-.09,1.54-.09,3.08,0,4.62-10.6-1.8-21.21-4.7-31.9-7.44-1.58-6.33-3.46-12.57-5.69-18.77A62.64,62.64,0,0,0,362,487.58,170.4,170.4,0,0,0,346.13,471a106.05,106.05,0,0,1-15.86-17.74,93.2,93.2,0,0,0-20.65-21.93,62.91,62.91,0,0,1-13.43-13.72c-1.88-2.69-4.79-4.62-7.31-6.8a66.14,66.14,0,0,0-20.69-11.54,63.32,63.32,0,0,1-9-4.49c-5-2.86-9.79-6.41-15.05-8.72-8.38-3.68-17-6.76-25.7-9.79-11.24-3.93-22.53-8.08-32.67-14.37-14.32-8.94-29.46-16.16-44.68-23.26a43.63,43.63,0,0,1-5.39-3.46c1.15-3,2.14-5.34,3.42-8.55,2.27,2.14,3.89,3.89,5.73,5.39,2.61,2.1,5.13,4.49,8.08,5.9,9.66,4.45,19.54,4.62,29.24-.13a96.55,96.55,0,0,0,9.32-5.81c4.45-2.86,5.56-3,9.75.38,3.12,2.57,6.24,5.09,10.22,5.94,6,1.28,11.59,3.72,17.23,6.07,12.78,5.34,25,11.5,35.44,20.78a43.72,43.72,0,0,0,7.53,5.22c8.08,4.53,15,10.52,22.1,16.38,2.35,1.92,4.75,3.85,7.23,5.64,13.38,9.83,28.65,16.33,43.65,23.17,6.54,3,12.23,6.58,16.38,12.61a17,17,0,0,0,4.75,4.1c5.73,3.89,12.61,4.45,19,6.46,11,3.51,11.63,2.82,15.09-8.85.26-.9.26-1.84.43-2.74,1.45-7.53,3-15,4.36-22.53a81,81,0,0,0,1.24-9.06,146,146,0,0,1,3.55-25.35,23,23,0,0,0-1.58-16.08c-4.57-9-9.11-18-13.9-26.81-8.08-14.84-17.57-28.56-29.59-40.66-6.63-6.67-13.25-13.55-18-21.93-2-3.46-5.22-5.73-8.72-7.87-6.16-3.76-11.93-8.25-18.34-12.83,3.33-2.48,6.8-2.1,9.88-3,4-1.11,7.14.17,10.22,2.48,6.07,4.62,12.14,9.24,18.34,13.64,2.74,1.92,5.77,3.42,8.64,5.17,2.61,1.58,5.56,2.86,7.65,5a142.15,142.15,0,0,1,12.14,13.72c8.51,11.2,16.63,22.7,25.14,33.91a93.66,93.66,0,0,0,9.15,10.18c2.91,2.86,5.34,2.69,7.78-.34A46.52,46.52,0,0,0,432.8,318c2.31-4,4.49-8,6.54-12.1,4.92-9.83,10-19.58,14.58-29.59C454.69,274.57,455.37,272.82,456,271.07Z" transform="translate(0)"/><path d="M459.86,421.57c2,4.62,4.45,8.76,4.06,14.49-1,14.62-.81,29.33-1.07,44h.43c0,8.59-.09,17.15,0,25.7.09,7.44-.3,14.84-.86,22.19a61.4,61.4,0,0,1-6.24,2.52c.43-8.81.56-17.57.21-26.47-.51-13.08.56-26.25.6-39.42,0-7-.6-14-1-21-.34-5.47-.86-11-1.24-16.46a11.48,11.48,0,0,1,.17-4.53c.3-.9,1.62-1.67,2.65-2,.09,0,.17,0,.26,0A2.76,2.76,0,0,1,459.86,421.57Z" transform="translate(0)"/><path d="M458.15,246.78A46.68,46.68,0,0,1,456,271.07c-.6,1.75-1.28,3.51-2.05,5.22-4.53,10-9.66,19.75-14.58,29.59-2.05,4.1-4.23,8.12-6.54,12.1a46.52,46.52,0,0,1-4.57,6.84c-2.44,3-4.87,3.21-7.78.34A93.66,93.66,0,0,1,411.29,315c-8.51-11.2-16.63-22.7-25.14-33.91A142.15,142.15,0,0,0,374,267.35c-2.1-2.1-5-3.38-7.65-5-2.86-1.75-5.9-3.25-8.64-5.17-6.2-4.4-12.27-9-18.34-13.64-3.08-2.31-6.2-3.59-10.22-2.48-3.08.86-6.54.47-9.88,3,6.41,4.57,12.19,9.06,18.34,12.83,3.51,2.14,6.76,4.4,8.72,7.87,4.75,8.38,11.37,15.26,18,21.93,12,12.1,21.51,25.82,29.59,40.66,4.79,8.85,9.32,17.83,13.9,26.81a23,23,0,0,1,1.58,16.08,146,146,0,0,0-3.55,25.35,81,81,0,0,1-1.24,9.06c-1.37,7.53-2.91,15-4.36,22.53-.17.9-.17,1.84-.43,2.74-3.46,11.67-4.1,12.36-15.09,8.85-6.37-2-13.25-2.57-19-6.46a17,17,0,0,1-4.75-4.1c-4.15-6-9.83-9.62-16.38-12.61-15-6.84-30.27-13.34-43.65-23.17-2.48-1.8-4.87-3.72-7.23-5.64-7.1-5.86-14-11.84-22.1-16.38a43.72,43.72,0,0,1-7.53-5.22c-10.43-9.28-22.66-15.43-35.44-20.78-5.64-2.35-11.2-4.79-17.23-6.07-4-.86-7.1-3.38-10.22-5.94-4.19-3.42-5.3-3.25-9.75-.38a96.55,96.55,0,0,1-9.32,5.81c-9.71,4.75-19.58,4.57-29.24.13-3-1.41-5.47-3.81-8.08-5.9-1.84-1.5-3.46-3.25-5.73-5.39-1.28,3.21-2.27,5.6-3.42,8.55a43.63,43.63,0,0,0,5.39,3.46c15.22,7.1,30.36,14.32,44.68,23.26,10.13,6.29,21.42,10.43,32.67,14.37,8.68,3,17.32,6.11,25.7,9.79,5.26,2.31,10,5.86,15.05,8.72a63.32,63.32,0,0,0,9,4.49,66.14,66.14,0,0,1,20.69,11.54c2.52,2.18,5.43,4.1,7.31,6.8a62.91,62.91,0,0,0,13.43,13.72,93.2,93.2,0,0,1,20.65,21.93A106.05,106.05,0,0,0,346.13,471,170.4,170.4,0,0,1,362,487.58a62.64,62.64,0,0,1,10.6,19.15c2.22,6.2,4.1,12.44,5.69,18.77-2.91-.73-5.81-1.45-8.76-2.14-4.4-1-8.76-1.84-13-2.44.47-1.11,1-2.27,1.45-3.38,3.08-7.57,2-15.18-2.1-22-5.3-9-12.4-16.63-19.5-24.29-2.91-3.12-5.73-6.29-8.59-9.45-1.24-1.37-2.39-2.78-3.72-4.06q-7.18-7.05-14.49-14a26.78,26.78,0,0,0-4.19-2.65c-1.15,2.78-2.18,4.92-3,7.14-3,8.25-9.53,12.44-17.19,15.26s-14.45,1.45-20.57-3.81a10.85,10.85,0,0,0-2.1-1.11c-6,1.75-12.44,3.59-18.86,5.52-6.67,2.05-13.25,1.58-19.88-.3-8.38-2.39-12.61-8.42-13.77-16.55-.86-5.73-.77-11.59-1.11-17.4-1.84-1.2-2.69.26-3.59,1.37-5.52,7.05-13,9.66-21.63,10.22a41,41,0,0,1-22.92-5,25,25,0,0,1-11.89-13.3c-3-7.4-5.39-14.88-5.34-23.3-4.23-.73-8.12-1.28-11.93-2.1-12.57-2.78-20.91-11.93-22.28-24.76-.51-4.83-.43-9.71-.6-14.32-2.65-3-6-3.55-9.24-4.36-2.35-.56-5-.6-7.1-1.71-5.47-2.86-10.56-1.8-15.82.38s-10.6,4.62-16.42,5.73c-3.12.6-5,2.78-6.41,5.9a38.27,38.27,0,0,1-14.62,17.19c-4.15,2.52-7.65,6-11.59,8.94-2.14,1.58-4.32,3.72-7.87,1.24,1.92-7.7,3.93-15.56,6.07-24.07-2.44-.21-4.4-.43-6.41-.6a19.94,19.94,0,0,1-3.63-.26,2.77,2.77,0,0,1-1.62-1.84,2.51,2.51,0,0,1,1.41-2,39.67,39.67,0,0,1,4.53-.3c1.37-.13,2.74-.38,5.22-.73-4.19-3.42-7.4-6.07-10.65-8.64-3.08-2.44-6.2-4.83-9.83-7.61C6,344.74,7,343,8,343c11.63-.21,23.39-.94,34.46,3.38,4.45,1.71,9.88,1.84,12.1,7,7.4-1.28,13.72-2.78,19.88-6.84-2.65-3.51-5.9-4.66-8.81-5.9-8.17-3.46-16.63-6.24-24.71-9.79-8.64-3.81-17.83-6.63-25.35-12.7a25.84,25.84,0,0,1-3.51-2.91c-1.11-1.15-1.67-2.91-.34-4.06a7.34,7.34,0,0,1,4.06-1.37,3.55,3.55,0,0,1,2.44,1.11,84.15,84.15,0,0,0,31.51,16.2c3.51.94,6.71,3,10.13,4.28,3,1.2,6,3,10.18,2.48a23.72,23.72,0,0,0-.3-4.45,29.2,29.2,0,0,0-2.05-5.13,19.84,19.84,0,0,1-.51-17.7,22.22,22.22,0,0,0,.77-3c-2.31-4.49-5.69-7.4-11.12-8.17a68.38,68.38,0,0,1-35.32-16.25c-4.15-3.55-9.24-6-13.94-8.85-1.28-.81-2.74-1.33-4.06-2.1-2.65-1.58-3.93-3.81-3-5,1.5-1.75,3.33-1.07,5.09-.51,1.41.51,2.78,1.33,4.19,1.8,4.32,1.54,8.64,3.12,13,4.36a23.32,23.32,0,0,1,9.71,5c4.66,4.19,10.3,6.67,16.16,8.51s11.37,4.23,16,8.55c1.71,1.62,4.15,2.52,5.9,3.55,3.72-.86,7.1-1.28,10.18-2.44,3.68-1.37,7.7-2.69,10.6-5.17,6.67-5.81,14.32-6,22.36-5.52a25.22,25.22,0,0,0,3.59-.13c.21,0,.38-.38.9-1-2.82-4.49-7.35-7.61-10.69-11.29a7.59,7.59,0,0,0-2.31,0c-12.4,6-23.73,4.15-34-4.75-3.72-3.21-7.27-6.54-11.84-8.55-.86-.43-2-2.14-1.75-2.65.56-1.24,1.88-2.1,3-3,.17-.17.6-.17.9-.17,10,.86,20.27-.94,29.8,3.63a28.88,28.88,0,0,0,4.1,1.37c-.21,2.69-2,2.61-3.42,2.27a16.79,16.79,0,0,1-4.92-2.35c-5.22-3.46-10.3-2.78-15.95.34,1,1.75,1.62,3.51,2.78,4.75,5.34,5.81,12.36,7.78,20,7.53a10.62,10.62,0,0,0,5.69-2.48c1.88-1.45,3.25-3.55,5-5.56a18.48,18.48,0,0,0-1.8-4.19c-1.28-2.14-2.82-4.06-4.1-6.11-4.45-7.23-5.13-14.88-2.74-22.92.81-2.65,2.39-4.23,5.43-4.1,5.77,4.53,9.28,12,17.19,14.62,2.35-3,2.65-6.41,3.76-9.49.94-2.61,1.8-5.22,2.91-7.74,1.54-3.59,4.92-4.1,7.05-.94,4.23,6.29,6.54,13.13,5,20.82-1.75,8.76-3.93,17.27-10.48,24-3.46,3.59-4.32,7.87-1.67,12.57,2.1,3.72,3.76,7.74,5.86,11.42a4.94,4.94,0,0,0,7.23,1.37,16.46,16.46,0,0,0,3.89-3.81,39.66,39.66,0,0,1,25.31-17.19,54.45,54.45,0,0,1,30.1,17.44,9.2,9.2,0,0,0,2.05,1.84,59.72,59.72,0,0,1,20,18.38c.47.68,1.45,1,2.14,1.5,3-.81,4.36-3.38,6.2-5.39,2.91-3.12,5.81-6.29,8.89-9.24,3.59-3.33,6.5-2.18,7.27,2a21.85,21.85,0,0,0,1.67,5.22,25.57,25.57,0,0,1,.21,22.19,8.26,8.26,0,0,0-.51,1.75c-.09.26,0,.6.17,1.45,4.79,2.31,10.18,2.05,15.48,1.75,2.18,4.36,2.22,4.36,1,9.79-5.22,2.14-11.8,2.44-15.69,8.42,1.37,1.45,2.35,3,3.81,3.93,22.62,14.54,45.24,29.16,68.07,43.4,12.19,7.65,24.71,14.67,37.07,22,5.26,3.12,10.48,6.33,15.73,9.45,5.6,3.29,8.55,3,12.7-1.84a43.83,43.83,0,0,0,9.75-19.5c1.92-8.68,4-17.32,5.09-26.12,1.24-9.71.94-19.45-4.4-28.39a79.74,79.74,0,0,1-5.26-11.67c-2.35-6-6-11.24-9.32-16.76-4.92-8.17-10.9-15.48-16.67-23-3.12-4.06-6.88-7.65-10.95-12.1-1.11,2.74-2.18,4.57-2.61,6.5-1.8,8.29-6.33,14.67-13.6,18.68a97.15,97.15,0,0,1-17.49,7.91c-7.05,2.22-13.94-.51-20.48-3a30,30,0,0,1-11.72-8.68c-1-1.15-1.84-2.44-2.82-3.63-7.65-9.71-7.65-9.71-9-21.34-3.12-1.58-6.58-1.28-9.83-1.15-10.56.47-18.17-4.57-24.11-12.57-3.25-4.36-5.94-9.19-8.81-13.68-.51-.13-.86-.3-1.11-.21-11.93,4.28-22.23-.51-32.15-6.16a19.35,19.35,0,0,1-6.63-7.35,41.28,41.28,0,0,1-4.87-23.9,28.11,28.11,0,0,1,5-13.6c1.71-2.57,3.51-5,5.47-7.87a33.58,33.58,0,0,1-3.93-23.73,110.11,110.11,0,0,1,3.21-13.34,13.46,13.46,0,0,1,4-6c7.74-6.16,17.44-10,28.9-4.53,2.61,1.24,5.17,2.61,7.7,4.06s4.92,3,7.35,4.62a22.22,22.22,0,0,1,9.15,12.23c.56,1.71,1.15,3.46,1.71,5.22.17.6.3,1.2.47,1.8.77,3.12,2.14,5.47,5.22,7.05,2.1,1.07,3.76,3.08,5.56,4.7.94.81,1.8,1.71,2.74,2.48,9.11,7.18,12.14,6.11,19.45.68,1-.68,2-1.41,3.16-2.31-1-7.4-7.18-10.18-12.4-13.55-4.15-2.65-8-2.57-17.62-1.2a2.38,2.38,0,0,1-.43-.64c-.43-1,.3-1.75,1.15-2.31,5.34-3.46,10.9-3.81,16.5-.77,7.35,3.89,14.45,8.08,18,16.29.51,1.15,2.05,1.88,3.12,2.82,7.53-8.76,7.53-8.76,19.75-14.67.56-.26,1.11-.47,1.67-.77,2.39-1.2,4-3.46,3.76-5.86-.77-8.25-2.78-16.42-7.53-23.26-2.78-4-7.57-6.2-12.61-6.88-4.57-.64-9.15-.68-13.38,1.8-1.28.73-2.69,1.11-4.7,2a18.42,18.42,0,0,1-.34-3.55.82.82,0,0,1,.13-.34c.77-1.2,2.1-2.61,3.33-2.82,10.56-1.54,20.78-1.2,29.63,6a11.1,11.1,0,0,1,4,5.94c2.22,8.21,4.45,16.42,7.05,25.91,1.28,1.45,4.49,1.5,7.35,2.39,9.62,3,16,9.32,20.61,18.17,6.46,12.36,4.62,23.64-3.33,34.38-2.86,3.85-6.2,7.4-9.71,11.59a23,23,0,0,0,2.69,2.78c9.83,7.23,19.88,14.24,29.59,21.68,5.09,3.89,9.71,8.42,14.45,12.74,3.16,2.86,6,6.11,9.36,8.76a149.73,149.73,0,0,1,19,18.51c4.19,4.66,7.18,4.49,11-.68A84.4,84.4,0,0,0,439.6,290a112.68,112.68,0,0,0,10.73-32c1.45-8.55.56-17.1-1.67-25.44-1.8-6.84-4.23-13.51-5.43-20.39-1.28-7.65-4.7-14.49-7.05-21.72A38.5,38.5,0,0,0,433.4,185c-4,2.86-7.78,5.26-11.16,8.12-5.47,4.66-11.72,6.29-18.68,6.16-6.71-.17-13.43.47-19.71-3-3-1.67-5.77-3.29-7.91-6-5.69-7.31-10.52-15.05-12.7-24.16-1.8-7.4-.38-14.11,2.48-21.34,4-10,12.57-13.51,20.74-18,1.2-.68,3-.34,4.45-.38,5.77-.26,11.54-.51,18-.77-.64-1.71-.77-3-1.45-3.76-5-5.43-10-10.73-15.09-16-.43-.43-.9-1-1.41-1.11-6.33-1.5-13.43-2.91-18.51,1.24-7.35,6.07-13.85,5-21,.86a30.57,30.57,0,0,1-4.57-3.08c-4.28-3.46-8.55-7-12.57-10.69-1.75-1.58-2.91-3.81-4.32-5.73,1.28-4.28,4.49-6,8-7.18,8.68-3,16.89-1.8,24.54,3.16,2.31,1.5,4.53,3.21,6.88,4.53,2.74,1.54,5.52,2.74,8.72,1.33a0,0,0,0,0,0,0c-.26,1.41-1.67,2.78,0,4.7V89.1h0c-4.4-2.91-6.37-7.7-10.13-11.67.51,0,1-.13,1.45-.17,3.42-.13,5.22,1.37,10.13,7.61,3,3.81,6.37,7.48,6,13.08a35.1,35.1,0,0,0,4.7,1c7.82.73,13.72,4.92,18.94,10.3,3,3.08,5.94,6.07,8.72,9.32a57.11,57.11,0,0,1,7.27,10.56c2.35,4.53,6.33,8.21,9.75,12.1a9.34,9.34,0,0,1,2.27,4,7.25,7.25,0,0,1,.17,1.71,10.13,10.13,0,0,0,.47,3.59c2.48,7.57,1.92,15.09-.13,22.62a18.67,18.67,0,0,0,0,4.15c4.87,2.44,6.29,7.44,7.78,12.36,2.74,8.76,5.6,17.49,8.21,26.29a36.17,36.17,0,0,1,2,9.88A127.4,127.4,0,0,0,458.15,246.78Zm-26.89-75c2.35-4.92,2.44-9.79,1-15.14-2.31-8.72-8.81-14.41-14.19-20.91-1.24-1.5-3.63-2.27-5.64-2.69a63.83,63.83,0,0,0-7.91-.94c-5.13.34-8.17.51-11.2.77-10.56.94-18.6,5.39-22.15,16a33.15,33.15,0,0,1-1.41,3.38,20.57,20.57,0,0,0,0,16.08c4.83,12.1,13.77,20.05,26.34,23.3,4.32,1.11,9.06.86,13.6.64s8.08-2.27,11.2-5.52A56.11,56.11,0,0,0,431.26,171.75ZM369.69,96.37c-.68-2.14-.73-3.93-1.67-4.79-4.45-4.23-9.24-8.17-15.43-9.36a24.78,24.78,0,0,0-9,.43c-2.57.51-5.26,1.45-6.41,4.06.21.94.13,1.75.51,2.05,5,4.45,9.88,9,15.18,13.13,2.05,1.62,4.92,2.39,7.53,3.12s4.7-.21,7-3.68c-3.63-.6-6.24-1-8.85-1.54-1.15-.26-2.48-.73-1.62-2.91C360.75,96.71,364.86,96.54,369.69,96.37Zm-37.63,138.1c13.94-.86,24.76-15.86,23.52-28.86C355.28,202,354,198.47,353,195c-1.88-6.63-6.58-10.77-12.7-13.47-1.92-.86-4.06-1.33-6.07-2-8.68-3.12-16.2-.6-23,4.83-1.24,1-1.71,2.91-2.35,4.06,1.8,3.46,6.8,3.46,6.29,7.91-2.61,1.75-4.66-.43-6.88-1-8.34-2.05-9.66.73-10.69,5.94-.43,2.1-1.15,4.15-1.37,6.24-1.24,13.25,7.48,24.46,20.35,27.11C321.93,235.71,326.89,234.77,332.07,234.47Zm10.22,49.94c1.2-7.7-.73-13.51-6.46-18.81-7.53-7-17.1-9-26.29-12a3.37,3.37,0,0,0-4.36,2.31c-.51,1.41-.47,3.12-1.24,4.36-2.31,3.72-2.14,7.44-.94,11.42a22.45,22.45,0,0,1,.81,5.34c0,.38-.68,1-1.15,1.2a2.31,2.31,0,0,1-1.67-.3c-1.84-1.41-2.31-3.46-2.48-5.64-.21-3-.38-6.07-3.21-8.34-1.24.86-2.44,1.8-3.72,2.52-6.71,3.55-8.38,10.18-9.92,16.72-1.37,5.81,2.39,9.71,5.9,13.64.77.9,1.33,2,2.1,3a23.38,23.38,0,0,0,13.64,8.64c7.87,1.75,15.73.9,23.47-1.28a5.81,5.81,0,0,0,2.35-1.33C335,299.59,340.87,293.6,342.28,284.41Zm-37.07-43.74a15.9,15.9,0,0,1-.81-1.45c-.26.17-.68.34-.68.51a9.94,9.94,0,0,0,.17,1.58C304.32,241.1,304.74,240.88,305.21,240.67Zm-5.26,5c-1.15-4-.9-8.89-3.59-13.21-2.86-4.66-5.56-9.45-8.29-14.19-3.89-6.71-6.5-7.74-15.39-5.81-1.67,4-1,8.29-.73,12.48.43,6.46-2.27,11.63-5.94,16.63-3.93-1.15-5.77-3.93-7.78-6.63s-3.76-6.24-7.27-7.7c-5.43,5-8.89,10-10,15.22s-1.84,10.39.81,15.22c4.79,8.76,11.76,14.45,22.1,15.82,7.74,1,13.68-1.2,18.56-7.14C288,259.57,293.8,252.9,300,245.63Zm-3.51,192.66a7.19,7.19,0,0,0-2.31-7.14c-3-3-6.5-5.73-8.81-9.24-3.21-4.83-7-5.26-11.8-3.42-1.41.56-3,.77-4.36,1.33-3.59,1.45-4.7,3.59-3,7.23,3.55,7.44,4.7,15,2.69,23.09-.6,2.44.77,4.06,2.86,5.09,1.67.77,3.42,1.33,5.09,2,3.76,1.58,6.93.47,10.3-1.58C294.1,451.45,295.08,444.48,296.45,438.28Zm-4.36-242.21c-3.46-1-5.86.51-8.34,1.5-4,1.62-7.87,1.41-11.29-1.24-3.59-2.78-6.88-6-10.43-8.85-1-.81-2.39-1.07-3.81-1.62-1.62,10.77.6,14.79,11.89,22,5.73-1.8,11.72-1.8,18.68,1.92C290.08,204.41,291,200.43,292.09,196.07ZM265.15,410.37c2.86,1.33,5.69.43,8.68-1.67-3.25-4.23-7.4-5.17-12.57-6.37C261.82,406.39,262.46,409.17,265.15,410.37ZM266,231.6c2.27-6.5,2.35-13.38-.68-19.41-2.35-4.62-6.5-8.47-11.72-11.84-2.52,3.81-3.81,7-3,10.35A63.3,63.3,0,0,0,260.32,232C262.12,234.55,265,234.34,266,231.6ZM249.33,454.36c7.35-5.47,11.16-12.87,10.13-22.15-.77-7.35-6.16-12.4-13.43-14.11-5-1.2-9.71.09-14.37,1.33-7.31,2-11.29,7.87-15.18,13.72a5.55,5.55,0,0,0-.68,2.65c-.34,10.6,8.34,23.64,20,22.92C241.64,458.94,244,458.38,249.33,454.36Zm8-41.73a24.86,24.86,0,0,0-1.33-3c-.77-1.2-1.75-2.27-3.59-4.57-1,6.46-1.07,6.54.9,8.12C254.42,414.09,255.92,414.81,257.33,412.63Zm-5.39-225.54c2.39-7-.38-14.45-2.82-21.38a2.6,2.6,0,0,0-3.89-1.24c-1.84,1.07-3.33,2.61-5.13,3.76-1.41.9-2.35,3-5.22,1.71,2.39-3.55,4.75-7,7.4-10.86-5-5.6-11.84-9.45-17.44-9.92a4.48,4.48,0,0,0-2.65.21c-3,2.14-6.24,2-9.58,2.22a10.34,10.34,0,0,0-4.92,2.27c-10.13,7.4-12.1,18.9-9.53,30.31a16.58,16.58,0,0,0,3.59,6.29c2.31,2.82,5,5.3,7.53,8,8,8.68,17.66,8.94,27.79,5.17C244.76,200.82,249.5,194.23,251.94,187.09Zm-5.39,28.48c.21-3.12,1-6.63-1.33-9.79-2.57.9-4.87,1.58-7.1,2.48-7.74,3.12-15.52,3.46-23.09-.17-5.26-2.52-10.52-2.22-17.19-1.33-1,4.19-2.52,8-2.82,11.8a23.92,23.92,0,0,0,1.41,9.79,36.25,36.25,0,0,0,9,13.64,24.15,24.15,0,0,0,10.09,6c5.47,1.75,10.22,1.15,13.77-3.89,1.37-2,3.12-3.76,4.28-5.81,3.21-5.56,5.9-11.33,10.3-16.16A11.14,11.14,0,0,0,246.55,215.57Zm6.63,116.89c-7-4.45-14.11-.21-20.74-2.18-2.14,3.12-2.14,5.17,0,6.58a11.57,11.57,0,0,0,9.62,1.8C246.08,337.6,250.36,336.83,253.18,332.46Zm-16.12-9.41c5.09-1.8,8.51-8.17,7.05-13.38a29.31,29.31,0,0,0-5.47-11.2c-9.32,6.54-14.45,14.67-15.69,24.58A20,20,0,0,0,237.06,323.06Zm6.33,81c.6-7.23-.9-10-7.27-13.21-1.92-.94-4-1.5-6-2.27-4.83-1.92-9.83-3.51-14.41-5.9-9.19-4.87-18.9-8.42-28.48-12.31-.47-.17-1.15.21-2.05.47,1.62,3,4.83,3.55,7.4,4.83,11.07,5.69,16.67,14.88,17.79,27.06.6,6.37,1.54,12.78-.38,19.11-.13.34.51.9.9,1.5,3-.51,4.62-3,6-5.17,2.86-4.4,6.84-5.69,11.72-5.81a46.2,46.2,0,0,0,9.06-1.2C242.11,410.07,243,408.74,243.39,404.08Zm-19.5-71.57a2.21,2.21,0,0,0-2.18-3,52.93,52.93,0,0,0-5.81.86c0,.6-.09,1.2-.09,1.8a47.23,47.23,0,0,0,4.7,2.22A2.42,2.42,0,0,0,223.89,332.51Zm-10-12.48c3.55-2.57,4.06-5.6,2.82-9.06-2.31-6.54-6.84-11.12-12.7-14.58-.13,0-.47.21-1.15.47.43,7.65,4.53,14,7.78,20.69C211.15,318.65,212.78,319.25,213.85,320Zm-11,5.43s.9-.9.81-1a24.54,24.54,0,0,0-2-2.35c-.68.86-1,1.24-1.33,1.62C201.15,324.3,201.92,324.94,202.81,325.45ZM202,415c5.73-11,1.07-24.67-8.72-31.64-2-1.41-4.19-2.57-6.8-1.62s-4.49-.09-6.71-1.54c-3.89-2.52-8.42-2.52-11.8.77-2.65,2.57-5.34,3.81-9.06,3.38-2,3.76-3.51,6.41-4.75,9.19a20.55,20.55,0,0,0-1.75,6.07,46.46,46.46,0,0,0,2.1,18.13c3,9.19,10.18,14.28,18.81,17.36a13.25,13.25,0,0,0,8-.21c11.89-4.28,12.4-3.38,17.57-14.28C199.82,418.66,201,416.86,202,415Zm-6.71-103.26c3.08-10.73-3.25-28-16.25-33.31-2.27-.94-4.53-1.8-6.76-2.78-3.85-1.62-7.53-2.52-11,1-.73.77-2.18,1-3.38,1.15-4.32.64-6.93,3.68-9.45,6.76a31.78,31.78,0,0,0-7.23,22c.13,3.89.86,7.31,3.46,10,3.81,3.93,7.44,8.29,12,11.24,14.71,9.71,25.44,6.67,36.09-6.8.26-.34-.13-1.15-.3-2.22a38.35,38.35,0,0,0-3.59-2.05c-2.52-1-5.17-1.84-7.7-3-.64-.3-1.5-1.84-1.33-2,.68-.81,1.71-1.88,2.61-1.88a25.78,25.78,0,0,1,5.3,1.24c2.27.6,4.49,1.24,6.33,1.8C194.86,312.16,195.25,312,195.29,311.73ZM179,369.49c-1.07-2.39-1.41-4-2.39-5A47.2,47.2,0,0,0,159,353.46c-4-1.5-8-2.74-12-4.19-3.42-1.24-6.84-2.65-10.26-3.93-3.12-1.15-5.73-.86-8.21,1.84-2.22,2.44-5.13,4.23-7.61,6.46-1.33,1.2-3,2.44-3.46,4-2.61,8.51-2.86,17,3.33,24.2,6.63,7.7,14.49,13.13,25.7,9.75.77-1.28,1.45-2.65,2.31-3.85,6-8.38,12.83-15.48,24.07-16.2C174.55,371.41,176.22,370.43,179,369.49ZM133.08,233.14c.3-2.61.34-5.64-2.69-7.1-1.88-.94-4.23,2-5.26,6.24-1.62,6.71.21,13,2.61,20,1.2-1.37,2.44-2.1,2.65-3C131.46,243.87,132.44,238.53,133.08,233.14Zm-5.34,87.56c0-2.74.47-5.56.17-8.25-.51-4.83-.94-9.79-2.35-14.41-2.22-7.27-9.19-11.84-16.16-11-4.79.6-9.53,1.88-14.28,2.91-3.76.81-5.9,3-5.39,7.65-8.38,1.58-11.29,7-12.7,13.64-.64,3-.77,6.07-1.15,9.11a18.73,18.73,0,0,0,6.46,17.27,52.27,52.27,0,0,0,7.82,6.33c5.81,3.51,12.14,5.86,19.07,5.81a10.11,10.11,0,0,0,8.72-4.15C123.63,338.19,127.91,330.37,127.74,320.71Zm-6.93-63.49c1.11-5.09.21-9.83-3.59-13.47-4.83-4.57-10-8.76-15.09-13-.3-.3-1.11,0-2.18.13-2.31,6-.9,11.67,2.74,16.8s7.7,10.09,11.89,15.48C120,260.29,120.21,260,120.81,257.21ZM46.37,365.9a2.57,2.57,0,0,0-2.86-3.42A63.21,63.21,0,0,0,36.79,365a9.92,9.92,0,0,0-5.86,5.34c-1.33,3-2.39,6.2-.81,9.92,5.47-1.67,10-4.28,13.25-8.85A31,31,0,0,0,46.37,365.9Zm-11.72-9c3,.21,5.81-.68,7-4.1-4.36-3.93-9.66-3.76-14.62-4.53-2-.3-4.23-.51-5.64,1.54.09.64-.09,1.41.26,1.71A21.08,21.08,0,0,0,34.66,356.92Z" transform="translate(0)"/><path class="cls-2" d="M432.28,156.61c1.41,5.34,1.33,10.22-1,15.14a56.11,56.11,0,0,1-10.35,15c-3.12,3.25-6.8,5.3-11.2,5.52s-9.28.47-13.6-.64c-12.57-3.25-21.51-11.2-26.34-23.3a20.57,20.57,0,0,1,0-16.08,33.15,33.15,0,0,0,1.41-3.38c3.55-10.6,11.59-15.05,22.15-16,3-.26,6.07-.43,11.2-.77a63.83,63.83,0,0,1,7.91.94c2,.43,4.4,1.2,5.64,2.69C423.48,142.2,430,147.89,432.28,156.61Z" transform="translate(0)"/><path d="M422.24,490.4c.68,3.46,0,7.27-.34,10.86-.81,9.06-3.46,17.91-2.61,27.15.17,2,.43,3.93.64,5.9-3.25-.3-6.5-.77-9.75-1.37,0-1.54,0-3.08,0-4.62.3-7,.64-14,1-21h.73c0-9.75,0-19.54,0-29.29a43.52,43.52,0,0,1,3.72-16.8c.34-.86,1.84-1.5,2.86-1.62.56-.09,1.71,1,1.88,1.75a23.84,23.84,0,0,1,.64,6.24A96.92,96.92,0,0,0,422.24,490.4Z" transform="translate(0)"/><path d="M381.53,51.56c1.15,2.48.68,5.17-1.41,8.42a34.53,34.53,0,0,1-7.74,8.94,11.87,11.87,0,0,1-3.25,1.75c-6.46,2.39-15.91.81-20.57-3.76-4.15-4.1-8-8.47-11.93-12.7-1-1.07-2.14-2.1-3.81-3.76-2.1,2.48-3.46,4.15-4.83,5.73a10.89,10.89,0,0,0-2.82,9.24,23.42,23.42,0,0,1-.94,9.88c-2.31,7.27-7.87,8.29-13.13,2.86a19.74,19.74,0,0,1-5.43-9.41c-.47-2-1.15-4-1.84-6.24-4.19-.51-7.18,1.92-10.56,3.08-3.21,1.15-6,.64-8.34-1.88-4.1-4.36-3.93-7.65.51-11.67,1.37-1.24,2.86-2.31,4.32-3.46,1.15-.94,2.35-1.84,3.63-2.82.38-3.63-1.24-6.67-1.92-9.88-1.24-6.07,2.1-10.6,5.77-14.71.81-.94,3.55-.9,5.09-.43a25.47,25.47,0,0,1,11.24,7.65c1.2,1.37,2.22,2.86,3.25,4.19,7.78-2,7.78-2,17.27,3.12,1-1.41,2.05-2.86,3.42-4.79a45.63,45.63,0,0,1,4.87,1.54c6.71,3,13.47,5.77,20.69,7.31,5.52,1.15,10.18,4.23,14.58,7.53A11.77,11.77,0,0,1,381.53,51.56Zm-7,9c3.12-4.57,3-6.71-.9-10.3a22.24,22.24,0,0,0-8.55-5.09c-6.67-2.1-13.17-4.7-19.8-6.93a20,20,0,0,0-4.92-.56,12,12,0,0,0-1.88,9.24c.86,5.73,12.48,20,18,22.36,4.53,1.92,9-.86,8.89-5.64a12.26,12.26,0,0,0-1.45-4.19c-1.75-4.19-6.11-5.43-9.53-7.4.73-2.52,2.27-2.52,3.81-2.14,3.72,1,6.24,3.68,8.59,6.54,1.71,2.05,3.42,4.15,5.17,6.29A15,15,0,0,0,374.52,60.54Zm-45-14.71c1.8-3,1-5.9-.51-8.68a4.72,4.72,0,0,0-6.24-2.22c-3.08,1.28-6.07,2.69-9.53,4.23-2.57-6.2-4.49-12.66-12.27-14-3.68,2.22-5,5.9-5.17,9.92-.26,7.57,6.33,11.54,12.87,8.08,1.07-.6,2.14-1.15,3.76-2,3.76,1.84,7.48,2.61,9.75,5.73-.13,2.22-.21,4.28-.3,6.71C326.38,52.41,327.75,48.91,329.54,45.83ZM320.05,74c2.18-5.47,1.2-10.73-1.62-15.78-.81-1.45-2-2.57-3.59-2.1a6.51,6.51,0,0,0-3.55,2.44,13.06,13.06,0,0,0-.64,9.83c1.07,3.59,2.86,6.71,7.05,8.21C318.51,75.76,319.62,75,320.05,74Zm-4.92-24.24a8.14,8.14,0,0,0,.64-2.14c0-.21-.9-.68-1.33-.64a20.48,20.48,0,0,0-3.55,1.2Zm-9.49,2.57c.26-.34,0-1.11,0-2.22a11,11,0,0,0-9.15-1.24c-3.55,1.11-6.63,2.91-8.51,6.29-.9,1.71-1.41,3.59.26,4.92a5.09,5.09,0,0,0,4,1A28.26,28.26,0,0,0,305.64,52.33Z" transform="translate(0)"/><path d="M378.16,89.1v0a0,0,0,0,1,0,0Z" transform="translate(0)"/><path class="cls-2" d="M355.58,205.61c1.24,13-9.58,28-23.52,28.86-5.17.3-10.13,1.24-15.43.13-12.87-2.65-21.59-13.85-20.35-27.11.21-2.1.94-4.15,1.37-6.24,1-5.22,2.35-8,10.69-5.94,2.22.56,4.28,2.74,6.88,1,.51-4.45-4.49-4.45-6.29-7.91.64-1.15,1.11-3,2.35-4.06,6.76-5.43,14.28-8,23-4.83,2,.68,4.15,1.15,6.07,2,6.11,2.69,10.82,6.84,12.7,13.47C354,198.47,355.28,202,355.58,205.61Z" transform="translate(0)"/><path class="cls-2" d="M335.83,265.59c5.73,5.3,7.65,11.12,6.46,18.81-1.41,9.19-7.27,15.18-13.17,21.38a5.81,5.81,0,0,1-2.35,1.33c-7.74,2.18-15.61,3-23.47,1.28a23.38,23.38,0,0,1-13.64-8.64c-.77-.94-1.33-2.05-2.1-3-3.51-3.93-7.27-7.82-5.9-13.64,1.54-6.54,3.21-13.17,9.92-16.72,1.28-.73,2.48-1.67,3.72-2.52,2.82,2.27,3,5.3,3.21,8.34.17,2.18.64,4.23,2.48,5.64a2.31,2.31,0,0,0,1.67.3c.47-.17,1.15-.81,1.15-1.2a22.45,22.45,0,0,0-.81-5.34c-1.2-4-1.37-7.7.94-11.42.77-1.24.73-3,1.24-4.36a3.37,3.37,0,0,1,4.36-2.31C318.73,256.62,328.3,258.63,335.83,265.59Z" transform="translate(0)"/><path class="cls-2" d="M325.4,166.4c.26,2.39-1.37,4.66-3.76,5.86-.56.3-1.11.51-1.67.77-12.23,5.9-12.23,5.9-19.75,14.67-1.07-.94-2.61-1.67-3.12-2.82-3.51-8.21-10.6-12.4-18-16.29-5.6-3-11.16-2.69-16.5.77-.86.56-1.58,1.33-1.15,2.31l-6.16,1c-.56-1.75-1.15-3.51-1.71-5.22a22.22,22.22,0,0,0-9.15-12.23c-2.44-1.62-4.87-3.16-7.35-4.62l9.06-1.88a6.45,6.45,0,0,0,3.08,1.58c6,1,12.06,2.27,18.13,2.48,9.62.34,15.65-5.3,15.86-15,0-.43,0-.9,0-1.33l3.55,0a18.42,18.42,0,0,0,.34,3.55c2-.86,3.42-1.24,4.7-2,4.23-2.48,8.81-2.44,13.38-1.8,5,.68,9.83,2.91,12.61,6.88C322.62,150,324.63,158.15,325.4,166.4Z" transform="translate(0)"/><path class="cls-2" d="M296.36,232.42c2.69,4.32,2.44,9.24,3.59,13.21-6.16,7.27-11.93,13.94-17.49,20.69-4.87,5.94-10.82,8.17-18.56,7.14-10.35-1.37-17.32-7.05-22.1-15.82-2.65-4.83-1.88-10.13-.81-15.22s4.53-10.18,10-15.22c3.51,1.45,5.13,4.87,7.27,7.7s3.85,5.47,7.78,6.63c3.68-5,6.37-10.18,5.94-16.63-.3-4.19-.94-8.51.73-12.48,8.89-1.92,11.5-.9,15.39,5.81C290.81,223,293.5,227.76,296.36,232.42Z" transform="translate(0)"/><path class="cls-2" d="M294.14,431.14a7.19,7.19,0,0,1,2.31,7.14c-1.37,6.2-2.35,13.17-9.28,17.36-3.38,2.05-6.54,3.16-10.3,1.58-1.67-.68-3.42-1.24-5.09-2-2.1-1-3.46-2.65-2.86-5.09,2-8.08.86-15.65-2.69-23.09-1.75-3.63-.64-5.77,3-7.23,1.41-.56,3-.77,4.36-1.33,4.83-1.84,8.59-1.41,11.8,3.42C287.64,425.42,291.11,428.15,294.14,431.14Z" transform="translate(0)"/><path class="cls-1" d="M283.75,197.57c2.48-1,4.87-2.48,8.34-1.5-1.07,4.36-2,8.34-3.29,13.68-7-3.72-13-3.72-18.68-1.92-11.29-7.18-13.51-11.2-11.89-22,1.41.56,2.82.81,3.81,1.62,3.55,2.86,6.84,6.07,10.43,8.85C275.88,199,279.78,199.19,283.75,197.57Z" transform="translate(0)"/><path class="cls-2" d="M291.92,187.05c-1.2.9-2.18,1.62-3.16,2.31-7.31,5.43-10.35,6.5-19.45-.68-.94-.77-1.8-1.67-2.74-2.48-1.8-1.62-3.46-3.63-5.56-4.7-3.08-1.58-4.45-3.93-5.22-7.05-.17-.6-.3-1.2-.47-1.8l6.16-1a2.38,2.38,0,0,0,.43.64c9.58-1.37,13.47-1.45,17.62,1.2C284.73,176.88,290.89,179.66,291.92,187.05Z" transform="translate(0)"/><path d="M285,115.35c2.14-.13,4.28,3.12,2.86,4.57-4.75,4.79-4.53,10.56-4.62,16.5,0,.43,0,.9,0,1.33-.21,9.71-6.24,15.35-15.86,15-6.07-.21-12.1-1.45-18.13-2.48a6.45,6.45,0,0,1-3.08-1.58,2,2,0,0,1-.56-.81c-1.2-3.68-4.28-4-7.18-4.79-7.44-1.92-12.1-6.8-14.71-13.81-1.15-3.16-2-6.46-3.33-9.53-1.88-4.15-1-7.7,1.71-11,1.15-1.41,2.35-2.78,3.51-4.15,4.49-.64,6.88,2.31,9.32,4.92,1.24,1.33,1.88,3.16,3,4.57,1.71,2.1,3.25,4.53,7.48,4.83,1.37-6.63,2-13,4.15-18.9s5.81-11.24,8.72-16.63c2.39-.3,3.12,1.2,3.33,2.69.56,4.19.94,8.47,1.24,12.7.6,7.61,1,15.22,1.58,22.83a11.18,11.18,0,0,0,1.07,3c3,.94,4.28-1,6-2.18,3-2.1,6-4.23,9.15-6A10.06,10.06,0,0,1,285,115.35Zm-12.53,32.71a10.56,10.56,0,0,0,6.67-10.82c-.51-3.81-1.62-7.57-2.61-12.1-10.22,4.7-16.2,12.87-23,21,3,3.72,6.16,3.25,9.11,3.63C266.18,150.24,269.39,149.34,272.51,148.06Zm-16.85-13.6c4.36-3.38,4.57-7.53,4.32-11.76-.43-7.27-1.07-14.49-1.71-21.76a31.24,31.24,0,0,0-.86-3.72c-3.93,1.28-4.83,4.4-5.34,7.18-1,5.64-1.62,11.37-2.14,17.1C249.46,126.68,252.41,130.4,255.66,134.46Zm-7.7,3.29c0-5.69-2.52-9.19-5.22-12.4-3.85-4.66-8.12-8.94-12.31-13.34-2.05-2.1-4.7-1.37-5.6,1.45a8.13,8.13,0,0,0-.64,3.55c1.07,6.93,2.82,13.64,7.48,19.15a10.09,10.09,0,0,0,9.83,3.46A57.47,57.47,0,0,0,248,137.75Z" transform="translate(0)"/><path class="cls-1" d="M265.28,212.19c3,6,3,12.91.68,19.41-.94,2.74-3.85,3-5.64.38a63.3,63.3,0,0,1-9.71-21.29c-.86-3.38.43-6.54,3-10.35C258.78,203.73,262.93,207.57,265.28,212.19Z" transform="translate(0)"/><path class="cls-2" d="M259.47,432.21c1,9.28-2.78,16.67-10.13,22.15-5.34,4-7.7,4.57-13.55,4.36-11.63.73-20.31-12.31-20-22.92a5.55,5.55,0,0,1,.68-2.65c3.89-5.86,7.87-11.76,15.18-13.72,4.66-1.24,9.32-2.52,14.37-1.33C253.31,419.81,258.7,424.86,259.47,432.21Z" transform="translate(0)"/><path class="cls-2" d="M249.12,165.72c2.44,6.93,5.22,14.37,2.82,21.38s-7.18,13.72-14.88,16.59c-10.13,3.76-19.8,3.51-27.79-5.17-2.48-2.74-5.22-5.22-7.53-8a16.58,16.58,0,0,1-3.59-6.29c-2.57-11.42-.6-22.92,9.53-30.31a10.34,10.34,0,0,1,4.92-2.27c3.33-.26,6.63-.09,9.58-2.22a4.48,4.48,0,0,1,2.65-.21c5.6.47,12.44,4.32,17.44,9.92-2.65,3.89-5,7.31-7.4,10.86,2.86,1.24,3.81-.81,5.22-1.71,1.8-1.15,3.29-2.69,5.13-3.76A2.6,2.6,0,0,1,249.12,165.72Z" transform="translate(0)"/><path class="cls-2" d="M245.23,205.78c2.35,3.16,1.54,6.67,1.33,9.79a11.14,11.14,0,0,1-2.65,6.58c-4.4,4.83-7.1,10.6-10.3,16.16-1.15,2.05-2.91,3.81-4.28,5.81-3.55,5-8.29,5.64-13.77,3.89a24.15,24.15,0,0,1-10.09-6,36.25,36.25,0,0,1-9-13.64,23.92,23.92,0,0,1-1.41-9.79c.3-3.85,1.8-7.61,2.82-11.8,6.67-.9,11.93-1.2,17.19,1.33,7.57,3.63,15.35,3.29,23.09.17C240.35,207.36,242.66,206.68,245.23,205.78Z" transform="translate(0)"/><path class="cls-2" d="M193.28,383.34c9.79,7,14.45,20.61,8.72,31.64-1,1.88-2.18,3.68-3.08,5.6-5.17,10.9-5.69,10-17.57,14.28a13.25,13.25,0,0,1-8,.21c-8.64-3.08-15.78-8.17-18.81-17.36a46.46,46.46,0,0,1-2.1-18.13,20.55,20.55,0,0,1,1.75-6.07c1.24-2.78,2.78-5.43,4.75-9.19,3.72.43,6.41-.81,9.06-3.38,3.38-3.29,7.91-3.29,11.8-.77,2.22,1.45,4.1,2.48,6.71,1.54S191.27,381.93,193.28,383.34Z" transform="translate(0)"/><path class="cls-2" d="M179,278.42c13,5.26,19.33,22.58,16.25,33.31,0,.26-.43.43-1.2,1.2-1.84-.56-4.06-1.2-6.33-1.8a25.78,25.78,0,0,0-5.3-1.24c-.9,0-1.92,1.07-2.61,1.88-.17.17.68,1.71,1.33,2,2.52,1.11,5.17,1.92,7.7,3a38.35,38.35,0,0,1,3.59,2.05c.17,1.07.56,1.88.3,2.22-10.65,13.47-21.38,16.5-36.09,6.8-4.53-3-8.17-7.31-12-11.24-2.61-2.74-3.33-6.16-3.46-10a31.78,31.78,0,0,1,7.23-22c2.52-3.08,5.13-6.11,9.45-6.76,1.2-.17,2.65-.38,3.38-1.15,3.46-3.51,7.14-2.61,11-1C174.51,276.63,176.78,277.48,179,278.42Z" transform="translate(0)"/><path class="cls-2" d="M176.61,364.53c1,1,1.33,2.57,2.39,5-2.78.94-4.45,1.92-6.16,2.05-11.24.73-18,7.82-24.07,16.2-.86,1.2-1.54,2.57-2.31,3.85-11.2,3.38-19.07-2.05-25.7-9.75-6.2-7.18-5.94-15.69-3.33-24.2.47-1.58,2.14-2.82,3.46-4,2.48-2.22,5.39-4,7.61-6.46,2.48-2.69,5.09-3,8.21-1.84,3.42,1.28,6.84,2.69,10.26,3.93,4,1.45,8,2.69,12,4.19A47.2,47.2,0,0,1,176.61,364.53Z" transform="translate(0)"/><path class="cls-2" d="M127.91,312.45c.3,2.69-.21,5.52-.17,8.25.17,9.66-4.1,17.49-9.79,24.88a10.11,10.11,0,0,1-8.72,4.15c-6.93,0-13.25-2.31-19.07-5.81a52.27,52.27,0,0,1-7.82-6.33,18.73,18.73,0,0,1-6.46-17.27c.38-3,.51-6.11,1.15-9.11,1.41-6.63,4.32-12.06,12.7-13.64-.51-4.62,1.62-6.84,5.39-7.65,4.75-1,9.49-2.31,14.28-2.91,7-.81,13.94,3.76,16.16,11C127,302.66,127.39,307.62,127.91,312.45Z" transform="translate(0)"/><path class="cls-3" d="M500.14,141.35c-.6-.56-1.15-1-1.75-1.5-2.18-1.67-4.57-3.08-6.67-4.83-4.53-3.93-4.83-5.73-2.57-12.06a25.8,25.8,0,0,0,.64-2.61c-5.47-.51-7,.09-8.81,4-1,2.18-1.84,4.53-2.69,6.8-3,7.82-12.27,10.82-20.78,5.52-3.25-2.05-5.3-9-4.23-13.3.51-2.05,1.24-4,2-6.5a26,26,0,0,0-5-2.31c-5.52-1.41-9.92-4.62-14-8.42-3-2.82-3-5.73.17-8.68a21.44,21.44,0,0,1,11.72-5.6,31.4,31.4,0,0,1,7-.3c3,.17,6,.68,9.45,1.07,1.5-3,2.82-5.69,4.23-8.34,3.08-5.77,11.12-8.21,16.59-4.87,3.76,2.27,4.92,6.16,4.75,10.3-.13,2.35-1,4.7-1.54,7,8.81,7.31,8.81,7.31,6.88,18.68,1.58.38,3.12.73,4.7,1.11" transform="translate(0)"/><path class="cls-3" d="M500.14,157.38a13.85,13.85,0,0,1,0-9.11" transform="translate(0)"/><path class="cls-3" d="M500.14,176.79c-.81,2.44-1.45,5-2.05,7.48-1.71,7.1-2.35,14.49-4.28,21.55-1.8,6.71-3.46,13.64-7.53,19.58a20.75,20.75,0,0,1-2.74,3.63c-4.15,4.15-8,3.93-11.59-.73-2.05-2.65-4.23-5.43-5.3-8.51-2.48-6.88-6-13.3-7.4-20.65a70.48,70.48,0,0,0-5.56-16.46c-5.73-12.31-9.24-25.23-11.93-38.39-.64-3-1.24-6-1.8-9.06,1.24-7.4-2.27-12-8.47-15.48a14.87,14.87,0,0,1-4.23-3.55,17.38,17.38,0,0,1-3.55-8.38,91.54,91.54,0,0,1-1-11.84c-.17-4.32,0-8.51-4-11.63-1.24-1-1.75-3.16-2.22-4.92-2.86-10.09-8.89-17.27-18.73-21.08a22.18,22.18,0,0,1-10.43-7.61A22.1,22.1,0,0,1,384,43.52a46.87,46.87,0,0,0-2.05-5.09,18.09,18.09,0,0,1,.51-15.09c1.92-4.06,3.08-8.47,4.79-13.25,5.94,2.86,9.24,8.21,13.51,12.27s8.59,8.55,13.38,13.43c.64-1.41,1.45-2.39,1.45-3.38,0-6.11,2.86-11.16,5.73-16.25,2.69-4.79,5.34-9.62,8.12-14.32.43-.73,1.41-1.07,2.1-1.54,7.05,4,13.81,11.54,16.29,18a16.78,16.78,0,0,1,.81,9.92c-1.28,5.47.21,10.26,3.16,14.79,1.5,2.31,2.57,4.92,4.15,7.14,6.71,9.75,4.19,19.37-.81,28.56A15.57,15.57,0,0,1,447,85.76a19.87,19.87,0,0,1-3.63,1.07c-4.79.9-9.58,1.58-14.49,2.39-2.74,8.34-2,16.29,1.2,24.16a13.32,13.32,0,0,0,5.86,6.84,7.12,7.12,0,0,0,5.17.9c4.28-.77,5.3.13,4.66,3.85-2.69,15.35,1.67,29.72,6.33,44,1.62,4.92,4.32,9.45,6.16,14.28,1.75,4.57,3,9.32,4.57,13.94,2.69,8.12,5.47,16.25,8.25,24.33a8.39,8.39,0,0,0,.77,1.67c2.82,5.09,6.33,5.47,9.79.64a37.34,37.34,0,0,0,4.75-8.81,65.61,65.61,0,0,0,3.81-13.21,173.64,173.64,0,0,1,9.92-37.15" transform="translate(0)"/><path class="cls-3" d="M378.16,89.14a0,0,0,0,1,0,0c-4.4-2.91-6.37-7.7-10.13-11.67.51,0,1-.13,1.45-.17,3.42-.13,5.22,1.37,10.13,7.61,3,3.81,6.37,7.48,6,13.08a35.1,35.1,0,0,0,4.7,1c7.82.73,13.72,4.92,18.94,10.3,3,3.08,5.94,6.07,8.72,9.32a57.11,57.11,0,0,1,7.27,10.56c2.35,4.53,6.33,8.21,9.75,12.1a9.34,9.34,0,0,1,2.27,4,7.25,7.25,0,0,1,.17,1.71,10.13,10.13,0,0,0,.47,3.59c2.48,7.57,1.92,15.09-.13,22.62a18.67,18.67,0,0,0,0,4.15c4.87,2.44,6.29,7.44,7.78,12.36,2.74,8.76,5.6,17.49,8.21,26.29a36.17,36.17,0,0,1,2,9.88,127.4,127.4,0,0,0,2.48,21A46.68,46.68,0,0,1,456,271.07c-.6,1.75-1.28,3.51-2.05,5.22-4.53,10-9.66,19.75-14.58,29.59-2.05,4.1-4.23,8.12-6.54,12.1a46.52,46.52,0,0,1-4.57,6.84c-2.44,3-4.87,3.21-7.78.34A93.66,93.66,0,0,1,411.29,315c-8.51-11.2-16.63-22.7-25.14-33.91A142.15,142.15,0,0,0,374,267.35c-2.1-2.1-5-3.38-7.65-5-2.86-1.75-5.9-3.25-8.64-5.17-6.2-4.4-12.27-9-18.34-13.64-3.08-2.31-6.2-3.59-10.22-2.48-3.08.86-6.54.47-9.88,3,6.41,4.57,12.19,9.06,18.34,12.83,3.51,2.14,6.76,4.4,8.72,7.87,4.75,8.38,11.37,15.26,18,21.93,12,12.1,21.51,25.82,29.59,40.66,4.79,8.85,9.32,17.83,13.9,26.81a23,23,0,0,1,1.58,16.08,146,146,0,0,0-3.55,25.35,81,81,0,0,1-1.24,9.06c-1.37,7.53-2.91,15-4.36,22.53-.17.9-.17,1.84-.43,2.74-3.46,11.67-4.1,12.36-15.09,8.85-6.37-2-13.25-2.57-19-6.46a17,17,0,0,1-4.75-4.1c-4.15-6-9.83-9.62-16.38-12.61-15-6.84-30.27-13.34-43.65-23.17-2.48-1.8-4.87-3.72-7.23-5.64-7.1-5.86-14-11.84-22.1-16.38a43.72,43.72,0,0,1-7.53-5.22c-10.43-9.28-22.66-15.43-35.44-20.78-5.64-2.35-11.2-4.79-17.23-6.07-4-.86-7.1-3.38-10.22-5.94-4.19-3.42-5.3-3.25-9.75-.38a96.55,96.55,0,0,1-9.32,5.81c-9.71,4.75-19.58,4.57-29.24.13-3-1.41-5.47-3.81-8.08-5.9-1.84-1.5-3.46-3.25-5.73-5.39-1.28,3.21-2.27,5.6-3.42,8.55a43.63,43.63,0,0,0,5.39,3.46c15.22,7.1,30.36,14.32,44.68,23.26,10.13,6.29,21.42,10.43,32.67,14.37,8.68,3,17.32,6.11,25.7,9.79,5.26,2.31,10,5.86,15.05,8.72a63.32,63.32,0,0,0,9,4.49,66.14,66.14,0,0,1,20.69,11.54c2.52,2.18,5.43,4.1,7.31,6.8a62.91,62.91,0,0,0,13.43,13.72,93.2,93.2,0,0,1,20.65,21.93A106.05,106.05,0,0,0,346.13,471,170.4,170.4,0,0,1,362,487.58a62.64,62.64,0,0,1,10.6,19.15c2.22,6.2,4.1,12.44,5.69,18.77" transform="translate(0)"/><path class="cls-3" d="M378.16,89.14c-.26,1.41-1.67,2.78,0,4.7Z" transform="translate(0)"/><path class="cls-3" d="M356.48,520.93c.47-1.11,1-2.27,1.45-3.38,3.08-7.57,2-15.18-2.1-22-5.3-9-12.4-16.63-19.5-24.29-2.91-3.12-5.73-6.29-8.59-9.45-1.24-1.37-2.39-2.78-3.72-4.06q-7.18-7.05-14.49-14a26.78,26.78,0,0,0-4.19-2.65c-1.15,2.78-2.18,4.92-3,7.14-3,8.25-9.53,12.44-17.19,15.26s-14.45,1.45-20.57-3.81a10.85,10.85,0,0,0-2.1-1.11c-6,1.75-12.44,3.59-18.86,5.52-6.67,2.05-13.25,1.58-19.88-.3-8.38-2.39-12.61-8.42-13.77-16.55-.86-5.73-.77-11.59-1.11-17.4-1.84-1.2-2.69.26-3.59,1.37-5.52,7.05-13,9.66-21.63,10.22a41,41,0,0,1-22.92-5,25,25,0,0,1-11.89-13.3c-3-7.4-5.39-14.88-5.34-23.3-4.23-.73-8.12-1.28-11.93-2.1-12.57-2.78-20.91-11.93-22.28-24.76-.51-4.83-.43-9.71-.6-14.32-2.65-3-6-3.55-9.24-4.36-2.35-.56-5-.6-7.1-1.71-5.47-2.86-10.56-1.8-15.82.38s-10.6,4.62-16.42,5.73c-3.12.6-5,2.78-6.41,5.9a38.27,38.27,0,0,1-14.62,17.19c-4.15,2.52-7.65,6-11.59,8.94-2.14,1.58-4.32,3.72-7.87,1.24,1.92-7.7,3.93-15.56,6.07-24.07-2.44-.21-4.4-.43-6.41-.6a19.94,19.94,0,0,1-3.63-.26,2.77,2.77,0,0,1-1.62-1.84,2.51,2.51,0,0,1,1.41-2,39.67,39.67,0,0,1,4.53-.3c1.37-.13,2.74-.38,5.22-.73-4.19-3.42-7.4-6.07-10.65-8.64-3.08-2.44-6.2-4.83-9.83-7.61C6,344.74,7,343,8,343c11.63-.21,23.39-.94,34.46,3.38,4.45,1.71,9.88,1.84,12.1,7,7.4-1.28,13.72-2.78,19.88-6.84-2.65-3.51-5.9-4.66-8.81-5.9-8.17-3.46-16.63-6.24-24.71-9.79-8.64-3.81-17.83-6.63-25.35-12.7a25.84,25.84,0,0,1-3.51-2.91c-1.11-1.15-1.67-2.91-.34-4.06a7.34,7.34,0,0,1,4.06-1.37,3.55,3.55,0,0,1,2.44,1.11,84.15,84.15,0,0,0,31.51,16.2c3.51.94,6.71,3,10.13,4.28,3,1.2,6,3,10.18,2.48a23.72,23.72,0,0,0-.3-4.45,29.2,29.2,0,0,0-2.05-5.13,19.84,19.84,0,0,1-.51-17.7,22.22,22.22,0,0,0,.77-3c-2.31-4.49-5.69-7.4-11.12-8.17a68.38,68.38,0,0,1-35.32-16.25c-4.15-3.55-9.24-6-13.94-8.85-1.28-.81-2.74-1.33-4.06-2.1-2.65-1.58-3.93-3.81-3-5,1.5-1.75,3.33-1.07,5.09-.51,1.41.51,2.78,1.33,4.19,1.8,4.32,1.54,8.64,3.12,13,4.36a23.32,23.32,0,0,1,9.71,5c4.66,4.19,10.3,6.67,16.16,8.51s11.37,4.23,16,8.55c1.71,1.62,4.15,2.52,5.9,3.55,3.72-.86,7.1-1.28,10.18-2.44,3.68-1.37,7.7-2.69,10.6-5.17,6.67-5.81,14.32-6,22.36-5.52a25.22,25.22,0,0,0,3.59-.13c.21,0,.38-.38.9-1-2.82-4.49-7.35-7.61-10.69-11.29a7.59,7.59,0,0,0-2.31,0c-12.4,6-23.73,4.15-34-4.75-3.72-3.21-7.27-6.54-11.84-8.55-.86-.43-2-2.14-1.75-2.65.56-1.24,1.88-2.1,3-3,.17-.17.6-.17.9-.17,10,.86,20.27-.94,29.8,3.63a28.88,28.88,0,0,0,4.1,1.37c-.21,2.69-2,2.61-3.42,2.27a16.79,16.79,0,0,1-4.92-2.35c-5.22-3.46-10.3-2.78-15.95.34,1,1.75,1.62,3.51,2.78,4.75,5.34,5.81,12.36,7.78,20,7.53a10.62,10.62,0,0,0,5.69-2.48c1.88-1.45,3.25-3.55,5-5.56a18.48,18.48,0,0,0-1.8-4.19c-1.28-2.14-2.82-4.06-4.1-6.11-4.45-7.23-5.13-14.88-2.74-22.92.81-2.65,2.39-4.23,5.43-4.1,5.77,4.53,9.28,12,17.19,14.62,2.35-3,2.65-6.41,3.76-9.49.94-2.61,1.8-5.22,2.91-7.74,1.54-3.59,4.92-4.1,7.05-.94,4.23,6.29,6.54,13.13,5,20.82-1.75,8.76-3.93,17.27-10.48,24-3.46,3.59-4.32,7.87-1.67,12.57,2.1,3.72,3.76,7.74,5.86,11.42a4.94,4.94,0,0,0,7.23,1.37,16.46,16.46,0,0,0,3.89-3.81,39.66,39.66,0,0,1,25.31-17.19,54.45,54.45,0,0,1,30.1,17.44,9.2,9.2,0,0,0,2.05,1.84,59.72,59.72,0,0,1,20,18.38c.47.68,1.45,1,2.14,1.5,3-.81,4.36-3.38,6.2-5.39,2.91-3.12,5.81-6.29,8.89-9.24,3.59-3.33,6.5-2.18,7.27,2a21.85,21.85,0,0,0,1.67,5.22,25.57,25.57,0,0,1,.21,22.19,8.26,8.26,0,0,0-.51,1.75c-.09.26,0,.6.17,1.45,4.79,2.31,10.18,2.05,15.48,1.75,2.18,4.36,2.22,4.36,1,9.79-5.22,2.14-11.8,2.44-15.69,8.42,1.37,1.45,2.35,3,3.81,3.93,22.62,14.54,45.24,29.16,68.07,43.4,12.19,7.65,24.71,14.67,37.07,22,5.26,3.12,10.48,6.33,15.73,9.45,5.6,3.29,8.55,3,12.7-1.84a43.83,43.83,0,0,0,9.75-19.5c1.92-8.68,4-17.32,5.09-26.12,1.24-9.71.94-19.45-4.4-28.39a79.74,79.74,0,0,1-5.26-11.67c-2.35-6-6-11.24-9.32-16.76-4.92-8.17-10.9-15.48-16.67-23-3.12-4.06-6.88-7.65-10.95-12.1-1.11,2.74-2.18,4.57-2.61,6.5-1.8,8.29-6.33,14.67-13.6,18.68a97.15,97.15,0,0,1-17.49,7.91c-7.05,2.22-13.94-.51-20.48-3a30,30,0,0,1-11.72-8.68c-1-1.15-1.84-2.44-2.82-3.63-7.65-9.71-7.65-9.71-9-21.34-3.12-1.58-6.58-1.28-9.83-1.15-10.56.47-18.17-4.57-24.11-12.57-3.25-4.36-5.94-9.19-8.81-13.68-.51-.13-.86-.3-1.11-.21-11.93,4.28-22.23-.51-32.15-6.16a19.35,19.35,0,0,1-6.63-7.35,41.28,41.28,0,0,1-4.87-23.9,28.11,28.11,0,0,1,5-13.6c1.71-2.57,3.51-5,5.47-7.87a33.58,33.58,0,0,1-3.93-23.73,110.11,110.11,0,0,1,3.21-13.34,13.46,13.46,0,0,1,4-6c7.74-6.16,17.44-10,28.9-4.53,2.61,1.24,5.17,2.61,7.7,4.06s4.92,3,7.35,4.62a22.22,22.22,0,0,1,9.15,12.23c.56,1.71,1.15,3.46,1.71,5.22.17.6.3,1.2.47,1.8.77,3.12,2.14,5.47,5.22,7.05,2.1,1.07,3.76,3.08,5.56,4.7.94.81,1.8,1.71,2.74,2.48,9.11,7.18,12.14,6.11,19.45.68,1-.68,2-1.41,3.16-2.31-1-7.4-7.18-10.18-12.4-13.55-4.15-2.65-8-2.57-17.62-1.2a2.38,2.38,0,0,1-.43-.64c-.43-1,.3-1.75,1.15-2.31,5.34-3.46,10.9-3.81,16.5-.77,7.35,3.89,14.45,8.08,18,16.29.51,1.15,2.05,1.88,3.12,2.82,7.53-8.76,7.53-8.76,19.75-14.67.56-.26,1.11-.47,1.67-.77,2.39-1.2,4-3.46,3.76-5.86-.77-8.25-2.78-16.42-7.53-23.26-2.78-4-7.57-6.2-12.61-6.88-4.57-.64-9.15-.68-13.38,1.8-1.28.73-2.69,1.11-4.7,2a18.42,18.42,0,0,1-.34-3.55.82.82,0,0,1,.13-.34c.77-1.2,2.1-2.61,3.33-2.82,10.56-1.54,20.78-1.2,29.63,6a11.1,11.1,0,0,1,4,5.94c2.22,8.21,4.45,16.42,7.05,25.91,1.28,1.45,4.49,1.5,7.35,2.39,9.62,3,16,9.32,20.61,18.17,6.46,12.36,4.62,23.64-3.33,34.38-2.86,3.85-6.2,7.4-9.71,11.59a23,23,0,0,0,2.69,2.78c9.83,7.23,19.88,14.24,29.59,21.68,5.09,3.89,9.71,8.42,14.45,12.74,3.16,2.86,6,6.11,9.36,8.76a149.73,149.73,0,0,1,19,18.51c4.19,4.66,7.18,4.49,11-.68A84.4,84.4,0,0,0,439.6,290a112.68,112.68,0,0,0,10.73-32c1.45-8.55.56-17.1-1.67-25.44-1.8-6.84-4.23-13.51-5.43-20.39-1.28-7.65-4.7-14.49-7.05-21.72A38.5,38.5,0,0,0,433.4,185c-4,2.86-7.78,5.26-11.16,8.12-5.47,4.66-11.72,6.29-18.68,6.16-6.71-.17-13.43.47-19.71-3-3-1.67-5.77-3.29-7.91-6-5.69-7.31-10.52-15.05-12.7-24.16-1.8-7.4-.38-14.11,2.48-21.34,4-10,12.57-13.51,20.74-18,1.2-.68,3-.34,4.45-.38,5.77-.26,11.54-.51,18-.77-.64-1.71-.77-3-1.45-3.76-5-5.43-10-10.73-15.09-16-.43-.43-.9-1-1.41-1.11-6.33-1.5-13.43-2.91-18.51,1.24-7.35,6.07-13.85,5-21,.86a30.57,30.57,0,0,1-4.57-3.08c-4.28-3.46-8.55-7-12.57-10.69-1.75-1.58-2.91-3.81-4.32-5.73,1.28-4.28,4.49-6,8-7.18,8.68-3,16.89-1.8,24.54,3.16,2.31,1.5,4.53,3.21,6.88,4.53,2.74,1.54,5.52,2.74,8.72,1.33h0v0" transform="translate(0)"/><path class="cls-3" d="M404.54,132.07c-5.13.34-8.17.51-11.2.77-10.56.94-18.6,5.39-22.15,16a33.15,33.15,0,0,1-1.41,3.38,20.57,20.57,0,0,0,0,16.08c4.83,12.1,13.77,20.05,26.34,23.3,4.32,1.11,9.06.86,13.6.64s8.08-2.27,11.2-5.52a56.11,56.11,0,0,0,10.35-15c2.35-4.92,2.44-9.79,1-15.14-2.31-8.72-8.81-14.41-14.19-20.91-1.24-1.5-3.63-2.27-5.64-2.69A63.83,63.83,0,0,0,404.54,132.07Z" transform="translate(0)"/><path class="cls-3" d="M315.22,196.29c-2.61,1.75-4.66-.43-6.88-1-8.34-2.05-9.66.73-10.69,5.94-.43,2.1-1.15,4.15-1.37,6.24-1.24,13.25,7.48,24.46,20.35,27.11,5.3,1.11,10.26.17,15.43-.13,13.94-.86,24.76-15.86,23.52-28.86C355.28,202,354,198.47,353,195c-1.88-6.63-6.58-10.77-12.7-13.47-1.92-.86-4.06-1.33-6.07-2-8.68-3.12-16.2-.6-23,4.83-1.24,1-1.71,2.91-2.35,4.06C310.73,191.84,315.73,191.84,315.22,196.29Z" transform="translate(0)"/><path class="cls-3" d="M89.73,297.58c-8.38,1.58-11.29,7-12.7,13.64-.64,3-.77,6.07-1.15,9.11a18.73,18.73,0,0,0,6.46,17.27,52.27,52.27,0,0,0,7.82,6.33c5.81,3.51,12.14,5.86,19.07,5.81a10.11,10.11,0,0,0,8.72-4.15c5.69-7.4,10-15.22,9.79-24.88,0-2.74.47-5.56.17-8.25-.51-4.83-.94-9.79-2.35-14.41-2.22-7.27-9.19-11.84-16.16-11-4.79.6-9.53,1.88-14.28,2.91C91.35,290.73,89.21,293,89.73,297.58Z" transform="translate(0)"/><path class="cls-3" d="M295.3,263.93c-1.24.86-2.44,1.8-3.72,2.52-6.71,3.55-8.38,10.18-9.92,16.72-1.37,5.81,2.39,9.71,5.9,13.64.77.9,1.33,2,2.1,3a23.38,23.38,0,0,0,13.64,8.64c7.87,1.75,15.73.9,23.47-1.28a5.81,5.81,0,0,0,2.35-1.33c5.9-6.2,11.76-12.19,13.17-21.38,1.2-7.7-.73-13.51-6.46-18.81-7.53-7-17.1-9-26.29-12a3.37,3.37,0,0,0-4.36,2.31c-.51,1.41-.47,3.12-1.24,4.36-2.31,3.72-2.14,7.44-.94,11.42a22.45,22.45,0,0,1,.81,5.34c0,.38-.68,1-1.15,1.2a2.31,2.31,0,0,1-1.67-.3c-1.84-1.41-2.31-3.46-2.48-5.64C298.29,269.23,298.12,266.19,295.3,263.93Z" transform="translate(0)"/><path class="cls-3" d="M194.09,312.92c.77-.77,1.15-.94,1.2-1.2,3.08-10.73-3.25-28-16.25-33.31-2.27-.94-4.53-1.8-6.76-2.78-3.85-1.62-7.53-2.52-11,1-.73.77-2.18,1-3.38,1.15-4.32.64-6.93,3.68-9.45,6.76a31.78,31.78,0,0,0-7.23,22c.13,3.89.86,7.31,3.46,10,3.81,3.93,7.44,8.29,12,11.24,14.71,9.71,25.44,6.67,36.09-6.8.26-.34-.13-1.15-.3-2.22a38.35,38.35,0,0,0-3.59-2.05c-2.52-1-5.17-1.84-7.7-3-.64-.3-1.5-1.84-1.33-2,.68-.81,1.71-1.88,2.61-1.88a25.78,25.78,0,0,1,5.3,1.24C190,311.73,192.25,312.37,194.09,312.92Z" transform="translate(0)"/><path class="cls-3" d="M242.28,159.09c-5-5.6-11.84-9.45-17.44-9.92a4.48,4.48,0,0,0-2.65.21c-3,2.14-6.24,2-9.58,2.22a10.34,10.34,0,0,0-4.92,2.27c-10.13,7.4-12.1,18.9-9.53,30.31a16.58,16.58,0,0,0,3.59,6.29c2.31,2.82,5,5.3,7.53,8,8,8.68,17.66,8.94,27.79,5.17,7.7-2.86,12.44-9.45,14.88-16.59s-.38-14.45-2.82-21.38a2.6,2.6,0,0,0-3.89-1.24c-1.84,1.07-3.33,2.61-5.13,3.76-1.41.9-2.35,3-5.22,1.71C237.28,166.4,239.63,163,242.28,159.09Z" transform="translate(0)"/><path class="cls-3" d="M158.9,384.33c-2,3.76-3.51,6.41-4.75,9.19a20.55,20.55,0,0,0-1.75,6.07,46.46,46.46,0,0,0,2.1,18.13c3,9.19,10.18,14.28,18.81,17.36a13.25,13.25,0,0,0,8-.21c11.89-4.28,12.4-3.38,17.57-14.28.9-1.92,2.1-3.72,3.08-5.6,5.73-11,1.07-24.67-8.72-31.64-2-1.41-4.19-2.57-6.8-1.62s-4.49-.09-6.71-1.54c-3.89-2.52-8.42-2.52-11.8.77C165.32,383.51,162.62,384.75,158.9,384.33Z" transform="translate(0)"/><path class="cls-3" d="M300,245.63c-1.15-4-.9-8.89-3.59-13.21-2.86-4.66-5.56-9.45-8.29-14.19-3.89-6.71-6.5-7.74-15.39-5.81-1.67,4-1,8.29-.73,12.48.43,6.46-2.27,11.63-5.94,16.63-3.93-1.15-5.77-3.93-7.78-6.63s-3.76-6.24-7.27-7.7c-5.43,5-8.89,10-10,15.22s-1.84,10.39.81,15.22c4.79,8.76,11.76,14.45,22.1,15.82,7.74,1,13.68-1.2,18.56-7.14C288,259.57,293.8,252.9,300,245.63Z" transform="translate(0)"/><path class="cls-3" d="M179,369.49c-1.07-2.39-1.41-4-2.39-5A47.2,47.2,0,0,0,159,353.46c-4-1.5-8-2.74-12-4.19-3.42-1.24-6.84-2.65-10.26-3.93-3.12-1.15-5.73-.86-8.21,1.84-2.22,2.44-5.13,4.23-7.61,6.46-1.33,1.2-3,2.44-3.46,4-2.61,8.51-2.86,17,3.33,24.2,6.63,7.7,14.49,13.13,25.7,9.75.77-1.28,1.45-2.65,2.31-3.85,6-8.38,12.83-15.48,24.07-16.2C174.55,371.41,176.22,370.43,179,369.49Z" transform="translate(0)"/><path class="cls-3" d="M197.85,206.76c-1,4.19-2.52,8-2.82,11.8a23.92,23.92,0,0,0,1.41,9.79,36.25,36.25,0,0,0,9,13.64,24.15,24.15,0,0,0,10.09,6c5.47,1.75,10.22,1.15,13.77-3.89,1.37-2,3.12-3.76,4.28-5.81,3.21-5.56,5.9-11.33,10.3-16.16a11.14,11.14,0,0,0,2.65-6.58c.21-3.12,1-6.63-1.33-9.79-2.57.9-4.87,1.58-7.1,2.48-7.74,3.12-15.52,3.46-23.09-.17C209.78,205.57,204.52,205.86,197.85,206.76Z" transform="translate(0)"/><path class="cls-3" d="M235.78,458.72c5.86.21,8.21-.34,13.55-4.36,7.35-5.47,11.16-12.87,10.13-22.15-.77-7.35-6.16-12.4-13.43-14.11-5-1.2-9.71.09-14.37,1.33-7.31,2-11.29,7.87-15.18,13.72a5.55,5.55,0,0,0-.68,2.65C215.47,446.41,224.15,459.45,235.78,458.72Z" transform="translate(0)"/><path class="cls-3" d="M185.2,370.86c1.62,3,4.83,3.55,7.4,4.83,11.07,5.69,16.67,14.88,17.79,27.06.6,6.37,1.54,12.78-.38,19.11-.13.34.51.9.9,1.5,3-.51,4.62-3,6-5.17,2.86-4.4,6.84-5.69,11.72-5.81a46.2,46.2,0,0,0,9.06-1.2c4.4-1.11,5.26-2.44,5.69-7.1.6-7.23-.9-10-7.27-13.21-1.92-.94-4-1.5-6-2.27-4.83-1.92-9.83-3.51-14.41-5.9-9.19-4.87-18.9-8.42-28.48-12.31C186.78,370.22,186.1,370.6,185.2,370.86Z" transform="translate(0)"/><path class="cls-3" d="M296.45,438.28a7.19,7.19,0,0,0-2.31-7.14c-3-3-6.5-5.73-8.81-9.24-3.21-4.83-7-5.26-11.8-3.42-1.41.56-3,.77-4.36,1.33-3.59,1.45-4.7,3.59-3,7.23,3.55,7.44,4.7,15,2.69,23.09-.6,2.44.77,4.06,2.86,5.09,1.67.77,3.42,1.33,5.09,2,3.76,1.58,6.93.47,10.3-1.58C294.1,451.45,295.08,444.48,296.45,438.28Z" transform="translate(0)"/><path class="cls-3" d="M445.11,41.13c-1.28.73-2,.86-2.31,1.33-6.24,10.09-11.63,20.61-14.37,32.28a20.74,20.74,0,0,0-.38,5.43,3.53,3.53,0,0,0,3.33,3.68c6.93.34,13.43-1.2,18.43-6.2,6.16-6.11,7.87-16.72,4.06-24.58A35.14,35.14,0,0,0,445.11,41.13Z" transform="translate(0)"/><path class="cls-3" d="M430.06,54.72a10.76,10.76,0,0,0,2.48-2.05,85.94,85.94,0,0,0,4.49-8c2.22-4.7,4.45-9.36,6.33-14.19,1.67-4.45,1.8-9.19-.68-13.3s-4.57-8.64-10-9.92c-4,3-5.94,7.23-8.34,11-5.6,8.81-5.26,18.51-3.42,28.26.38,2.05,1.45,4.06,4.7,4.28a19.86,19.86,0,0,0,1.88-3.55c1.58-5.6,3.12-11.16,3-17.06,0-1.28.56-2.31,2.52-2C436,37.32,431.69,45.36,430.06,54.72Z" transform="translate(0)"/><path class="cls-3" d="M390.47,18.42c-4.15,5-6.58,9.62-5.81,14.92,1.2,8.25,4.66,15.65,11.2,21.25,3.55,3.08,7.4,4.1,11.54.94,1.41-1.07,3-1.92,4.57-3C412.4,36.47,401.5,28,390.47,18.42Z" transform="translate(0)"/><path class="cls-3" d="M500.14,120.87c-3.16,0-5.26,1.5-6.41,4.62a7.25,7.25,0,0,0,3.46,9.36,22.76,22.76,0,0,0,3,1.28" transform="translate(0)"/><path class="cls-3" d="M367.38,101.33c-3.63-.6-6.24-1-8.85-1.54-1.15-.26-2.48-.73-1.62-2.91,3.85-.17,8-.34,12.78-.51-.68-2.14-.73-3.93-1.67-4.79-4.45-4.23-9.24-8.17-15.43-9.36a24.78,24.78,0,0,0-9,.43c-2.57.51-5.26,1.45-6.41,4.06.21.94.13,1.75.51,2.05,5,4.45,9.88,9,15.18,13.13,2.05,1.62,4.92,2.39,7.53,3.12S365.07,104.79,367.38,101.33Z" transform="translate(0)"/><path class="cls-3" d="M114.57,263.11c5.39-2.82,5.64-3.08,6.24-5.9,1.11-5.09.21-9.83-3.59-13.47-4.83-4.57-10-8.76-15.09-13-.3-.3-1.11,0-2.18.13-2.31,6-.9,11.67,2.74,16.8S110.38,257.73,114.57,263.11Z" transform="translate(0)"/><path class="cls-3" d="M288.8,209.76c1.28-5.34,2.22-9.32,3.29-13.68-3.46-1-5.86.51-8.34,1.5-4,1.62-7.87,1.41-11.29-1.24-3.59-2.78-6.88-6-10.43-8.85-1-.81-2.39-1.07-3.81-1.62-1.62,10.77.6,14.79,11.89,22C275.84,206,281.83,206,288.8,209.76Z" transform="translate(0)"/><path class="cls-3" d="M238.64,298.47c-9.32,6.54-14.45,14.67-15.69,24.58a20,20,0,0,0,14.11,0c5.09-1.8,8.51-8.17,7.05-13.38A29.31,29.31,0,0,0,238.64,298.47Z" transform="translate(0)"/><path class="cls-3" d="M253.57,200.35c-2.52,3.81-3.81,7-3,10.35A63.3,63.3,0,0,0,260.32,232c1.8,2.57,4.7,2.35,5.64-.38,2.27-6.5,2.35-13.38-.68-19.41C262.93,207.57,258.78,203.73,253.57,200.35Z" transform="translate(0)"/><path class="cls-3" d="M454.86,96c-4.75-.13-8.29.43-11.46,2.52s-3.55,6.16-.51,8.42c2.86,2.14,6,4.4,9.36,5.43,8.89,2.74,12.83-.81,11.76-9.88-.38-3.55-2.14-5.43-5.64-6.11A27.58,27.58,0,0,0,454.86,96Z" transform="translate(0)"/><path class="cls-3" d="M459,126.51a34.35,34.35,0,0,0,0,3.63c.43,4.7,4,6.76,8.34,5.09,5.17-1.92,7.4-5.94,8.17-11,.47-3.29-2.14-7.31-4.87-7.78C464.18,115.31,459,119.8,459,126.51Z" transform="translate(0)"/><path class="cls-3" d="M427.84,59.9c-3.16-2.44-6.41-4.92-10.26-7.87-1.41,3-2.69,5.34-3.59,7.82a4.53,4.53,0,0,0,.26,3.42,45.78,45.78,0,0,0,3.85,6.11c1.5,2.05,1.88,5,5,6.58.86-2,1.71-3.55,2.22-5.17C426.34,67.38,427.84,64,427.84,59.9Z" transform="translate(0)"/><path class="cls-3" d="M30.12,380.22c5.47-1.67,10-4.28,13.25-8.85a31,31,0,0,0,3-5.47,2.57,2.57,0,0,0-2.86-3.42A63.21,63.21,0,0,0,36.79,365a9.92,9.92,0,0,0-5.86,5.34C29.61,373.34,28.54,376.5,30.12,380.22Z" transform="translate(0)"/><path class="cls-3" d="M202.81,296.85c.43,7.65,4.53,14,7.78,20.69.56,1.11,2.18,1.71,3.25,2.48,3.55-2.57,4.06-5.6,2.82-9.06-2.31-6.54-6.84-11.12-12.7-14.58C203.84,296.34,203.5,296.59,202.81,296.85Z" transform="translate(0)"/><path class="cls-3" d="M479.19,99.62c3.38-3.08,5.6-6.29,6.24-10.35a5.27,5.27,0,0,0-2.31-5.56,5.35,5.35,0,0,0-6,.17A11.1,11.1,0,0,0,471.58,95C474,96.5,476.49,98,479.19,99.62Z" transform="translate(0)"/><path class="cls-3" d="M475.64,114.32c2.82,2.31,5.6,3.38,8.17,2a24.18,24.18,0,0,0,6.88-5.77c1.41-1.67,1-4.1-.47-5.94a4.24,4.24,0,0,0-5-1.11C480.17,105.22,475.43,107.36,475.64,114.32Z" transform="translate(0)"/><path class="cls-3" d="M127.74,252.25c1.2-1.37,2.44-2.1,2.65-3,1.07-5.34,2.05-10.69,2.69-16.08.3-2.61.34-5.64-2.69-7.1-1.88-.94-4.23,2-5.26,6.24C123.5,239,125.34,245.29,127.74,252.25Z" transform="translate(0)"/><path class="cls-3" d="M232.44,330.28c-2.14,3.12-2.14,5.17,0,6.58a11.57,11.57,0,0,0,9.62,1.8c4-1.07,8.25-1.84,11.07-6.2C246.17,328,239.07,332.25,232.44,330.28Z" transform="translate(0)"/><path class="cls-3" d="M21.4,349.82c.09.64-.09,1.41.26,1.71a21.08,21.08,0,0,0,13,5.39c3,.21,5.81-.68,7-4.1-4.36-3.93-9.66-3.76-14.62-4.53C25,348,22.81,347.77,21.4,349.82Z" transform="translate(0)"/><path class="cls-3" d="M261.26,402.33c.56,4.06,1.2,6.84,3.89,8,2.86,1.33,5.69.43,8.68-1.67C270.58,404.47,266.44,403.52,261.26,402.33Z" transform="translate(0)"/><path class="cls-3" d="M215.9,330.37c0,.6-.09,1.2-.09,1.8a47.23,47.23,0,0,0,4.7,2.22,2.42,2.42,0,0,0,3.38-1.88,2.21,2.21,0,0,0-2.18-3A52.93,52.93,0,0,0,215.9,330.37Z" transform="translate(0)"/><path class="cls-3" d="M252.41,405.06c-1,6.46-1.07,6.54.9,8.12,1.11.9,2.61,1.62,4-.56a24.86,24.86,0,0,0-1.33-3C255.23,408.44,254.25,407.37,252.41,405.06Z" transform="translate(0)"/><path class="cls-3" d="M471.45,103.42c-2.05,1.67-3.81,3.08-1.88,6.33C471.79,108,473.37,106.5,471.45,103.42Z" transform="translate(0)"/><path class="cls-3" d="M201.62,322.07c-.68.86-1,1.24-1.33,1.62.86.6,1.62,1.24,2.52,1.75,0,0,.9-.9.81-1A24.54,24.54,0,0,0,201.62,322.07Z" transform="translate(0)"/><path class="cls-3" d="M305.21,240.67a15.9,15.9,0,0,1-.81-1.45c-.26.17-.68.34-.68.51a9.94,9.94,0,0,0,.17,1.58C304.32,241.1,304.74,240.88,305.21,240.67Z" transform="translate(0)"/><path class="cls-3" d="M457.85,420.5a2.76,2.76,0,0,1,2,1.07c2,4.62,4.45,8.76,4.06,14.49-1,14.62-.81,29.33-1.07,44h.43c0,8.59-.09,17.15,0,25.7.09,7.44-.3,14.84-.86,22.19" transform="translate(0)"/><path class="cls-3" d="M369.13,70.67c-6.46,2.39-15.91.81-20.57-3.76-4.15-4.1-8-8.47-11.93-12.7-1-1.07-2.14-2.1-3.81-3.76-2.1,2.48-3.46,4.15-4.83,5.73a10.89,10.89,0,0,0-2.82,9.24,23.42,23.42,0,0,1-.94,9.88c-2.31,7.27-7.87,8.29-13.13,2.86a19.74,19.74,0,0,1-5.43-9.41c-.47-2-1.15-4-1.84-6.24-4.19-.51-7.18,1.92-10.56,3.08-3.21,1.15-6,.64-8.34-1.88-4.1-4.36-3.93-7.65.51-11.67,1.37-1.24,2.86-2.31,4.32-3.46,1.15-.94,2.35-1.84,3.63-2.82.38-3.63-1.24-6.67-1.92-9.88-1.24-6.07,2.1-10.6,5.77-14.71.81-.94,3.55-.9,5.09-.43a25.47,25.47,0,0,1,11.24,7.65c1.2,1.37,2.22,2.86,3.25,4.19,7.78-2,7.78-2,17.27,3.12,1-1.41,2.05-2.86,3.42-4.79a45.63,45.63,0,0,1,4.87,1.54c6.71,3,13.47,5.77,20.69,7.31,5.52,1.15,10.18,4.23,14.58,7.53a11.77,11.77,0,0,1,3.85,4.28c1.15,2.48.68,5.17-1.41,8.42a34.53,34.53,0,0,1-7.74,8.94A11.87,11.87,0,0,1,369.13,70.67Z" transform="translate(0)"/><path class="cls-3" d="M354.38,52c.73-2.52,2.27-2.52,3.81-2.14,3.72,1,6.24,3.68,8.59,6.54,1.71,2.05,3.42,4.15,5.17,6.29a15,15,0,0,0,2.57-2.18c3.12-4.57,3-6.71-.9-10.3a22.24,22.24,0,0,0-8.55-5.09c-6.67-2.1-13.17-4.7-19.8-6.93a20,20,0,0,0-4.92-.56,12,12,0,0,0-1.88,9.24c.86,5.73,12.48,20,18,22.36,4.53,1.92,9-.86,8.89-5.64a12.26,12.26,0,0,0-1.45-4.19C362.17,55.24,357.8,54,354.38,52Z" transform="translate(0)"/><path class="cls-3" d="M312.44,41.17c3.76,1.84,7.48,2.61,9.75,5.73-.13,2.22-.21,4.28-.3,6.71,4.49-1.2,5.86-4.7,7.65-7.78s1-5.9-.51-8.68a4.72,4.72,0,0,0-6.24-2.22c-3.08,1.28-6.07,2.69-9.53,4.23-2.57-6.2-4.49-12.66-12.27-14-3.68,2.22-5,5.9-5.17,9.92-.26,7.57,6.33,11.54,12.87,8.08C309.75,42.54,310.82,42,312.44,41.17Z" transform="translate(0)"/><path class="cls-3" d="M317.7,76.61c.81-.86,1.92-1.58,2.35-2.61,2.18-5.47,1.2-10.73-1.62-15.78-.81-1.45-2-2.57-3.59-2.1a6.51,6.51,0,0,0-3.55,2.44,13.06,13.06,0,0,0-.64,9.83C311.71,72,313.51,75.12,317.7,76.61Z" transform="translate(0)"/><path class="cls-3" d="M305.64,50.11a11,11,0,0,0-9.15-1.24c-3.55,1.11-6.63,2.91-8.51,6.29-.9,1.71-1.41,3.59.26,4.92a5.09,5.09,0,0,0,4,1,28.26,28.26,0,0,0,13.38-8.72C305.9,52,305.64,51.22,305.64,50.11Z" transform="translate(0)"/><path class="cls-3" d="M310.9,48.18l4.23,1.58a8.14,8.14,0,0,0,.64-2.14c0-.21-.9-.68-1.33-.64A20.48,20.48,0,0,0,310.9,48.18Z" transform="translate(0)"/><path class="cls-3" d="M246.17,148.7a2,2,0,0,1-.56-.81c-1.2-3.68-4.28-4-7.18-4.79-7.44-1.92-12.1-6.8-14.71-13.81-1.15-3.16-2-6.46-3.33-9.53-1.88-4.15-1-7.7,1.71-11,1.15-1.41,2.35-2.78,3.51-4.15,4.49-.64,6.88,2.31,9.32,4.92,1.24,1.33,1.88,3.16,3,4.57,1.71,2.1,3.25,4.53,7.48,4.83,1.37-6.63,2-13,4.15-18.9s5.81-11.24,8.72-16.63c2.39-.3,3.12,1.2,3.33,2.69.56,4.19.94,8.47,1.24,12.7.6,7.61,1,15.22,1.58,22.83a11.18,11.18,0,0,0,1.07,3c3,.94,4.28-1,6-2.18,3-2.1,6-4.23,9.15-6a10.06,10.06,0,0,1,4.36-1c2.14-.13,4.28,3.12,2.86,4.57-4.75,4.79-4.53,10.56-4.62,16.5,0,.43,0,.9,0,1.33-.21,9.71-6.24,15.35-15.86,15-6.07-.21-12.1-1.45-18.13-2.48A6.45,6.45,0,0,1,246.17,148.7Z" transform="translate(0)"/><path class="cls-3" d="M248,137.75c0-5.69-2.52-9.19-5.22-12.4-3.85-4.66-8.12-8.94-12.31-13.34-2.05-2.1-4.7-1.37-5.6,1.45a8.13,8.13,0,0,0-.64,3.55c1.07,6.93,2.82,13.64,7.48,19.15a10.09,10.09,0,0,0,9.83,3.46A57.47,57.47,0,0,0,248,137.75Z" transform="translate(0)"/><path class="cls-3" d="M253.61,146.09c3,3.72,6.16,3.25,9.11,3.63,3.46.51,6.67-.38,9.79-1.67a10.56,10.56,0,0,0,6.67-10.82c-.51-3.81-1.62-7.57-2.61-12.1C266.35,129.84,260.36,138,253.61,146.09Z" transform="translate(0)"/><path class="cls-3" d="M257.41,97.22c-3.93,1.28-4.83,4.4-5.34,7.18-1,5.64-1.62,11.37-2.14,17.1-.47,5.17,2.48,8.89,5.73,13,4.36-3.38,4.57-7.53,4.32-11.76-.43-7.27-1.07-14.49-1.71-21.76A31.24,31.24,0,0,0,257.41,97.22Z" transform="translate(0)"/><path class="cls-3" d="M410.18,532.95c0-1.54,0-3.08,0-4.62.3-7,.64-14,1-21h.73c0-9.75,0-19.54,0-29.29a43.52,43.52,0,0,1,3.72-16.8c.34-.86,1.84-1.5,2.86-1.62.56-.09,1.71,1,1.88,1.75a23.84,23.84,0,0,1,.64,6.24,96.92,96.92,0,0,0,1.24,22.79c.68,3.46,0,7.27-.34,10.86-.81,9.06-3.46,17.91-2.61,27.15.17,2,.43,3.93.64,5.9" transform="translate(0)"/><path class="cls-3" d="M466.79,273.59c.64-1.88,1.37-3.72,2.18-5.56,1-2.18,2.52-2.48,4.62-.09-5.9,9.49-6.11,20.52-6.8,31.43-.21,3.68-.9,7.27-1.37,10.9-.77,5.73-2.05,11.5-2.18,17.23a262.1,262.1,0,0,1-4.32,40.06c-1.88,10.69-1.41,21.29-.38,31.94.43,4.53.68,9.11.81,13.68,0,.51-1.2,1.5-1.84,1.5s-1.88-.94-1.88-1.5c-.77-14.92-2.69-29.76-.47-44.72,2-13.3,2.86-26.72,4.28-40.1.81-7.57,1.71-15.18,2.52-22.75.56-4.87,1.15-9.71,1.54-14.58A73.12,73.12,0,0,1,466.79,273.59Z" transform="translate(0)"/></g></g></svg>