<svg xmlns="http://www.w3.org/2000/svg" viewBox="0 0 1921.79 1436.46"><defs><style>.cls-1,.cls-2{fill:#f9e4ee;}.cls-1{opacity:0.3;}.cls-2{opacity:0.6;}</style></defs><title>waves</title><g id="Layer_2" data-name="Layer 2"><g id="Layer_1-2" data-name="Layer 1"><path class="cls-1" d="M1920.16,105.1a269.51,269.51,0,0,0-76.32-18c-336.35-27.26-508-160.33-788.25-32.4C813.28,165.29,502.5-17.52,187.08,91.34,91.72,124.26,17,122.23.27,129.12L1.38,1317.9c223.66,67.44,525.23,89.58,874.06-9.2,433.25-122.68,752.88,144.56,1046,126.92Z"/><path class="cls-2" d="M1919.86,249.71c-48.83-38.45-110.49-68.39-193-60.35-303.42,29.56-431.55-145-684.49-34.52-218.71,95.51-566.48-6.77-865.84,25.91C123,186.59,38.62,209.59,0,241.44l1.74,974.88c209.38,80.33,515.88,123.95,880,25.6,438.39-118.4,748.7,187.62,1040,94.64Z"/></g></g></svg>